<?xml version="1.0" encoding="utf-8"?>
<!-- Generator: Adobe Illustrator 18.1.0, SVG Export Plug-In . SVG Version: 6.00 Build 0)  -->
<svg version="1.1" id="Layer_1" xmlns="http://www.w3.org/2000/svg" xmlns:xlink="http://www.w3.org/1999/xlink" x="0px" y="0px"
	 viewBox="0 0 128 35.5" enable-background="new 0 0 128 35.5" xml:space="preserve">
<text transform="matrix(1 0 0 1 44.7427 26.1064)" fill="#6C6D6D" font-family="'OpenSans-Semibold'" font-size="14.2906">Developers</text>
<g>
	<path fill-rule="evenodd" clip-rule="evenodd" fill="#666666" d="M66.9,10.2c0.1,0,0.1-0.1,0.1-0.2c-0.2-0.7-1.1-1-1.8-0.7
		c-0.6,0.2-1,0.9-1,1.5c0,0.9,0.7,1.7,1.6,1.7c0.4,0,0.7-0.1,1-0.2c0.1-0.1,0.4-0.3,0.4-0.4c0,0,0,0-0.1,0.1
		c-0.2,0.1-0.5,0.1-0.8,0.2c-0.5,0-0.9-0.3-1.1-0.7c-0.2-0.3-0.3-0.5-0.3-0.9c0-0.5,0.1-1,0.6-1.2c0.4-0.1,0.7,0.1,0.8,0.5
		c0.1,0.2,0,0.2-0.1,0.3l-1.3,0.5l0.4,0C65.8,10.7,66.4,10.5,66.9,10.2"/>
	<path fill-rule="evenodd" clip-rule="evenodd" fill="#666666" d="M62.9,7.6h1c-0.1,0.1-0.2,0.1-0.2,0.2c0,0.1-0.1,0.2-0.1,0.3
		c-0.1,1.3,0,2.6,0,3.9c0,0.4,0.1,0.3,0.6,0.3c-0.1,0.1-0.2,0.2-0.3,0.2c-0.4,0-0.8,0-1.2,0c0.2-0.2,0.2-0.3,0.2-0.7
		c0-1.4,0-2.7,0-4c-0.2,0-0.4,0-0.6,0C62.5,7.8,62.7,7.6,62.9,7.6"/>
	<path fill-rule="evenodd" clip-rule="evenodd" fill="#666666" d="M61.1,12.7c0.1,0.1,0.1,0.1,0.2,0.1c0.4,0.3,0.5,0.6,0.5,0.9
		c0,0.4-0.4,0.6-1,0.7c-0.6,0-1.4-0.2-1.3-1c0.1-0.4,0.7-0.7,1.1-0.7C60.9,12.7,61,12.7,61.1,12.7 M62.5,9.4l-0.4,0.3h-0.5
		c0.2,0.1,0.4,0.3,0.4,0.6c0.1,0.2,0.1,0.5,0,0.7c-0.1,0.2-0.3,0.4-0.5,0.6c-0.1,0.1-0.2,0.2-0.2,0.3c0,0.3,0.3,0.5,0.6,0.7
		c0.5,0.4,0.7,0.9,0.3,1.5c-0.3,0.5-1,0.8-1.7,0.8c-0.9,0-1.5-0.4-1.5-1c0-0.7,0.7-1.1,1.4-1.2c0.2,0,0.4,0,0.5,0
		c-0.2-0.2-0.3-0.5-0.2-0.7c0-0.1,0,0,0,0c-0.6,0.1-1.2-0.3-1.3-0.8c-0.1-0.3,0-0.6,0.1-0.8c0.2-0.5,0.8-0.8,1.3-0.8
		C61.4,9.3,61.9,9.3,62.5,9.4 M61.5,10.6c0.1,0.4,0,0.9-0.4,1c-0.4,0.1-0.9-0.2-1-0.8c-0.2-0.6,0-1,0.4-1.2
		C60.9,9.5,61.4,9.9,61.5,10.6"/>
	<path fill-rule="evenodd" clip-rule="evenodd" fill="#666666" d="M57.2,9.3c1.1,0,1.7,0.7,1.7,1.6c0.1,0.9-0.7,1.6-1.5,1.7
		c-1,0.1-2-0.6-2-1.7C55.5,10,56.3,9.3,57.2,9.3 M58.3,11c0.1,0.6-0.1,1.2-0.7,1.4c-0.6,0.1-1.2-0.4-1.4-1.2
		c-0.2-0.9,0.1-1.5,0.7-1.6C57.5,9.3,58.2,10,58.3,11"/>
	<path fill-rule="evenodd" clip-rule="evenodd" fill="#666666" d="M53.4,9.3c1.1,0,1.7,0.7,1.8,1.6c0.1,0.9-0.7,1.6-1.6,1.7
		c-1.1,0.1-2-0.6-2-1.7C51.6,10,52.4,9.3,53.4,9.3 M54.5,11c0.1,0.6-0.2,1.2-0.7,1.4c-0.6,0.1-1.2-0.4-1.4-1.2
		c-0.2-0.9,0.1-1.5,0.7-1.6C53.7,9.3,54.4,10,54.5,11"/>
	<path fill-rule="evenodd" clip-rule="evenodd" fill="#666666" d="M50.6,8.8l0.5-0.5c-0.9-0.7-2.3-0.8-3.3-0.3
		c-0.9,0.4-1.5,1.3-1.5,2.2c0,1,0.6,1.8,1.1,2.2c1,0.7,2.7,0.5,3.7,0l0-0.1h0v-1.1l0.2-0.3h-1.5l-0.6,0.3l1.1,0v0.9
		c0,0.1,0,0.2-0.2,0.2c-0.3,0.1-0.6,0.1-1,0.1c-1.1-0.1-1.9-0.9-2.1-2c-0.2-1,0.3-1.9,1.1-2.3C48.6,8,49.1,7.9,49.6,8
		c0.3,0.1,0.6,0.3,0.9,0.5l-0.2,0.3L50.6,8.8z"/>
</g>
<g>
	<g>
		<radialGradient id="SVGID_1_" cx="32.996" cy="5.6763" r="18.2503" gradientUnits="userSpaceOnUse">
			<stop  offset="0" style="stop-color:#0DA960"/>
			<stop  offset="1" style="stop-color:#03914B"/>
		</radialGradient>
		<path fill="url(#SVGID_1_)" d="M36.6,21.6c0.3,0.4,0.3,1.1,0,1.6l3.2-5.3c0.3-0.5,0.3-1.2,0-1.7l-5.1-8.5c-0.3-0.5-1-0.9-1.5-0.9
			h-4.5c-0.5,0-0.8,0.4-0.5,0.9l3.2,5.3c0,0,0,0.1,0.1,0.1L36.6,21.6z"/>
		<radialGradient id="SVGID_2_" cx="33.6084" cy="17.1152" r="13.5368" gradientUnits="userSpaceOnUse">
			<stop  offset="0" style="stop-color:#FFCD4D"/>
			<stop  offset="1" style="stop-color:#F6C338"/>
		</radialGradient>
		<path fill="url(#SVGID_2_)" d="M28.8,27.3h4.5c0.5,0,1.2-0.4,1.5-0.9l2-3.3c0.2-0.5,0.2-1.2,0-1.6l-3.3-5.4c0.3,0.5,0.3,1.2,0,1.7
			l-3.2,5.3c0,0,0,0.1,0,0.1l-1.9,3.2C28,27,28.2,27.3,28.8,27.3z"/>
		<linearGradient id="SVGID_3_" gradientUnits="userSpaceOnUse" x1="37.8872" y1="19.7427" x2="32.124" y2="19.7427">
			<stop  offset="0" style="stop-color:#231F20;stop-opacity:0.2"/>
			<stop  offset="1" style="stop-color:#F1F2F2;stop-opacity:0.25"/>
		</linearGradient>
		<path fill="url(#SVGID_3_)" d="M36.6,21.6l-3.3-5.4c0.3,0.5,0.3,1.2,0,1.7l-1.1,1.9l4.4,3.4C36.9,22.8,36.9,22.1,36.6,21.6z"/>
	</g>
	<g>
		
			<radialGradient id="SVGID_4_" cx="-103.2951" cy="75.5186" r="18.2511" gradientTransform="matrix(-1 0 0 -1 -82.2246 104.0488)" gradientUnits="userSpaceOnUse">
			<stop  offset="0" style="stop-color:#4387FD"/>
			<stop  offset="1" style="stop-color:#4683EA"/>
		</radialGradient>
		<path fill="url(#SVGID_4_)" d="M17.4,12.6c-0.3-0.4-0.3-1.1,0-1.6l-3.2,5.3c-0.3,0.5-0.3,1.2,0,1.7l5.1,8.5c0.3,0.5,1,0.9,1.5,0.9
			h4.5c0.6,0,0.8-0.4,0.5-0.9l-3.2-5.3c0,0,0-0.1-0.1-0.1L17.4,12.6z"/>
		
			<radialGradient id="SVGID_5_" cx="-102.6831" cy="86.9569" r="13.5375" gradientTransform="matrix(-1 0 0 -1 -82.2246 104.0488)" gradientUnits="userSpaceOnUse">
			<stop  offset="0" style="stop-color:#E04A3F"/>
			<stop  offset="1" style="stop-color:#CD372D"/>
		</radialGradient>
		<path fill="url(#SVGID_5_)" d="M25.3,6.9h-4.5c-0.5,0-1.2,0.4-1.5,0.9l-2,3.3c-0.2,0.5-0.2,1.2,0,1.6l3.3,5.4
			c-0.3-0.5-0.3-1.2,0-1.7l3.2-5.3c0,0,0-0.1,0-0.1l1.9-3.2C26,7.2,25.8,6.9,25.3,6.9z"/>
		
			<linearGradient id="SVGID_6_" gradientUnits="userSpaceOnUse" x1="-98.4041" y1="89.5849" x2="-104.1679" y2="89.5849" gradientTransform="matrix(-1 0 0 -1 -82.2246 104.0488)">
			<stop  offset="0" style="stop-color:#231F20;stop-opacity:0.2"/>
			<stop  offset="1" style="stop-color:#F1F2F2;stop-opacity:0.25"/>
		</linearGradient>
		<path fill="url(#SVGID_6_)" d="M17.4,12.6l3.3,5.4c-0.3-0.5-0.3-1.2,0-1.7l1.1-1.9L17.4,11C17.2,11.4,17.2,12.1,17.4,12.6z"/>
	</g>
</g>
</svg>
