<?xml version="1.0" encoding="utf-8"?>
<!-- Generator: Adobe Illustrator 18.1.0, SVG Export Plug-In . SVG Version: 6.00 Build 0)  -->
<svg version="1.1" id="Layer_1" xmlns="http://www.w3.org/2000/svg" xmlns:xlink="http://www.w3.org/1999/xlink" x="0px" y="0px"
	 viewBox="0 0 792 612" enable-background="new 0 0 792 612" xml:space="preserve">
<g>
	<g>
		<path fill="#1C3687" d="M348.3,281.5h9.1v-9.1h3.7v9.1h9.1v3.2H361v9.1h-3.7v-9.1h-9.1V281.5z"/>
	</g>
	<g>
		<path fill="#1C3687" d="M456.1,279.7c1.1-0.2,1.3-0.3,1.4-1.5l0.1-2.2c0.1-2.8-1-5.5-5.8-5.5c-2.1,0-4.9,0.9-4.9,2.6
			c0,1.2-0.6,2.7-1.1,3.3c-1.5,1.8-3.5,1.6-4.2,1.1c-0.6-0.4-0.9-1-0.9-1.7c0-4.1,6-8.6,13.7-8.6c5.5,0,8.6,3.4,8.6,8.3l-0.3,12.3
			c-0.2,3.5,0.7,7.6,3.7,7.6c0.8,0,1.5-0.2,1.9-0.5c0.4-0.2,0.8-0.5,1-0.5c0.3,0,0.5,0.5,0.5,1c0,0.4-2.7,3.4-6.4,3.4
			c-1.8,0-3.7-0.7-5-2.4c-0.3-0.5-0.8-1.1-1.2-1.1c-0.5,0-1.6,1-3.2,1.8c-1.7,0.9-3.1,1.7-5.8,1.7c-2.2,0-4.2-0.6-5.5-1.7
			c-1.5-1.3-2.4-3.2-2.4-5.4c0-3,1.3-6.8,5.6-8.9C449.9,280.9,456.1,279.7,456.1,279.7z M451,294.6c1.5,0,4.4-1.3,5.2-2.1
			c0.9-0.9,1.2-2.6,1.2-4.3l0.1-4.7c0-0.8-0.3-1-0.8-1c-0.5,0-2.1,0.2-3.5,0.6c-4.5,1.5-7.1,3.7-7.1,7.4
			C446,292.5,447.1,294.6,451,294.6z"/>
		<path fill="#1C3687" d="M419.3,276.2c0-3,0-2.7-2.1-4.1l-0.7-0.5c-0.3-0.3-0.3-1.2,0.1-1.4c1.8-0.6,5.9-2.6,7.8-3.8
			c0.4,0.1,0.6,0.2,0.6,0.5v4.5c0,0.4,0.1,0.6,0.2,0.7c2.7-2.2,5.4-4.4,8.2-4.4c1.9,0,3.4,1.2,3.4,3.1c0,2.5-2,3.4-3.2,3.4
			c-0.8,0-1.1-0.2-1.7-0.5c-1.1-0.8-2.2-1.2-3.3-1.2c-1.2,0-2.3,0.8-2.9,1.6c-0.8,1.1-0.8,2.9-0.8,5.6l0,10.1c0,5.5,0.2,6.5,3.1,6.7
			l2.8,0.3c0.5,0.4,0.4,1.8-0.1,2c-3.6-0.2-5.9-0.2-8.5-0.2c-2.8,0-5.1,0.1-7.1,0.2c-0.5-0.2-0.7-1.5-0.2-1.9l1.5-0.4
			c2.8-0.5,2.9-1.2,2.9-6.7L419.3,276.2z"/>
		<path fill="#1C3687" d="M559.5,276.2c0-3,0-2.7-2.1-4.1l-0.7-0.5c-0.3-0.3-0.3-1.2,0.1-1.4c1.8-0.6,5.9-2.6,7.8-3.8
			c0.4,0.1,0.6,0.2,0.6,0.5v4.5c0,0.4,0.1,0.6,0.2,0.7c2.7-2.2,5.4-4.4,8.2-4.4c1.9,0,3.4,1.2,3.4,3.1c0,2.5-2,3.4-3.2,3.4
			c-0.8,0-1.1-0.2-1.7-0.5c-1.1-0.8-2.2-1.2-3.3-1.2c-1.2,0-2.3,0.8-2.9,1.6c-0.8,1.1-0.8,2.9-0.8,5.6l0,10.1c0,5.5,0.2,6.5,3.1,6.7
			l2.8,0.3c0.5,0.4,0.4,1.8-0.1,2c-3.6-0.2-5.9-0.2-8.5-0.2c-2.8,0-5.1,0.1-7.1,0.2c-0.5-0.2-0.7-1.5-0.2-1.9l1.5-0.4
			c2.9-0.5,2.9-1.2,2.9-6.7L559.5,276.2z"/>
		<path fill="#1C3687" d="M483.3,276.3V290c0,5.5,0.2,6.1,2.9,6.5l1.6,0.2c0.5,0.4,0.4,1.9-0.2,2.1c-2.3-0.2-4.5-0.2-7.2-0.2
			c-2.8,0-5.1,0.1-7.2,0.2c-0.5-0.2-0.7-1.8-0.2-2.1l1.6-0.2c2.9-0.4,2.9-0.9,2.9-6.5v-13.3"/>
		<path fill="#1C3687" d="M477.6,288.5v-13.3c0-5.1-0.3-5.3-1.2-5.5l-1.7-0.3c-0.5-0.4-0.4-2.4,0.2-2.4c2.2,0,2.8,0,5.6,0
			c2.7,0,2.8,0,5.3,0.1c0.6,0,0.6,1.8,0.1,2.2l-1.9,0.6c-0.5,0.2-0.7,0.6-0.7,5.5v13.7"/>
		<path fill="#1C3687" d="M497.2,276.6c0-3.1,0-3.4-2.1-4.8l-0.7-0.5c-0.3-0.3-0.3-1.2,0.1-1.4c1.8-0.6,6.2-2.6,7.7-3.8
			c0.3,0,0.7,0.2,0.8,0.5c-0.2,1.8-0.2,2.9-0.2,3.6c0,0.5,0,0.8,0.5,0.8c3.2-2,6.6-3.8,10.9-3.8c7,0,9.3,4.3,9.3,9.5V290
			c0,5.5,0.2,6.1,2.9,6.5l1.7,0.2c0.5,0.4,0.4,1.9-0.2,2.1c-2.3-0.2-4.5-0.2-7.2-0.2c-2.8,0-5.1,0.1-7.2,0.2
			c-0.5-0.2-0.7-1.8-0.2-2.1l1.5-0.2c2.9-0.5,2.9-0.9,2.9-6.5v-11.5c0-5-1.9-6.9-6.5-6.9c-3.3,0-6.4,2.6-7.5,4c-1,1.3-1,1.7-1,3.9
			V290c0,5.5,0.2,6,2.9,6.5l1.4,0.2c0.5,0.4,0.4,1.9-0.2,2.1c-2.1-0.2-4.3-0.2-7-0.2c-2.8,0-5.1,0.1-7.2,0.2
			c-0.5-0.2-0.7-1.8-0.2-2.1l1.6-0.2c2.9-0.4,2.9-0.9,2.9-6.5V276.6z"/>
		<path fill="#1C3687" d="M541.6,271.3c-1.3,0-1.4,0-1.4,1.6v14.3c0,4.5,0.5,8.5,5.6,8.5c0.8,0,1.5-0.2,2.1-0.4
			c0.7-0.2,1.7-1.1,1.9-1.1c0.6,0,0.9,0.8,0.8,1.3c-1.4,1.6-4.2,3.5-8.1,3.5c-6.6,0-8-3.7-8-8.3l0-17.6c0-2.1-1.1-1.9-2.7-1.9h-2.5
			c-0.5-0.3-0.5-1.6-0.2-2.1c2.2-0.7,5.5-1.6,6.3-2.3c1-0.9,2.5-2.9,3.3-4.5c0.4-0.2,1.3-0.2,1.6,0.4v3.5c0,1.4,0.1,1.5,1.4,1.5h8.5
			c0.9,0.7,0.8,3.1,0.1,3.6H541.6z"/>
		<path fill="#1C3687" d="M586.5,279.1c-2,0-2.1,0.2-2.1,2.1c0,7.8,4.7,13.7,12.9,13.7c2.5,0,4.7-0.8,7.1-3.8
			c0.8-0.2,1.3,0.2,1.4,0.9c-2.5,5.2-8.1,7.2-12.1,7.2c-5,0-8.9-2.2-11.2-5.1c-2.3-3-3.5-6.4-3.5-9.8c0-9.5,5.1-17.7,15.7-17.7
			c6.6,0,11,4.5,11,9.1c0,1.1,0,2.2-0.5,2.8c-0.4,0.5-1.3,0.5-4.5,0.5H586.5z M591.5,276c5.7,0,7.8-0.3,8.1-0.7
			c0.2-0.2,0.3-0.6,0.3-1.6c0-2.2-1.5-4.6-6-4.6c-4.3,0-8.4,3.9-8.5,6.4c0,0.2,0,0.4,0.5,0.4H591.5z"/>
		<path fill="#1C3687" d="M617.2,279.1c-2,0-2.1,0.2-2.1,2.1c0,7.8,4.7,13.7,12.9,13.7c2.5,0,4.7-0.8,7.1-3.8
			c0.8-0.2,1.3,0.2,1.4,0.9c-2.5,5.2-8.1,7.2-12.1,7.2c-5,0-8.9-2.2-11.2-5.1c-2.3-3-3.5-6.4-3.5-9.8c0-9.5,5.1-17.7,15.7-17.7
			c6.6,0,11,4.5,11,9.1c0,1.1,0,2.2-0.5,2.8c-0.4,0.5-1.3,0.5-4.5,0.5H617.2z M622.2,276c5.7,0,7.8-0.3,8.1-0.7
			c0.2-0.2,0.3-0.6,0.3-1.6c0-2.2-1.5-4.6-6-4.6c-4.3,0-8.4,3.9-8.5,6.4c0,0.2,0,0.4,0.5,0.4H622.2z"/>
		<path fill="#1C3687" d="M384,269c0-5.6-0.1-6.2-2.8-6.5l-1.5-0.2c-0.4-0.4-0.4-1.3,0.1-1.6c2.6-0.2,6.8-0.5,13.2-0.5
			c4.9,0,8.7,0.5,11.3,2c2.7,1.6,4,3.9,4,7.5c0,3.4-2.5,6-6.5,7.3c-0.2,0.1-0.3,0.2-0.3,0.3c0,0.1,0.1,0.2,0.5,0.3
			c4.4,0.7,9.3,3.5,9.3,10.1c0,2.7-0.9,5.6-3.5,7.7c-2.7,2.3-6.5,3.2-13.1,3.2c-2.5,0-5-0.2-7.2-0.2c-2.5,0-5.3,0.1-7.8,0.2
			c-0.5-0.2-0.5-1.3-0.1-1.7l1.3-0.2c2.7-0.3,3.2-0.5,3.2-6.7V269z M390.7,275.4c0,1.5,0.2,1.6,2.5,1.6c5.4,0,7.9-2.1,7.9-7.3
			c0-5.1-3.8-7.1-7.3-7.1c-2.9,0-3.1,0.1-3.1,2.4V275.4z M390.7,289c0,5.3,0.6,7.4,5.6,7.4c4,0,7.5-2.6,7.5-7.8
			c0-6-4.1-9.5-10.5-9.5c-2.5,0-2.7,0.3-2.7,1.5V289z"/>
		<g>
			<g>
				<circle fill="#1C3687" cx="480.1" cy="242.5" r="4.1"/>
				<circle fill="#1C3687" cx="480.1" cy="258.4" r="4.1"/>
			</g>
			<g>
				<circle fill="#1C3687" cx="488" cy="250.4" r="4.1"/>
				<circle fill="#1C3687" cx="472.1" cy="250.4" r="4.1"/>
			</g>
		</g>
	</g>
	<g>
		<g>
			<g>
				<g>
					<path fill="#009EDD" d="M278.9,259h-14.2c-1,0-1.8,0.7-2,1.7l-5.8,36.5c-0.1,0.7,0.4,1.4,1.2,1.4h7.3c0.7,0,1.3-0.5,1.4-1.2
						l1.6-10.3c0.2-1,1-1.7,2-1.7h4.5c9.4,0,14.8-4.5,16.2-13.5c0.6-3.9,0-7-1.8-9.2C287.3,260.3,283.7,259,278.9,259z M280.6,272.4
						c-0.8,5.1-4.7,5.1-8.5,5.1H270l1.5-9.5c0.1-0.6,0.6-1,1.2-1h1c2.6,0,5,0,6.2,1.5C280.6,269.3,280.8,270.6,280.6,272.4z"/>
					<path fill="#1C3687" d="M177.4,259h-14.2c-1,0-1.8,0.7-2,1.7l-5.8,36.5c-0.1,0.7,0.4,1.4,1.2,1.4h6.8c1,0,1.8-0.7,2-1.7
						l1.6-9.8c0.2-1,1-1.7,2-1.7h4.5c9.4,0,14.8-4.5,16.2-13.5c0.6-3.9,0-7-1.8-9.2C185.8,260.3,182.2,259,177.4,259z M179.1,272.4
						c-0.8,5.1-4.7,5.1-8.5,5.1h-2.1l1.5-9.5c0.1-0.6,0.6-1,1.2-1h1c2.6,0,5,0,6.2,1.5C179.1,269.3,179.3,270.6,179.1,272.4z"/>
					<path fill="#1C3687" d="M219.9,272.2h-6.8c-0.6,0-1.1,0.4-1.2,1l-0.3,1.9l-0.5-0.7c-1.5-2.1-4.8-2.9-8.1-2.9
						c-7.5,0-14,5.7-15.2,13.7c-0.7,4,0.3,7.8,2.5,10.5c2.1,2.4,5,3.5,8.6,3.5c6.1,0,9.4-3.9,9.4-3.9l-0.3,1.9
						c-0.1,0.7,0.4,1.4,1.2,1.4h6.1c1,0,1.8-0.7,2-1.7l3.7-23.3C221.2,272.9,220.7,272.2,219.9,272.2z M210.5,285.5
						c-0.7,3.9-3.7,6.5-7.7,6.5c-2,0-3.6-0.6-4.6-1.8c-1-1.2-1.4-2.9-1.1-4.8c0.6-3.9,3.8-6.6,7.6-6.6c1.9,0,3.5,0.6,4.5,1.9
						C210.3,281.9,210.7,283.6,210.5,285.5z"/>
					<path fill="#009EDD" d="M321.5,272.2h-6.8c-0.6,0-1.1,0.4-1.2,1l-0.3,1.9l-0.5-0.7c-1.5-2.1-4.8-2.9-8.1-2.9
						c-7.5,0-14,5.7-15.2,13.7c-0.7,4,0.3,7.8,2.5,10.5c2.1,2.4,5,3.5,8.6,3.5c6.1,0,9.4-3.9,9.4-3.9l-0.3,1.9
						c-0.1,0.7,0.4,1.4,1.2,1.4h6.1c1,0,1.8-0.7,2-1.7l3.7-23.3C322.7,272.9,322.2,272.2,321.5,272.2z M312,285.5
						c-0.7,3.9-3.7,6.5-7.7,6.5c-2,0-3.6-0.6-4.6-1.8c-1-1.2-1.4-2.9-1.1-4.8c0.6-3.9,3.8-6.6,7.6-6.6c1.9,0,3.5,0.6,4.5,1.9
						C311.9,281.9,312.3,283.6,312,285.5z"/>
					<path fill="#1C3687" d="M256.2,272.2h-6.9c-0.7,0-1.3,0.3-1.6,0.9l-9.4,13.9l-4-13.4c-0.3-0.8-1-1.4-1.9-1.4h-6.7
						c-0.8,0-1.4,0.8-1.1,1.6l7.5,22.1l-7.1,10c-0.6,0.8,0,1.9,1,1.9h6.8c0.6,0,1.3-0.3,1.6-0.9l22.8-32.9
						C257.8,273.3,257.2,272.2,256.2,272.2z"/>
				</g>
			</g>
			<g>
				<path fill="#009EDD" d="M329.5,260l-5.8,37.2c-0.1,0.7,0.4,1.4,1.2,1.4h5.9c1,0,1.8-0.7,2-1.7l5.8-36.5c0.1-0.7-0.4-1.4-1.2-1.4
					h-6.6C330.1,259,329.6,259.5,329.5,260z"/>
			</g>
		</g>
	</g>
</g>
<g>
	<g>
		<path fill="#9CA1A5" d="M305.3,324.2h6.7c5.3,0,9.6,0.7,13.3,4.3c3.5,3.5,4.6,8.3,3.8,13.6c-0.9,5.2-3.5,9.8-8,13.3
			c-4.9,3.8-9.2,4.5-14.8,4.5h-6.6L305.3,324.2z M307.1,356.2c4.4,0,8.1-0.6,11.9-3.7c3.4-2.7,5.4-6.5,6.1-10.5
			c0.6-4.1-0.3-8-2.9-10.7c-2.8-2.9-6.3-3.5-10.6-3.5h-2.9l-4.5,28.3H307.1z"/>
		<path fill="#9CA1A5" d="M333.9,349.6c-0.6,4.1,1.8,7.4,6.1,7.4c3.2,0,5.6-1.9,7.5-4.6l2.9,1.8c-2.7,4-6.7,6.2-11.3,6.2
			c-6.6,0-10.1-5.1-9.1-11.5c1-6.6,5.8-12,12.7-12c7.1,0,10,5.9,8.6,12.5H333.9z M347.8,346.4c0-3.2-2.3-5.8-5.6-5.8
			c-3.3,0-6.7,2.6-7.7,5.8H347.8z"/>
		<path fill="#9CA1A5" d="M361,352.6l9-15h4.3l-14.6,23.7l-7.2-23.7h4.3L361,352.6z"/>
		<path fill="#9CA1A5" d="M375.6,349.6c-0.6,4.1,1.8,7.4,6.1,7.4c3.2,0,5.6-1.9,7.5-4.6l2.9,1.8c-2.7,4-6.7,6.2-11.3,6.2
			c-6.6,0-10.1-5.1-9.1-11.5c1-6.6,5.8-12,12.7-12c7.1,0,10,5.9,8.6,12.5H375.6z M389.6,346.4c0-3.2-2.3-5.8-5.6-5.8
			c-3.3,0-6.7,2.6-7.7,5.8H389.6z"/>
		<path fill="#9CA1A5" d="M402.4,348.8c1-6.5,7.1-11.8,13.6-11.8c6.5,0,10.8,5.3,9.8,11.8c-1,6.5-7.1,11.7-13.5,11.7
			S401.4,355.3,402.4,348.8z M406.2,348.8c-0.7,4.5,1.9,8.2,6.6,8.2c4.7,0,8.5-3.7,9.2-8.2c0.7-4.5-1.9-8.2-6.6-8.2
			C410.7,340.5,406.9,344.3,406.2,348.8z"/>
		<path fill="#9CA1A5" d="M433.5,340.8L433.5,340.8c2.3-2.5,5.3-3.8,8.4-3.8c6.5,0,9.8,5.6,8.8,11.8c-1,6.3-5.9,11.7-12.5,11.7
			c-3,0-5.6-1.3-7.1-3.7H431l-2.5,15.6h-3.8l5.5-34.7h3.8L433.5,340.8z M432.1,348.5c-0.7,4.4,1.2,8.5,6,8.5c4.9,0,8-3.9,8.8-8.4
			c0.7-4.4-1.5-8-6.2-8C436.2,340.5,432.8,344.4,432.1,348.5z"/>
		<path fill="#9CA1A5" d="M457.3,349.6c-0.6,4.1,1.8,7.4,6.1,7.4c3.2,0,5.6-1.9,7.5-4.6l2.9,1.8c-2.7,4-6.7,6.2-11.3,6.2
			c-6.6,0-10.1-5.1-9.1-11.5c1-6.6,5.8-12,12.7-12c7.1,0,10,5.9,8.6,12.5H457.3z M471.2,346.4c0-3.2-2.3-5.8-5.6-5.8
			c-3.3,0-6.7,2.6-7.7,5.8H471.2z"/>
		<path fill="#9CA1A5" d="M483.6,340.1L483.6,340.1c1.7-1.8,3.1-3,5.5-3c1.3,0,2.2,0.4,3.2,1l-2.4,3.5c-0.7-0.5-1.1-1-2.1-1
			c-4.2,0-5.2,5.3-5.7,8.2l-1.8,11.1h-3.8l3.5-22.2h3.8L483.6,340.1z"/>
	</g>
	<polygon fill="#9CA1A5" points="399.9,324.1 394.3,359.8 398.1,359.8 403.7,324.1 	"/>
</g>
</svg>
