<svg xmlns="http://www.w3.org/2000/svg" viewBox="0 0 480 150"><path d="M16 0c-8.845 0-16 7.156-16 16v68c0 8.845 7.155 16 16 16h68c8.844 0 16-7.155 16-16v-68c0-8.845-7.156-16-16-16zm291 0c-3.404 0-5 .883-5 2.625v70.969c0 6.103 1.558 10.365 4.688 12.781 3.129 2.418 6.693 3.625 10.656 3.625 5.782 0 8.656-1.185 8.656-3.563 0-.791-.243-1.908-.719-3.375-.476-1.466-1.068-2.219-1.781-2.219-.159 0-.705.115-1.656.313-.951.199-2.091.281-3.438.281-4.278 0-6.406-2.916-6.406-8.781v-70.031c0-1.742-1.597-2.625-5-2.625zm-287.531 10l2.5 6.5 6.969.375-5.406 4.406 1.781 6.719-5.844-3.781-5.844 3.781 1.781-6.719-5.406-4.406 6.969-.375zm61.844 0c5.882 0 8.687 3.214 8.687 9.094v61.813c0 5.88-2.803 9.093-8.687 9.093h-61.813c-5.881 0-9.5-3.213-9.5-9.093.108-36.121 33.776-71.017 71.313-70.906zm64.844 16.406c-7.528 0-13.895 2.112-19.125 6.313-2.774 2.3-4.971 5.597-6.594 9.875-1.624 4.279-2.438 9.37-2.438 15.313 0 11.252 2.417 19.429 7.25 24.5 4.832 5.071 12.175 7.593 22 7.593 4.991 0 9.338-.66 13.063-1.968 3.723-1.307 5.594-2.668 5.594-4.094 0-.951-.486-2.205-1.438-3.75-.951-1.546-1.834-2.313-2.625-2.313-.08 0-.254.069-.531.188-.278.118-.512.203-.75.281-4.12 2.061-8.605 3.094-13.438 3.094-6.656 0-11.407-1.869-14.219-5.594-2.814-3.723-4.906-9.756-4.906-18.156 0-15.133 6.447-22.719 17.938-22.719 4.357 0 8.659.943 12.938 2.844.158.081.319.147.438.188l.469.188c.197.08.326.125.406.125.713 0 1.524-.813 2.438-2.438.91-1.624 1.375-2.97 1.375-4 0-1.426-1.825-2.671-5.469-3.781-3.646-1.108-7.781-1.688-12.375-1.688zm57.719 0c-6.497 0-12.052.858-16.688 2.563-4.636 1.704-6.969 3.4-6.969 5.063 0 .791.507 1.976 1.5 3.563.989 1.586 1.862 2.375 2.656 2.375.158 0 1.086-.441 2.75-1.313 4.832-2.455 10.107-3.688 15.813-3.688 8.715 0 13.062 3.314 13.062 9.969v5.594c-6.893.159-13.048.578-18.437 1.25-5.389.675-10.212 2.59-14.531 5.719-4.319 3.131-6.5 7.804-6.5 14.063 0 6.261 1.869 10.896 5.594 13.906 3.723 3.014 8.649 4.531 14.75 4.531 7.52 0 13.886-2.675 19.124-8.031v5.406c0 1.742 1.596 2.631 5 2.624 3.404-.007 5.001-.881 5-2.624v-42.313c.001-5.864-2.067-10.431-6.187-13.719-4.121-3.287-9.441-4.938-15.938-4.938zm62.094 0c-8.638 0-15.295 2.752-19.969 8.219-4.676 5.467-7.001 13.486-7.001 24.063 0 10.577 2.372 18.444 7.126 23.594 4.754 5.152 12.095 7.717 22 7.718 5.625 0 10.587-.88 14.906-2.624 4.318-1.742 6.469-3.383 6.469-4.969 0-.792-.479-2.008-1.469-3.594-.992-1.584-1.897-2.375-2.688-2.375-.16 0-.996.397-2.5 1.188-4.516 2.537-9.457 3.813-14.844 3.813-5.865 0-10.257-1.535-13.188-4.625-2.933-3.09-4.649-7.235-5.125-13.814h37.563c2.776-.908 3.78-2.626 3.938-5.562 0-20.68-8.422-31.031-25.219-31.031zm73.031.406c-3.404 0-5.001.884-5.001 2.625v41.25c0 6.024 2.711 10.721 6.157 14.125 3.447 3.409 8.463 5.125 15 5.125 6.212 0 11.741-2.697 16.843-8.063v5.5c0 1.741 1.716 2.626 5.032 2.626s4.968-.781 4.968-2.345v-58.219c0-1.741-1.531-2.625-4.937-2.625-3.405 0-5.063.884-5.063 2.625v43.5c-4.278 5.549-9.201 8.313-14.906 8.313-3.883 0-6.871-1.011-8.969-3.031-2.1-2.021-4.125-4.853-4.125-8.5v-40.281c0-1.741-1.596-2.625-5-2.625zm63.999.094c-3.404 0-5 .851-5 2.594v57.875c0 1.744 1.595 2.625 5 2.625 3.405 0 5.001-.88 5-2.625v-43.594l1.782-2.031c1.109-1.426 2.864-2.807 5.281-4.156 2.418-1.346 5.183-2.031 8.313-2.031 3.129 0 5.653 1.033 7.594 3.094 1.94 2.062 3.03 4.87 3.03 8.438v40.281c0 1.744 1.595 2.624 5 2.624 3.405 0 5-.879 5-2.624-.117-14.486.158-29.18 0-43.594 4.832-5.466 9.461-8.219 14.376-8.219 3.723 0 6.556 1.033 8.5 3.094 1.94 2.062 3.124 4.87 3.124 8.438v40.281c0 1.744 1.362 2.624 4.782 2.624s5.218-.879 5.218-2.624v-41.219c0-3.802-.811-7.055-1.999-9.75-1.189-2.692-2.8-4.713-4.781-6.063-3.565-2.298-7.576-3.438-12.094-3.438-7.052 0-13.361 3.268-18.906 9.844-2.695-6.576-8.364-9.844-17-9.844-6.527 0-12.258 2.642-17.22 7.969v-5.375c0-1.743-1.596-2.594-5-2.594zm-136.655 8.063c9.508 0 14.25 6.512 14.25 19.031h-30.906c.871-12.519 6.435-19.031 16.656-19.031zm-50.344 24.125l-.001 14.031c-2.932 2.616-5.812 4.636-8.624 6.063-2.813 1.426-6.151 2.125-10.031 2.125-6.736 0-10.094-3.251-10.094-9.75 0-4.118 1.625-6.991 4.875-8.656 1.665-.869 3.244-1.602 4.75-2.156 2.853-1.109 9.218-1.656 19.124-1.656zm22.499 54.906c-1.267 0-1.5.318-1.5.875v2.25c0 .557.233.875 1.5.875s1.5-.318 1.5-.875v-2.25c0-.557-.233-.875-1.5-.875zm93.001 0c-1.267 0-1.501.318-1.501.875v2.25c0 .557.234.875 1.501.875s1.499-.318 1.499-.875v-2.25c0-.557-.232-.875-1.499-.875zm116.781.406c-.879 0-1.746.228-2.625.719-.879.465-1.313.946-1.313 1.438 0 .233.111.497.344.781.233.259.497.375.781.375.284 0 .654-.064 1.094-.219.439-.181.82-.281 1.156-.281.336 0 1.034.117 2.094.375 1.06.259 2.027.406 2.906.406s1.746-.222 2.625-.688c.879-.491 1.312-1.009 1.313-1.5 0-.207-.117-.434-.375-.719-.233-.284-.492-.437-.75-.438-.233 0-.555.1-.969.281-.388.155-.774.219-1.188.219-.414 0-1.159-.116-2.219-.375-1.034-.258-1.996-.375-2.875-.375zm-262.469 7.594c-2.818 0-5.006.843-6.531 2.563-1.525 1.72-2.282 4.254-2.282 7.594 0 3.315.763 5.786 2.314 7.406 1.551 1.62 3.956 2.437 7.188 2.437 1.835 0 3.448-.263 4.844-.812 1.422-.548 2.125-1.095 2.125-1.594 0-.249-.164-.627-.5-1.125-.31-.498-.585-.719-.844-.719-.052 0-.321.095-.813.344-1.473.797-3.086 1.219-4.844 1.219-1.913 0-3.356-.497-4.313-1.469-.956-.972-1.502-1.775-1.657-3.844h12.251c.954-.333 1.115-1.267 1.281-2.25 0-6.505-2.739-9.75-8.219-9.75zm14.688 0c-1.112 0-1.501.26-1.501.813v18.375c0 .552.388.812 1.5.812s1.5-.259 1.5-.812v-13.781c1.396-1.757 3.296-2.656 5.157-2.656 1.267 0 2.234.316 2.906.969.698.628.937 1.533.937 2.688v12.781c0 .552.387.811 1.5.811 1.112 0 1.499-.258 1.5-.811v-13.094c0-1.908-.204-3.421-1.342-4.5-1.112-1.079-2.73-1.594-4.875-1.594-2.021 0-4.115.851-5.783 2.563v-1.75c0-.552-.388-.813-1.5-.814zm25.344 0c-1.913 0-3.467.509-4.656 1.531-1.189.997-1.781 2.255-1.781 3.75s.381 2.596 1.156 3.344c.775.723 2.018 1.339 3.75 1.813 1.732.474 2.9.983 3.469 1.531.595.523.875 1.247.875 2.219 0 .947-.328 1.708-1 2.281-.646.548-1.497.844-2.531.844-1.008 0-1.87-.119-2.594-.344-.724-.249-1.269-.494-1.656-.719-.388-.249-.599-.375-.625-.375-.259 0-.57.252-.906.75-.31.498-.469.876-.469 1.125 0 .474.676.977 1.969 1.5 1.292.498 2.81.75 4.594.75 1.784 0 3.327-.566 4.594-1.688 1.292-1.121 1.937-2.53 1.938-4.25 0-1.745-.465-3.059-1.344-3.906-.853-.872-2.476-1.652-4.906-2.375-1.086-.324-1.878-.695-2.344-1.094-.439-.399-.656-.958-.656-1.656s.312-1.233.906-1.656c.62-.449 1.477-.687 2.563-.688 1.111 0 2.09.239 2.969.688.31.15.474.219.5.219.233 0 .497-.252.781-.75.31-.523.469-.957.469-1.281 0-.399-.529-.77-1.563-1.094-1.034-.324-2.182-.469-3.5-.469zm12.655 0c-1.112 0-1.5.287-1.5.844v18.313c0 .557.389.843 1.5.843 1.112 0 1.5-.286 1.5-.843v-18.313c0-.557-.388-.844-1.5-.844zm10.002 0c-1.112 0-1.502.26-1.502.813v18.375c0 .552.388.812 1.5.812s1.5-.259 1.5-.812v-13.781c1.396-1.757 3.297-2.656 5.159-2.656 1.267 0 2.234.316 2.906.969.698.628.936 1.533.936 2.688v12.781c0 .552.387.811 1.5.811 1.112 0 1.499-.258 1.5-.811v-13.094c0-1.908-.203-3.421-1.341-4.5-1.112-1.079-2.73-1.594-4.875-1.594-2.021 0-4.115.851-5.784 2.563v-1.75c0-.552-.389-.813-1.5-.814zm28.125 0c-2.766 0-4.88.88-6.375 2.625s-2.252 4.229-2.252 7.469c0 3.215.75 5.68 2.221 7.375 1.495 1.695 3.615 2.531 6.406 2.531 2.816 0 4.954-.83 6.375-2.5 1.445-1.695 1.998-4.166 1.998-7.406 0-3.265-.559-5.749-2.029-7.469-1.446-1.745-3.577-2.625-6.344-2.625zm31.188 0c-2.818 0-5.006.843-6.531 2.563-1.525 1.72-2.281 4.254-2.281 7.594 0 3.315.762 5.786 2.313 7.406 1.551 1.62 3.956 2.437 7.188 2.437 1.835 0 3.448-.263 4.844-.812 1.422-.548 2.125-1.095 2.125-1.594 0-.249-.164-.627-.5-1.125-.31-.498-.585-.719-.844-.719-.052 0-.321.095-.813.344-1.473.797-3.086 1.219-4.844 1.219-1.913 0-3.356-.497-4.313-1.469-.956-.972-1.501-1.775-1.656-3.844h12.25c.954-.333 1.115-1.267 1.281-2.25 0-6.505-2.739-9.75-8.219-9.75zm23.685 0c-1.112 0-1.5.287-1.5.844v18.313c0 .557.389.843 1.5.843 1.112 0 1.5-.286 1.5-.843v-18.313c0-.557-.388-.844-1.5-.844zm9.985 0c-1.112 0-1.484.26-1.484.813v18.375c0 .552.404.812 1.516.812s1.484-.259 1.484-.812v-13.781c1.396-1.757 3.298-2.656 5.159-2.656 1.267 0 2.234.316 2.906.969.698.628.935 1.533.935 2.688v12.781c0 .552.453.811 1.566.811 1.112 0 1.433-.258 1.434-.811v-13.094c0-1.908-.202-3.421-1.34-4.5-1.112-1.079-2.73-1.594-4.875-1.594-2.021 0-4.113.851-5.781 2.563v-1.75c0-.552-.406-.813-1.518-.814zm28.143 0c-2.766 0-4.88.88-6.375 2.625s-2.253 4.229-2.253 7.469c0 3.215.751 5.68 2.222 7.375 1.495 1.695 3.615 2.531 6.406 2.531 2.816 0 4.954-.83 6.375-2.5 1.445-1.695 1.997-4.166 1.997-7.406 0-3.265-.558-5.749-2.028-7.469-1.446-1.745-3.577-2.625-6.344-2.625zm14.063 0c-1.139 0-1.688.226-1.688.656 0 .101.049.241.125.469l6.094 18.25c.127.405.646.625 1.531.625h1.313c.886 0 1.405-.22 1.531-.625l6.094-18.188c.076-.228.125-.405.125-.531 0-.43-.519-.656-1.531-.656-.987 0-1.53.189-1.656.594l-5.094 15.375-5.063-15.375c-.127-.405-.643-.594-1.781-.594zm27.156 0c-2.101 0-3.895.265-5.406.813-1.486.522-2.219 1.071-2.219 1.594 0 .249.161.627.469 1.125.333.498.588.75.844.75.051 0 .368-.164.906-.438 1.563-.771 3.28-1.156 5.125-1.156 2.818 0 4.434 1.067 4.434 3.156v1.719c-2.229.05-4.441.214-6.184.438-1.742.199-3.341.786-4.75 1.781-1.383.97-2.063 2.441-2.063 4.406 0 1.965.608 3.43 1.813 4.375 1.204.945 2.809 1.406 4.781 1.406 2.431 0 4.71-.851 6.404-2.531v1.75c0 .547.276.812 1.377.812 1.102 0 1.622-.264 1.622-.812v-13.313c0-1.841-.665-3.293-1.997-4.313-1.332-1.045-3.056-1.562-5.156-1.563zm21.344 0c-2.456 0-4.544.648-6.25 1.969-.905.723-1.613 1.779-2.156 3.125-.517 1.346-.785 2.943-.785 4.813 0 3.19.644 5.599 1.91 7.219 1.292 1.595 3.233 2.501 5.844 2.75l-.625 2.375c-.052.249-.063.388-.063.438 0 .274.211.469.625.594.439.125.868.307 1.281.531.439.224.656.558.656 1.031 0 .872-.745 1.313-2.219 1.313-.569 0-1.214-.126-1.938-.375s-1.152-.375-1.281-.375c-.491 0-.75.321-.75.969 0 .473.518.888 1.5 1.188.982.299 1.961.434 2.969.435 2.973 0 4.469-1.123 4.469-3.341 0-.748-.253-1.333-.719-1.781-.465-.424-.904-.682-1.344-.781-.414-.075-.836-.125-1.25-.125h-.156l.469-1.969h.156c1.628 0 3.066-.195 4.281-.594 1.215-.424 1.812-.864 1.813-1.313 0-.299-.159-.683-.469-1.156-.31-.498-.585-.75-.844-.75-.175.048-.196.054-.438.156-1.344.648-2.798.969-4.375.969-2.171 0-3.726-.579-4.656-1.75-.905-1.171-1.846-3.077-1.846-5.719 0-4.76 2.379-7.156 6.127-7.156 1.422 0 2.823.308 4.219.906l.281.094.125.063c.233 0 .497-.252.781-.75.31-.523.469-.957.469-1.281 0-.449-.592-.839-1.781-1.188s-2.532-.531-4.031-.531zm18.656 0c-2.101 0-3.895.265-5.406.813-1.486.522-2.219 1.071-2.219 1.594 0 .249.161.627.469 1.125.333.498.588.75.844.75.051 0 .368-.164.906-.438 1.563-.771 3.28-1.156 5.125-1.156 2.818 0 4.434 1.067 4.434 3.156v1.719c-2.229.05-4.441.214-6.184.438-1.742.199-3.341.786-4.75 1.781-1.383.97-2.063 2.441-2.063 4.406 0 1.965.608 3.43 1.813 4.375 1.204.945 2.809 1.406 4.781 1.406 2.431 0 4.71-.851 6.403-2.531v1.75c0 .547.276.812 1.378.812 1.102 0 1.622-.264 1.622-.812v-13.313c0-1.841-.665-3.293-1.997-4.313-1.332-1.045-3.056-1.562-5.156-1.563zm20.781 0c-2.766 0-4.88.88-6.375 2.625s-2.253 4.229-2.253 7.469c0 3.215.751 5.68 2.222 7.375 1.495 1.695 3.615 2.531 6.406 2.531 2.816 0 4.954-.83 6.375-2.5 1.445-1.695 1.997-4.166 1.997-7.406 0-3.265-.558-5.749-2.028-7.469-1.446-1.745-3.577-2.625-6.344-2.625zm-285.719 2.688c3.102 0 4.656 1.812 4.656 5.75v.562h-10.065c.284-3.938 2.074-6.311 5.408-6.312zm90.656 0c1.819 0 3.159.585 4.031 1.781.872 1.196 1.404 3.07 1.404 5.563 0 2.492-.532 4.335-1.404 5.531-.872 1.171-2.212 1.75-4.031 1.75-1.819 0-3.153-.579-4-1.75-.847-1.196-1.565-3.039-1.565-5.531 0-2.517.717-4.391 1.565-5.563.847-1.196 2.181-1.781 4-1.781zm31.344 0c3.102 0 4.656 1.812 4.656 5.75v.562h-10.063c.284-3.938 2.072-6.311 5.406-6.312zm61.656 0c1.819 0 3.159.585 4.031 1.781.872 1.196 1.404 3.07 1.404 5.563 0 2.492-.532 4.335-1.404 5.531-.872 1.171-2.212 1.75-4.031 1.75-1.819 0-3.153-.579-4-1.75-.847-1.196-1.565-3.039-1.565-5.531 0-2.517.717-4.391 1.565-5.563.847-1.196 2.181-1.781 4-1.781zm102 0c1.819 0 3.159.585 4.031 1.781.872 1.196 1.404 3.07 1.404 5.563 0 2.492-.532 4.335-1.404 5.531-.872 1.171-2.212 1.75-4.031 1.75-1.819 0-3.153-.579-4-1.75-.847-1.196-1.565-3.039-1.565-5.531 0-2.517.717-4.391 1.565-5.563.847-1.196 2.181-1.781 4-1.781zm-56.566 7.563v4.438c-.948.821-2.107 1.427-3.029 1.875-.897.448-1.963.656-3.219.656-2.178 0-3.281-.991-3.281-3.031 0-1.294.543-2.196 1.594-2.719.538-.274 1.044-.513 1.531-.688.922-.348 3.201-.531 6.404-.531zm40.001 0v4.438c-.948.821-2.107 1.427-3.029 1.875-.897.448-1.963.656-3.219.656-2.178 0-3.281-.991-3.281-3.031 0-1.294.543-2.196 1.594-2.719.538-.274 1.044-.513 1.531-.688.922-.348 3.202-.531 6.404-.531z"/></svg>