<?xml version="1.0" encoding="utf-8"?>
<!-- Generator: Adobe Illustrator 17.1.0, SVG Export Plug-In . SVG Version: 6.00 Build 0)  -->
<!DOCTYPE svg PUBLIC "-//W3C//DTD SVG 1.1//EN" "http://www.w3.org/Graphics/SVG/1.1/DTD/svg11.dtd">
<svg version="1.1" id="Camada_1" xmlns="http://www.w3.org/2000/svg" xmlns:xlink="http://www.w3.org/1999/xlink" x="0px" y="0px"
	 width="100px" height="100px" viewBox="0 0 100 100" enable-background="new 0 0 100 100" xml:space="preserve">
<g>
	<path fill="#CFD0D2" d="M77.959,36.3252c0,0,3.4482,8.7471-11.9453,13.2891c0,0-12.1934,3.6162-22.3711-0.8418
		c0,0-6.9805-2.4395-5.7188-7.4004c0,0,0.4209-1.9356,1.2617-0.0635c0,0,1.3028,3.9736,8.7686,5.2978
		c0,0-7.4658-1.871-7.5713-5.9287c0,0-0.5459-4.6689,8.6016-4.7314c0,0,4.2041,0.043,5.6543,1.7656c0,0,1.4101,1.8086-1.1983,2.5244
		c0,0-2.0488,0.4717-3.8466-0.6943c0,0-2.3653-1.6397-4.0372,0.0635c0,0-1.4511,1.6396,0.5674,3.4062
		c0,0,3.5957,3.2168,12.5528,1.5137c0,0,11.1025-2.5869,6.9394-9.1465c0,0-2.3349-3.9746-11.417-5.6143
		c0,0-10.5976-1.8925-21.6367,1.8282c0,0-10.3457,3.2812-12.9316,9.8418c0,0-3.4082,8.0742,7.2539,13.499
		c0,0-8.3477-6.9815-4.3535-13.8779c0,0,3.3437-5.8662,11.9218-7.8848c0,0-14.6552,6.6445-5.3613,16.2109
		c0,0,6.9395,7.003,22.0781,7.2549c0,0,16.3389,0.6934,24.5381-6.3076C75.708,50.3291,83.7822,44.0205,77.959,36.3252z
		 M41.8262,37.5537l-0.709,0.4746l-0.7285,0.5821l-0.9649,0.8378L38.3311,40.54l1.0927-1.0918l0.9649-0.8378l0.7285-0.5821
		L41.8262,37.5537l1.166-0.5088L41.8262,37.5537z M28.5244,44.1475c0,0-2.5224-6.4356,8.6416-11.292
		c0,0,8.916-3.7217,21.0694-0.1895c0,0,5.0459,1.4502,5.6767,4.8574c0,0,0.5684,3.4698-3.8476,3.9737
		c0,0,1.4082-3.7852-3.5967-5.5938c0,0-3.1524-1.3027-8.7451-1.2187c-3.6602,0.1201-8.7051,1.3037-11.6914,4.29
		c0,0-6.6241,6.4346,4.7304,13.1201C40.7617,52.0947,30.3535,50.833,28.5244,44.1475z"/>
	<g>
		<path fill="#27181E" d="M19.1113,63.3896c0.17-1.0654-0.7441-1.0517-1.5849-1.0517c-2.0176,0-2.2051,0.6162-2.5928,2.3105
			l-0.3633,1.711c-0.3965,1.8633,0.2061,2.0595,1.6641,2.0595c1.4287,0,1.875-0.3232,2.1845-1.7793h-1.9326l0.4141-1.9472h4.7773
			l-0.3896,1.8349c-0.7539,3.545-1.7881,4.1895-5.542,4.1895c-3.3066,0-4.8691-0.5605-4.1465-3.9648l0.5781-2.7188
			c0.7383-3.4746,2.7539-3.9932,5.8369-3.9932c2.7198,0,4.6495,0.0137,3.9405,3.3496H19.1113z"/>
		<path fill="#27181E" d="M24.1836,70.6328h-2.4092l2.2334-10.5078h2.4102L24.1836,70.6328z"/>
		<path fill="#27181E" d="M33.6094,66.9609c-0.6446,3.0284-1.4287,3.7559-4.4834,3.7559c-3.0127,0-3.4981-0.8125-2.8731-3.7559
			c0.6407-3.0117,1.4034-3.7675,4.4717-3.7675C33.8066,63.1934,34.2705,63.8506,33.6094,66.9609z M28.6621,66.9609
			c-0.3379,1.5987-0.2637,1.9063,0.8984,1.9063c1.1211,0,1.2989-0.3076,1.6387-1.9063c0.3399-1.5966,0.2959-1.9189-0.8242-1.9189
			C29.2109,65.042,29.0029,65.3643,28.6621,66.9609z"/>
		<path fill="#27181E" d="M38.7197,60.125l-0.8935,4.2031h0.1113c0.5957-0.9531,1.4043-1.1347,2.2881-1.1347
			c2.0166,0,2.5967,0.8964,2.1201,3.1377l-0.3574,1.6816c-0.4141,1.9482-1.582,2.7041-3.3623,2.7041
			c-1.0518,0-1.7686-0.252-1.8135-1.3594h-0.1113l-0.2168,1.2754h-2.4092l2.2353-10.5078H38.7197z M39.8047,66.9473
			c0.2637-1.2325,0.3203-1.9053-0.7998-1.9053c-0.9951,0-1.3819,0.2383-1.7354,1.9053c-0.3047,1.4297-0.3535,1.9199,0.9219,1.9199
			C39.2148,68.8672,39.4746,68.5039,39.8047,66.9473z"/>
		<path fill="#27181E" d="M47.5625,69.54h-0.084c-0.3965,1.0088-1.5254,1.1768-2.3652,1.1768c-1.6817,0-2.5762-0.4053-2.1768-2.2832
			c0.374-1.7656,1.416-2.3135,3.1533-2.3135c0.6856,0,1.7403-0.0127,1.8282,0.8272h0.1113l0.248-1.1621
			c0.1446-0.6875,0.1954-1.1211-0.8554-1.1211c-0.6016,0-1.0098,0.1406-1.1504,0.7988h-2.4102
			c0.4864-2.2832,2.1504-2.2695,3.8741-2.2695c2.4658,0,3.4355,0.3076,2.8974,2.8437l-0.9765,4.5957h-2.4102L47.5625,69.54z
			 M45.3604,68.3633c-0.169,0.7988,0.5175,0.7988,0.8818,0.7988c1.0078,0,1.3437-0.1269,1.5068-0.8965
			c0.1319-0.6172-0.3896-0.6738-1.1738-0.6738C45.9863,67.5918,45.5039,67.6904,45.3604,68.3633z"/>
		<path fill="#27181E" d="M53.6621,70.6328H51.252l2.2353-10.5078h2.4082L53.6621,70.6328z"/>
	</g>
	<g>
		<path fill="#E65900" d="M78.4072,70.6328h-2.4111l0.3271-1.2754h-0.1123c-0.5156,1.1074-1.3388,1.3594-2.3896,1.3594
			c-1.7803,0-2.6279-0.7559-2.2149-2.7041l0.3584-1.6816c0.4766-2.2413,1.4366-3.1377,3.4551-3.1377
			c0.8828,0,1.6153,0.1816,1.8037,1.1347h0.1133l0.8936-4.2031h2.4091L78.4072,70.6328z M75.0684,68.8672
			c0.9961,0,1.3535-0.2373,1.708-1.9063c0.3037-1.4277,0.3808-1.9189-0.8946-1.9189c-1.205,0-1.332,0.4619-1.6425,1.9189
			C73.8594,68.7549,74.0596,68.8672,75.0684,68.8672z"/>
		<path fill="#E65900" d="M87.292,68.1807c-0.2344,1.1074-0.7334,1.7382-1.4404,2.1025c-0.7061,0.3496-1.6202,0.4336-2.6846,0.4336
			c-2.9024,0-3.3867-1.0088-2.8037-3.7559c0.6025-2.8291,1.4463-3.7675,4.4023-3.7675c2.7608,0,3.4229,0.7695,2.7852,3.7675
			l-0.0869,0.4063h-4.7774c-0.2734,1.29-0.1582,1.668,0.836,1.668c0.7431,0,1.2373-0.084,1.4013-0.8545H87.292z M85.3379,66.0371
			c0.2324-1.0928-0.1592-1.1621-0.9727-1.1621c-0.8545,0-1.1621,0.1953-1.3945,1.1621H85.3379z"/>
		<path fill="#E65900" d="M62.6104,67.6904c-0.292,1.3731-0.6915,2.1299-1.3516,2.5362c-0.6494,0.4199-1.5469,0.4902-2.8506,0.4902
			c-2.8437,0-3.335-0.8535-2.7187-3.7559c0.5302-2.4931,1.3066-3.7675,4.3183-3.7675c2.1162,0,3.5108,0.2236,2.9531,2.8437h-2.4091
			c0.0976-0.3926,0.1064-0.6308-0.0284-0.7851c-0.1367-0.1543-0.4043-0.21-0.9091-0.21c-0.8536,0-1.1582,0.2383-1.5147,1.9189
			c-0.3662,1.7246-0.207,1.9063,0.7012,1.9063c1.0937,0,1.207-0.2656,1.3994-1.1768H62.6104z"/>
		<path fill="#E65900" d="M70.8916,66.9609c-0.6436,3.0284-1.4277,3.7559-4.4824,3.7559c-3.0127,0-3.4981-0.8125-2.874-3.7559
			c0.6416-3.0117,1.4043-3.7675,4.4726-3.7675C71.0908,63.1934,71.5537,63.8506,70.8916,66.9609z M65.9463,66.9609
			c-0.3408,1.5987-0.2656,1.9063,0.8975,1.9063c1.121,0,1.2988-0.3076,1.6376-1.9063c0.3399-1.5966,0.2959-1.9189-0.8242-1.9189
			C66.4941,65.042,66.2861,65.3643,65.9463,66.9609z"/>
	</g>
</g>
<g>
	<g>
		<path fill="#CFD0D2" d="M228.3594,36.3247c0,0,3.4482,8.7476-11.9444,13.2886c0,0-12.1943,3.6172-22.374-0.8408
			c0,0-6.9814-2.4385-5.7197-7.3995c0,0,0.4199-1.936,1.2617-0.0644c0,0,1.3047,3.9746,8.7715,5.2978
			c0,0-7.4668-1.8701-7.5732-5.9296c0,0-0.5459-4.6675,8.6044-4.7305c0,0,4.2041,0.0425,5.6543,1.7656
			c0,0,1.4092,1.8091-1.1982,2.5239c0,0-2.0508,0.4727-3.8477-0.6933c0,0-2.3662-1.6402-4.038,0.0635
			c0,0-1.4512,1.6391,0.5673,3.4057c0,0,3.5967,3.2168,12.5537,1.5137c0,0,11.1036-2.5859,6.9405-9.1465
			c0,0-2.335-3.9746-11.419-5.6147c0,0-10.5976-1.8921-21.6386,1.8291c0,0-10.3457,3.2812-12.9317,9.8403
			c0,0-3.4062,8.0752,7.2539,13.5c0,0-8.3476-6.9805-4.3535-13.8789c0,0,3.3438-5.8657,11.9219-7.8838
			c0,0-14.6543,6.6455-5.3604,16.2119c0,0,6.9395,7.002,22.0801,7.2539c0,0,16.3379,0.6934,24.5391-6.3086
			C226.1094,50.3281,234.1836,44.0215,228.3594,36.3247z M192.2246,37.5537l-0.71,0.4746l-0.7275,0.5821l-0.9648,0.8374
			l-1.0928,1.0922l1.0928-1.0922l0.9648-0.8374l0.7275-0.5821L192.2246,37.5537l1.167-0.5093L192.2246,37.5537z M178.9229,44.1475
			c0,0-2.5235-6.4356,8.6416-11.2925c0,0,8.9169-3.7222,21.0722-0.189c0,0,5.0459,1.4502,5.6768,4.8579
			c0,0,0.5683,3.4683-3.8477,3.9732c0,0,1.4082-3.7852-3.5967-5.5933c0,0-3.1533-1.3032-8.747-1.2192
			c-3.6602,0.1196-8.7071,1.3032-11.6924,4.2905c0,0-6.624,6.4331,4.7305,13.1206C191.1602,52.0957,180.751,50.834,178.9229,44.1475
			z"/>
		<g>
			<path fill="#FFFFFF" d="M169.5088,63.3887c0.1699-1.0645-0.7442-1.0508-1.585-1.0508c-2.0166,0-2.2041,0.6152-2.5927,2.3105
				l-0.3633,1.711c-0.3965,1.8633,0.207,2.0586,1.6631,2.0586c1.4306,0,1.8769-0.3223,2.1865-1.7793h-1.9336l0.4141-1.9473h4.7792
				l-0.3916,1.8359c-0.7548,3.545-1.788,4.1895-5.5419,4.1895c-3.3067,0-4.8702-0.5605-4.1456-3.9648l0.5772-2.7188
				c0.7383-3.4746,2.7539-3.9941,5.8369-3.9941c2.7188,0,4.6494,0.0136,3.9404,3.3496H169.5088z"/>
			<path fill="#FFFFFF" d="M174.5811,70.6328h-2.4092l2.2334-10.5078h2.4101L174.5811,70.6328z"/>
			<path fill="#FFFFFF" d="M184.0068,66.9609c-0.6425,3.0274-1.4287,3.7559-4.4824,3.7559c-3.0137,0-3.499-0.8125-2.874-3.7559
				c0.6406-3.0117,1.4033-3.7675,4.4736-3.7675C184.2051,63.1934,184.667,63.8516,184.0068,66.9609z M179.0605,66.9609
				c-0.3388,1.5977-0.2646,1.9063,0.8985,1.9063c1.1211,0,1.2978-0.3086,1.6377-1.9063c0.3388-1.5957,0.2969-1.9199-0.8242-1.9199
				C179.6084,65.041,179.4004,65.3652,179.0605,66.9609z"/>
			<path fill="#FFFFFF" d="M189.1162,60.125l-0.8926,4.2031h0.1114c0.5957-0.9531,1.4052-1.1347,2.288-1.1347
				c2.0166,0,2.5987,0.8964,2.1221,3.1367l-0.3584,1.6816c-0.414,1.9492-1.5849,2.7051-3.3633,2.7051
				c-1.0517,0-1.7675-0.2539-1.8134-1.3594h-0.1114l-0.2148,1.2754h-2.4102l2.2344-10.5078H189.1162z M190.2021,66.9473
				c0.2637-1.2325,0.3213-1.9063-0.7988-1.9063c-0.9941,0-1.3828,0.2383-1.7363,1.9063c-0.3047,1.4297-0.3525,1.9199,0.9228,1.9199
				C189.6123,68.8672,189.8711,68.5039,190.2021,66.9473z"/>
			<path fill="#FFFFFF" d="M197.9629,69.5391h-0.083c-0.3985,1.0097-1.5274,1.1777-2.3672,1.1777
				c-1.6826,0-2.5772-0.4063-2.1777-2.2832c0.375-1.7656,1.416-2.3125,3.1543-2.3125c0.6865,0,1.7421-0.0137,1.8281,0.8262h0.1133
				l0.248-1.1621c0.1445-0.6875,0.1943-1.1211-0.8564-1.1211c-0.6026,0-1.0108,0.1406-1.1514,0.7988h-2.4102
				c0.4864-2.2832,2.1504-2.2695,3.8741-2.2695c2.4677,0,3.4375,0.3066,2.8994,2.8437l-0.9776,4.5957h-2.4101L197.9629,69.5391z
				 M195.7607,68.3633c-0.1699,0.7988,0.5166,0.7988,0.8809,0.7988c1.0088,0,1.3438-0.1269,1.5078-0.8965
				c0.1319-0.6172-0.3887-0.6738-1.1738-0.6738C196.3867,67.5918,195.9033,67.6895,195.7607,68.3633z"/>
			<path fill="#FFFFFF" d="M204.0635,70.6328h-2.4102l2.2344-10.5078h2.4092L204.0635,70.6328z"/>
		</g>
		<g>
			<path fill="#E65900" d="M228.8076,70.6328h-2.4111l0.3271-1.2754h-0.1113c-0.5156,1.1055-1.3398,1.3594-2.3906,1.3594
				c-1.7793,0-2.6279-0.7559-2.2139-2.7051l0.3584-1.6816c0.4766-2.2403,1.4365-3.1367,3.4551-3.1367
				c0.8828,0,1.6142,0.1816,1.8037,1.1347h0.1123l0.8936-4.2031h2.4091L228.8076,70.6328z M225.4688,68.8672
				c0.996,0,1.3544-0.2383,1.7089-1.9063c0.3037-1.4277,0.3809-1.9199-0.8945-1.9199c-1.2061,0-1.333,0.4629-1.6426,1.9199
				C224.2607,68.7559,224.4609,68.8672,225.4688,68.8672z"/>
			<path fill="#E65900" d="M237.6924,68.1797c-0.2344,1.1074-0.7324,1.7383-1.4414,2.1035
				c-0.7051,0.3496-1.6182,0.4336-2.6826,0.4336c-2.9024,0-3.3868-1.0098-2.8038-3.7559c0.6016-2.83,1.4463-3.7675,4.4014-3.7675
				c2.7608,0,3.4238,0.7695,2.7861,3.7675l-0.0869,0.4063h-4.7773c-0.2744,1.2891-0.1582,1.668,0.8359,1.668
				c0.7432,0,1.2373-0.084,1.4014-0.8555H237.6924z M235.7393,66.0371c0.2324-1.0937-0.1592-1.1621-0.9727-1.1621
				c-0.8535,0-1.1631,0.1953-1.3965,1.1621H235.7393z"/>
			<path fill="#E65900" d="M213.0107,67.6895c-0.291,1.375-0.6904,2.1308-1.3515,2.5371c-0.6494,0.4199-1.5459,0.4902-2.8506,0.4902
				c-2.8447,0-3.335-0.8535-2.7178-3.7559c0.5303-2.4941,1.3057-3.7675,4.3174-3.7675c2.1162,0,3.5117,0.2226,2.9541,2.8437h-2.4092
				c0.0977-0.3926,0.1065-0.6308-0.0293-0.7851c-0.1357-0.1543-0.4033-0.211-0.9082-0.211c-0.8554,0-1.1582,0.2383-1.5156,1.9199
				c-0.3662,1.7246-0.208,1.9063,0.7021,1.9063c1.0928,0,1.2061-0.2656,1.3985-1.1777H213.0107z"/>
			<path fill="#E65900" d="M221.292,66.9609c-0.6426,3.0274-1.4268,3.7559-4.4815,3.7559c-3.0126,0-3.498-0.8125-2.874-3.7559
				c0.6416-3.0117,1.4033-3.7675,4.4727-3.7675C221.4922,63.1934,221.9551,63.8516,221.292,66.9609z M216.3477,66.9609
				c-0.3409,1.5977-0.2657,1.9063,0.8974,1.9063c1.1201,0,1.2979-0.3086,1.6377-1.9063c0.3399-1.5957,0.2949-1.9199-0.8252-1.9199
				C216.8945,65.041,216.6875,65.3652,216.3477,66.9609z"/>
		</g>
	</g>
</g>
</svg>
