<?xml version="1.0" encoding="utf-8"?>
<!-- Generator: Adobe Illustrator 18.1.0, SVG Export Plug-In . SVG Version: 6.00 Build 0)  -->
<svg version="1.1" id="Layer_1" xmlns="http://www.w3.org/2000/svg" xmlns:xlink="http://www.w3.org/1999/xlink" x="0px" y="0px"
	 viewBox="0 0 398 130.7" enable-background="new 0 0 398 130.7" xml:space="preserve">
<g>
	<g>
		<path fill="#56C3F0" d="M102.7,77.2l24.2,19.6c0,0-1.1,2.2-3.5,2.2c-2.4,0.1-81.7,0-81.7,0s-2,0-3.2-0.9L102.7,77.2z"/>
		<path fill="#56C3F0" d="M126.9,96.8c0,0,0.5-1.7-0.8-3.7c-1.3-2-39.5-64.1-40.6-65.2c-1.1-1.1-2.1-1.9-3.9-1.9
			c-1.8,0-6.1,29.6-6.1,29.6L126.9,96.8z"/>
		<path fill="#56C3F0" d="M68.9,88.2L81.6,26c0,0-1.7,0.1-2.9,1.9c-1.3,1.8-37.4,61.8-39.2,63.8c-1.8,2-1.8,4.2-1.6,5.2
			c0.3,0.9,0.6,1.3,0.6,1.3L68.9,88.2z"/>
		<linearGradient id="SVGID_1_" gradientUnits="userSpaceOnUse" x1="48.7155" y1="102.4375" x2="81.244" y2="25.8052">
			<stop  offset="0" style="stop-color:#076B8C"/>
			<stop  offset="1" style="stop-color:#66CCF5"/>
		</linearGradient>
		<path opacity="0.6" fill="url(#SVGID_1_)" d="M68.9,88.2L81.6,26c0,0-1.7,0.1-2.9,1.9c-1.3,1.8-37.4,61.8-39.2,63.8
			c-1.8,2-1.8,4.2-1.6,5.2c0.3,0.9,0.6,1.3,0.6,1.3L68.9,88.2z"/>
		<linearGradient id="SVGID_2_" gradientUnits="userSpaceOnUse" x1="75.5762" y1="61.3863" x2="126.9911" y2="61.3863">
			<stop  offset="0.1043" style="stop-color:#076B8C"/>
			<stop  offset="0.1091" style="stop-color:#0A6C8D"/>
			<stop  offset="0.2389" style="stop-color:#3084A6"/>
			<stop  offset="0.3735" style="stop-color:#459BBE"/>
			<stop  offset="0.5129" style="stop-color:#54AED2"/>
			<stop  offset="0.6586" style="stop-color:#5FBDE3"/>
			<stop  offset="0.8148" style="stop-color:#65C8EF"/>
			<stop  offset="1" style="stop-color:#66CCF5"/>
		</linearGradient>
		<path opacity="0.6" fill="url(#SVGID_2_)" d="M126.9,96.8c0,0,0.5-1.7-0.8-3.7c-1.3-2-39.5-64.1-40.6-65.2
			c-1.1-1.1-2.1-1.9-3.9-1.9c-1.8,0-6.1,29.6-6.1,29.6L126.9,96.8z"/>
		<linearGradient id="SVGID_3_" gradientUnits="userSpaceOnUse" x1="38.542" y1="88.127" x2="126.8848" y2="88.127">
			<stop  offset="0" style="stop-color:#66CCF5"/>
			<stop  offset="0.1852" style="stop-color:#65C8EF"/>
			<stop  offset="0.3414" style="stop-color:#5FBDE3"/>
			<stop  offset="0.4871" style="stop-color:#54AED2"/>
			<stop  offset="0.6265" style="stop-color:#459BBE"/>
			<stop  offset="0.7611" style="stop-color:#3084A6"/>
			<stop  offset="0.8909" style="stop-color:#0A6C8D"/>
			<stop  offset="0.8957" style="stop-color:#076B8C"/>
		</linearGradient>
		<path opacity="0.6" fill="url(#SVGID_3_)" d="M102.7,77.2l24.2,19.6c0,0-1.1,2.2-3.5,2.2c-2.4,0.1-81.7,0-81.7,0s-2,0-3.2-0.9
			L102.7,77.2z"/>
	</g>
	<g>
		<path fill="#010101" d="M134.3,46.8h8.9c5.9,0,9.6,1.5,11.9,3.7c2.3,2.1,3.3,4.9,3.3,8.5c0,4.3-1.7,8.3-5,11.4
			c-3.7,3.5-8.9,5.3-16,5.3h-11.3L134.3,46.8z M138.2,69.9c4,0,7.7-1.2,10.2-3.5c2-1.9,3-4.4,3-7.2c0-2-0.7-3.5-1.8-4.6
			c-1.3-1.3-3.6-2.1-7-2.1h-3.3l-5,17.4H138.2z"/>
		<path fill="#010101" d="M165.8,53.5h6.6l-6.3,22.1h-6.6L165.8,53.5z M167.9,45.5h7l-1.6,5.6h-7L167.9,45.5z"/>
		<path fill="#010101" d="M171.1,79.2l3.5-4.3c2.4,1.5,5.5,2.4,8.4,2.4c2.2,0,3.8-0.6,5-1.8c1-0.9,1.6-2.2,2.1-4l0.2-0.7
			c-2.4,2.1-4.4,2.9-7.3,2.9c-4.5,0-8.7-2.7-8.7-7.7c0-7.4,6.3-13,12.7-13c4,0,5.9,1.8,7.1,3.8l1-3.4h6.6l-5,17.8
			c-1.3,4.5-2.2,6.2-4.1,8c-2.1,2-5,3-9.3,3C178.7,82.3,174.2,81.2,171.1,79.2z M192.6,62.4c0-2.5-1.8-4-4.6-4
			c-3.7,0-6.7,3.1-6.7,6.6c0,2.6,1.8,3.9,4.4,3.9C189.4,68.8,192.6,65.9,192.6,62.4z"/>
		<path fill="#010101" d="M208.1,53.5h6.6l-6.3,22.1h-6.6L208.1,53.5z M210.3,45.5h7l-1.6,5.6h-7L210.3,45.5z"/>
		<path fill="#010101" d="M223.6,46.8h9.7c4.4,0,7.4,0.8,9.6,2.9c1.6,1.5,2.3,3.4,2.3,5.9c0,7.2-6.5,11.3-14.8,11.3h-5.8l-2.5,8.7
			h-6.7L223.6,46.8z M230.7,61.3c4.4,0,7.4-1.9,7.4-5.2c0-0.9-0.3-1.8-1-2.4c-0.9-0.9-2.2-1.3-4.2-1.3h-4.4l-2.5,8.8H230.7z"/>
		<path fill="#010101" d="M250.5,53.5h6.6l-1.3,4.5c2.3-3.3,5-5.2,8.9-4.9l-1.9,6.6h-0.3c-4.4,0-7.8,2.4-9.4,8.1l-2.2,7.8h-6.6
			L250.5,53.5z"/>
		<path fill="#010101" d="M264.3,65.9c0-6.6,6-12.8,13.5-12.8c6.9,0,11.2,4.3,11.2,10.2c0,6.6-6,12.8-13.5,12.8
			C268.6,76.1,264.3,71.8,264.3,65.9z M282.5,63.5c0-3.2-2-5-5-5c-4,0-6.7,4.1-6.7,7.3c0,3.2,2,5,5,5
			C279.8,70.8,282.5,66.7,282.5,63.5z"/>
		<path fill="#010101" d="M296.9,53.5h6.6l-0.7,2.3c1.7-1.4,3.7-2.7,6.4-2.7c4.2,0,6.9,2.4,6.9,6.4c0,1.2-0.4,2.8-0.8,4.2L312,75.6
			h-6.6l3.4-12.1c0.2-0.6,0.3-1.4,0.3-2c0-1.8-1.2-2.7-3.2-2.7c-2.6,0-4.3,1.8-5,4.4l-3.5,12.4h-6.6L296.9,53.5z"/>
		<path fill="#010101" d="M320.1,71.7c0-0.9,0.2-1.8,0.4-2.8l2.8-10h-2.8l1.5-5.4h2.8l1.6-5.6h6.6l-1.6,5.6h5.5l-1.5,5.4H330
			l-2.6,9.3c-0.1,0.3-0.2,0.7-0.2,1c0,0.8,0.6,1.3,1.8,1.3c1,0,2.3-0.2,3.4-0.7l-1.5,5.3c-1.3,0.6-3,0.9-4.8,0.9
			C322.1,76,320.1,74.1,320.1,71.7z"/>
		<path fill="#010101" d="M337.2,65.9c0-6.6,6-12.8,13.5-12.8c6.9,0,11.2,4.3,11.2,10.2c0,6.6-6,12.8-13.5,12.8
			C341.5,76.1,337.2,71.8,337.2,65.9z M355.4,63.5c0-3.2-2-5-5-5c-4,0-6.7,4.1-6.7,7.3c0,3.2,2,5,5,5
			C352.8,70.8,355.4,66.7,355.4,63.5z"/>
	</g>
	<g>
		<path d="M145.4,96.2c0-2.5,2.1-5,4.8-5c2.1,0,3.6,1.6,3.6,3.6c0,2.6-2.1,5-4.8,5C146.9,99.8,145.4,98.2,145.4,96.2z M152.8,94.8
			c0-1.6-1-2.7-2.7-2.7c-2.2,0-3.8,2-3.8,4.1c0,1.6,1,2.7,2.7,2.7C151.2,98.9,152.8,96.9,152.8,94.8z"/>
		<path d="M159.6,93.5h0.9l-0.3,1c0.6-0.6,1.2-1.1,2.1-1.1c1.2,0,1.9,0.7,1.9,1.9c0,0.3-0.1,0.6-0.2,0.9l-0.9,3.4h-0.9l0.9-3.5
			c0.1-0.2,0.1-0.5,0.1-0.7c0-0.8-0.5-1.3-1.4-1.3c-0.9,0-1.9,0.8-2.2,2l-0.9,3.4H158L159.6,93.5z"/>
		<path d="M165.7,97.9c0-0.3,0.1-0.6,0.2-0.9l0.9-3.4h0.9l-0.9,3.5c0,0.2-0.1,0.5-0.1,0.7c0,0.8,0.5,1.3,1.4,1.3
			c0.9,0,1.9-0.8,2.2-2l0.9-3.4h0.9l-1.6,6.1h-0.9l0.3-1c-0.6,0.6-1.2,1.1-2.1,1.1C166.5,99.7,165.7,99,165.7,97.9z M170.7,90.9
			l0.9,0.4l-1.7,1.3h-0.8L170.7,90.9z"/>
		<path d="M172.8,97.1c0-2,1.7-3.7,3.6-3.7c1.3,0,2,0.7,2.4,1.4l-0.7,0.5c-0.4-0.6-0.8-1.1-1.8-1.1c-1.4,0-2.6,1.4-2.6,2.9
			c0,1.2,0.9,1.9,1.8,1.9c0.7,0,1.3-0.3,1.8-0.8l0.5,0.6c-0.6,0.6-1.4,1-2.4,1C174.1,99.8,172.8,98.8,172.8,97.1z"/>
		<path d="M181.5,91h0.9l-2.3,8.6h-0.9L181.5,91z"/>
		<path d="M183.5,97.1c0,1.1,0.7,1.8,1.8,1.8c0.8,0,1.3-0.3,1.9-0.7l0.5,0.6c-0.6,0.5-1.3,0.9-2.4,0.9c-1.6,0-2.7-1-2.7-2.6
			c0-1.9,1.5-3.8,3.5-3.8c1.5,0,2.4,1.1,2.4,2.3c0,0.4-0.1,0.8-0.2,1.2h-4.8C183.5,97,183.5,97.1,183.5,97.1z M187.6,96.2
			c0-0.1,0-0.3,0-0.5c0-0.8-0.5-1.6-1.5-1.6c-1.2,0-2.1,0.9-2.5,2H187.6z"/>
		<path d="M189.6,97c0-1.9,1.6-3.6,3.6-3.6c1.7,0,2.8,1.1,2.8,2.7c0,1.9-1.7,3.6-3.6,3.6C190.6,99.8,189.6,98.6,189.6,97z M195,96.1
			c0-1.2-0.8-2-1.9-2c-1.4,0-2.6,1.4-2.6,2.8c0,1.2,0.8,1.9,1.9,1.9C193.8,98.9,195,97.6,195,96.1z"/>
		<path d="M201.2,93.5h0.9l0.3,4.9l2.9-4.9h0.8l0.3,4.9l2.9-4.9h0.9l-3.8,6.1h-0.8l-0.4-4.8l-2.9,4.8h-0.8L201.2,93.5z"/>
		<path d="M211.3,97.1c0,1.1,0.7,1.8,1.8,1.8c0.8,0,1.3-0.3,1.9-0.7l0.5,0.6c-0.6,0.5-1.3,0.9-2.4,0.9c-1.6,0-2.7-1-2.7-2.6
			c0-1.9,1.5-3.8,3.5-3.8c1.5,0,2.4,1.1,2.4,2.3c0,0.4-0.1,0.8-0.2,1.2h-4.8C211.3,97,211.3,97.1,211.3,97.1z M215.4,96.2
			c0-0.1,0-0.3,0-0.5c0-0.8-0.5-1.6-1.5-1.6c-1.2,0-2.1,0.9-2.5,2H215.4z"/>
		<path d="M218.3,98.2l-0.4,1.4H217l2.3-8.6h0.9l-1,3.6c0.6-0.7,1.3-1.2,2.3-1.2c1.4,0,2.4,1,2.4,2.6c0,2.2-1.6,3.8-3.4,3.8
			C219.3,99.8,218.6,99,218.3,98.2z M223,96.1c0-1.1-0.7-1.9-1.7-1.9c-1.4,0-2.7,1.4-2.7,2.9c0,1.1,0.8,1.9,1.9,1.9
			C222,99,223,97.6,223,96.1z"/>
		<path d="M228.7,97.2c0-2.2,1.6-3.8,3.4-3.8c1.3,0,2,0.7,2.3,1.5l1-3.9h0.9l-2.3,8.6h-0.9l0.3-1c-0.6,0.7-1.3,1.2-2.3,1.2
			C229.8,99.8,228.7,98.7,228.7,97.2z M234.1,96.1c0-1.1-0.8-1.9-1.9-1.9c-1.5,0-2.5,1.3-2.5,2.9c0,1.1,0.7,1.9,1.7,1.9
			C232.8,99,234.1,97.6,234.1,96.1z"/>
		<path d="M236.1,98.1c0-1.4,1.1-2.2,2.7-2.2c0.8,0,1.6,0.2,2.2,0.3l0-0.2c0-0.2,0.1-0.4,0.1-0.5c0-0.8-0.5-1.2-1.6-1.2
			c-0.6,0-1.2,0.1-1.7,0.3l-0.2-0.8c0.6-0.2,1.2-0.4,2-0.4c1.5,0,2.4,0.7,2.4,1.9c0,0.2,0,0.6-0.1,0.8l-0.9,3.5h-0.9l0.2-1
			c-0.6,0.6-1.3,1.1-2.3,1.1C237,99.7,236.1,99.1,236.1,98.1z M240.7,97.2l0.1-0.4c-0.5-0.1-1.2-0.3-2-0.3c-1.1,0-1.8,0.6-1.8,1.4
			c0,0.6,0.5,1.1,1.3,1.1C239.4,99,240.4,98.3,240.7,97.2z"/>
		<path d="M242.6,98.7l0.6-0.6c0.7,0.6,1.4,0.9,2.1,0.9c0.7,0,1.3-0.4,1.3-1c0-0.4-0.3-0.7-1.2-1c-1.1-0.4-1.7-0.8-1.7-1.7
			c0-1,0.9-1.9,2.3-1.9c0.9,0,1.7,0.4,2.3,0.8l-0.5,0.6c-0.5-0.4-1.1-0.7-1.8-0.7c-0.9,0-1.3,0.5-1.3,1c0,0.4,0.2,0.7,1.2,1
			c1.1,0.4,1.7,0.9,1.7,1.7c0,1.1-1,1.9-2.3,1.9C244.3,99.7,243.3,99.4,242.6,98.7z"/>
		<path d="M253.9,93.5h0.9l-0.3,1c0.6-0.6,1.1-1.1,2-1.1c1,0,1.6,0.7,1.7,1.4c0.5-0.8,1.4-1.4,2.5-1.4c1.1,0,1.9,0.8,1.9,1.9
			c0,0.3-0.1,0.6-0.2,0.9l-0.9,3.4h-0.9l0.9-3.5c0-0.2,0.1-0.5,0.1-0.7c0-0.8-0.5-1.3-1.3-1.3c-0.9,0-1.8,0.8-2.1,2l-0.9,3.4h-0.9
			l0.9-3.5c0.1-0.2,0.1-0.5,0.1-0.7c0-0.8-0.5-1.3-1.3-1.3c-0.9,0-1.8,0.8-2.1,2l-0.9,3.4h-0.9L253.9,93.5z"/>
		<path d="M264.8,97.1c0,1.1,0.7,1.8,1.8,1.8c0.8,0,1.3-0.3,1.9-0.7l0.5,0.6c-0.6,0.5-1.3,0.9-2.4,0.9c-1.6,0-2.7-1-2.7-2.6
			c0-1.9,1.5-3.8,3.5-3.8c1.5,0,2.4,1.1,2.4,2.3c0,0.4-0.1,0.8-0.2,1.2h-4.8C264.8,97,264.8,97.1,264.8,97.1z M268.9,96.2
			c0-0.1,0-0.3,0-0.5c0-0.8-0.5-1.6-1.5-1.6c-1.2,0-2.1,0.9-2.5,2H268.9z"/>
		<path d="M272.9,91h0.9l-2.3,8.6h-0.9L272.9,91z"/>
		<path d="M275.9,91h0.9l-0.9,3.5c0.6-0.6,1.2-1.1,2.1-1.1c1.2,0,1.9,0.7,1.9,1.9c0,0.3-0.1,0.6-0.2,0.9l-0.9,3.4H278l0.9-3.5
			c0.1-0.2,0.1-0.5,0.1-0.7c0-0.8-0.5-1.3-1.4-1.3c-0.9,0-1.9,0.8-2.2,2l-0.9,3.4h-0.9L275.9,91z"/>
		<path d="M281.2,97c0-1.9,1.6-3.6,3.6-3.6c1.7,0,2.8,1.1,2.8,2.7c0,1.9-1.7,3.6-3.6,3.6C282.3,99.8,281.2,98.6,281.2,97z
			 M286.6,96.1c0-1.2-0.8-2-1.9-2c-1.4,0-2.6,1.4-2.6,2.8c0,1.2,0.8,1.9,1.9,1.9C285.4,98.9,286.6,97.6,286.6,96.1z"/>
		<path d="M290,93.5h0.9l-0.4,1.6c0.7-1.1,1.7-1.8,2.9-1.7l-0.3,1H293c-1.3,0-2.7,1-3.1,2.8l-0.6,2.4h-0.9L290,93.5z"/>
		<path d="M294.3,97.1c0,1.1,0.7,1.8,1.8,1.8c0.8,0,1.3-0.3,1.9-0.7l0.5,0.6c-0.6,0.5-1.3,0.9-2.4,0.9c-1.6,0-2.7-1-2.7-2.6
			c0-1.9,1.5-3.8,3.5-3.8c1.5,0,2.4,1.1,2.4,2.3c0,0.4-0.1,0.8-0.2,1.2h-4.8C294.3,97,294.3,97.1,294.3,97.1z M298.4,96.2
			c0-0.1,0-0.3,0-0.5c0-0.8-0.5-1.6-1.5-1.6c-1.2,0-2.1,0.9-2.5,2H298.4z"/>
		<path d="M299.7,98.7l0.6-0.6c0.7,0.6,1.4,0.9,2.1,0.9c0.7,0,1.3-0.4,1.3-1c0-0.4-0.3-0.7-1.2-1c-1.1-0.4-1.7-0.8-1.7-1.7
			c0-1,0.9-1.9,2.3-1.9c0.9,0,1.7,0.4,2.3,0.8l-0.5,0.6c-0.5-0.4-1.1-0.7-1.8-0.7c-0.9,0-1.3,0.5-1.3,1c0,0.4,0.2,0.7,1.2,1
			c1.1,0.4,1.7,0.9,1.7,1.7c0,1.1-1,1.9-2.3,1.9C301.4,99.7,300.4,99.4,299.7,98.7z"/>
		<path d="M309.4,98.1c0-1.4,1.1-2.2,2.7-2.2c0.8,0,1.6,0.2,2.2,0.3l0-0.2c0-0.2,0.1-0.4,0.1-0.5c0-0.8-0.5-1.2-1.6-1.2
			c-0.6,0-1.2,0.1-1.7,0.3l-0.2-0.8c0.6-0.2,1.2-0.4,2-0.4c1.5,0,2.4,0.7,2.4,1.9c0,0.2,0,0.6-0.1,0.8l-0.9,3.5h-0.9l0.2-1
			c-0.6,0.6-1.3,1.1-2.3,1.1C310.3,99.7,309.4,99.1,309.4,98.1z M314,97.2l0.1-0.4c-0.5-0.1-1.2-0.3-2-0.3c-1.1,0-1.8,0.6-1.8,1.4
			c0,0.6,0.5,1.1,1.3,1.1C312.6,99,313.7,98.3,314,97.2z"/>
		<path d="M315.8,100.5l0.6-0.6c0.6,0.6,1.5,0.9,2.4,0.9c0.8,0,1.3-0.2,1.7-0.6c0.4-0.4,0.6-0.8,0.8-1.5l0.2-0.6
			c-0.6,0.6-1.3,1.1-2.3,1.1c-1.3,0-2.5-0.8-2.5-2.3c0-2,1.7-3.5,3.4-3.5c1.3,0,1.9,0.7,2.2,1.5l0.4-1.3h0.9l-1.4,5.2
			c-0.3,0.9-0.6,1.5-1,1.9c-0.6,0.6-1.3,0.9-2.4,0.9C317.7,101.5,316.6,101.1,315.8,100.5z M322,95.9c0-0.9-0.7-1.7-1.9-1.7
			c-1.3,0-2.5,1.1-2.5,2.5c0,1.1,0.8,1.6,1.8,1.6C320.7,98.4,322,97.2,322,95.9z"/>
		<path d="M325.2,97.1c0,1.1,0.7,1.8,1.8,1.8c0.8,0,1.3-0.3,1.9-0.7l0.5,0.6c-0.6,0.5-1.3,0.9-2.4,0.9c-1.6,0-2.7-1-2.7-2.6
			c0-1.9,1.5-3.8,3.5-3.8c1.5,0,2.4,1.1,2.4,2.3c0,0.4-0.1,0.8-0.2,1.2h-4.8C325.2,97,325.2,97.1,325.2,97.1z M329.3,96.2
			c0-0.1,0-0.3,0-0.5c0-0.8-0.5-1.6-1.5-1.6c-1.2,0-2.1,0.9-2.5,2H329.3z M328.3,91.1h0.8l0.8,1.5h-0.7l-0.6-0.8l-1.1,0.8h-0.8
			L328.3,91.1z"/>
		<path d="M332.5,93.5h0.9l-0.3,1c0.6-0.6,1.2-1.1,2.1-1.1c1.2,0,1.9,0.7,1.9,1.9c0,0.3-0.1,0.6-0.2,0.9l-0.9,3.4h-0.9l0.9-3.5
			c0.1-0.2,0.1-0.5,0.1-0.7c0-0.8-0.5-1.3-1.4-1.3c-0.9,0-1.9,0.8-2.2,2l-0.9,3.4h-0.9L332.5,93.5z"/>
		<path d="M338.5,97.1c0-2,1.7-3.7,3.6-3.7c1.3,0,2,0.7,2.4,1.4l-0.7,0.5c-0.4-0.6-0.8-1.1-1.8-1.1c-1.4,0-2.6,1.4-2.6,2.9
			c0,1.2,0.9,1.9,1.8,1.9c0.7,0,1.3-0.3,1.8-0.8l0.5,0.6c-0.6,0.6-1.4,1-2.4,1C339.8,99.8,338.5,98.8,338.5,97.1z"/>
		<path d="M346.5,93.5h0.9l-1.6,6.1h-0.9L346.5,93.5z M347,91.2h1l-0.3,1h-1L347,91.2z"/>
		<path d="M347.9,98.1c0-1.4,1.1-2.2,2.7-2.2c0.8,0,1.6,0.2,2.2,0.3l0-0.2c0-0.2,0.1-0.4,0.1-0.5c0-0.8-0.5-1.2-1.6-1.2
			c-0.6,0-1.2,0.1-1.7,0.3l-0.2-0.8c0.6-0.2,1.2-0.4,2-0.4c1.5,0,2.4,0.7,2.4,1.9c0,0.2,0,0.6-0.1,0.8l-0.9,3.5h-0.9l0.2-1
			c-0.6,0.6-1.3,1.1-2.3,1.1C348.8,99.7,347.9,99.1,347.9,98.1z M352.5,97.2l0.1-0.4c-0.5-0.1-1.2-0.3-2-0.3c-1.1,0-1.8,0.6-1.8,1.4
			c0,0.6,0.5,1.1,1.3,1.1C351.1,99,352.2,98.3,352.5,97.2z"/>
		<path d="M354.4,98.7l0.6-0.6c0.7,0.6,1.4,0.9,2.1,0.9c0.7,0,1.3-0.4,1.3-1c0-0.4-0.3-0.7-1.2-1c-1.1-0.4-1.7-0.8-1.7-1.7
			c0-1,0.9-1.9,2.3-1.9c0.9,0,1.7,0.4,2.3,0.8l-0.5,0.6c-0.5-0.4-1.1-0.7-1.8-0.7c-0.9,0-1.3,0.5-1.3,1c0,0.4,0.2,0.7,1.2,1
			c1.1,0.4,1.7,0.9,1.7,1.7c0,1.1-1,1.9-2.3,1.9C356.1,99.7,355.1,99.4,354.4,98.7z"/>
	</g>
</g>
</svg>
