<?xml version="1.0" encoding="utf-8"?>
<!-- Generator: Adobe Illustrator 17.1.0, SVG Export Plug-In . SVG Version: 6.00 Build 0)  -->
<!DOCTYPE svg PUBLIC "-//W3C//DTD SVG 1.1//EN" "http://www.w3.org/Graphics/SVG/1.1/DTD/svg11.dtd">
<svg version="1.1" id="Layer_1" xmlns="http://www.w3.org/2000/svg" xmlns:xlink="http://www.w3.org/1999/xlink" x="0px" y="0px"
	 width="103px" height="24.75px" viewBox="0 0 103 24.75" enable-background="new 0 0 103 24.75" xml:space="preserve">
<g>
	<path fill="#6C6D6D" d="M41.8862,15.4082c0,1.6836-0.4678,2.9717-1.4028,3.8623s-2.2817,1.3359-4.04,1.3359h-2.854V10.4048h3.1538
		c1.6235,0,2.8867,0.4375,3.7891,1.312S41.8862,13.8218,41.8862,15.4082z M40.1274,15.4639c0-2.4424-1.1421-3.6636-3.4258-3.6636
		h-1.4443v7.4038h1.186C38.8994,19.2041,40.1274,17.957,40.1274,15.4639z"/>
	<path fill="#6C6D6D" d="M46.4155,20.7461c-1.2002,0-2.1387-0.3496-2.8154-1.0498s-1.0151-1.665-1.0151-2.8926
		c0-1.2607,0.314-2.252,0.9419-2.9727c0.6279-0.7212,1.4907-1.0815,2.5889-1.0815c1.0186,0,1.8232,0.3096,2.4141,0.9277
		c0.5908,0.6187,0.8862,1.4702,0.8862,2.5542v0.8857h-5.1426c0.0234,0.749,0.2256,1.3252,0.6069,1.7275s0.9189,0.6035,1.6118,0.6035
		c0.4561,0,0.8804-0.043,1.2734-0.1289s0.8154-0.2295,1.2666-0.4297v1.333c-0.3999,0.1904-0.8047,0.3252-1.2139,0.4043
		C47.4087,20.7061,46.9414,20.7461,46.4155,20.7461z M46.1157,13.9917c-0.521,0-0.9385,0.1646-1.2524,0.4946
		c-0.3145,0.3311-0.5015,0.8125-0.562,1.4453h3.5029c-0.0093-0.6377-0.1631-1.1201-0.4604-1.4482
		C47.0459,14.1553,46.6367,13.9917,46.1157,13.9917z"/>
	<path fill="#6C6D6D" d="M52.1802,20.6064l-2.9307-7.7173H50.98l1.5698,4.4868c0.2705,0.7529,0.4326,1.3633,0.4893,1.8281h0.0557
		c0.042-0.335,0.2041-0.9443,0.4883-1.8281l1.5703-4.4868h1.7441l-2.9443,7.7173H52.1802z"/>
	<path fill="#6C6D6D" d="M60.582,20.7461c-1.2002,0-2.1387-0.3496-2.8154-1.0498s-1.0146-1.665-1.0146-2.8926
		c0-1.2607,0.3135-2.252,0.9414-2.9727c0.6279-0.7212,1.4912-1.0815,2.5889-1.0815c1.0186,0,1.8232,0.3096,2.4141,0.9277
		c0.5908,0.6187,0.8867,1.4702,0.8867,2.5542v0.8857h-5.1426c0.0234,0.749,0.2256,1.3252,0.6064,1.7275
		c0.3818,0.4023,0.9189,0.6035,1.6123,0.6035c0.4561,0,0.8799-0.043,1.2734-0.1289c0.3926-0.0859,0.8154-0.2295,1.2666-0.4297v1.333
		c-0.3994,0.1904-0.8047,0.3252-1.2139,0.4043C61.5752,20.7061,61.1084,20.7461,60.582,20.7461z M60.2822,13.9917
		c-0.5205,0-0.9385,0.1646-1.252,0.4946c-0.3145,0.3311-0.502,0.8125-0.5625,1.4453h3.5029
		c-0.0088-0.6377-0.1631-1.1201-0.46-1.4482C61.2129,14.1553,60.8037,13.9917,60.2822,13.9917z"/>
	<path fill="#6C6D6D" d="M66.2285,20.6064h-1.6406V9.749h1.6406V20.6064z"/>
	<path fill="#6C6D6D" d="M74.5605,16.7334c0,1.2607-0.3232,2.2451-0.9697,2.9521s-1.5469,1.0605-2.7002,1.0605
		c-0.7217,0-1.3584-0.1631-1.9121-0.4883c-0.5537-0.3262-0.9795-0.793-1.2773-1.4023s-0.4463-1.3164-0.4463-2.1221
		c0-1.251,0.3213-2.2285,0.9629-2.9302c0.6416-0.7026,1.5469-1.0537,2.7139-1.0537c1.1172,0,2.001,0.3594,2.6523,1.0781
		C74.2344,14.5459,74.5605,15.5146,74.5605,16.7334z M68.9434,16.7334c0,1.7822,0.6582,2.6729,1.9746,2.6729
		c1.3027,0,1.9541-0.8906,1.9541-2.6729c0-1.7627-0.6562-2.6445-1.9678-2.6445c-0.6885,0-1.1875,0.2285-1.4971,0.6836
		C69.0977,15.2295,68.9434,15.8828,68.9434,16.7334z"/>
	<path fill="#6C6D6D" d="M79.502,20.7461c-0.9766,0-1.7354-0.3516-2.2744-1.0537h-0.0977c0.0645,0.6514,0.0977,1.0469,0.0977,1.1865
		v3.1602h-1.6406V12.8892h1.3262c0.0371,0.144,0.1143,0.4883,0.2305,1.0327h0.084c0.5117-0.7817,1.2783-1.1724,2.3018-1.1724
		c0.9639,0,1.7139,0.3486,2.251,1.0464c0.5371,0.6973,0.8057,1.6777,0.8057,2.9375c0,1.2607-0.2734,2.2451-0.8193,2.9521
		C81.2197,20.3926,80.4648,20.7461,79.502,20.7461z M79.1045,14.0889c-0.6514,0-1.127,0.1904-1.4277,0.5723
		c-0.2998,0.3818-0.4492,0.9912-0.4492,1.8281v0.2441c0,0.9404,0.1484,1.6201,0.4463,2.041
		c0.2979,0.4219,0.7832,0.6318,1.458,0.6318c0.5674,0,1.0049-0.2324,1.3125-0.6982c0.3066-0.4648,0.46-1.1279,0.46-1.9883
		c0-0.8652-0.1523-1.5195-0.457-1.9648C80.1426,14.3115,79.6953,14.0889,79.1045,14.0889z"/>
	<path fill="#6C6D6D" d="M87.0039,20.7461c-1.2002,0-2.1387-0.3496-2.8164-1.0498c-0.6768-0.7002-1.0146-1.665-1.0146-2.8926
		c0-1.2607,0.3135-2.252,0.9414-2.9727c0.6289-0.7212,1.4912-1.0815,2.5889-1.0815c1.0195,0,1.8242,0.3096,2.415,0.9277
		c0.5898,0.6187,0.8857,1.4702,0.8857,2.5542v0.8857h-5.1426c0.0234,0.749,0.2256,1.3252,0.6074,1.7275
		c0.3809,0.4023,0.918,0.6035,1.6113,0.6035c0.4561,0,0.8809-0.043,1.2734-0.1289c0.3936-0.0859,0.8154-0.2295,1.2666-0.4297v1.333
		c-0.4004,0.1904-0.8047,0.3252-1.2139,0.4043S87.5293,20.7461,87.0039,20.7461z M86.7031,13.9917
		c-0.5205,0-0.9385,0.1646-1.252,0.4946c-0.3145,0.3311-0.502,0.8125-0.5615,1.4453h3.502c-0.0088-0.6377-0.1621-1.1201-0.46-1.4482
		S87.2246,13.9917,86.7031,13.9917z"/>
	<path fill="#6C6D6D" d="M94.9248,12.7495c0.3301,0,0.6025,0.0234,0.8164,0.0698l-0.1602,1.5273
		c-0.2334-0.0557-0.4746-0.083-0.7266-0.083c-0.6553,0-1.1865,0.2139-1.5938,0.6416s-0.6104,0.9844-0.6104,1.668v4.0332h-1.6406
		v-7.7173h1.2842l0.2168,1.3599h0.083c0.2559-0.46,0.5898-0.8252,1.002-1.0947C94.0068,12.8843,94.4502,12.7495,94.9248,12.7495z"/>
	<path fill="#6C6D6D" d="M101.498,18.4082c0,0.7539-0.2744,1.332-0.8232,1.7344s-1.335,0.6035-2.3584,0.6035
		c-1.0283,0-1.8535-0.1562-2.4766-0.4678v-1.416c0.9062,0.418,1.751,0.6279,2.5322,0.6279c1.0098,0,1.5146-0.3047,1.5146-0.9141
		c0-0.1953-0.0557-0.3584-0.168-0.4883c-0.1113-0.1309-0.2949-0.2656-0.5508-0.4053s-0.6123-0.2979-1.0674-0.4746
		c-0.8887-0.3438-1.4902-0.6885-1.8037-1.0322c-0.3145-0.3447-0.4717-0.791-0.4717-1.3398c0-0.6611,0.2666-1.1733,0.7988-1.5386
		c0.5332-0.3652,1.2578-0.5479,2.1738-0.5479c0.9072,0,1.7656,0.1836,2.5752,0.5513l-0.5303,1.2344
		c-0.833-0.3438-1.5332-0.5156-2.1006-0.5156c-0.8652,0-1.2979,0.2461-1.2979,0.7393c0,0.2422,0.1123,0.4473,0.3379,0.6143
		s0.7178,0.3975,1.4766,0.6904c0.6367,0.2471,1.0996,0.4727,1.3887,0.6777c0.2881,0.2041,0.502,0.4404,0.6416,0.708
		S101.498,18.0361,101.498,18.4082z"/>
</g>
<g>
	<path fill-rule="evenodd" clip-rule="evenodd" fill="#666666" d="M54.3828,4.7319c0.1094-0.0464,0.1192-0.0547,0.0762-0.1704
		c-0.2285-0.6528-1.0908-1.0068-1.8281-0.6997c-0.5791,0.2417-0.9996,0.8545-0.9996,1.542c0,0.9253,0.6656,1.7471,1.5748,1.7471
		c0.414,0,0.7099-0.0567,0.9736-0.2227c0.0566-0.0532,0.373-0.3095,0.3789-0.3637c0-0.0137-0.0469,0.0258-0.1143,0.0649
		c-0.206,0.1089-0.5146,0.1499-0.7539,0.1543c-0.4863,0.0098-0.8779-0.3242-1.1308-0.7163c-0.166-0.2554-0.2686-0.5459-0.294-0.857
		c-0.042-0.4775,0.0757-1.0292,0.6143-1.1645c0.3633-0.0913,0.7021,0.1099,0.8359,0.4565c0.0596,0.1612,0.0235,0.2413-0.122,0.2994
		l-1.3003,0.5463l0.4419,0.0279C53.2646,5.1558,53.8545,4.9507,54.3828,4.7319"/>
	<path fill-rule="evenodd" clip-rule="evenodd" fill="#666666" d="M50.3774,2.0635h0.9712
		c-0.1338,0.0879-0.1797,0.1245-0.2378,0.2148c-0.0424,0.0655-0.0527,0.1924-0.0625,0.3032
		c-0.0537,1.2994-0.0214,2.605-0.0302,3.9039c0.0078,0.3544,0.1455,0.312,0.6054,0.2983c-0.0693,0.0596-0.1806,0.1738-0.2666,0.2251
		c-0.417,0-0.812-0.0078-1.228-0.0078c0.1558-0.1626,0.2373-0.2681,0.2266-0.6709c0.0068-1.354-0.0459-2.6558,0.0381-3.961
		c-0.1939,0.0044-0.3721,0.0015-0.5679,0.0079C50.0117,2.2827,50.1841,2.1494,50.3774,2.0635"/>
	<path fill-rule="evenodd" clip-rule="evenodd" fill="#666666" d="M48.6187,7.2305c0.0708,0.0508,0.1455,0.0996,0.2187,0.1494
		c0.4092,0.2583,0.541,0.5732,0.5068,0.8657c-0.0395,0.3525-0.3798,0.6284-0.9555,0.6626
		c-0.6187,0.0381-1.4483-0.2056-1.2945-1.0176c0.083-0.4326,0.6573-0.6543,1.1289-0.6694
		C48.3569,7.2173,48.4883,7.2266,48.6187,7.2305 M50.0151,3.8545l-0.416,0.2685h-0.4717c0.2007,0.1373,0.3521,0.3409,0.4371,0.564
		c0.0888,0.2393,0.102,0.5044,0.0122,0.7461c-0.087,0.2305-0.2618,0.4282-0.5196,0.5772c-0.143,0.0854-0.2197,0.1962-0.2275,0.2988
		c-0.023,0.3032,0.3481,0.5229,0.561,0.6826c0.4698,0.3501,0.6529,0.9258,0.3404,1.4829c-0.2955,0.5283-0.9986,0.7676-1.7491,0.7681
		c-0.9292-0.0005-1.5175-0.4287-1.5473-1.0108c-0.0406-0.748,0.7295-1.1054,1.4228-1.188c0.1953-0.0214,0.3716-0.0185,0.5327-0.0087
		c-0.2451-0.1597-0.3379-0.4893-0.2129-0.7105c0.0342-0.0561,0.0142-0.0371-0.0488-0.0283
		c-0.5693,0.0859-1.1548-0.2847-1.2925-0.8467c-0.0678-0.2827-0.0244-0.582,0.0835-0.814c0.2354-0.5048,0.7593-0.7871,1.3404-0.7871
		C48.8623,3.8486,49.4233,3.8486,50.0151,3.8545 M48.9697,5.0864c0.0752,0.4488-0.0395,0.8745-0.4458,0.9888
		c-0.416,0.1147-0.8745-0.21-1.0215-0.7866c-0.165-0.6363,0.003-1.0396,0.3955-1.1612C48.3613,3.981,48.8569,4.4014,48.9697,5.0864"
		/>
	<path fill-rule="evenodd" clip-rule="evenodd" fill="#666666" d="M44.7314,3.7593c1.1148,0,1.6973,0.7412,1.7486,1.6103
		c0.0517,0.8648-0.6631,1.6387-1.5347,1.7305c-1.0493,0.1128-1.9668-0.6099-1.9668-1.667
		C42.9785,4.5107,43.7676,3.7593,44.7314,3.7593 M45.7842,5.4805c0.0649,0.6352-0.1485,1.229-0.7183,1.3613
		C44.48,6.9741,43.8584,6.4902,43.7056,5.668c-0.1709-0.9043,0.1093-1.5,0.6611-1.6465C45.022,3.8496,45.6885,4.5083,45.7842,5.4805
		"/>
	<path fill-rule="evenodd" clip-rule="evenodd" fill="#666666" d="M40.9111,3.7593c1.1255,0,1.7124,0.7412,1.7657,1.6103
		c0.0546,0.8648-0.6675,1.6387-1.5513,1.7305c-1.063,0.1128-1.9898-0.6099-1.9898-1.667
		C39.1357,4.5107,39.9336,3.7593,40.9111,3.7593 M41.9746,5.4805c0.0645,0.6352-0.1509,1.229-0.7275,1.3613
		c-0.5918,0.1323-1.2193-0.3516-1.3755-1.1738c-0.1724-0.9043,0.1123-1.5,0.6709-1.6465
		C41.2036,3.8496,41.8765,4.5083,41.9746,5.4805"/>
	<path fill-rule="evenodd" clip-rule="evenodd" fill="#666666" d="M38.1069,3.2969l0.5054-0.52
		c-0.8608-0.711-2.3374-0.8038-3.3164-0.3096c-0.8506,0.4316-1.4697,1.2856-1.4985,2.2397
		c-0.0347,1.0015,0.5537,1.7984,1.1445,2.1958c0.978,0.6602,2.6728,0.5152,3.6943-0.0024l-0.0039-0.0947h0.0039V5.7544
		l0.2364-0.2798h-1.4869l-0.5522,0.311l1.0708-0.0312v0.9258c0,0.1333,0.002,0.1518-0.2158,0.2226
		c-0.3052,0.0816-0.6489,0.0982-0.9639,0.0713c-1.0688-0.0908-1.8823-0.9355-2.0752-1.9868
		c-0.186-1.0005,0.2881-1.9463,1.0845-2.3345c0.3887-0.1904,0.8559-0.2812,1.3623-0.1176c0.3159,0.0991,0.6055,0.2841,0.8559,0.5356
		l-0.1752,0.3145L38.1069,3.2969z"/>
</g>
<g>
	<g>
		<radialGradient id="SVGID_1_" cx="20.496" cy="0.1763" r="18.2503" gradientUnits="userSpaceOnUse">
			<stop  offset="0" style="stop-color:#0DA960"/>
			<stop  offset="1" style="stop-color:#03914B"/>
		</radialGradient>
		<path fill="url(#SVGID_1_)" d="M24.1431,16.1289c0.2656,0.4395,0.2715,1.1328,0.042,1.6094l3.1679-5.2769
			c0.2832-0.4726,0.2832-1.2436,0-1.7143l-5.1201-8.5293c-0.2842-0.4702-0.9658-0.857-1.5156-0.857h-4.4629
			c-0.5488,0-0.7676,0.3868-0.4844,0.857l3.1875,5.3071c0.0196,0.0269,0.0469,0.0508,0.0635,0.0757L24.1431,16.1289z"/>
		<radialGradient id="SVGID_2_" cx="21.1084" cy="11.6152" r="13.5368" gradientUnits="userSpaceOnUse">
			<stop  offset="0" style="stop-color:#FFCD4D"/>
			<stop  offset="1" style="stop-color:#F6C338"/>
		</radialGradient>
		<path fill="url(#SVGID_2_)" d="M16.2544,21.8457h4.4629c0.5498,0,1.2314-0.3838,1.5156-0.8574l1.9522-3.25
			c0.2295-0.4766,0.2236-1.1699-0.042-1.6094l-3.25-5.3818c0.2822,0.4707,0.2822,1.2417,0,1.7143l-3.169,5.273
			c-0.0166,0.0351-0.0244,0.0761-0.042,0.1094l-1.9453,3.2382C15.5376,21.5078,15.7427,21.8457,16.2544,21.8457z"/>
		<linearGradient id="SVGID_3_" gradientUnits="userSpaceOnUse" x1="25.3872" y1="14.2427" x2="19.624" y2="14.2427">
			<stop  offset="0" style="stop-color:#231F20;stop-opacity:0.2"/>
			<stop  offset="1" style="stop-color:#F1F2F2;stop-opacity:0.25"/>
		</linearGradient>
		<path fill="url(#SVGID_3_)" d="M24.1431,16.1289l-3.25-5.3818c0.2822,0.4707,0.2822,1.2417,0,1.7143l-1.1446,1.9068l4.4366,3.3701
			C24.4146,17.2617,24.4087,16.5684,24.1431,16.1289z"/>
	</g>
	<g>
		
			<radialGradient id="SVGID_4_" cx="-115.7951" cy="70.0186" r="18.2511" gradientTransform="matrix(-1 0 0 -1 -107.2246 93.0488)" gradientUnits="userSpaceOnUse">
			<stop  offset="0" style="stop-color:#4387FD"/>
			<stop  offset="1" style="stop-color:#4683EA"/>
		</radialGradient>
		<path fill="url(#SVGID_4_)" d="M4.9224,7.0776C4.6597,6.6377,4.6509,5.9443,4.8823,5.4678l-3.1704,5.2773
			c-0.2827,0.4727-0.2827,1.2437,0,1.7149l5.1235,8.5283c0.2823,0.4707,0.9649,0.8574,1.5127,0.8574h4.4629
			c0.5508,0,0.7696-0.3867,0.4864-0.8574l-3.1895-5.3067c-0.0176-0.0273-0.0469-0.0507-0.0625-0.0761L4.9224,7.0776z"/>
		
			<radialGradient id="SVGID_5_" cx="-115.1831" cy="81.4569" r="13.5375" gradientTransform="matrix(-1 0 0 -1 -107.2246 93.0488)" gradientUnits="userSpaceOnUse">
			<stop  offset="0" style="stop-color:#E04A3F"/>
			<stop  offset="1" style="stop-color:#CD372D"/>
		</radialGradient>
		<path fill="url(#SVGID_5_)" d="M12.811,1.3608H8.3481c-0.5478,0-1.2304,0.3843-1.5127,0.857l-1.9531,3.25
			C4.6509,5.9443,4.6597,6.6377,4.9224,7.0776L8.1743,12.46c-0.2832-0.4712-0.2832-1.2422,0-1.7149l3.168-5.2734
			c0.0156-0.0352,0.0234-0.0757,0.0439-0.1094l1.9444-3.2378C13.5298,1.6987,13.3228,1.3608,12.811,1.3608z"/>
		
			<linearGradient id="SVGID_6_" gradientUnits="userSpaceOnUse" x1="-110.9041" y1="84.0849" x2="-116.6679" y2="84.0849" gradientTransform="matrix(-1 0 0 -1 -107.2246 93.0488)">
			<stop  offset="0" style="stop-color:#231F20;stop-opacity:0.2"/>
			<stop  offset="1" style="stop-color:#F1F2F2;stop-opacity:0.25"/>
		</linearGradient>
		<path fill="url(#SVGID_6_)" d="M4.9224,7.0776L8.1743,12.46c-0.2832-0.4712-0.2832-1.2422,0-1.7149l1.1445-1.9062L4.8823,5.4678
			C4.6509,5.9443,4.6597,6.6377,4.9224,7.0776z"/>
	</g>
</g>
</svg>
