<?xml version="1.0" encoding="utf-8"?>
<!-- Generator: Adobe Illustrator 17.1.0, SVG Export Plug-In . SVG Version: 6.00 Build 0)  -->
<!DOCTYPE svg PUBLIC "-//W3C//DTD SVG 1.1//EN" "http://www.w3.org/Graphics/SVG/1.1/DTD/svg11.dtd">
<svg version="1.1" id="Layer_1" xmlns="http://www.w3.org/2000/svg" xmlns:xlink="http://www.w3.org/1999/xlink" x="0px" y="0px"
	 width="500px" height="500px" viewBox="0 0 500 500" enable-background="new 0 0 500 500" xml:space="preserve">
<g>
	<g>
		<path fill-rule="evenodd" clip-rule="evenodd" fill="#034EA1" d="M373.7383,166.1094
			c28.0605-13.7515,43.5156-29.3838,41.2607-42.3311c-4.8291-27.1675-87.2568-31.5449-172.331-16.4565
			c-38.9307,6.9136-76.17,17.2641-101.3662,27.5801c1.3339-0.0743,2.2539-0.0391,2.2539-0.0391
			c10.9062,0.3218,10.2402,7.085,10.2402,7.085l0.0283,4.1318h-8.7002v-2.7993c0-1.9888-2.414-2.1216-2.414-2.1216
			c-1.8692,0-2.3096,1.2412-2.3096,1.2412c-1.0166,1.9331,0.7314,3.6064,0.7314,3.6064c0.9112,0.9766,5.4121,3.0801,5.4121,3.0801
			c1.4659,0.584,3.8516,2.0313,3.8516,2.0313c4.3965,2.6489,4.0029,7.7041,4.0029,7.7041v3.3237
			c-0.5263,8.2505-11.9052,8.0054-11.9052,8.0054c-11.875,0-11.6192-7.7803-11.6192-7.7803v-4.0942h9.2735v2.8003
			c0,2.4043,2.2812,2.5161,2.2812,2.5161c2.5361,0.0727,2.7617-2.3662,2.7617-2.3662c0.3194-2.3706-2.29-3.8516-2.29-3.8516
			c-2.585-1.3354-6.9063-3.6641-6.9063-3.6641c-2.1318-1.3906-2.9785-2.6699-2.9785-2.6699c-1.54-1.916-1.4199-4.9038-1.4199-4.9038
			v-2.6123c0-3.5679,0.9414-4.604,0.9414-4.604c0.0459-0.0723,0.082-0.1494,0.1406-0.2227
			c-31.0664,14.3536-50.1113,31.0015-47.6865,44.6973c4.8945,27.7695,82.6143,31.3984,174.0508,17.3247
			c42.0967-6.5024,78.7451-18.4145,106.4853-30.7764c-0.2255,0-0.4218,0-0.621,0c0,0-11.2071,0.9019-11.4795-8.1157V144.333
			c0,0-1.3721-9.6206,11.1699-9.6206c0,0,8.1846-0.2622,10.3437,4.5859c0,0,1.0713,1.3145,0.7705,6.67h-8.7002v-2.7618
			c0,0-0.0166-2.2153-2.2812-2.2153c0,0-2.3594,0.0938-2.3594,1.9526v18.0948c0,0-0.1103,2.4052,2.5567,2.4052
			c0,0,2.1787-0.0566,2.1787-2.5942v-5.2226h-2.376v-4.8658h11.1777v10.2774c0,0,0,2.1421-0.9013,3.4004
			C375.0059,164.439,374.0957,165.8286,373.7383,166.1094 M341.8721,169.0034h-10.2412l-9.1582-20.1782h-0.3946l0.5069,20.1782H314
			v-32.9731h10.5479l8.832,20.0093h0.3945l-0.6191-20.0298h8.7168V169.0034z M287.9287,160.8315
			c0,2.8003,2.6699,2.6495,2.6699,2.6495c2.5176,0,2.3858-2.7256,2.3858-2.7256v-24.857h9.2256v25.1402
			c0,9.0732-11.4825,8.9614-11.4825,8.9614c-13.2158,0-12.2675-9.395-12.2675-9.395v-24.7066h9.4423L287.9287,160.8315z
			 M258.9277,146.0796v-2.7993c0-1.9888-2.4121-2.1216-2.4121-2.1216c-1.8789,0-2.3125,1.2412-2.3125,1.2412
			c-1.0049,1.9331,0.75,3.6064,0.75,3.6064c0.9033,0.9766,5.4131,3.0801,5.4131,3.0801c1.4658,0.584,3.8037,2.0313,3.8037,2.0313
			c4.4248,2.6489,4.0498,7.7041,4.0498,7.7041v3.3237c-0.5342,8.2505-11.9023,8.0054-11.9023,8.0054
			c-11.9024,0-11.6406-7.7803-11.6406-7.7803v-4.0942h9.2558v2.8003c0,2.4043,2.3184,2.5161,2.3184,2.5161
			c2.5176,0.0727,2.7246-2.3662,2.7246-2.3662c0.3564-2.3706-2.2627-3.8516-2.2627-3.8516
			c-2.585-1.3354-6.9063-3.6641-6.9063-3.6641c-2.1318-1.3906-2.9863-2.6699-2.9863-2.6699
			c-1.542-1.916-1.4277-4.9038-1.4277-4.9038v-2.6123c0-3.5679,0.957-4.604,0.957-4.604
			c2.4531-4.6206,11.0283-4.0581,11.0283-4.0581c10.8975,0.3218,10.2412,7.085,10.2412,7.085l0.0196,4.1318H258.9277z
			 M213.3643,136.0098l2.792,18.0581h0.6669l2.9219-18.0581h14.335l0.9502,32.9936h-8.6436l-0.1972-24.8564h-0.5918l-4.5088,24.8564
			h-9.0479l-4.5459-24.8564h-0.6777l-0.0938,24.8564h-8.5957l0.7237-32.9936H213.3643z M179.6777,168.9668l-3.3925-25.5708h-0.7696
			l-3.3808,25.5708h-9.2442l5.7119-32.9917h14.5899l5.7109,32.9917H179.6777z"/>
	</g>
	<g>
		<rect x="85.1641" y="263.376" fill="#808184" width="330.1064" height="3"/>
	</g>
	<g>
		<g>
			<path fill="#034EA1" d="M202.416,386.5527c-9.498,0-14.2109-6.6543-14.2109-14.956v-23.9336
				c0-8.3018,4.7129-14.959,14.2109-14.959h3.7393c9.499,0,14.2851,6.6572,14.2851,14.959v23.9336
				c0,8.3017-4.7861,14.956-14.2851,14.956H202.416z M213.2607,347.6631c0-4.4873-2.0947-8.0781-7.1054-8.0781h-3.7393
				c-4.9355,0-7.0303,3.5908-7.0303,8.0781v23.9336c0,4.4121,2.0948,8.0762,7.0303,8.0762h3.7393
				c5.0107,0,7.1054-3.6641,7.1054-8.0762V347.6631z"/>
			<path fill="#034EA1" d="M253.4219,386.5527c-9.499,0-14.21-6.6543-14.21-14.956v-23.9336c0-8.3018,4.711-14.959,14.21-14.959
				h5.7588c7.5547,0,12.2656,3.2178,12.2656,10.9941c0,2.0196-1.0469,3.5899-3.5899,3.5899c-2.6181,0-3.5898-1.5703-3.5898-3.5899
				c0-2.8408-2.0195-4.1132-5.0859-4.1132h-5.7588c-4.9365,0-7.0303,3.5908-7.0303,8.0781v23.9336
				c0,4.4121,2.0938,8.0762,7.0303,8.0762h5.7588c3.0664,0,5.0859-1.2715,5.0859-4.1875c0-2.0196,0.9717-3.5899,3.5898-3.5899
				c2.543,0,3.5899,1.5703,3.5899,3.5899c0,7.7773-4.7109,11.0673-12.2656,11.0673H253.4219z"/>
			<path fill="#034EA1" d="M292.8359,385.8066c-2.6171,0-3.5898-1.5712-3.5898-3.5908v-45.1719
				c0-2.0195,0.9727-3.5918,3.5898-3.5918h21.6885c1.9444,0,3.4414,0.9727,3.4414,3.4424c0,2.4668-1.497,3.4395-3.4414,3.4395
				h-18.0986v15.0332h14.5097c1.9444,0,3.4395,1.0469,3.4395,3.4394c0,2.4678-1.4951,3.4395-3.4395,3.4395h-14.5097v16.6797h18.0986
				c1.9444,0,3.4414,0.9726,3.4414,3.4394c0,2.4698-1.497,3.4414-3.4414,3.4414H292.8359z"/>
			<path fill="#034EA1" d="M357.9795,371.2217h-16.1553l-4.1133,12.7148c-0.5996,1.7949-2.0195,3.0664-4.2636,2.3926
				c-2.3184-0.748-2.8418-2.6172-2.2432-4.4863l14.957-46.5205c0.5987-1.795,1.4961-2.6182,3.5899-2.6182h0.376
				c2.0185,0,2.9902,0.8232,3.5888,2.6182l14.958,46.5205c0.5987,1.7939-0.0742,3.7383-2.2441,4.4863
				c-2.169,0.6738-3.6641-0.5977-4.2637-2.3926L357.9795,371.2217z M351.0234,349.5332c-0.5234-1.6455-0.749-2.4687-1.122-4.2627
				h-0.0743c-0.374,1.794-0.5996,2.6172-1.123,4.2627l-4.7109,14.7334h11.8916L351.0234,349.5332z"/>
			<path fill="#034EA1" d="M391.1855,349.9814h-0.0751c0.1503,1.3457,0.2988,3.1416,0.2988,5.1612v27.8222
				c0,1.9444-1.0469,3.5879-3.5879,3.5879c-2.6192,0-3.5918-1.6435-3.5918-3.5879v-46.6699c0-2.0195,0.9726-3.5908,3.5918-3.5908
				c1.4941,0,2.541,0.4502,3.6631,2.6182l17.2773,33.955h0.0752c-0.1504-1.3466-0.2998-3.1416-0.2998-5.1601v-27.8223
				c0-2.0195,0.9727-3.5908,3.5899-3.5908c2.5429,0,3.5898,1.5713,3.5898,3.5908v46.6699c0,1.9444-1.0469,3.5879-3.5898,3.5879
				c-1.4961,0-2.6172-0.5214-3.6651-2.6162L391.1855,349.9814z"/>
		</g>
		<polygon fill="#034EA1" points="93.209,338.0781 93.2178,373.8271 124.2021,356.123 124.1934,320.375 		"/>
		<polygon fill="#034EA1" points="169.457,376.7383 138.4346,358.7656 138.4346,323.0225 169.457,340.9941 		"/>
		<g>
			<defs>
				<polygon id="SVGID_1_" points="157.9453,342.4727 126.9219,324.499 95.9385,342.2061 95.9385,377.9492 126.9717,395.9258 
					157.9541,378.2207 				"/>
			</defs>
			<clipPath id="SVGID_2_">
				<use xlink:href="#SVGID_1_"  overflow="visible"/>
			</clipPath>
			<g clip-path="url(#SVGID_2_)">
				
					<rect x="54.2143" y="329.0509" transform="matrix(0.7071 -0.7071 0.7071 0.7071 -205.6721 171.4416)" fill="#F16522" width="99.7842" height="9.8622"/>
				
					<rect x="61.1868" y="336.026" transform="matrix(0.7071 -0.7071 0.7071 0.7071 -208.556 178.4063)" fill="#E13C95" width="99.7856" height="9.8581"/>
				
					<rect x="68.1555" y="342.9977" transform="matrix(0.7071 -0.7071 0.7071 0.7071 -211.4422 185.3738)" fill="#00AAE5" width="99.7878" height="9.8553"/>
				
					<rect x="75.1262" y="349.9665" transform="matrix(0.7071 -0.7071 0.7071 0.7071 -214.3284 192.3411)" fill="#034EA1" width="99.7856" height="9.8581"/>
				
					<rect x="82.0982" y="356.936" transform="matrix(0.7071 -0.7071 0.7071 0.7071 -217.2218 199.3235)" fill="#F16522" width="99.7822" height="9.8615"/>
				
					<rect x="89.0718" y="363.9091" transform="matrix(0.7071 -0.7071 0.7071 0.7071 -220.1072 206.292)" fill="#E13C95" width="99.7821" height="9.8595"/>
				
					<rect x="96.0413" y="370.8799" transform="matrix(0.7071 -0.7071 0.7071 0.7071 -222.9941 213.2651)" fill="#17A3DC" width="99.7856" height="9.8554"/>
				
					<rect x="103.0125" y="377.8485" transform="matrix(0.7071 -0.7071 0.7071 0.7071 -225.8842 220.2388)" fill="#1E4593" width="99.7835" height="9.8636"/>
				
					<rect x="109.985" y="384.8233" transform="matrix(0.7071 -0.7071 0.7071 0.7071 -228.7715 227.2117)" fill="#E96424" width="99.7849" height="9.8574"/>
				
					<rect x="116.9554" y="391.7945" transform="matrix(0.7071 -0.7071 0.7071 0.7071 -231.6565 234.176)" fill="#DE2E8A" width="99.7837" height="9.8553"/>
			</g>
		</g>
		<polygon fill="#00B2EF" points="115.3057,398.8359 84.2832,380.8643 84.2832,345.1191 115.3057,363.0918 		"/>
		<g opacity="0.5">
			<defs>
				<polygon id="SVGID_3_" opacity="0.5" points="126.9609,360.1758 126.9717,395.9258 157.9541,378.2207 157.9453,342.4727 				"/>
			</defs>
			<use xlink:href="#SVGID_3_"  overflow="visible" fill="#231F20"/>
			<clipPath id="SVGID_4_">
				<use xlink:href="#SVGID_3_"  overflow="visible"/>
			</clipPath>
		</g>
		<polygon fill="#00AAE5" points="130.1191,365.5186 130.1279,401.2656 161.1123,383.5625 161.1025,347.8145 		"/>
		<g opacity="0.3">
			<defs>
				<polygon id="SVGID_5_" opacity="0.3" points="126.9609,360.1758 95.9385,342.2041 126.9219,324.499 157.9453,342.4727 				"/>
			</defs>
			<use xlink:href="#SVGID_5_"  overflow="visible" fill="#FFFFFF"/>
			<clipPath id="SVGID_6_">
				<use xlink:href="#SVGID_5_"  overflow="visible"/>
			</clipPath>
		</g>
	</g>
</g>
</svg>
