<?xml version="1.0" encoding="utf-8"?>
<!-- Generator: Adobe Illustrator 19.1.0, SVG Export Plug-In . SVG Version: 6.00 Build 0)  -->
<svg version="1.1" id="Layer_1" xmlns="http://www.w3.org/2000/svg" xmlns:xlink="http://www.w3.org/1999/xlink" x="0px" y="0px"
	 viewBox="0 0 414 123" style="enable-background:new 0 0 414 123;" xml:space="preserve">
<style type="text/css">
	.st0{fill-rule:evenodd;clip-rule:evenodd;fill:#222326;}
	.st1{fill:#FFA64D;}
</style>
<path class="st0" d="M25.1,50.6h23.1l-0.4,7.8c-0.1,1.2,0.4,1.7,1.5,1.7h6c1.1,0,1.6-0.5,1.6-1.7V43.5c0-1.1-0.4-1.7-1.6-1.7H7.1
	c-1.1,0-1.6,0.4-1.6,1.7v5.6c0,1.1,0.5,1.6,1.6,1.6H13V108H7.1c-1.1,0-1.6,0.4-1.6,1.7v5.5c0,1.1,0.4,1.7,1.6,1.7h49.7
	c1.2,0,1.6-0.5,1.6-1.7v-14.7c0-1.1-0.5-1.6-1.6-1.6h-6c-1.1,0-1.6,0.4-1.5,1.6l0.4,7.7H25.1V83.3h16.6l-0.3,5.2
	c-0.1,1.2,0.4,1.6,1.5,1.6h6c1.1,0,1.6-0.5,1.6-1.6V68.9c0-1.1-0.5-1.7-1.6-1.7h-6c-1.1,0-1.6,0.4-1.5,1.7l0.4,5.7H25.1V50.6z"/>
<path class="st0" d="M78.3,63.7c-0.3-1.1-1-1.5-2.1-1.5H61.8c-1.1,0-1.6,0.4-1.6,1.6v5.5c0,1.1,0.5,1.6,1.6,1.6h5.5l15.1,44.3
	c0.4,1.1,1.1,1.6,2.2,1.6H94c1.1,0,1.9-0.5,2.2-1.6L115,65.4c0.7-1.6-0.2-3.2-2-3.2H97c-1.1,0-1.7,0.4-1.7,1.6v5.5
	c0,1.1,0.6,1.6,1.7,1.6h5.6L91,104.7L78.3,63.7z"/>
<path class="st0" d="M127.7,84.3c0.2-6.4,2.5-15,12.1-15c9,0,10.9,7.8,10.8,15H127.7z M140.8,118.5c7.6,0,14.2-1.8,18-3.7
	c1-0.5,1.4-1,1-2.1l-2-5c-0.4-1.2-1.1-1.5-2.1-0.9c-3.9,1.9-7.4,3-12.3,3c-11.9,0-14.9-7.6-15.5-17.4h32.1c1.6,0,1.8-0.4,1.9-1.7
	c0.1-1.3,0.1-2.7,0.1-3.7c0-12.7-4.5-26.3-21.2-26.3c-17.2,0-25.1,13.8-25.1,29C115.6,107,122.5,118.5,140.8,118.5z"/>
<path class="st0" d="M165.8,69.5c0,1.2,0.4,1.5,1.7,1.5h5.9v37.2h-5.8c-1.1,0-1.6,0.4-1.6,1.6v5.4c0,1.1,0.5,1.7,1.6,1.7h24.9
	c1.1,0,1.7-0.4,1.7-1.7v-5.4c0-1.1-0.4-1.6-1.7-1.6h-6.9V82.3c0-5.5,5.5-11,12.5-11c8.8,0,9.6,5.6,9.6,13.6v23.3h-5.4
	c-1.1,0-1.7,0.4-1.7,1.6v5.4c0,1.1,0.6,1.7,1.7,1.7H226c1.1,0,1.6-0.4,1.6-1.7v-5.4c0-1.1-0.5-1.6-1.6-1.6h-6.4V79.3
	c0-12.4-5.8-18.5-16.9-18.5c-6.6,0-13.3,2.3-17.8,8.9l-1-5.9c-0.2-1.1-0.6-1.6-1.7-1.6h-14.8c-1.2,0-1.7,0.5-1.7,1.6V69.5z"/>
<path class="st0" d="M245.7,70.9h11.1c1.1,0,1.7-0.4,1.7-1.6v-5.5c0-1.1-0.6-1.6-1.7-1.6h-11.1V47.4c0-1.1-0.5-1.6-1.6-1.6h-8.9
	c-1.2,0-1.6,0.5-1.6,1.6v14.9h-6.3c-1.1,0-1.6,0.4-1.6,1.6v5.5c0,1.1,0.5,1.6,1.6,1.6h6.3v27.5c0,9.9,0,20.1,15.6,20.1
	c4.2,0,9.4-1,12.5-2.5c1-0.5,1.4-1,1-2.1l-2-4.8c-0.4-1.1-0.9-1.3-1.8-0.9c-2,0.9-3.9,1.6-6.7,1.6c-5.7,0-6.6-3.8-6.6-10.1V70.9z"/>
<path class="st0" d="M288.5,108.2h6.9c1.1,0,1.6,0.4,1.6,1.6v5.4c0,1.1-0.6,1.6-1.6,1.6h-25.8c-1.1,0-1.7-0.4-1.7-1.6v-5.4
	c0-1.1,0.6-1.6,1.7-1.6h6.8V71.5h-5.9c-1.1,0-1.6-0.4-1.6-1.6v-5.7c0-1.1,0.5-1.6,1.6-1.6h16.3c1.2,0,1.6,0.6,1.6,1.6V108.2z"/>
<path class="st0" d="M309.2,88.7c0-13,3.9-19.4,13-19.4c6.8,0,9.6,4,10,10.2c0.1,1.5,0.8,1.7,1.9,1.7h6.6c1.1,0,1.9-0.1,1.9-1.5
	c0-10.7-5.3-19.1-19.5-19.1c-18.3,0-25.9,12.5-25.9,29.2c0,17.5,7.2,28.7,25.9,28.7c8.3,0,14-2.1,17.1-3.8c1-0.5,1.3-1.1,0.9-2.2
	l-2-4.8c-0.4-1.2-1.2-1.5-2.3-1c-3.4,1.6-6.8,3.1-11.7,3.1C313,109.8,309.2,100.6,309.2,88.7z"/>
<path class="st0" d="M367,36.3c0-1.1-0.5-1.6-1.6-1.6H349c-1.2,0-1.7,0.5-1.7,1.6v5.5c0,1.1,0.6,1.6,1.7,1.6h5.9v64.8h-5.8
	c-1.1,0-1.6,0.4-1.6,1.6v5.4c0,1.1,0.5,1.7,1.6,1.7h23.8c1.1,0,1.6-0.4,1.6-1.7v-5.4c0-1.1-0.5-1.6-1.6-1.6H367V89h3.6l16.5,26.4
	c0.6,1,1.3,1.4,2.5,1.4h14.2c1.1,0,1.6-0.4,1.6-1.7v-5.4c0-1.1-0.5-1.6-1.6-1.6h-6.5l-15.1-24.9l12.1-12.3h6.7
	c1.1,0,1.6-0.4,1.6-1.6v-5.5c0-1.1-0.5-1.6-1.6-1.6h-8.6c-1.1,0-2,0.3-2.9,1.2l-17,16.9H367V36.3z"/>
<polygon class="st1" points="292.4,51.7 280.7,45 269.1,51.7 271.3,37.5 262,27.5 274.9,25.4 280.7,12.5 286.6,25.3 299.5,27.5 
	290.1,37.4 "/>
</svg>
