<?xml version="1.0" encoding="utf-8"?>
<!-- Generator: Adobe Illustrator 17.1.0, SVG Export Plug-In . SVG Version: 6.00 Build 0)  -->
<!DOCTYPE svg PUBLIC "-//W3C//DTD SVG 1.1//EN" "http://www.w3.org/Graphics/SVG/1.1/DTD/svg11.dtd">
<svg version="1.1" id="Camada_1" xmlns="http://www.w3.org/2000/svg" xmlns:xlink="http://www.w3.org/1999/xlink" x="0px" y="0px"
	 width="394px" height="104.8px" viewBox="0 0 394 104.8" enable-background="new 0 0 394 104.8" xml:space="preserve">
<path fill="#CA8520" d="M390.2,15.6c0,0,2.1,4.8,3.8,5.6h-84.3c-12.6,0-30.9-3-39.6-5.6H390.2z"/>
<g>
	<path fill="#444649" d="M389.8,12.9H265.8c0,0-10.5-3.2-14.5-12.9h116.5C382,0,387.7,6.1,389.8,12.9"/>
	<path fill="#444649" d="M383.5,33.5l-6.5-3.9h5.6c0.5,0,0.9,0.4,0.9,0.9V33.5z M388.1,38.2V24h-31.8c5.3,3.5,8,8.1,8,14.3
		c0,6-3.1,11.3-9.5,14.9h19.7c4.6,0,7.3-2.7,8.3-5.7c1.1-3.2,0.9-6.7,0.9-6.7h1.7C388.1,40.9,388.1,40.5,388.1,38.2"/>
	<path fill="#444649" d="M354.8,38.6c0,5-3.8,8.3-10.1,8.4c-1.3,0-2.6-0.1-3.7-0.3V30.4c1.3-0.1,2.6-0.1,4.3-0.1
		C351.7,30.3,354.8,33.4,354.8,38.6 M357.8,38c0-5.6-4.2-10-11.8-10c-2.9,0-5.5,0.1-7.8,0.2v35.9h2.8V49.2c1,0.1,2.2,0.2,3.4,0.2
		C351.7,49.3,357.8,44.9,357.8,38 M332.8,53.8c0-11-17-7.8-17-16.7c0-4.1,3-6.7,8.7-6.7c2,0,4.4,0.4,6.4,1l0.2-2.7
		c-2-0.4-4-0.7-6.3-0.7c-7.4,0-11.7,4.1-11.7,9.4c0,10.9,17,7.7,17,16.8c0,5.4-4.3,7.4-9.2,7.4c-2.4,0-5.1-0.6-7.1-1.3l-0.2,2.9
		c1.9,0.6,4.4,0.9,7,0.9C328.2,64.1,332.8,59.9,332.8,53.8"/>
	<path fill="#444649" d="M304.9,46.3c0,8.7-5.2,13.3-12,13.3c-8.5,0-11.4-6.3-11.4-13.8c0-8.7,5.5-13.4,11.7-13.4
		C300.4,32.4,304.9,37.2,304.9,46.3 M310.4,45.7c0-11.4-6.3-17.7-16.8-17.7c-9.6,0-17.7,6.7-17.7,18.3c0,10.2,5.1,17.7,16.6,17.7
		C302.5,64,310.4,57.4,310.4,45.7 M270.7,28h-5.2v36.1h5.2V28z M257.7,62.2l-0.4-4.5c-2.4,1.1-5.5,1.8-8.4,1.8
		c-8.4,0-12.9-4.8-12.9-13.3c0-7.7,4-13.9,12.4-13.9c2.7,0,5.5,0.5,8.4,1.3l0.5-4.6c-2.5-0.7-5.5-1-8.2-1c-13,0-18.6,8.7-18.6,18.7
		c0,10.7,6,17.3,17.2,17.3C251.5,64,254.8,63.4,257.7,62.2 M219.8,38c0,3.9-3,6.4-7.7,6.4c-1.4,0-2.9-0.1-4-0.1V32.1
		c1-0.1,2.1-0.2,3.8-0.2C216.7,31.9,219.8,34.2,219.8,38 M227.3,64.1L217,51.2c-1.2-1.4-2.3-2.8-3.2-3.7c6.6-0.3,11.4-3.9,11.4-10.1
		c0-5.8-4.5-9.4-12.7-9.4c-4.2,0-7.6,0.1-9.7,0.1v35.9h5.2V47.9h0.2l12.5,16.1H227.3z M192.4,64v-4.1h-14.2V47.4h13.6v-3.9h-13.6
		V31.9h14.2v-4H173V64H192.4z M165.2,64.1l-5.2-36h-6.8L145,51.3c-0.8,2.4-1.4,4-1.9,6.4h-0.1c-0.3-1.9-1.1-4.2-2-6.6l-7.9-23h-6.4
		l-5.3,36h5.2l2.7-21.4c0.5-3.4,0.8-6.1,1-8.8h0.1c0.3,2.1,1.4,5,2.3,7.4l7.5,22.7h5.7l8.1-24.2c0.8-2.3,1.4-4.4,1.8-6h0.1
		c0.2,1.9,0.5,4.6,1,8.7l2.9,21.5H165.2z M113.1,46.3c0,8.7-5.2,13.3-12,13.3c-8.5,0-11.4-6.3-11.4-13.8c0-8.7,5.5-13.4,11.7-13.4
		C108.7,32.4,113.1,37.2,113.1,46.3 M118.7,45.7c0-11.4-6.3-17.7-16.8-17.7c-9.6,0-17.7,6.7-17.7,18.3c0,10.2,5.1,17.7,16.6,17.7
		C110.8,64,118.7,57.4,118.7,45.7 M78.9,62.2l-0.4-4.5c-2.4,1.1-5.5,1.8-8.4,1.8c-8.4,0-12.9-4.8-12.9-13.3c0-7.7,4-13.9,12.4-13.9
		c2.7,0,5.5,0.5,8.4,1.3l0.5-4.6c-2.5-0.7-5.5-1-8.2-1c-13,0-18.6,8.7-18.6,18.7c0,10.7,6,17.3,17.2,17.3C72.7,64,76,63.3,78.9,62.2
		 M46.5,64.1V60H32.3V47.4h13.6v-3.9H32.3V31.9h14.2v-4H27.1v36.1H46.5z M19.2,31.9v-4H0v36.1h5.2V47.8h13.3v-4H5.2v-12H19.2z"/>
	<path fill="#444649" d="M337.4,97.3c-0.6,0-1,0.5-1,1c0,0.6,0.5,1.1,1,1.1c0.6,0,1-0.5,1-1.1C338.5,97.8,338,97.3,337.4,97.3
		 M331.9,92.3h-5.8c0.3-1.8,1.4-3,3.1-3C330.9,89.3,332,90.5,331.9,92.3 M333.4,92.6c0-2.3-1.2-4.4-4.2-4.4c-2.9,0-4.7,2.4-4.7,5.6
		c0,3.8,1.7,5.6,4.9,5.6c1.4,0,2.5-0.2,3.5-0.6l-0.1-1.2c-0.8,0.4-2,0.7-3.1,0.7c-2.5,0-3.9-1.4-3.7-4.9h7.3
		C333.4,93.1,333.4,92.8,333.4,92.6 M332.1,85.7l-2.9-2l-2.8,2.1l0.7,0.8l2.1-1.5l2.2,1.5L332.1,85.7z M322.3,98.8l-0.1-1.2
		c-0.8,0.4-1.9,0.7-2.9,0.7c-2.8,0-3.5-1.9-3.5-4.3c0-2.7,1.2-4.6,3.7-4.6c1,0,1.9,0.2,2.6,0.5l0.2-1.2c-0.8-0.2-1.7-0.4-2.6-0.4
		c-3.5,0-5.3,2.3-5.3,5.9c0,4.2,2.4,5.2,4.6,5.2C320.3,99.4,321.5,99.1,322.3,98.8 M310.4,93.8c0,3.2-1.7,4.6-3.4,4.6
		c-2.2,0-3.5-1.7-3.5-4.5c0-3,1.7-4.4,3.5-4.4C309.2,89.4,310.4,91,310.4,93.8 M311.8,93.7c0-4-2.2-5.4-4.7-5.4
		c-3.2,0-5.1,2.6-5.1,5.6c0,3.8,1.8,5.6,4.7,5.6C309.9,99.5,311.8,96.9,311.8,93.7 M300.4,88.5h-1.5l-2.8,7.6
		c-0.2,0.6-0.4,1.2-0.6,1.7h0c-0.2-0.6-0.3-1.2-0.6-1.8l-2.7-7.6h-1.6l4.1,10.8h1.4L300.4,88.5z M280.9,94.3c0,2-1.4,4-3.4,4
		c-1.1,0-1.9-0.7-1.9-1.7c0-1.1,0.9-2.5,5.3-2.5V94.3z M284.1,99.1v-0.7c-0.6,0-1.4-0.1-1.9-0.2v-6.4c0-2-0.8-3.5-3.7-3.5
		c-1.5,0-2.7,0.3-3.7,0.8l0.2,1.2c1-0.6,2.3-1,3.3-1c1.9,0,2.6,1,2.6,2.7v1c-4.4,0-6.7,1.6-6.7,3.8c0,1.7,1.3,2.6,2.9,2.6
		c1.9,0,3.3-1.2,3.8-2.6l0,0c-0.1,0.6-0.1,1.5-0.1,2.4C281.9,99.3,283.2,99.2,284.1,99.1 M268.7,88.5c-1,0-2.4,0-3.3,0.2v0.7
		c0.6,0,1.4,0.1,1.9,0.2v9.7h1.4V95c0-3.8,1.2-5.8,3.7-5.4l0-1.3c-2.4-0.3-3.5,1.4-3.9,3l0,0C268.6,90.3,268.7,89.2,268.7,88.5
		 M260.5,94.3c0,2-1.4,4-3.4,4c-1.1,0-1.9-0.7-1.9-1.7c0-1.1,0.9-2.5,5.3-2.5V94.3z M263.7,99.1v-0.7c-0.6,0-1.4-0.1-1.9-0.2v-6.4
		c0-2-0.8-3.5-3.7-3.5c-1.5,0-2.7,0.3-3.7,0.8l0.2,1.2c1-0.6,2.3-1,3.3-1c1.9,0,2.6,1,2.6,2.7v1c-4.4,0-6.7,1.6-6.7,3.8
		c0,1.7,1.3,2.6,2.9,2.6c1.9,0,3.3-1.2,3.8-2.6l0,0c-0.1,0.6-0.1,1.5-0.1,2.4C261.5,99.3,262.8,99.2,263.7,99.1 M249.6,93.5
		c0,3.4-1.5,4.8-3.9,4.8c-0.9,0-1.6-0.1-2.3-0.3v-3.9c0-1.9,1.1-4.7,3.4-4.7C248.7,89.4,249.6,90.9,249.6,93.5 M242,89.6v15.2h1.4
		v-5.5c0.8,0.1,1.4,0.1,2.2,0.1c3.3,0,5.5-2.1,5.5-6c0-3.4-1.5-5.1-4-5.1c-1.7,0-3.2,1-3.8,2.7l0,0c0.1-0.7,0.2-1.8,0.2-2.5
		c-1,0-2.4,0-3.3,0.2v0.7C240.8,89.4,241.5,89.5,242,89.6 M231.2,93.8c0,3.2-1.7,4.6-3.4,4.6c-2.2,0-3.5-1.7-3.5-4.5
		c0-3,1.7-4.4,3.5-4.4C230,89.4,231.2,91,231.2,93.8 M232.6,93.7c0-4-2.2-5.4-4.7-5.4c-3.2,0-5.1,2.6-5.1,5.6c0,3.8,1.8,5.6,4.7,5.6
		C230.7,99.5,232.6,96.9,232.6,93.7 M220.5,99.2V98c-0.5,0.1-1,0.2-1.6,0.2c-1.4,0-1.7-0.5-1.7-2.6v-6.1h3.3v-1.1h-3.3v-4l-1.4,0.4
		v3.7h-2.5v1.1h2.5v6.8c0,2.2,0.6,3.1,2.7,3.1C219.2,99.4,219.9,99.4,220.5,99.2 M210.6,88.5c-1,0-2.4,0-3.2,0.2v0.7
		c0.6,0,1.4,0.1,1.9,0.2v9.7h1.4V88.5z M211,85.4c0-0.6-0.5-1-1-1c-0.5,0-1,0.4-1,1c0,0.5,0.5,1,1,1C210.5,86.4,211,85.9,211,85.4
		 M205.7,99.1v-0.7c-0.6,0-1.4-0.1-1.9-0.2v-9.7h-1.4v5.2c0,2.7-1.4,4.7-3.5,4.7c-1.7,0-2.2-1.1-2.2-2.9v-7c-1,0-2.4,0-3.3,0.2v0.7
		c0.6,0,1.4,0.1,1.9,0.2V96c0,1.9,0.8,3.5,3.3,3.5c1.9,0,3.3-1.1,3.9-2.7l0,0c-0.1,0.7-0.2,1.8-0.2,2.5
		C203.4,99.3,204.8,99.2,205.7,99.1 M190.3,99.3v-7.5c0-2.5-1.2-3.5-3.2-3.5c-2.3,0-3.4,1.7-3.8,2.7c0-0.8-0.4-2.7-3-2.7
		c-1.8,0-3.2,1.1-3.9,2.7l0,0c0.1-0.7,0.2-1.8,0.2-2.5c-1,0-2.4,0-3.3,0.2v0.7c0.6,0,1.4,0.1,1.9,0.2v9.7h1.4v-5.1
		c0-2.8,1.5-4.8,3.4-4.8c1.8,0,2.1,1.3,2.1,2.9v7.1h1.4v-5.1c0-3,1.7-4.8,3.4-4.8c1.7,0,2.1,1.1,2.1,2.9v7H190.3z M163,94.3
		c0,2-1.4,4-3.4,4c-1.1,0-1.9-0.7-1.9-1.7c0-1.1,0.9-2.5,5.3-2.5V94.3z M166.2,99.1v-0.7c-0.6,0-1.4-0.1-1.9-0.2v-6.4
		c0-2-0.8-3.5-3.7-3.5c-1.5,0-2.7,0.3-3.7,0.8l0.2,1.2c1-0.6,2.3-1,3.3-1c1.9,0,2.6,1,2.6,2.7v1c-4.4,0-6.7,1.6-6.7,3.8
		c0,1.7,1.3,2.6,2.9,2.6c1.9,0,3.3-1.2,3.8-2.6l0,0c-0.1,0.6-0.1,1.5-0.1,2.4C164,99.3,165.3,99.2,166.2,99.1 M153.7,99.2V98
		c-0.5,0.1-1,0.2-1.6,0.2c-1.4,0-1.7-0.5-1.7-2.6v-6.1h3.3v-1.1h-3.3v-4l-1.4,0.4v3.7h-2.5v1.1h2.5v6.8c0,2.2,0.6,3.1,2.7,3.1
		C152.4,99.4,153.2,99.4,153.7,99.2 M137.2,88.5c-1,0-2.4,0-3.3,0.2v0.7c0.6,0,1.4,0.1,1.9,0.2v9.7h1.4v-5.2c0-2.7,1.4-4.7,3.5-4.7
		c1.7,0,2.2,1.1,2.2,2.9v7h1.4v-7.5c0-1.9-0.8-3.5-3.2-3.5c-1.9,0-3.3,1.1-3.9,2.7l0,0C137.1,90.3,137.2,89.2,137.2,88.5
		 M130.1,92.3h-5.8c0.3-1.8,1.4-3,3.1-3C129.1,89.3,130.1,90.5,130.1,92.3 M131.6,92.6c0-2.3-1.2-4.4-4.2-4.4
		c-2.9,0-4.7,2.4-4.7,5.6c0,3.8,1.7,5.6,4.9,5.6c1.4,0,2.5-0.2,3.5-0.6l-0.1-1.2c-0.8,0.4-2,0.7-3.1,0.7c-2.5,0-3.9-1.4-3.7-4.9h7.3
		C131.6,93.1,131.6,92.8,131.6,92.6 M119.9,96.1c0-3.8-5.5-2.1-5.5-4.9c0-1.1,0.9-1.9,2.6-1.9c0.8,0,1.6,0.2,2.3,0.4l0.1-1.2
		c-0.7-0.2-1.5-0.2-2.2-0.2c-2.7,0-4.1,1.3-4.1,3.1c0,3.9,5.5,2.2,5.5,4.9c0,1.2-1.2,2-2.9,2c-0.9,0-1.7-0.2-2.4-0.3l0,1.3
		c0.7,0.2,1.5,0.2,2.3,0.2C118.2,99.5,119.9,98,119.9,96.1 M108.7,92.3h-5.8c0.3-1.8,1.4-3,3.1-3C107.6,89.3,108.7,90.5,108.7,92.3
		 M110.1,92.6c0-2.3-1.2-4.4-4.2-4.4c-2.9,0-4.7,2.4-4.7,5.6c0,3.8,1.7,5.6,4.9,5.6c1.4,0,2.5-0.2,3.5-0.6l-0.1-1.2
		c-0.8,0.4-2,0.7-3.1,0.7c-2.5,0-3.9-1.4-3.7-4.9h7.3C110.1,93.1,110.1,92.8,110.1,92.6 M95.7,88.5c-1,0-2.4,0-3.3,0.2v0.7
		c0.6,0,1.4,0.1,1.9,0.2v9.7h1.4V95c0-3.8,1.2-5.8,3.7-5.4l0-1.3c-2.4-0.3-3.5,1.4-3.9,3l0,0C95.6,90.3,95.7,89.2,95.7,88.5
		 M88.7,93.5c0,3.4-1.5,4.8-3.9,4.8c-0.9,0-1.6-0.1-2.3-0.3v-3.9c0-1.9,1.1-4.7,3.4-4.7C87.8,89.4,88.7,90.9,88.7,93.5 M81.1,89.6
		v15.2h1.4v-5.5c0.8,0.1,1.4,0.1,2.2,0.1c3.3,0,5.5-2.1,5.5-6c0-3.4-1.5-5.1-4-5.1c-1.7,0-3.2,1-3.8,2.7l0,0
		c0.1-0.7,0.2-1.8,0.2-2.5c-1,0-2.4,0-3.3,0.2v0.7C79.9,89.4,80.6,89.5,81.1,89.6 M75.5,92.3h-5.8c0.3-1.8,1.4-3,3.1-3
		C74.4,89.3,75.5,90.5,75.5,92.3 M76.9,92.6c0-2.3-1.2-4.4-4.2-4.4c-2.9,0-4.7,2.4-4.7,5.6c0,3.8,1.7,5.6,4.9,5.6
		c1.4,0,2.5-0.2,3.5-0.6l-0.1-1.2c-0.8,0.4-2,0.7-3.1,0.7c-2.5,0-3.9-1.4-3.7-4.9h7.3C76.9,93.1,76.9,92.8,76.9,92.6 M63.9,88.4
		c0,1.7-1.4,2.9-3.8,2.9c-0.7,0-1.2,0-1.4,0v-5.5c0.5,0,0.9-0.1,1.5-0.1C62.6,85.6,63.9,86.3,63.9,88.4 M66.3,99.3l-4.6-5.5
		c-0.4-0.5-0.9-1-1.3-1.5c2.8,0,5-1.5,5-4.2c0-2.7-2.1-3.6-4.8-3.6c-1.5,0-2.4,0-3.3,0.1v14.7h1.4v-7h0.1l5.6,7H66.3z"/>
</g>
</svg>
