<?xml version="1.0" encoding="utf-8"?>
<!-- Generator: Adobe Illustrator 17.1.0, SVG Export Plug-In . SVG Version: 6.00 Build 0)  -->
<!DOCTYPE svg PUBLIC "-//W3C//DTD SVG 1.1//EN" "http://www.w3.org/Graphics/SVG/1.1/DTD/svg11.dtd">
<svg version="1.1" id="Layer_1" xmlns="http://www.w3.org/2000/svg" xmlns:xlink="http://www.w3.org/1999/xlink" x="0px" y="0px"
	 width="283.5px" height="283.5px" viewBox="0 0 283.5 283.5" enable-background="new 0 0 283.5 283.5" xml:space="preserve">
<g>
	<g>
		<g>
			<rect x="84.2" y="106.8" fill="#BD0052" width="5.4" height="72.7"/>
			<rect x="26.9" y="141.6" fill="#BD0052" width="26.3" height="5"/>
			<polygon fill="#BD0052" points="6.8,106.8 6.8,179.4 12.2,179.4 12.2,146.5 12.2,146.5 12.2,141.6 12.2,141.6 12.2,111.8 
				68.1,111.8 68.1,106.8 			"/>
		</g>
		<g>
			<g>
				<path fill="#BD0052" d="M251.9,106.5h-43v72.7h5.4v-27.1h0v-5h0v-35.6h37.2c13.1,0,22,6,22,17.5v0.2c0,10.8-9.1,17.8-22.6,17.8
					h-17v5h16.7c15.1,0,28.3-7.9,28.3-23.1v-0.2C278.9,114.7,267.9,106.5,251.9,106.5"/>
				<polygon fill="#BD0052" points="177.5,147.1 152.3,106.2 147.1,106.2 102.2,179.4 107.8,179.4 149.6,112.1 171.4,147.1 				"/>
				<polygon fill="#BD0052" points="185.8,160.5 179.7,160.5 191.5,179.4 197.4,179.4 				"/>
			</g>
		</g>
	</g>
</g>
</svg>
