<?xml version="1.0" encoding="utf-8"?>
<!-- Generator: Adobe Illustrator 19.1.0, SVG Export Plug-In . SVG Version: 6.00 Build 0)  -->
<svg version="1.1" id="Camada_1" xmlns="http://www.w3.org/2000/svg" xmlns:xlink="http://www.w3.org/1999/xlink" x="0px" y="0px"
	 viewBox="0 0 655.5 412.5" style="enable-background:new 0 0 655.5 412.5;" xml:space="preserve">
<style type="text/css">
	.st0{fill-rule:evenodd;clip-rule:evenodd;fill:#D4D1D7;}
	.st1{fill-rule:evenodd;clip-rule:evenodd;fill:#030500;}
	.st2{fill-rule:evenodd;clip-rule:evenodd;fill:#0D0B02;}
	.st3{fill-rule:evenodd;clip-rule:evenodd;fill:none;stroke:#030500;stroke-width:0.216;stroke-miterlimit:22.9256;}
	.st4{fill-rule:evenodd;clip-rule:evenodd;fill:#030500;stroke:#030500;stroke-width:0.216;stroke-miterlimit:22.9256;}
	.st5{fill-rule:evenodd;clip-rule:evenodd;fill:#C2B69A;}
	.st6{fill-rule:evenodd;clip-rule:evenodd;fill:#ECEAED;}
	.st7{fill-rule:evenodd;clip-rule:evenodd;fill:#BD0612;}
	.st8{fill-rule:evenodd;clip-rule:evenodd;fill:#FFFFFF;}
	.st9{fill-rule:evenodd;clip-rule:evenodd;fill:#030500;stroke:#000000;stroke-width:0.216;stroke-miterlimit:22.9256;}
	.st10{fill-rule:evenodd;clip-rule:evenodd;fill:#BCA08F;}
</style>
<g>
	<polygon class="st0" points="370.2,79.5 360.9,85.5 355.4,59.9 364.7,53.8 	"/>
	<g>
		<path class="st1" d="M370.7,80.4l-9.3,5.9c-0.4,0.3-1,0.2-1.3-0.3c-0.1-0.1-0.1-0.2-0.1-0.3l0,0l-5.5-25.6c-0.1-0.4,0.1-0.8,0.4-1
			l9.3-6c0.5-0.3,1-0.2,1.3,0.3c0.1,0.1,0.1,0.2,0.1,0.3l5.5,25.7C371.3,79.7,371.1,80.2,370.7,80.4L370.7,80.4z M361.5,83.9
			l7.6-4.8l-5.1-23.6l-7.6,4.9L361.5,83.9L361.5,83.9z M365.7,53.6L365.7,53.6L365.7,53.6z"/>
	</g>
	<polygon class="st0" points="392.4,82 370.2,79.5 365.2,52.7 387.6,58.1 	"/>
	<path class="st1" d="M392.2,83l-22.1-2.5c-0.5,0-0.8-0.4-0.9-0.8l-5-26.8c-0.1-0.5,0.3-1,0.8-1.1c0.1,0,0.3,0,0.4,0l22.4,5.4
		c0.4,0.1,0.7,0.4,0.7,0.8l0,0l4.7,23.9c0.1,0.5-0.2,1-0.8,1.1C392.4,83,392.3,83,392.2,83L392.2,83z M371.1,78.6l20.1,2.3l-4.3-22
		l-20.4-4.9L371.1,78.6z"/>
	<polygon class="st0" points="438.9,87.9 416.9,86 412.4,61.5 434.6,66.1 	"/>
	<path class="st2" d="M438.8,88.9l-22-1.9c-0.5,0-0.8-0.4-0.9-0.9l-4.5-24.5c-0.1-0.5,0.3-1,0.8-1.1c0.1,0,0.3,0,0.4,0l22.2,4.6
		c0.4,0.1,0.7,0.4,0.8,0.8l0,0l4.3,21.9c0.1,0.5-0.2,1-0.8,1.1C439,88.9,438.9,88.9,438.8,88.9L438.8,88.9L438.8,88.9z M417.7,85.1
		l20,1.7l-3.9-20l-20.2-4.2L417.7,85.1z"/>
	<polygon class="st0" points="442.2,105.5 420.8,106.2 416.9,84.3 438.5,86 	"/>
	<path class="st1" d="M442.2,106.4l-21.4,0.7c-0.5,0-0.9-0.3-1-0.8l-3.9-21.9c-0.1-0.5,0.3-1,0.8-1.1c0.1,0,0.2,0,0.2,0v0l21.6,1.7
		c0.5,0,0.8,0.4,0.9,0.8l3.8,19.5c0.1,0.5-0.2,1-0.8,1.1C442.3,106.4,442.3,106.4,442.2,106.4L442.2,106.4z M421.6,105.2l19.5-0.7
		l-3.4-17.7L418,85.4L421.6,105.2z"/>
	<polygon class="st0" points="397.6,109.2 377.2,112.1 370,79.9 392.4,82 	"/>
	<path class="st1" d="M397.7,110.2l-20.3,2.9c-0.5,0.1-1-0.3-1.1-0.8l-7.1-32.1c-0.1-0.5,0.2-1,0.7-1.2c0.1,0,0.2,0,0.3,0l22.3,2.1
		c0.4,0,0.8,0.4,0.9,0.8h0l5.2,27.2C398.6,109.6,398.3,110.1,397.7,110.2C397.7,110.2,397.7,110.2,397.7,110.2L397.7,110.2z
		 M378,111l18.5-2.6l-4.9-25.5L371.3,81L378,111z"/>
	<polygon class="st0" points="360.2,85.6 350.9,91.7 345.6,66.9 354.9,60.9 	"/>
	<g>
		<path class="st1" d="M360.7,86.4l-9.3,6.1c-0.4,0.3-1,0.2-1.3-0.3c-0.1-0.1-0.1-0.2-0.1-0.3h0l-5.3-24.8c-0.1-0.4,0.1-0.8,0.4-1
			l9.3-6c0.4-0.3,1-0.2,1.3,0.3c0.1,0.1,0.1,0.2,0.1,0.3l5.3,24.7C361.3,85.8,361.1,86.2,360.7,86.4L360.7,86.4z M351.6,90.1l7.6-5
			l-4.9-22.7l-7.6,4.9L351.6,90.1L351.6,90.1z M355.9,60.6L355.9,60.6L355.9,60.6z"/>
	</g>
	<polygon class="st0" points="350.2,92.1 341.1,97.9 335.8,73.5 345,67.6 	"/>
	<g>
		<path class="st1" d="M350.7,92.9l-9.1,5.8c-0.4,0.3-1,0.2-1.3-0.3c-0.1-0.1-0.1-0.2-0.1-0.3l0,0l-5.2-24.4c-0.1-0.4,0.1-0.8,0.4-1
			l9.1-5.9c0.4-0.3,1-0.2,1.3,0.3c0.1,0.1,0.1,0.2,0.1,0.3l5.2,24.4C351.2,92.3,351,92.7,350.7,92.9L350.7,92.9z M341.7,96.3
			l7.4-4.7l-4.8-22.4l-7.4,4.8L341.7,96.3L341.7,96.3z M345.9,67.4L345.9,67.4L345.9,67.4z"/>
	</g>
	<polygon class="st0" points="340.7,98.4 331.8,103.8 326.7,79.9 335.6,74.3 	"/>
	<g>
		<path class="st1" d="M341.2,99.2l-8.9,5.4c-0.5,0.3-1.1,0.1-1.3-0.3c-0.1-0.1-0.1-0.2-0.1-0.3l-5.1-23.8c-0.1-0.4,0.1-0.8,0.4-1
			l8.8-5.7c0.4-0.3,1-0.2,1.3,0.3c0.1,0.1,0.1,0.2,0.1,0.3l5.2,24.1C341.8,98.6,341.6,99,341.2,99.2L341.2,99.2L341.2,99.2z
			 M332.5,102.3l7.2-4.3l-4.7-22.1l-7.1,4.6L332.5,102.3L332.5,102.3z M336.5,74.1L336.5,74.1L336.5,74.1z"/>
	</g>
	<polygon class="st0" points="331.5,104.2 322.8,109.6 317.8,86 326.4,80.5 	"/>
	<g>
		<path class="st1" d="M331.9,105l-8.6,5.4c-0.4,0.3-1,0.2-1.3-0.3c-0.1-0.1-0.1-0.2-0.1-0.3l0,0l-5-23.6c-0.1-0.4,0.1-0.8,0.4-1
			l8.6-5.5c0.4-0.3,1-0.2,1.3,0.3c0.1,0.1,0.1,0.2,0.1,0.3l5.1,23.6C332.5,104.4,332.3,104.8,331.9,105L331.9,105z M323.5,108.1
			l6.9-4.4l-4.6-21.6l-6.9,4.4L323.5,108.1L323.5,108.1z M327.3,80.3L327.3,80.3L327.3,80.3z"/>
	</g>
	<polygon class="st0" points="322.4,109.5 314,114.9 309,91.8 317.4,86.3 	"/>
	<g>
		<path class="st1" d="M322.9,110.4l-8.4,5.3c-0.4,0.3-1,0.2-1.3-0.3c-0.1-0.1-0.1-0.2-0.1-0.3l0,0l-5-23.1c-0.1-0.4,0.1-0.8,0.4-1
			l8.4-5.4c0.4-0.3,1-0.2,1.3,0.3c0.1,0.1,0.1,0.2,0.1,0.3l5,23.2C323.4,109.8,323.2,110.2,322.9,110.4L322.9,110.4z M314.6,113.4
			l6.7-4.3l-4.5-21.2l-6.7,4.3L314.6,113.4L314.6,113.4z M318.4,86.1L318.4,86.1L318.4,86.1z"/>
		<path class="st3" d="M322.9,110.4l-8.4,5.3c-0.4,0.3-1,0.2-1.3-0.3c-0.1-0.1-0.1-0.2-0.1-0.3l0,0l-5-23.1c-0.1-0.4,0.1-0.8,0.4-1
			l8.4-5.4c0.4-0.3,1-0.2,1.3,0.3c0.1,0.1,0.1,0.2,0.1,0.3l5,23.2C323.4,109.8,323.2,110.2,322.9,110.4L322.9,110.4z M314.6,113.4
			l6.7-4.3l-4.5-21.2l-6.7,4.3L314.6,113.4L314.6,113.4z M318.4,86.1L318.4,86.1"/>
	</g>
	<polygon class="st0" points="377.2,112.1 367.3,115.7 361,86.2 370.3,79.8 	"/>
	<path class="st1" d="M377.5,113l-9.9,3.6c-0.5,0.2-1.1-0.1-1.2-0.6c0-0.1,0-0.1,0-0.2l-6.3-29.4c-0.1-0.4,0.1-0.8,0.5-1l9.2-6.4
		c0.4-0.3,1-0.2,1.3,0.2c0.1,0.1,0.1,0.2,0.2,0.4l0,0l6.9,32.3C378.2,112.4,378,112.8,377.5,113L377.5,113L377.5,113z M368.1,114.4
		l8-2.9l-6.4-30.1l-7.5,5.3L368.1,114.4z"/>
	<polygon class="st0" points="367,115.8 357,120 351.1,92.4 360.4,86.4 	"/>
	<g>
		<path class="st1" d="M367.3,116.7l-10,4.2c-0.5,0.2-1.1,0-1.3-0.5c0-0.1,0-0.1-0.1-0.2l-5.9-27.6c-0.1-0.4,0.1-0.8,0.4-1l9.3-6
			c0.4-0.3,1-0.2,1.3,0.3c0.1,0.1,0.1,0.2,0.1,0.4l6.5,29.3C368,116,367.8,116.5,367.3,116.7L367.3,116.7L367.3,116.7z M357.7,118.6
			l8.2-3.4l-6.1-27.2l-7.6,4.9L357.7,118.6L357.7,118.6z M356,120.2L356,120.2L356,120.2z"/>
	</g>
	<polygon class="st0" points="356.2,119.9 346.6,123.8 341.1,98.2 350.3,92.4 	"/>
	<g>
		<path class="st1" d="M356.5,120.9l-9.5,3.9c-0.5,0.2-1.1,0-1.3-0.5c0-0.1,0-0.1,0-0.2l0,0l-5.5-25.6c-0.1-0.4,0.1-0.8,0.4-1
			l9.1-5.9c0.5-0.3,1-0.2,1.3,0.3c0.1,0.1,0.1,0.2,0.1,0.3l5.9,27.6C357.2,120.2,356.9,120.7,356.5,120.9L356.5,120.9z M347.3,122.5
			l7.7-3.1l-5.4-25.4l-7.4,4.8L347.3,122.5L347.3,122.5z M351.2,92.2L351.2,92.2L351.2,92.2z"/>
	</g>
	<polygon class="st0" points="346.2,124 337,127.8 331.9,104.3 340.8,98.6 	"/>
	<g>
		<path class="st1" d="M346.5,124.9l-9.2,3.8c-0.5,0.2-1.1,0-1.3-0.5c0-0.1,0-0.1-0.1-0.2l0,0l-5-23.5c-0.1-0.4,0.1-0.8,0.4-1
			l8.8-5.7c0.4-0.3,1-0.2,1.3,0.3c0.1,0.1,0.1,0.2,0.1,0.3l5.4,25.3C347.2,124.2,347,124.7,346.5,124.9L346.5,124.9z M337.7,126.4
			l7.4-3.1l-5-23.2l-7.1,4.6L337.7,126.4L337.7,126.4z M341.7,98.4L341.7,98.4L341.7,98.4z"/>
	</g>
	<polygon class="st0" points="336.6,128.1 327.5,131.7 322.9,110 331.5,104.5 	"/>
	<g>
		<path class="st1" d="M336.9,129l-9,3.5c-0.5,0.2-1.1-0.1-1.3-0.5c0-0.1,0-0.1,0-0.2l-4.6-21.6c-0.1-0.4,0.1-0.8,0.4-1l8.6-5.5
			c0.4-0.3,1-0.2,1.3,0.3c0.1,0.1,0.1,0.2,0.1,0.3l5.1,23.6C337.6,128.4,337.4,128.9,336.9,129L336.9,129z M328.3,130.3l7.2-2.8
			l-4.6-21.5l-6.9,4.4L328.3,130.3L328.3,130.3z M332.5,104.3L332.5,104.3L332.5,104.3z"/>
	</g>
	<polygon class="st0" points="327.2,131.9 318.4,135.8 314,115.4 322.5,109.9 	"/>
	<g>
		<path class="st1" d="M327.5,132.9l-8.7,3.8c-0.5,0.2-1.1,0-1.3-0.5c0-0.1,0-0.1-0.1-0.2l0,0l-4.4-20.4c-0.1-0.4,0.1-0.8,0.4-1
			l8.4-5.4c0.4-0.3,1-0.2,1.3,0.3c0.1,0.1,0.1,0.2,0.1,0.3l4.7,22C328.2,132.2,328,132.7,327.5,132.9L327.5,132.9z M319.1,134.4l7-3
			l-4.3-19.9l-6.7,4.3L319.1,134.4L319.1,134.4z M323.4,109.7L323.4,109.7L323.4,109.7z"/>
	</g>
	<polygon class="st0" points="313.7,114.6 305.6,119.8 300.9,97.6 309,92.4 	"/>
	<g>
		<path class="st1" d="M314.2,115.5l-8,5.1c-0.4,0.3-1,0.2-1.3-0.3c-0.1-0.1-0.1-0.2-0.1-0.3l0,0l-4.7-22.2c-0.1-0.4,0.1-0.8,0.4-1
			l8.1-5.2c0.4-0.3,1-0.2,1.3,0.3c0.1,0.1,0.1,0.2,0.1,0.3l4.8,22.2C314.7,114.8,314.5,115.3,314.2,115.5L314.2,115.5z M306.3,118.2
			l6.4-4l-4.3-20.2l-6.4,4.1L306.3,118.2L306.3,118.2z M309.9,92.2L309.9,92.2L309.9,92.2z"/>
	</g>
	<polygon class="st0" points="305.6,119.8 297.5,124.9 292.8,102.8 300.9,97.6 	"/>
	<g>
		<path class="st1" d="M306.1,120.6l-8,5.1c-0.4,0.3-1,0.2-1.3-0.3c-0.1-0.1-0.1-0.2-0.1-0.3l0,0l-4.7-22.1c-0.1-0.4,0.1-0.8,0.4-1
			l8.1-5.2c0.4-0.3,1-0.2,1.3,0.3c0.1,0.1,0.1,0.2,0.1,0.3l4.7,22.2C306.6,120,306.4,120.4,306.1,120.6L306.1,120.6z M298.2,123.4
			l6.3-4l-4.3-20.2l-6.3,4.1L298.2,123.4L298.2,123.4z M301.8,97.4L301.8,97.4L301.8,97.4z"/>
	</g>
	<polygon class="st0" points="317.7,135.4 310,138.5 306.1,120 313.4,115.3 	"/>
	<g>
		<path class="st1" d="M318.1,136.3l-7.7,3c-0.5,0.2-1.1-0.1-1.3-0.5c0-0.1,0-0.1,0-0.2l-3.9-18.4c-0.1-0.4,0.1-0.8,0.4-1l7.3-4.7
			c0.4-0.3,1-0.2,1.3,0.3c0.1,0.1,0.1,0.2,0.1,0.3l4.3,20.2C318.8,135.7,318.5,136.2,318.1,136.3L318.1,136.3z M310.7,137.1l5.9-2.3
			l-3.9-18l-5.6,3.6L310.7,137.1L310.7,137.1z M314.4,115.1L314.4,115.1L314.4,115.1z"/>
	</g>
	<polygon class="st0" points="310.1,140 302.3,143.4 298.4,125.2 305.9,120.4 	"/>
	<g>
		<path class="st1" d="M310.4,140.9l-7.8,3.4c-0.5,0.2-1.1,0-1.3-0.5c0-0.1,0-0.1-0.1-0.2l0,0l-3.9-18.2c-0.1-0.4,0.1-0.8,0.4-1
			l7.5-4.8c0.4-0.3,1-0.2,1.3,0.3c0.1,0.1,0.1,0.2,0.1,0.3l4.2,19.6C311.2,140.3,310.9,140.7,310.4,140.9L310.4,140.9z M303,142
			l6-2.6l-3.7-17.5l-5.8,3.7L303,142L303,142z M306.9,120.2L306.9,120.2L306.9,120.2z"/>
	</g>
	<polygon class="st0" points="297.1,125 290.2,129.7 285.7,108.7 292.6,104 	"/>
	<path class="st1" d="M297.6,125.8l-6.9,4.7c-0.4,0.3-1,0.2-1.3-0.3c-0.1-0.1-0.1-0.2-0.1-0.3l-4.5-20.9c-0.1-0.4,0.1-0.8,0.4-1
		l6.8-4.7c0.4-0.3,1-0.2,1.3,0.2c0.1,0.1,0.1,0.2,0.2,0.3l0,0l4.5,21C298.1,125.2,298,125.6,297.6,125.8L297.6,125.8z M290.9,128
		l5.2-3.5l-4-18.9l-5.2,3.6L290.9,128z"/>
	<polygon class="st0" points="290,129.8 282.3,134.7 277.7,113.6 285.5,108.6 	"/>
	<g>
		<path class="st1" d="M290.4,130.7l-7.7,4.9c-0.4,0.3-1,0.2-1.3-0.3c-0.1-0.1-0.1-0.2-0.1-0.3l0,0l-4.5-21.1
			c-0.1-0.4,0.1-0.8,0.4-1l7.7-4.9c0.4-0.3,1-0.2,1.3,0.3c0.1,0.1,0.1,0.2,0.1,0.3l4.5,21.2C291,130,290.8,130.5,290.4,130.7
			L290.4,130.7z M282.9,133.2l6-3.8l-4.1-19.2l-6,3.8L282.9,133.2L282.9,133.2z M286.4,108.4L286.4,108.4L286.4,108.4z"/>
	</g>
	<polygon class="st0" points="301.8,144.1 293.9,147 290.2,129.7 297.7,125.1 	"/>
	<path class="st1" d="M302.1,145l-7.8,2.9c-0.5,0.2-1.1-0.1-1.2-0.6c0,0,0-0.1,0-0.1l0,0l-3.7-17.3c-0.1-0.4,0.1-0.8,0.5-1l7.5-4.5
		c0.5-0.3,1.1-0.1,1.3,0.3c0.1,0.1,0.1,0.2,0.1,0.3h0l4.1,18.9C302.8,144.4,302.5,144.8,302.1,145L302.1,145z M294.6,145.7l6-2.3
		l-3.6-16.8l-5.8,3.5L294.6,145.7z"/>
	<polygon class="st0" points="293.6,146.8 285.9,149.9 282.6,134.5 290.1,130.2 	"/>
	<path class="st1" d="M293.9,147.7l-7.7,3.1c-0.5,0.2-1.1,0-1.3-0.5c0-0.1,0-0.1,0-0.2h0l-3.3-15.4c-0.1-0.4,0.1-0.9,0.5-1.1
		l7.4-4.3c0.5-0.3,1.1-0.1,1.3,0.4c0.1,0.1,0.1,0.2,0.1,0.3h0l3.5,16.6C294.7,147.1,294.4,147.6,293.9,147.7L293.9,147.7z
		 M286.6,148.6l5.9-2.4l-3.1-14.5l-5.7,3.3L286.6,148.6z"/>
	<polygon class="st0" points="281.8,134.7 275.5,139.2 271.1,118.7 277.4,114.2 	"/>
	<g>
		<path class="st1" d="M282.3,135.5L276,140c-0.4,0.3-1,0.2-1.3-0.2c-0.1-0.1-0.1-0.2-0.2-0.4l0,0l-4.4-20.5c-0.1-0.4,0.1-0.8,0.4-1
			l6.3-4.5c0.4-0.3,1-0.2,1.3,0.2c0.1,0.1,0.1,0.2,0.2,0.4h0l4.4,20.6C282.8,134.9,282.7,135.3,282.3,135.5L282.3,135.5z
			 M276.1,137.6l4.6-3.3l-4-18.5l-4.6,3.3L276.1,137.6L276.1,137.6z M270.6,117.9l0.3-0.1C270.8,117.8,270.7,117.8,270.6,117.9z"/>
	</g>
	<polygon class="st0" points="275,138.8 267.6,143.5 263.3,123.4 270.7,118.7 	"/>
	<g>
		<path class="st1" d="M275.4,139.7l-7.3,4.6c-0.4,0.3-1,0.2-1.3-0.3c-0.1-0.1-0.1-0.2-0.1-0.3l0,0l-4.3-20.1
			c-0.1-0.4,0.1-0.8,0.4-1l7.3-4.7c0.4-0.3,1-0.2,1.3,0.3c0.1,0.1,0.1,0.2,0.1,0.3l4.3,20.2C276,139.1,275.8,139.5,275.4,139.7
			L275.4,139.7z M268.3,141.9l5.6-3.6l-3.9-18.2l-5.6,3.6L268.3,141.9L268.3,141.9z M271.6,118.5L271.6,118.5L271.6,118.5z"/>
	</g>
	<polygon class="st0" points="285.5,150.3 278.4,152.9 275.4,138.8 282.2,134.9 	"/>
	<path class="st1" d="M285.7,151.3l-7,2.5c-0.5,0.2-1.1-0.1-1.2-0.6c0,0,0-0.1,0-0.1l0,0l-3-14.1c-0.1-0.4,0.1-0.9,0.5-1.1l6.7-3.8
		c0.5-0.3,1.1-0.1,1.3,0.4c0.1,0.1,0.1,0.2,0.1,0.3h0l3.3,15.4C286.5,150.6,286.2,151.1,285.7,151.3L285.7,151.3z M279.1,151.6
		l5.2-1.9l-2.8-13.3l-5,2.9L279.1,151.6z"/>
	<polygon class="st0" points="277.9,151.7 270,154.6 267.4,142.6 275.1,138.8 	"/>
	<path class="st4" d="M278.2,152.6l-7.9,2.8c-0.5,0.2-1.1-0.1-1.2-0.6c0-0.1,0-0.1,0-0.2l-2.5-11.9c-0.1-0.5,0.2-0.9,0.6-1.1
		l7.6-3.7c0.5-0.2,1.1,0,1.3,0.4c0,0.1,0.1,0.1,0.1,0.2l0,0l2.8,12.9C278.9,152,278.6,152.5,278.2,152.6L278.2,152.6L278.2,152.6z
		 M270.7,153.3l6.1-2.2l-2.3-10.8l-5.9,2.9L270.7,153.3z"/>
	<polygon class="st0" points="267.2,142.4 259.9,147.1 255.6,126.9 262.9,122.2 	"/>
	<g>
		<path class="st1" d="M267.7,143.2l-7.3,4.6c-0.4,0.3-1,0.2-1.3-0.3c-0.1-0.1-0.1-0.2-0.1-0.3l0,0l-4.3-20.1
			c-0.1-0.4,0.1-0.8,0.4-1l7.3-4.7c0.4-0.3,1-0.2,1.3,0.3c0.1,0.1,0.1,0.2,0.1,0.3l4.3,20.2C268.3,142.6,268.1,143,267.7,143.2
			L267.7,143.2z M260.5,145.5l5.6-3.6l-3.9-18.2l-5.6,3.6L260.5,145.5L260.5,145.5z M263.9,122L263.9,122L263.9,122z"/>
	</g>
	<polygon class="st0" points="270.1,155.3 262.2,158.1 259.7,146.2 267.4,142.4 	"/>
	<path class="st1" d="M270.5,156.2l-7.9,2.8c-0.5,0.2-1.1-0.1-1.2-0.6c0-0.1,0-0.1,0-0.2l-2.5-11.9c-0.1-0.5,0.2-0.9,0.6-1.1
		l7.6-3.7c0.5-0.2,1.1,0,1.3,0.4c0,0.1,0.1,0.1,0.1,0.2l0,0l2.8,12.9C271.2,155.6,270.9,156,270.5,156.2L270.5,156.2L270.5,156.2z
		 M263,156.8l6.1-2.2l-2.3-10.8l-5.9,2.9L263,156.8z"/>
	<polygon class="st0" points="259.5,145.9 255.6,149.8 251.3,129.7 255.2,125.7 	"/>
	<path class="st2" d="M260.2,146.6l-3.9,3.9c-0.4,0.4-1,0.4-1.4,0c-0.1-0.1-0.2-0.3-0.3-0.5l0,0l-4.3-20.1c-0.1-0.3,0-0.7,0.3-0.9
		l3.9-4c0.4-0.4,1-0.4,1.4,0c0.1,0.1,0.2,0.3,0.3,0.5h0l4.3,20.2C260.6,146,260.4,146.4,260.2,146.6L260.2,146.6z M256.2,147.9
		l2.3-2.3l-3.8-17.9l-2.3,2.3L256.2,147.9z"/>
	<polygon class="st0" points="262.4,158.8 258,160.9 255.5,148.9 259.6,145.9 	"/>
	<path class="st2" d="M262.8,159.7l-4.4,2.1c-0.5,0.2-1.1,0-1.3-0.5c0-0.1-0.1-0.1-0.1-0.2h0l-2.6-11.9c-0.1-0.4,0.1-0.8,0.4-1
		l4.1-3c0.4-0.3,1-0.2,1.3,0.2c0.1,0.1,0.1,0.2,0.2,0.4l0,0l2.8,12.9C263.4,159.1,263.2,159.5,262.8,159.7L262.8,159.7z
		 M258.7,159.5l2.6-1.2l-2.3-10.7l-2.5,1.8L258.7,159.5z"/>
	<polygon class="st1" points="362.6,40.5 250.6,126.1 251.8,131.8 365.2,52.7 	"/>
	<path class="st1" d="M362,42.2l-110.4,84.3l0.8,3.7l111.7-78L362,42.2L362,42.2z M250,125.3l112-85.5c0.1-0.1,0.3-0.2,0.4-0.2
		c0.5-0.1,1,0.2,1.1,0.7l2.6,12.1l0,0c0.1,0.4-0.1,0.8-0.4,1l-113.4,79.1c-0.1,0.1-0.3,0.2-0.4,0.2c-0.5,0.1-1-0.2-1.1-0.7l-1.2-5.7
		h0C249.5,125.9,249.7,125.6,250,125.3z"/>
	<polygon class="st0" points="377.3,112.3 257,159.8 257.3,161.6 377.9,115.9 	"/>
	<path class="st1" d="M376.5,113.7l-108.6,42.9l108.9-41.3L376.5,113.7L376.5,113.7z M256.6,158.9l120.3-47.5c0.1,0,0.1,0,0.2-0.1
		c0.5-0.1,1,0.2,1.1,0.8l0.7,3.5h0c0.1,0.5-0.2,0.9-0.6,1.1l-120.6,45.7c-0.1,0-0.1,0-0.2,0.1c-0.5,0.1-1-0.2-1.1-0.7L256,160
		C255.9,159.6,256.2,159.1,256.6,158.9z"/>
	<polygon class="st1" points="387.6,58.1 365.5,52.2 362.9,40.1 384.9,45.2 	"/>
	<path class="st1" d="M387.4,59l-22.1-5.9c-0.4-0.1-0.6-0.4-0.7-0.7h0L362,40.3c-0.1-0.5,0.2-1,0.7-1.1c0.1,0,0.3,0,0.4,0v0
		l21.9,5.1c0.4,0.1,0.7,0.4,0.7,0.8l2.8,12.9c0.1,0.5-0.2,1-0.7,1.1C387.7,59.1,387.5,59,387.4,59L387.4,59z M366.4,51.4l20,5.3
		L384.1,46l-19.9-4.6L366.4,51.4z"/>
	<polygon class="st1" points="435.6,67.1 412.7,62 411,53.4 433.4,57.7 	"/>
	<path class="st1" d="M435.3,68l-22.8-5.1c-0.4-0.1-0.7-0.4-0.7-0.8l0,0l-1.6-8.5c-0.1-0.5,0.2-1,0.8-1.1c0.1,0,0.3,0,0.4,0
		l22.3,4.2c0.4,0.1,0.7,0.4,0.8,0.7h0l2.2,9.4c0.1,0.5-0.2,1-0.7,1.2C435.6,68,435.5,68,435.3,68L435.3,68z M413.5,61.2l20.8,4.6
		l-1.7-7.3l-20.3-3.9L413.5,61.2z"/>
	<polygon class="st0" points="443.2,108.6 421.7,109.8 421.1,106.3 442.3,105.1 	"/>
	<path class="st1" d="M443.3,109.6l-21.6,1.2c-0.5,0-0.9-0.3-1-0.8l-0.6-3.4c-0.1-0.5,0.3-1,0.8-1.1c0,0,0.1,0,0.1,0v0l21.2-1.2
		c0.5,0,0.9,0.3,1,0.8l0.9,3.5c0.1,0.5-0.2,1-0.7,1.2C443.4,109.6,443.3,109.6,443.3,109.6L443.3,109.6L443.3,109.6z M422.5,108.8
		l19.5-1l-0.4-1.6l-19.3,1.1L422.5,108.8z"/>
	<polygon class="st0" points="398.1,112 377.9,115.5 377.2,112.1 397.6,109.2 	"/>
	<path class="st1" d="M398.3,112.9l-20.3,3.5c-0.5,0.1-1-0.3-1.1-0.8l0,0l-0.7-3.4c-0.1-0.5,0.2-1,0.8-1.1c0,0,0.1,0,0.1,0l20.3-2.9
		c0.5-0.1,1,0.3,1.1,0.8l0.6,2.7C399.2,112.3,398.9,112.8,398.3,112.9L398.3,112.9L398.3,112.9L398.3,112.9z M378.6,114.4l18.4-3.2
		l-0.2-0.9l-18.5,2.6L378.6,114.4z"/>
	<polygon class="st5" points="422.1,149.5 406.5,152.9 382.4,27.9 393.9,17.6 	"/>
	<path class="st1" d="M422.3,150.5l-15.6,3.4c-0.5,0.1-1-0.2-1.2-0.7l0-0.1l-24.1-125c-0.1-0.3,0.1-0.7,0.3-0.9l0,0l11.5-10.3
		c0.4-0.4,1-0.3,1.4,0.1c0.1,0.1,0.2,0.3,0.2,0.5l28.2,132C423.2,149.9,422.9,150.4,422.3,150.5L422.3,150.5L422.3,150.5z
		 M407.3,151.8l13.7-3L393.3,19.4l-9.8,8.8L407.3,151.8z"/>
	<polygon class="st1" points="430.1,148 422.2,148.9 394.5,16.9 404.7,23.2 	"/>
	<path class="st1" d="M430.3,149l-8,0.9c-0.5,0.1-1-0.3-1.1-0.8l-27.7-132c-0.1-0.5,0.2-1,0.7-1.1c0.3-0.1,0.5,0,0.7,0.1l0,0
		l10.1,6.3c0.3,0.2,0.4,0.4,0.4,0.7l25.5,124.8C431.2,148.3,430.9,148.8,430.3,149C430.3,149,430.3,149,430.3,149L430.3,149
		L430.3,149z M423,147.9l6-0.7L403.8,23.8l-7.9-4.9L423,147.9z"/>
	<polygon class="st1" points="471.4,137.2 464.1,138.8 442.5,35.3 452.2,41.7 	"/>
	<path class="st1" d="M471.7,138.2l-7.4,1.6c-0.5,0.1-1-0.2-1.2-0.7l0-0.1L441.5,35.5c-0.1-0.5,0.2-1,0.7-1.1c0.3-0.1,0.6,0,0.8,0.2
		l9.7,6.4c0.2,0.1,0.4,0.4,0.4,0.6h0l19.2,95.5C472.5,137.6,472.2,138.1,471.7,138.2L471.7,138.2L471.7,138.2z M464.8,137.7l5.5-1.2
		l-18.9-94.2l-7.5-4.9L464.8,137.7z"/>
	<polygon class="st5" points="463.7,139.3 450.9,142.1 429.8,44.6 442.5,36.1 	"/>
	<path class="st1" d="M463.9,140.3l-12.9,2.8c-0.5,0.1-1-0.2-1.2-0.7l-21.1-97.5c-0.1-0.4,0.1-0.8,0.5-1l12.6-8.5
		c0.4-0.3,1-0.2,1.3,0.3c0.1,0.1,0.1,0.2,0.1,0.4l21.3,103.2C464.8,139.6,464.5,140.1,463.9,140.3L463.9,140.3L463.9,140.3z
		 M451.6,140.9l11-2.4L441.8,37.7L430.9,45L451.6,140.9z"/>
	<polygon class="st6" points="363.7,39.9 393.9,17.6 399.1,41 422.2,148.9 406.5,152.9 384.9,45.2 	"/>
	<polygon class="st6" points="411.9,52.7 442.4,35.6 446.9,57.6 463,138.8 450.8,141.7 433.2,56.8 	"/>
	<path class="st1" d="M411.4,51.9l30.5-17.1c0.5-0.3,1.1-0.1,1.3,0.4c0.1,0.1,0.1,0.2,0.1,0.3l4.5,21.9l0,0l0,0l16.1,81.2
		c0.1,0.5-0.2,1-0.7,1.1l-12.2,2.8c-0.5,0.1-1-0.2-1.2-0.7c0,0,0-0.1,0-0.1l-17.4-84.2l-20.7-3.9c-0.5-0.1-0.9-0.6-0.8-1.1
		C411,52.3,411.2,52,411.4,51.9L411.4,51.9L411.4,51.9z M441.7,37.1l-27,15.1l18.7,3.5v0c0.4,0.1,0.7,0.4,0.8,0.8l17.4,83.9
		l10.3-2.4l-16-80.3l0,0L441.7,37.1z"/>
	<polygon class="st0" points="397.6,112.5 272.1,158.9 257.3,162.1 377.9,115.9 	"/>
	<path class="st1" d="M397.9,113.4l-125.4,46.5c-0.1,0-0.1,0-0.2,0l-14.8,3.2c-0.5,0.1-1-0.2-1.1-0.7c-0.1-0.5,0.2-0.9,0.6-1.1l0,0
		L377.5,115c0.1,0,0.1,0,0.2-0.1l19.7-3.4c0.5-0.1,1,0.3,1.1,0.8C398.6,112.8,398.3,113.2,397.9,113.4L397.9,113.4z M271.8,158
		l115.5-42.8l-9.2,1.6l-108.8,41.7L271.8,158z"/>
	<polygon class="st0" points="400.6,126.6 282,158.7 278,156.5 397.6,112.5 	"/>
	<path class="st1" d="M400.9,127.5l-118.6,32.1c-0.3,0.1-0.5,0-0.7-0.1l-4.1-2.2c-0.5-0.3-0.6-0.8-0.4-1.3c0.1-0.2,0.3-0.4,0.5-0.4
		l0,0l119.6-44c0.5-0.2,1.1,0.1,1.2,0.6c0,0,0,0.1,0,0.1l0,0l3.1,14.1C401.7,126.9,401.4,127.4,400.9,127.5L400.9,127.5z
		 M282.2,157.7l117.4-31.8l-2.6-12.1l-116.6,42.9L282.2,157.7z"/>
	<polygon class="st0" points="476.1,149.2 447.5,155.3 445.1,143.9 473,137.1 	"/>
	<path class="st2" d="M476.3,150.2l-28.5,6.1c-0.5,0.1-1-0.2-1.1-0.7l-2.5-11.5c-0.1-0.5,0.2-1,0.7-1.1l0,0l27.9-6.8
		c0.5-0.1,1,0.2,1.2,0.7l0,0l3,12.2C477.1,149.5,476.8,150.1,476.3,150.2L476.3,150.2L476.3,150.2L476.3,150.2z M448.3,154.2
		l26.6-5.7l-2.5-10.3l-26.1,6.4L448.3,154.2z"/>
	<polygon class="st0" points="435.2,159.2 402.8,166.1 400.4,155 431.9,147.5 	"/>
	<path class="st2" d="M435.4,160.1l-32.4,6.9c-0.5,0.1-1-0.2-1.1-0.7l-2.4-11.1c-0.1-0.5,0.2-1,0.7-1.1l0,0l31.4-7.5
		c0.5-0.1,1,0.2,1.2,0.7l0,0l3.3,11.7C436.3,159.5,436,160,435.4,160.1C435.5,160.1,435.5,160.1,435.4,160.1L435.4,160.1
		L435.4,160.1z M403.6,165l30.5-6.5l-2.8-9.8l-29.7,7.1L403.6,165z"/>
</g>
<g>
	<path class="st7" d="M79.5,154.6l-8.8,1.2l5.6,33.9l-11.3,1.5l-5.6-33.9l-3.4,0.5l-1-5.8l3.4-0.5c-0.6-3.7,0-6.6,1.8-8.6
		c1.8-2,5.5-3.4,11-4.2l5.5-0.7l1,5.8l-5.5,0.7c-2.2,0.3-3,2.1-2.4,5.5l8.8-1.2L79.5,154.6z"/>
	<path class="st7" d="M112.7,153.1l-11.3,1.5l-1.8-11c-0.3-1.8-1.5-2.6-3.7-2.3c-2.2,0.3-3.1,1.4-2.8,3.2l7,42L88.6,188l-8.4-50.5
		l11.3-1.5l0.3,1.7c2-1.5,4.9-2.4,8.8-3c2.3-0.3,4.4,0.2,6.5,1.5c2.1,1.3,3.3,3.3,3.7,5.8L112.7,153.1z"/>
	<path class="st7" d="M118.7,175.3l-5.5-33.5c-0.9-5.7,3.4-9.2,13.2-10.5c9.7-1.3,15.1,0.9,16,6.5l5.5,33.5c1,5.9-3.4,9.5-13.1,10.8
		C125.1,183.5,119.7,181.2,118.7,175.3L118.7,175.3z M136.6,172.9l-5.5-33.5c-0.3-1.8-1.5-2.6-3.7-2.3c-2.2,0.3-3.1,1.4-2.8,3.2
		l5.5,33.5c0.3,1.8,1.5,2.6,3.7,2.3C136,175.7,136.9,174.7,136.6,172.9z"/>
	<path class="st7" d="M181.6,175.5l-11.3,1.5l-7-42c-0.3-1.8-1.5-2.6-3.7-2.3c-2.2,0.3-3.1,1.4-2.8,3.2l7,42l-11.3,1.5l-8.4-50.5
		l11.3-1.5l0.3,1.7c2-1.5,4.9-2.4,8.8-3c2.3-0.3,4.4,0.2,6.5,1.5c2.1,1.3,3.3,3.3,3.7,5.8L181.6,175.5z"/>
	<path class="st7" d="M200.6,132.3l-8.8,1.2l-1.8-10.8l-11.3,1.5l1.8,10.8l-3.4,0.5l1,5.8l3.4-0.5l3.8,23.1c0.6,3.7,2.1,6.3,4.5,7.8
		c2.4,1.4,6.4,1.8,11.8,1.1l5.5-0.7l-1-5.8l-5.5,0.7c-2.2,0.3-3.6-1.2-4.1-4.6l-3.8-23.1l8.8-1.2L200.6,132.3z"/>
	<path class="st7" d="M233.4,169.2l-11.2,1.5l-8.4-50.5l11.2-1.5L233.4,169.2L233.4,169.2z M212.9,114.8c0.2,1.2,0.9,2.2,2.2,3
		c1.3,0.8,2.7,1.1,4.2,0.8c1.6-0.2,2.8-0.8,3.8-1.9c1-1,1.3-2.2,1.1-3.6c-0.2-1.3-0.9-2.3-2.1-3c-1.2-0.7-2.6-1-4.1-0.8
		c-1.6,0.2-2.8,0.9-3.9,1.9C213.1,112.4,212.7,113.6,212.9,114.8z"/>
	<path class="st7" d="M266,164.8l-11.3,1.5l-7-42c-0.3-1.8-1.5-2.6-3.7-2.3c-2.2,0.3-3.1,1.4-2.8,3.2l7,42l-11.3,1.5l-8.4-50.5
		l11.3-1.5l0.3,1.7c2-1.5,4.9-2.4,8.8-3c2.3-0.3,4.4,0.2,6.5,1.5c2.1,1.3,3.3,3.3,3.7,5.8L266,164.8z"/>
</g>
<path class="st7" d="M50.6,213.1c-9.9,35.4-20,71.1-29.6,106.2c-7.4,27-3.2,28.9,22.5,28.8l81.2-0.1c4.5,0.5,8,1.9,9.8,4.8
	c3.2,5.2,0,13.8-1.5,19.4c-1.3,4.8-2.5,9.7-3.8,14.5c-4.6,17.5,2.1,13.1,13.5,4.2c10.4-8.1,20.8-16.3,31.2-24.4
	c6.6-5.1,15.1-12.9,22.4-16.4c2-1,3.9-1.7,5.9-2.3l291.9-0.3c19.4,0,38,1.9,32.9-23c-11.2-54.8-22.5-115.7-33.8-169.9
	c-7.6-36.7-13-32.5-47.5-27c-120,19.3-240,38.6-360,57.9C65,189.1,56.6,191.6,50.6,213.1z"/>
<g>
	<path class="st1" d="M511.9,301.3c-1.8-4.4-3.7-8.9-5.5-13.3c6.9-0.3,16.1,0.3,23.8,3.2c19.7,7.3,34,20.1,51.7,30
		c8.7,4.9,24.1,12.6,36.3,11c5.4-0.7,10.9-2.4,13.6-8.5c4.8-11-10.1-34.1-28.6-21.4c3,3.9,9.4,5.7,14.9,6.6
		c-9.7,5.3-23.1,10.4-32.9,12.4c-4.6-17.3,0.9-34.9,6.7-44.3c0.3,8,2.7,15,6.1,17.2c4.2-3.4,8.7-5.2,13.4-5.8
		c12.9-1.6,27.6,4.1,32.9,16.4c7.7,17.9,0.1,33.6-18.1,39.2c-14.3,4.4-32.7-1-45.7-7.8C559.2,324.9,536.4,304.2,511.9,301.3
		L511.9,301.3z M513.3,298.9c21.8,2.6,51.8,26.2,70.7,36.1c11.5,6,28.6,10.2,41.4,6.3c10.3-3.2,16.8-10.2,18.4-19
		c3.6-19.8-14.7-34.1-33.6-31.8c-4.2,0.5-8.6,2.5-12.4,5.6c-3-1.9-5.6-5.2-6.3-11c-4.6,9.7-5.9,17.3-4,32.4
		c8.7-1.8,14.9-4.4,24.3-8.3c-6.8-1.5-9.1-4.5-11.5-7.5c25.4-16.5,44.8,19.1,29.8,29.2c-8.5,5.7-25.2,3.8-35.5-0.1
		c-22.3-8.5-41.3-27.3-63.2-35.4c-6.9-2.5-15.7-5.5-21.8-5.3C511.2,293.8,511.6,294.9,513.3,298.9z"/>
	<path class="st7" d="M513.3,298.9c-1.6-3.9-2.1-5.1-3.7-9c6.1-0.3,14.9,2.7,21.8,5.3c22,8.1,40.9,26.9,63.2,35.4
		c10.3,4,27,5.9,35.5,0.1c14.9-10.1-4.4-45.7-29.8-29.2c2.3,3.1,4.7,6.1,11.5,7.5c-9.5,3.9-15.7,6.5-24.3,8.3
		c-1.9-15.1-0.6-22.6,4-32.4c0.7,5.8,3.3,9.1,6.3,11c3.7-3,8.2-5,12.4-5.6c18.9-2.4,37.2,12,33.6,31.8c-1.6,8.8-8.1,15.8-18.4,19
		c-12.8,3.9-29.8-0.3-41.4-6.3C565.1,325,535.1,301.4,513.3,298.9z"/>
</g>
<g>
	<polygon class="st8" points="111.1,303.5 50.4,280.9 49.1,268.6 103.9,233.6 105.3,247.5 65.9,273.2 109.6,289.4 	"/>
	<path class="st8" d="M113.9,282l20.6-2l1.8,17.8c0.4,3.9,2.6,5.6,6.6,5.3c4-0.4,5.7-2.5,5.3-6.4c-1-9.6-6-18.8-15.1-27.6
		c-9.1-8.9-15.1-14.5-18.2-17c-3-2.5-4.8-6.1-5.2-10.9l-1.3-12.8c-1.2-12.1,7-19,24.7-20.8c17.7-1.7,27.2,3.5,28.4,15.6l1.8,17.6
		l-20.6,2l-1.8-17.6c-0.4-3.9-2.6-5.7-6.5-5.3c-4,0.4-5.8,2.5-5.4,6.4c0.5,7.1,1.9,11.7,4.2,13.7c2.3,2.1,8.5,8,18.4,17.9
		c9.9,9.9,15.2,17.8,15.8,23.8l1.3,12.9c1.3,12.6-6.9,19.8-24.6,21.5c-17.7,1.7-27.2-3.7-28.5-16.3L113.9,282z"/>
	<path class="st8" d="M229.2,307l-20.6,2l-0.4-3.5c-1.3,3.3-6,5.3-14.1,6.1c-12,1.2-18.4-2.8-19.4-11.8l-3.5-34.6
		c-0.4-4,0.6-7.6,3.1-10.9c2.5-3.2,8-7.6,16.8-12.9c6.1-3.2,9.4-5.6,9.8-7.2l-1.5-14.9c-0.4-3.9-2.6-5.7-6.6-5.3
		c-4,0.4-5.8,2.5-5.4,6.4l1.7,16.5l-20.6,2l-1.7-16.5c-1.2-12.1,7-19,24.7-20.8c17.7-1.7,27.2,3.5,28.4,15.6L229.2,307L229.2,307z
		 M206.7,290.9l-4-39.3c-7.9,2-11.6,4.7-11.2,7.9l3.3,32.5c0.4,3.9,2.6,5.6,6.6,5.3C205.4,296.9,207.1,294.8,206.7,290.9z"/>
	<path class="st8" d="M320.2,297.4l-20.6,2l-9.2-89.6c-0.4-3.9-2.6-5.7-6.6-5.3c-4,0.4-5.8,2.5-5.4,6.4l9.2,89.6l-20.6,2l-9.2-89.6
		c-0.4-3.9-2.6-5.7-6.6-5.3c-4,0.4-5.7,2.5-5.3,6.4l9.2,89.6l-20.6,2L223.5,198l20.6-2l0.4,3.9c3.7-3,9.1-4.8,16.1-5.5
		c5.3-0.5,10.9,1,16.6,4.6c3.6-4.5,8.3-7,14.3-7.6c4-0.4,8,0.4,12.1,2.3c4.1,1.9,6.5,6.7,7.3,14.1L320.2,297.4z"/>
	<path class="st8" d="M336.5,189.9l-0.3-3l-20.6,2l11.1,107.8l20.6-2l-1.5-14.9c4.5,1.8,10.1,2.4,16.8,1.8c4.1-0.4,7.7-1.8,10.8-4.3
		c3-2.5,4.2-7.6,3.4-15.4l-6.1-59.9c-0.8-7.7-3.3-12.6-7.5-14.7c-4.2-2.1-9.2-2.8-15-2.3C343.5,185.4,339.7,187,336.5,189.9
		L336.5,189.9z M349.9,203.9l6.1,59.9c0.4,3.9-1.4,6.1-5.3,6.4c-4,0.4-6.2-1.4-6.6-5.3l-6.1-59.9c-0.4-3.9,1.4-6.1,5.4-6.4
		C347.3,198.2,349.5,200,349.9,203.9z"/>
	<path class="st8" d="M438.2,286.6l-20.6,2l-0.4-3.5c-1.3,3.3-6,5.3-14.1,6.1c-12,1.2-18.4-2.8-19.4-11.8l-3.5-34.6
		c-0.4-4,0.6-7.6,3.1-10.9c2.5-3.2,8-7.6,16.8-12.9c6.1-3.2,9.4-5.6,9.8-7.2l-1.5-14.9c-0.4-3.9-2.6-5.7-6.6-5.3
		c-4,0.4-5.8,2.5-5.4,6.4l1.7,16.5l-20.6,2l-1.7-16.5c-1.2-12.1,7-19,24.7-20.8c17.7-1.7,27.2,3.5,28.4,15.6L438.2,286.6
		L438.2,286.6z M415.7,270.4l-4-39.3c-7.9,2-11.6,4.7-11.2,7.9l3.3,32.5c0.4,3.9,2.6,5.6,6.6,5.3
		C414.3,276.5,416.1,274.3,415.7,270.4z"/>
	<polygon class="st8" points="442.7,271.1 497.6,237.2 496.4,224.9 435.5,201.2 436.9,215.1 480.8,232.7 441.3,257 	"/>
</g>
<g>
	<polygon class="st7" points="393.1,301.8 396.6,300.9 394.5,295.9 394.6,290.9 397.6,289.2 409.5,287.1 421.8,283.4 430.6,285.2 
		435.4,288.7 439.6,302 439.6,305.8 452,306.7 471.2,304.5 487.1,300.3 497.7,298.4 493,280.3 490,260 489.8,250.3 497.2,241.1 
		509.6,241.3 517.2,246.9 521.1,253.7 521.9,272.7 523.4,291.7 526.8,317.6 521.2,323.1 505.4,326.9 450.5,326.6 443.8,325.8 
		436,331.1 427.5,334.7 418.2,337 409.1,336.1 400.8,330.1 400.6,321.6 400.7,320.3 391.6,312.9 390.3,306.7 	"/>
	<path class="st1" d="M436.9,324.5c0.4,2.7,6.8,2.8,8.7,2.9c21.1,0.7,75.9,5,81.7-5.6c1.8-3.2,1.5-7.7,0.5-13.1
		c-2.3-11.6-4-20.9-4.2-34.1c-0.1-6.7,0.6-17-1.7-23c-3.9-9.8-11.8-13.4-20.4-12.4c-12.3,1.4-14.2,10.2-13.2,19.4
		c1.1,9.7,5.3,33.8,7.8,41.5c1.2-0.1,2.5-0.3,3.7-0.4c-1.9-3.1-3.2-7.9-4.2-13.6c-1.1-6.1-4.6-26.8-4.3-32.2c0.5-7.7,4.3-11,12-11.6
		c5.9-0.5,10.8,2,13.6,7.2c3.7,7,3.1,13.6,3.3,21c0.3,12.3,1.1,25.6,3.2,38.1c1.1,6.7-0.8,10.7-4.4,13.1
		C509.4,328.3,450.5,324.9,436.9,324.5z"/>
	<path class="st9" d="M503.6,297c0.6,0.8,1.3,1.6,1.9,2.4c-23,0.2-39.2,11.8-64.6,7.2c-0.1-1-0.2-2-0.2-3c1.6,0.6,3.3,1.1,5,1.4
		c7.2,1.2,15.3,0.2,22.4-1C479.9,301.9,491.9,297.6,503.6,297z"/>
	<path class="st1" d="M439,308.9c0.6,0.3,1.2,0.6,1.7,0.9c0.1-5.4-0.4-10.4-1.8-14.9c-1.8-5.7-4.8-10.7-11-12
		c-7.5-1.6-9.9,0.6-16.5,2.6c-2.4,0.7-4.7,1.3-7,1.7c-4.5,0.7-10.4-0.6-11.4,5.6c-0.3,1.9,0.2,4.2,1.8,7c0.9,0.6,2.8,1.3,3.6,1.9
		c-1.1-1.5-1.7-3.1-2.3-4.8c-1-2.3-1.1-5.3,1.3-6.4c2.7-1.2,5.8-0.9,8.8-1.4c4.9-0.8,9.9-3.4,14.8-4.2c2.4-0.3,4.7-0.1,6.9,0.6
		c7.3,2.1,8,6.7,9.6,13.6C438.2,302.2,438.7,305.4,439,308.9z"/>
	<path class="st1" d="M417.3,317.4c0.8,0.4,1.6,0.9,2.4,1.3c-3.1,1.4-6.4,2.3-9.9,2.6c-16.7,1.6-28-15-15-21.5
		c4.2,2.2,8.5,3.2,12.7,3.3c6.2,0.1,12.3-1.6,18.5-4.1c0,1.2-0.1,2.5-0.1,3.7c-11.9,3.8-22.6,4.2-31.3-0.5c-1.4,0.8-2.5,1.9-2.8,3.5
		c-0.8,3.4,1.8,7.2,4.2,9.4c4,3.7,10.3,5,15.5,4.2C413.5,319.1,415.5,318.5,417.3,317.4z"/>
	<path class="st1" d="M442.3,326.3c0.7,0.3,1.4,0.6,2,0.9c-9.6,9-38.8,18.6-45.2,0.4c-0.7-2.1-0.2-4.6,1-7.3
		c1.2,0.1,2.4,0.2,3.6,0.3c-1.1,0.7-1.7,1.7-1.9,3.1c-0.9,5.3,2,8.4,6.6,10.4c7,3,15.6,0.8,22.4-1.8
		C434.8,330.8,438.7,328.8,442.3,326.3z"/>
</g>
<g>
	<path class="st7" d="M603.3,127.2l-1.9-1.4c0.9,1.2,1.8,2.5,2.7,3.9L603.3,127.2L603.3,127.2z M488.8,194c0.1,0,0.2,0.1,0.3,0.1
		C489,194.1,488.9,194,488.8,194L488.8,194z M493.2,196.7L493.2,196.7c-7.5-7.8-12.8-0.3-20.4-5.1c-4.4-2.7-4.9-7.7-4.5-13.5
		c0.7-9.7,3.4-27.3-8.7-38.9c12.4-4.1,18.1,8.4,23.7,20.8c2.2-11.5,5.9-24.9,18-34.4c-1.7,0.2-5.2,0.4-6.6-1
		c-0.6-0.7-0.6-1.5-0.4-1.8c0.6-0.8,2.6-0.5,4-0.7c3.5-0.6,6.6-2,9.5-4c3.9-2.8,6.7-7.3,9-12.6c0.6-1.4,1.6-2.5,2.8-0.8
		c0.5,0.8,0.9,1.9,1.1,2.3c23.9-12.1,36.2-11,56.8,7.7c3.5,3.1,7.6,7.6,10.7,12.6c0.4-1.7,0.7-3.4,1.3-4.5c0.9-2,2.3-1.8,3.7-0.9
		c4.3,3,16.9,19.9,12.5,23.8c-4.9,4.2-5.5,8.4-3.5,21.2c-0.2,0.3-0.4,0.5-0.5,0.8c-0.2,0.8-0.5,1.7-0.7,2.5
		c5.7-6.2,13.8-11.7,20.4-7c-9.3,4.5-14.8,11.8-16.2,17.7c-0.5,2.1-1.1,3.9-2.2,5.2c2.2-6.6-1.4-10.8-6.6-13.1
		c-4.7-2.1-13.2-3.8-24.5-3.4l0.6-0.3c-1.4-0.1-2.7-0.2-4.2-0.1c0.2,0.1,0.4,0.2,0.6,0.4c-18.1-0.7-37.1,2.5-52.3,8
		c17.6-4.3,36.9-6.7,54.9-6c1.7,1.5,3.5,3.5,4.8,5.6c4.9,8.5-4.3,14.9-10.2,10.1c-0.1-0.1-0.3-0.2-0.4-0.4c-0.3-0.3-0.7-0.6-0.4,0.1
		c0.2,0.5,1,2,1.3,2.2c7.7,5.7,22.2,0.8,13.2-11.5c-1.6-2.2-3.7-4.5-5.6-6.2c3.7,0,7.3,0.2,11,0.9c23,4.6,14.7,13.1,5.6,25.7
		c-1.4,2-2.9,4.1-4.4,6.4c-7.8,11.9-12.3,26.4-17.5,40.4c-1.7,4.6-2.7,8.8-4.9,11.7c-9.6,12.4-33.5-3.5-46.6-14.5
		c-4.1-3.5-35.3-36.6-31.8-45.6c1-2.6,3.7-2,5.8-0.9c1,0.7,2,1.5,3.2,2.6C494,197.6,493.6,197.1,493.2,196.7L493.2,196.7
		L493.2,196.7z"/>
	<path class="st8" d="M536.6,129.2c-15.6,10.1-19.2,25-9.5,45.3c13-2.9,25.6-4.7,37.7-4.2c2,0.1,2.5-0.3,4.5-0.1
		c-0.7-0.4,0.1-0.2-0.6-0.6c-9.6-6.1-17.5-16.1-25.2-29.4C541.8,137.2,539.4,132.8,536.6,129.2z"/>
	<path class="st10" d="M536.6,129.2c-15.6,10.1-19.2,25-9.5,45.3c0.5-0.2,1.1-0.3,1.6-0.5l0,0c-6.5-12.7-3.6-25.4,7.5-38.2
		c11.5,13.8,16.4,24.1,31.9,34.4l0.2,0.2c0.8,0.1,1.1-0.5,1.9-0.4c-0.5-0.3-0.6,0.1-1.1-0.2c-9.8-6-17.8-16.2-25.6-29.6
		C541.8,137.2,539.4,132.8,536.6,129.2z"/>
	<path class="st1" d="M541.8,152.2c2.4,0,4.3,3.7,4.4,8.4c0.1,4.7-1.8,8.5-4.1,8.6c-2.4,0-4.3-3.7-4.4-8.4c0-0.7,0-1.4,0.1-2
		c0.3,0.3,0.7,0.5,1,0.5c1.2,0,2.1-1.9,2.1-4.3c0-0.9-0.2-1.6-0.4-2.3C540.8,152.4,541.3,152.2,541.8,152.2z"/>
	<path class="st1" d="M532.7,125l-0.3,0.1c-15.6,10.1-21.2,30.4-8.7,50.6c2-0.6,4-1.2,5.9-1.9c-0.8,0.2-1.6,0.5-2.4,0.7
		c-9.8-20.3-6.1-35.2,9.5-45.3C535.5,127.7,534.2,126.3,532.7,125z"/>
	<path class="st8" d="M594.6,173.6c-7.7-1.9-15.5-3-23.2-3.1l0,0c6.3-2.8,12.5-6.6,18.7-10.2c1.7-1,3.3-2,4.8-2.7
		C598,163.1,597.6,168.4,594.6,173.6z"/>
	<path class="st1" d="M585.7,161.7c1.1,0,2,1.8,2,4.2c0,2.3-0.8,4.2-1.9,4.2c-1.1,0-2-1.8-2-4.2c0-0.6,0-1.2,0.1-1.7
		c0.2,0.4,0.4,0.7,0.7,0.7c0.5,0,0.8-0.8,0.8-1.8c0-0.5-0.1-0.9-0.2-1.2C585.4,161.8,585.6,161.7,585.7,161.7z"/>
	<path class="st1" d="M597.9,174.8c-1.1-0.3-2.3-0.9-3.4-1.2c3-5.2,3.4-10.5,0.3-16c1.2-0.6,2.4-1.1,3.4-1.2
		C601,162.1,600.8,169.9,597.9,174.8L597.9,174.8z M594.2,173.5L594.2,173.5c-1.8-0.4-3.6-0.8-5.4-1.2
		C590.6,172.7,592.4,173.1,594.2,173.5z"/>
	<path class="st1" d="M606.6,160.1c-1.4-3.5-4.9-11-8.5-12c-1.1-0.3-2.3-0.1-3.4,0.9c-4.9,4.2-19.7,19.2-24.2,20.1
		c-17.9-15-21-37.6-37.1-52.2c-3.5-3.2-7-5-9.2-5c-3.5,0.1-14.4,14.4-5.4,22.4c-1.7-2.7-2.4-4.9-1.9-6.6c0.6-2,1.7-3.4,3-4.3
		c6.2-4.3,12.8,1,16.6,5.9c2.8,3.7,5.2,8,6.9,11.1l0.4,0.6l0,0l0.4,0.6l0,0l0.4,0.6l0,0l0.3,0.6l0,0l0.3,0.6l0,0l0.3,0.6l0,0
		l0.3,0.5l0,0l0.3,0.5l0,0.1l0.3,0.5l0,0.1l0.3,0.5l0.3,0.4l0.1,0.2l0,0.1l0.3,0.5l0,0l0.2,0.4l0.1,0.2l0.2,0.3l0.2,0.3l0.1,0.2
		l0.2,0.3l0.3,0.4l0.1,0.1l0.3,0.4l0.1,0.2l0.3,0.5l0,0l0.3,0.4l0.1,0.1l0.2,0.3l0.2,0.2l0.3,0.4l0.1,0.1l0.3,0.4l0.1,0.2l0.2,0.3
		l0.1,0.2l0.2,0.3l0.2,0.2l0.2,0.3l0.1,0.2l0.3,0.4l0.1,0.1l0.3,0.4l0.1,0.1l0.3,0.3l0.1,0.2l0.2,0.3l0.1,0.2l0.3,0.3l0.1,0.1
		l0.3,0.3l0.1,0.1c0.1,0.1,0.2,0.2,0.3,0.4l0.1,0.1l0.3,0.4l0.1,0.1l0.3,0.3l0.1,0.1l0.3,0.3l0.1,0.1l0.3,0.3l0.1,0.1l0.3,0.3
		l0.1,0.1l0.3,0.3l0.1,0.1l0.3,0.3l0.1,0.1l0.3,0.3l0.1,0.1l0.3,0.3l0.1,0.1l0.3,0.3l0.1,0.1l0.3,0.3l0.1,0.1
		c0.1,0.1,0.2,0.2,0.4,0.3l0,0c0.1,0.1,0.2,0.2,0.3,0.3l0.1,0.1l0.3,0.3l0.1,0.1c0.1,0.1,0.2,0.2,0.4,0.3l0,0
		c0.1,0.1,0.3,0.2,0.4,0.4l0,0c0.1,0.1,0.3,0.2,0.4,0.3l0.1,0c0.1,0.1,0.2,0.2,0.3,0.3l0.1,0.1l0.3,0.3l0.1,0.1
		c0.1,0.1,0.2,0.2,0.4,0.3l0.1,0.1c0.1,0.1,0.2,0.2,0.4,0.3l0.1,0c0.1,0.1,0.3,0.2,0.4,0.3l0,0c0.1,0.1,0.3,0.2,0.4,0.3l0.1,0
		c0.1,0.1,0.2,0.2,0.4,0.3l0.1,0l0.4,0.3l0.1,0.1l0.3,0.3l0.1,0.1c0.1,0.1,0.2,0.2,0.4,0.3l0,0c0.1,0.1,0.3,0.2,0.4,0.3l0,0
		c0.1,0.1,0.3,0.2,0.4,0.3l0,0c0.1,0.1,0.3,0.2,0.4,0.3l0,0c0.1,0.1,0.3,0.2,0.4,0.3l0,0c0.1,0.1,0.3,0.2,0.4,0.3
		c0.1,0.1,0.2,0.1,0.3,0.2l0,0l0,0l0,0l0,0l0,0l0,0l0,0l0,0l0,0v0l0,0l0,0l0,0l0,0l0,0l0,0l0,0l0,0l0,0h0l0,0l0,0l0,0l0,0l0,0l0,0
		l0,0l0,0l0,0l0,0l0,0l0,0l0,0l0,0l0,0l0,0l0,0l0,0l0,0l0,0l0,0l0,0l0,0l0,0l0,0l0,0l0,0l0,0l0,0l0,0l0,0l0,0l0,0l0,0l0,0l0,0l0,0
		l0,0l0,0l0,0l0,0l0,0l0,0l0,0l0,0l0,0l0,0l0,0l0,0l0,0l0,0l0,0c1.2-0.1,2.4-0.1,3.5,0c5.8-2.7,11.5-6.2,17.3-9.6
		c3.2-1.9,5.8-3.5,8.1-3.9C601.4,155.8,604.3,158.1,606.6,160.1z"/>
	<path class="st1" d="M483,154.3c-8.8-27.4-18.5-23.4-36.4-19.3c21.9,13.8,17.6,25.1,16.7,44.8c-0.4,8.8,2.1,14.9,9.6,16.3
		c4.3,0.8,8.9-3,13.9-2.4c-0.1,0-0.1,0-0.2,0c-14,2.5,11.4,33.2,23.1,45.4l0,0l0,0c1.5,1.6,2.8,2.9,3.7,3.7
		c13.8,13.5,49.1,45.6,67.8,30.4c-7.3-1.4-9.7-7.2-10.6-12.4c-0.5-3.2-0.6-6.1-0.8-7.7c0.6-2,1.2-4.3,2-6.7
		c7.6-23.6,13.8-35,27.8-54.4c0.4-0.5,0.7-1,1-1.5c3.7-0.2,5.9-3.2,7.1-7.9c3.1-11.8,6.5-15.6,21.9-19.7
		c-9.2-5.4-16.2-10.1-25.5,1.1c-0.9-5.5-0.7-9.1,0-11.5c1.5-5.3,6.5-5.4,5.9-9.9c-0.1-0.9-0.5-2-0.9-3.3
		c-3.3-8.8-13.1-23.9-19.5-20.6c-0.8,0.4-1.5,1.4-2.1,3c-20-27-42-32.3-65.8-17.8c-2.6-3.8-5.3-5.3-8,0.1
		c-3.9,9.8-9.7,15.5-18.7,14.4c-9.9,5.4-3.6,10.4,0.2,9.8C487,136,483,144.6,483,154.3L483,154.3L483,154.3z M488.8,194
		c0.1,0,0.2,0.1,0.3,0.1C489,194.1,488.9,194,488.8,194L488.8,194z M493.2,196.7L493.2,196.7c-7.5-7.8-12.8-0.3-20.4-5.1
		c-4.4-2.7-4.9-7.7-4.5-13.5c0.7-9.7,3.4-27.3-8.7-38.9c12.4-4.1,18.1,8.4,23.7,20.8c2.2-11.5,5.9-24.9,18-34.4
		c-1.7,0.2-5.2,0.4-6.6-1c-0.6-0.7-0.6-1.5-0.4-1.8c0.6-0.8,2.6-0.5,4-0.7c3.5-0.6,6.6-2,9.5-4c3.9-2.8,6.7-7.3,9-12.6
		c0.6-1.4,1.6-2.5,2.8-0.8c0.5,0.8,0.9,1.9,1.1,2.3c23.9-12.1,36.2-11,56.8,7.7c3.5,3.1,7.6,7.6,10.7,12.6c0.4-1.7,0.7-3.4,1.3-4.5
		c0.9-2,2.3-1.8,3.7-0.9c4.3,3,16.9,19.9,12.5,23.8c-4.9,4.2-5.5,8.4-3.5,21.2c-0.2,0.3-0.4,0.5-0.5,0.8c-0.2,0.8-0.5,1.7-0.7,2.5
		c5.7-6.2,13.8-11.7,20.4-7c-9.3,4.5-14.8,11.8-16.2,17.7c-0.5,2.1-1.1,3.9-2.2,5.2c2.2-6.6-1.4-10.8-6.6-13.1
		c-4.7-2.1-13.2-3.8-24.5-3.4l0.6-0.3c-1.4-0.1-2.7-0.2-4.2-0.1c0.2,0.1,0.4,0.2,0.6,0.4c-18.1-0.7-37.1,2.5-52.3,8
		c17.6-4.3,36.9-6.7,54.9-6c1.7,1.5,3.5,3.5,4.8,5.6c4.9,8.5-4.3,14.9-10.2,10.1c-0.1-0.1-0.3-0.2-0.4-0.4c-0.3-0.3-0.7-0.6-0.4,0.1
		c0.2,0.5,1,2,1.3,2.2c7.7,5.7,22.2,0.8,13.2-11.5c-1.6-2.2-3.7-4.5-5.6-6.2c3.7,0,7.3,0.2,11,0.9c23,4.6,14.7,13.1,5.6,25.7
		c-1.4,2-2.9,4.1-4.4,6.4c-7.8,11.9-12.3,26.4-17.5,40.4c-1.7,4.6-2.7,8.8-4.9,11.7c-9.6,12.4-33.5-3.5-46.6-14.5
		c-4.1-3.5-35.3-36.6-31.8-45.6c1-2.6,3.7-2,5.8-0.9c1,0.7,2,1.5,3.2,2.6C494,197.6,493.6,197.1,493.2,196.7L493.2,196.7
		L493.2,196.7z"/>
	<path class="st1" d="M475.4,163.4c0-2.7,0-6-2.7-10.5c3.5,3.3,5.7,11.1,9.6,13c-3.7,2.1-4.7,5.9-3.4,11.1
		C474.3,172.5,475.4,168.6,475.4,163.4z"/>
	<path class="st1" d="M501.8,177.2L501.8,177.2c-0.3,3.1-0.2,6.5,0.2,10c1.6,16.3,6,27.1,20,36.8c5.4,3.7,11.7,6.7,19.1,8.9
		c10.8,3.2,9.5,1.8,16.8-5.9c7-7.3,9.3-12.8,19.8-12.8c-7.1-3.4-11.4-1.3-17.7-1.5c-26.7-1.1-41-16.9-57.5-35.5
		c4.7,0.4,9.2,3,13.7,5.5c-4.7-3.2-9.6-6.3-15.4-8.1c-2.4,4.5-3.3,10.5-3,17.6C498.7,185.7,500.3,180.7,501.8,177.2L501.8,177.2z
		 M557.1,223.3c-17.8-2-33.9-10.2-46.3-25.3c9.9,14.8,24.8,24.3,43.7,28.3l-4.9,5.5c-8.6-1.7-16.8-4.5-24.4-9.3
		c-11.3-7.2-20.7-20.1-20.4-34c15.7,19,33.8,30.3,55.1,31.8L557.1,223.3z"/>
	<g>
		<path class="st10" d="M505.3,183.6c16.4,20.1,35.5,31.9,58.1,32.5l-3.6,4c-21.3-1.4-39.4-12.8-55.1-31.8
			C504.8,186.8,505,185.2,505.3,183.6L505.3,183.6z M516.6,215.5l-0.8-0.8C516.1,214.9,516.4,215.2,516.6,215.5L516.6,215.5z
			 M512.4,210.5c-0.6-0.8-1.2-1.7-1.8-2.6C511.2,208.8,511.8,209.7,512.4,210.5L512.4,210.5z M509.6,206.2c-0.2-0.4-0.4-0.7-0.6-1.1
			C509.2,205.5,509.4,205.8,509.6,206.2L509.6,206.2z M509,205c-0.5-0.9-1-1.9-1.4-2.8C508,203.2,508.5,204.1,509,205L509,205z
			 M506.8,200.3c-1.3-3.6-2.1-7.4-2.1-11.2C504.7,193,505.5,196.7,506.8,200.3z"/>
	</g>
	<path class="st8" d="M559.8,220.2l-2.7,3.1c-17.8-2-33.9-10.2-46.3-25.3c9.9,14.8,24.8,24.3,43.7,28.3l-4.9,5.5
		c-8.6-1.7-16.8-4.5-24.4-9.3c-11.3-7.2-20.7-20.1-20.4-34C520.4,207.4,538.5,218.8,559.8,220.2z"/>
	<path class="st1" d="M600.3,178.5c-0.1-1-0.1-2.1-0.2-3.1c2-3.3,4.2-5.2,7.3-7.4c2-1.4,1.4-0.7,0.3,0.5
		C604.1,172,602.6,173.6,600.3,178.5z"/>
	<path class="st1" d="M609.2,139.3c-13.7,1.1-18.5-6-16-19.8c9.5-3.4,18.7-8.4,26.6-19.1c6.7-9,7-5.2,5.7,4.5
		C623.5,118.8,616.5,129.2,609.2,139.3z"/>
	<path class="st1" d="M492.5,121c14.8,4.8,22-1.7,22.9-17.6c-9.6-6.3-18.4-14.3-24.3-28.2c-5-11.7-6.4-7.6-7.4,3.5
		C482.2,94.6,487.2,107.8,492.5,121z"/>
</g>
</svg>
