<?xml version="1.0" encoding="utf-8"?>
<!-- Generator: Adobe Illustrator 17.1.0, SVG Export Plug-In . SVG Version: 6.00 Build 0)  -->
<!DOCTYPE svg PUBLIC "-//W3C//DTD SVG 1.1//EN" "http://www.w3.org/Graphics/SVG/1.1/DTD/svg11.dtd">
<svg version="1.1" id="logo" xmlns="http://www.w3.org/2000/svg" xmlns:xlink="http://www.w3.org/1999/xlink" x="0px" y="0px"
	 width="357px" height="48px" viewBox="-541 427 357 48" enable-background="new -541 427 357 48" xml:space="preserve">
<g>
	<g>
		<g>
			<rect x="-429" y="429.4" fill="#34A853" width="4.9" height="33.5"/>
			<path fill="#EA4335" d="M-492.5,441c-6.3,0-11.5,4.8-11.5,11.5c0,6.6,5.1,11.5,11.5,11.5s11.5-4.9,11.5-11.5
				C-481,445.9-486.2,441-492.5,441z M-492.5,459.4c-3.5,0-6.4-2.9-6.4-6.9c0-4.1,3-6.9,6.4-6.9s6.4,2.8,6.4,6.9
				C-486.1,456.6-489,459.4-492.5,459.4z"/>
			<path fill="#FBBC05" d="M-467.5,441.1c-6.3,0-11.5,4.8-11.5,11.5c0,6.6,5.1,11.5,11.5,11.5s11.5-4.9,11.5-11.5
				C-456,445.9-461.2,441.1-467.5,441.1z M-467.5,459.5c-3.5,0-6.4-2.9-6.4-6.9c0-4.1,3-6.9,6.4-6.9s6.4,2.8,6.4,6.9
				C-461.1,456.6-464,459.5-467.5,459.5z"/>
			<path fill="#4285F4" d="M-436.8,443.6h-0.2c-1.1-1.3-3.3-2.6-6-2.6c-5.7,0-11,5-11,11.5c0,6.4,5.2,11.4,11,11.4
				c2.7,0,4.9-1.2,6-2.6h0.2v1.6c0,4.4-2.3,6.7-6.1,6.7c-3.1,0-5-2.2-5.8-4.1l-4.4,1.8c1.3,3,4.6,6.8,10.1,6.8
				c5.9,0,10.9-3.5,10.9-11.9V442h-4.8V443.6z M-442.5,459.5c-3.5,0-6.4-2.9-6.4-6.9c0-4,2.9-7,6.4-7c3.4,0,6.1,2.9,6.1,7
				C-436.4,456.6-439.1,459.5-442.5,459.5z"/>
			<path fill="#4285F4" d="M-513.8,455.4c1.4-1.4,2.3-3.4,2.7-6.4h-11.7v-4.8h16.4c0.2,0.9,0.3,2.1,0.3,3.2c0,3.7-1,8.2-4.2,11.4
				c-3.1,3.3-7.1,5-12.5,5c-9.8,0-18.1-8-18.1-17.9s8.3-17.9,18.1-17.9c5.4,0,9.3,2.1,12.2,4.9l-3.4,3.4c-2.1-2-4.9-3.5-8.8-3.5
				c-7.2,0-12.8,5.8-12.8,13s5.6,13,12.8,13C-518.1,459-515.5,457.1-513.8,455.4z"/>
			<path fill="#EA4335" d="M-410.2,459.5c-2.6,0-4.4-1.2-5.6-3.5l15.3-6.3l-0.5-1.3c-1-2.6-3.9-7.3-9.8-7.3
				c-5.9,0-10.8,4.6-10.8,11.5c0,6.4,4.9,11.5,11.4,11.5c5.2,0,8.3-3.2,9.5-5.1l-3.9-2.6C-405.9,458.2-407.7,459.5-410.2,459.5z
				 M-410.6,445.5c2,0,3.7,1,4.2,2.4l-10.2,4.2C-416.7,447.8-413.2,445.5-410.6,445.5z"/>
		</g>
	</g>
	<path opacity="0.54" enable-background="new    " d="M-390,463h9.4c9.5,0,15.5-6.3,15.5-15.3c0-8.9-6-15.3-15.5-15.3h-9.4V463z
		 M-386.1,459.2v-23.1h5.4c7,0,11.5,4.2,11.5,11.5c0,7.3-4.5,11.5-11.5,11.5H-386.1z M-352,463.6c4.8,0,7.9-2.7,9.1-5.7l-3.5-1.5
		c-1.1,2.6-3.4,3.6-5.7,3.6c-3.2,0-6.5-2.4-6.7-6.8h16.5c0,0,0-0.4,0-0.7c0-6.8-4-11.2-10.3-11.2c-6.2,0-10.3,5.2-10.3,11.2
		C-362.7,458.8-358.4,463.6-352,463.6z M-346.4,450h-12.1c0.8-3.1,3.1-5,6-5C-348,444.9-346.5,448.1-346.4,450z M-332.8,463h3.9
		l8.5-20.9h-4.2l-6.2,16.2h-0.1L-337,442h-4.3L-332.8,463z M-308.7,463.6c4.8,0,7.9-2.7,9.1-5.7l-3.5-1.5c-1.1,2.6-3.4,3.6-5.7,3.6
		c-3.2,0-6.5-2.4-6.7-6.8h16.5c0,0,0-0.4,0-0.7c0-6.8-4-11.2-10.3-11.2c-6.2,0-10.3,5.2-10.3,11.2
		C-319.4,458.8-315.1,463.6-308.7,463.6z M-303,450h-12.1c0.8-3.1,3.1-5,6-5C-304.7,444.9-303.2,448.1-303,450z M-291.3,463v-30.6
		h-3.9V463H-291.3z M-277.2,441.3c-6.3,0-10.8,4.8-10.8,11.2s4.5,11.2,10.8,11.2s10.8-4.8,10.8-11.2S-270.9,441.3-277.2,441.3z
		 M-277.2,460.1c-3.5,0-6.8-2.8-6.8-7.6s3.3-7.6,6.8-7.6c3.5,0,6.8,2.8,6.8,7.6S-273.7,460.1-277.2,460.1z M-252,463.6
		c5.3,0,10-4.7,10-11.2s-4.7-11.2-10-11.2c-3.3,0-5.9,1.7-7.1,3.6h-0.2V442h-3.8v30.2h3.9V463l-0.2-2.9h0.2
		C-257.9,462-255.3,463.6-252,463.6z M-252.6,460.1c-3.5,0-6.7-2.8-6.7-7.6s3.2-7.6,6.7-7.6c3.5,0,6.7,2.9,6.7,7.6
		S-249.1,460.1-252.6,460.1z M-228.9,463.6c4.8,0,7.9-2.7,9.1-5.7l-3.5-1.5c-1.1,2.6-3.4,3.6-5.7,3.6c-3.2,0-6.5-2.4-6.7-6.8h16.5
		c0,0,0-0.4,0-0.7c0-6.8-4-11.2-10.3-11.2c-6.2,0-10.3,5.2-10.3,11.2C-239.6,458.8-235.4,463.6-228.9,463.6z M-223.3,450h-12.1
		c0.8-3.1,3.1-5,6-5C-225,444.9-223.4,448.1-223.3,450z M-211.6,463v-11.5c0-3.8,2.7-6.1,5.4-6.1c0.9,0,1.5,0.1,2.1,0.3l1.5-3.7
		c-0.8-0.3-1.7-0.5-2.9-0.5c-2.2,0-5.2,1.5-6.1,3.9h-0.2V442h-3.8V463H-211.6z M-192.5,463.6c4.9,0,8.2-2.9,8.2-6.6
		c0-2.6-1.6-5.1-5.8-6.1l-4.1-1c-1.7-0.4-2.8-1.1-2.8-2.4c0-1.7,1.9-2.7,4.1-2.7c2.1,0,4,0.8,4.8,2.8l3.4-1.4
		c-1.3-3.2-4.4-4.9-8.1-4.9c-4.4,0-8.3,2.4-8.3,6.2c0,3.7,3.7,5.3,5.6,5.8l4.2,1c2.2,0.6,2.9,1.7,2.9,2.8c0,1.8-1.8,2.9-4.2,2.9
		c-2.5,0-4.6-1.3-5.7-3.9l-3.5,1.5C-200.4,460.7-197.5,463.6-192.5,463.6z"/>
	<rect x="-541" y="427" fill="none" width="357" height="48"/>
</g>
</svg>
