<?xml version="1.0" encoding="utf-8"?>
<!-- Generator: Adobe Illustrator 17.1.0, SVG Export Plug-In . SVG Version: 6.00 Build 0)  -->
<!DOCTYPE svg PUBLIC "-//W3C//DTD SVG 1.1//EN" "http://www.w3.org/Graphics/SVG/1.1/DTD/svg11.dtd">
<svg version="1.1" id="Layer_1" xmlns="http://www.w3.org/2000/svg" xmlns:xlink="http://www.w3.org/1999/xlink" x="0px" y="0px"
	 width="98.7px" height="48px" viewBox="0 0 98.7 48" enable-background="new 0 0 98.7 48" xml:space="preserve">
<g>
	<path fill-rule="evenodd" clip-rule="evenodd" fill="#002F52" d="M38.9,26c2.2,0.8,4.2,2.5,4.2,6c0,1-0.2,2-0.6,3
		c-4.1,0.4-8,0.5-11.4,0.4c1.6-0.9,2.1-2.4,2.1-5.2c0-1.5-0.4-2.7-1.3-3.3C33.7,26.7,36.1,26.3,38.9,26z"/>
	<path fill-rule="evenodd" clip-rule="evenodd" fill="#002F52" d="M6.9,9.8h10.5l-2.9,14.2C10.7,26,8.7,28.3,9,30.6
		c0.1,1.6,1.3,2.9,3.3,3.9l-1.4,6.6H0.4L6.9,9.8z"/>
	<path fill-rule="evenodd" clip-rule="evenodd" fill="#002F52" d="M29.2,21.1L28.7,23c0,0,1-0.1,2.2-0.3c2.7-0.5,3.9-1.3,4.5-3.1
		c1.8-0.4,8.4-1.4,9.9-1.6c-0.4,1.8-1.6,3.8-4.2,5.1c-1.8,0.9-3,1.3-4.7,1.7c-3.1,0.5-8.3,1.5-8.3,1.5c0,0-1.8,8.9-1.8,8.9
		c-4.4-0.4-7.7-1.3-9.5-2.6l1.5-7.3C20.8,23.7,24.5,22.3,29.2,21.1z"/>
	<path fill-rule="evenodd" clip-rule="evenodd" fill="#002F52" d="M15,41.1l1.1-5.2c5.9,1.5,15.1,1.9,25.3,1
		c-0.9,1.1-2.1,2.1-3.9,2.9c-2.6,1.1-4.8,1.3-7.7,1.3H15z"/>
	<path fill-rule="evenodd" clip-rule="evenodd" fill="#002F52" d="M32.3,14.5h-1.7l-0.9,4.1c-4,0.9-7.6,2-10.6,3.2l2.6-12h12.1
		c1.1,0,2.6,0,4.1,0.2c1.2,0.1,2.5,0.4,3.7,0.9c2.1,0.8,3.7,2.4,3.9,5.2c-1.8,0.2-3.6,0.4-5.4,0.7c-1.5,0.2-2.9,0.5-4.4,0.7
		C35.7,15.5,34.8,14.5,32.3,14.5z"/>
	<path fill-rule="evenodd" clip-rule="evenodd" fill="#00395F" d="M31.7,35.4c1.4-1.1,1.9-2.8,1.9-5.2c0-1.3-0.5-2.7-1.3-3.4
		c1.7-0.2,3.5-0.5,5.9-0.8c2.4,0.9,4.4,2.6,4.4,5.9c0,1-0.3,2.1-0.7,3C38.2,35.4,34.9,35.5,31.7,35.4z"/>
	<path fill-rule="evenodd" clip-rule="evenodd" fill="#00395F" d="M0.8,40.7l6.4-30.5H17L14,24.2c-3.7,2.1-5.3,4.4-5.1,6.4
		c0.1,1.3,1,2.6,3,3.7l-1.3,6.4H0.8z"/>
	<path fill-rule="evenodd" clip-rule="evenodd" fill="#00395F" d="M17.1,32.8l1.6-7.7c2.3-1.5,5.7-2.7,10-3.9l-0.5,2.3
		c0.4,0,1.5-0.2,2.7-0.4c2.6-0.5,4.3-1.3,4.8-3.5c1.8-0.3,7.5-1.3,9-1.5c-0.5,1.9-1.8,3.6-4,4.7c-1.8,0.9-3,1.3-4.6,1.7
		c-3.6,0.7-8.5,1.6-8.5,1.6c0,0-1.9,9.2-1.9,9.2C21.9,34.7,18.9,34,17.1,32.8z"/>
	<path fill-rule="evenodd" clip-rule="evenodd" fill="#00395F" d="M15.5,40.7l1-4.7c5.7,1.4,14.7,1.7,24.2,1
		c-1.1,1.2-2.9,2.2-4.6,2.8c-2.1,0.9-3.9,1-6.2,1H15.5z"/>
	<path fill-rule="evenodd" clip-rule="evenodd" fill="#00395F" d="M19.5,21.6L22,10.1h11.8c1,0,2.4,0,3.9,0.1
		c1.2,0.1,2.5,0.4,3.6,0.8c2,0.8,3.6,2.1,3.9,4.9c-1.6,0.2-3.5,0.4-5.2,0.7c-1.4,0.2-2.7,0.4-3.8,0.6c-0.1-2.2-1.4-3.1-3.9-3.1l-2,0
		l-1,4.6C25.6,19.5,22.3,20.6,19.5,21.6z"/>
	<path fill-rule="evenodd" clip-rule="evenodd" fill="#004069" d="M32.4,35.4c1.3-1.3,1.6-3.1,1.6-5.2c0-1.1-0.6-2.8-1.2-3.4
		c1.5-0.2,2.7-0.4,4.8-0.6c2.6,0.9,4.7,2.7,4.6,5.8c0,1-0.4,2.3-0.8,3.1C38.1,35.4,35.2,35.5,32.4,35.4z"/>
	<path fill-rule="evenodd" clip-rule="evenodd" fill="#004069" d="M1.3,40.3l6.3-29.8h8.9l-2.9,14c-3.6,2-4.9,4.4-4.6,6.1
		c0.1,1,0.8,2.4,2.6,3.5l-1.3,6.2H1.3z"/>
	<path fill-rule="evenodd" clip-rule="evenodd" fill="#004069" d="M17.5,33l1.7-8.1c2.1-1.3,5.3-2.4,9.2-3.6l-0.5,2.6
		c0.7-0.1,1.9-0.2,3.3-0.5c2.6-0.5,4.6-1.2,5.1-3.9c1.7-0.3,6.5-1.1,8.2-1.3c-0.5,1.9-1.9,3.4-3.7,4.3c-1.7,0.9-2.9,1.3-4.5,1.6
		c-4.1,0.8-8.7,1.6-8.7,1.6c0,0-1.9,9.5-1.9,9.5C21.9,34.7,19.1,34,17.5,33z"/>
	<path fill-rule="evenodd" clip-rule="evenodd" fill="#004069" d="M15.9,40.3l0.9-4.3c5.4,1.3,14.4,1.6,23.1,1
		c-1.4,1.3-3.7,2.2-5.3,2.6c-1.6,0.6-3,0.7-4.8,0.7H15.9z"/>
	<path fill-rule="evenodd" clip-rule="evenodd" fill="#004069" d="M19.9,21.5l2.3-11h11.5c0.9,0,2.2,0,3.6,0.1
		c1.2,0.1,2.4,0.3,3.6,0.7c1.9,0.7,3.5,1.9,3.9,4.7c-1.3,0.1-3.3,0.4-5,0.7c-1.2,0.2-2.4,0.4-3.3,0.5c-0.3-2.6-1.8-3.4-4.3-3.4
		l-2.3,0l-1.1,5C25.6,19.6,22.6,20.5,19.9,21.5z"/>
	<path fill-rule="evenodd" clip-rule="evenodd" fill="#004774" d="M33,35.4c1.1-1.5,1.4-3.5,1.4-5.2c0-0.9-0.7-2.8-1.1-3.5
		c1.4-0.2,1.9-0.3,3.8-0.5c2.8,0.9,4.9,2.8,4.8,5.7c0,1-0.5,2.4-1,3.2C38,35.4,35.5,35.4,33,35.4z"/>
	<path fill-rule="evenodd" clip-rule="evenodd" fill="#004774" d="M1.8,39.9l6.1-29.1l8.2,0l-2.9,13.9c-3.5,2-4.4,4.4-4.2,5.9
		c0,0.6,0.5,2.1,2.3,3.3L10,39.9H1.8z"/>
	<path fill-rule="evenodd" clip-rule="evenodd" fill="#004774" d="M17.8,33.2l1.8-8.6c2-1.2,4.8-2.2,8.3-3.2l-0.6,2.9
		c1.1-0.1,2.4-0.3,3.8-0.6c2.6-0.5,4.9-1.2,5.4-4.4c1.6-0.3,5.5-0.9,7.4-1.2c-0.6,2-2,3.2-3.5,3.9c-1.7,0.9-2.9,1.3-4.4,1.6
		c-4.7,1-8.9,1.6-8.9,1.6c0,0-2,9.8-2,9.8C21.9,34.7,19.4,34,17.8,33.2z"/>
	<path fill-rule="evenodd" clip-rule="evenodd" fill="#004774" d="M16.4,39.9l0.8-3.8c5.2,1.2,14.1,1.5,22.1,0.9
		c-1.6,1.4-4.4,2.3-6,2.5c-1.1,0.3-2.1,0.3-3.4,0.3H16.4z"/>
	<path fill-rule="evenodd" clip-rule="evenodd" fill="#004774" d="M20.3,21.3l2.2-10.5h11.2c0.9,0,2.1,0,3.4,0.1
		c1.2,0.1,2.4,0.3,3.5,0.7c1.7,0.6,3.4,1.6,3.8,4.4c-1.1,0.1-3.1,0.4-4.8,0.7c-1.1,0.2-2.1,0.3-2.7,0.4c-0.4-2.9-2.2-3.8-4.7-3.8
		l-2.5,0l-1.2,5.5C25.5,19.6,22.8,20.5,20.3,21.3z"/>
	<path fill-rule="evenodd" clip-rule="evenodd" fill="#0B4F7F" d="M27.6,21.5l-0.6,3.3c1.4-0.1,2.9-0.4,4.3-0.7
		c2.5-0.5,5.3-1.2,5.8-4.8c1.5-0.3,4.5-0.8,6.6-1.1c-0.6,2-2.2,3-3.2,3.5c-1.7,0.8-2.8,1.2-4.3,1.5c-5.2,1.1-9.2,1.6-9.2,1.6
		L24.8,35c-3-0.4-5.2-0.9-6.6-1.6l1.9-9C21.9,23.2,24.4,22.5,27.6,21.5z"/>
	<path fill-rule="evenodd" clip-rule="evenodd" fill="#0B4F7F" d="M15.6,11.3L12.7,25c-3.4,2-3.9,4.4-3.8,5.6c0,0.3,0.2,1.9,2,3.1
		l-1.2,5.9H2.2l5.9-28.3H15.6z"/>
	<path fill-rule="evenodd" clip-rule="evenodd" fill="#0B4F7F" d="M38.5,37.1c-1.9,1.5-5.2,2.4-6.8,2.4c-0.6,0-1.2,0-1.9,0h-13
		l0.7-3.4C22.5,37.3,31.3,37.6,38.5,37.1z"/>
	<polygon fill-rule="evenodd" clip-rule="evenodd" fill="#0B4F7F" points="28.1,19 20.8,21.2 22.9,11.3 29.8,11.3 	"/>
	<path fill-rule="evenodd" clip-rule="evenodd" fill="#0B4F7F" d="M40.3,11.9c3.7,1,3.8,4.2,3.8,4.2l-6.8,1c0,0-0.3-2.1-1.5-3.1
		L32,11.3c0,0,3,0,4.8,0.1C38.2,11.4,39.2,11.6,40.3,11.9z"/>
	<path fill-rule="evenodd" clip-rule="evenodd" fill="#0B4F7F" d="M41.5,31.9c0,1-0.6,2.5-1.1,3.2c-2.5,0.2-4.5,0.3-6.7,0.3
		c1-1.6,1.1-3.8,1.1-5.2c0-0.7-0.8-2.9-1-3.5c1.3-0.2,1.2-0.2,2.7-0.4C39.5,27.2,41.5,29.2,41.5,31.9z"/>
	<path fill-rule="evenodd" clip-rule="evenodd" fill="#11588A" d="M2.7,39.1l5.8-27.5l6.6,0l-2.8,13.8c-2.8,1.7-3.3,3.7-3.2,4.9
		c0,0.4,0.1,1.9,1.6,2.9l-1.2,5.9H2.7z"/>
	<path fill-rule="evenodd" clip-rule="evenodd" fill="#11588A" d="M17.4,39.2l0.6-2.9c4.9,1,13.2,1.3,19.6,0.9c-1.5,1.2-4.3,2-6.7,2
		c-0.6,0-1.3,0-2,0L17.4,39.2z"/>
	<path fill-rule="evenodd" clip-rule="evenodd" fill="#11588A" d="M18.6,33.5l2-9.4c1.6-0.9,3.9-1.7,6.6-2.5l-2.7,13.3
		C21.8,34.6,19.9,34.1,18.6,33.5z"/>
	<path fill-rule="evenodd" clip-rule="evenodd" fill="#11588A" d="M21.2,21l2-9.4h6.1l-1.7,7.4C27.4,19.2,21.4,21,21.2,21z"/>
	<path fill-rule="evenodd" clip-rule="evenodd" fill="#11588A" d="M33.3,11.7c0.1,0,2.6,0,4.1,0.1c1.2,0.1,2.1,0.3,3,0.6
		c3,0.9,3.2,3.5,3.2,3.7c-0.1,0-5.7,0.8-5.8,0.8c0-0.2-0.3-2.1-1.4-2.9C36.4,14,33.3,11.8,33.3,11.7z"/>
	<path fill-rule="evenodd" clip-rule="evenodd" fill="#11588A" d="M34.1,23.4c1.5-0.6,3.1-1.9,3.4-4.1c1.3-0.2,4.1-0.7,5.8-1
		c-0.6,1.8-1.9,2.7-2.9,3.1c-1.4,0.7-2.4,1.1-3.7,1.4C36.6,22.9,34.1,23.4,34.1,23.4z"/>
	<path fill-rule="evenodd" clip-rule="evenodd" fill="#11588A" d="M34,35.4c0.9-1.5,1.1-3.5,1.2-4.8c0-0.9-0.7-3-0.9-3.7
		c1-0.1,1-0.1,2.2-0.3c2.7,0.9,4.6,2.8,4.6,5.3c0,1.1-0.6,2.6-1.2,3.3C37.6,35.4,36,35.4,34,35.4z"/>
	<path fill-rule="evenodd" clip-rule="evenodd" fill="#156095" d="M17.9,38.8l0.5-2.5c4.8,1,12.6,1.2,18.2,0.8
		c-1.1,0.9-3.4,1.6-6.6,1.6c-0.6,0-1.3,0-2.1,0L17.9,38.8z"/>
	<path fill-rule="evenodd" clip-rule="evenodd" fill="#156095" d="M19,33.7l2.1-9.8c1.3-0.7,3.5-1.5,5.6-2.1L24,34.9
		C21.8,34.6,20.1,34.2,19,33.7z"/>
	<path fill-rule="evenodd" clip-rule="evenodd" fill="#156095" d="M3.2,38.7l5.6-26.6h5.7l-2.9,13.8C9.5,27.3,9,29,9,30
		c-0.1,0.6,0.1,1.9,1.3,2.8L9,38.7H3.2z"/>
	<path fill-rule="evenodd" clip-rule="evenodd" fill="#156095" d="M34.5,12.2c0.2,0,2.2,0,3.4,0.2c1,0.1,1.7,0.3,2.5,0.6
		c2.4,0.8,2.6,2.9,2.6,3.2c-0.2,0-4.6,0.7-4.9,0.7c0-0.5-0.4-2.1-1.3-2.8C36.9,14,34.6,12.3,34.5,12.2z"/>
	<path fill-rule="evenodd" clip-rule="evenodd" fill="#156095" d="M35.1,22.8c1.3-0.6,2.6-1.8,2.8-3.6c1-0.2,3.5-0.6,4.8-0.8
		c-0.5,1.4-1.6,2.3-2.4,2.7c-1.1,0.6-1.9,0.9-2.9,1.1C37.2,22.3,35.2,22.8,35.1,22.8z"/>
	<path fill-rule="evenodd" clip-rule="evenodd" fill="#156095" d="M34.3,35.4c0.8-1.3,1.2-3.3,1.2-4.4c0.1-1.1-0.5-3.1-0.8-3.9
		c0.8-0.1,0.8-0.1,1.7-0.2c2.3,0.9,4.2,2.6,4.1,4.9c0,1.2-0.6,2.7-1.3,3.4C37.3,35.4,36.1,35.4,34.3,35.4z"/>
	<path fill-rule="evenodd" clip-rule="evenodd" fill="#156095" d="M21.7,20.9l1.9-8.8h5.2l-1.6,7.1C26.8,19.3,22,20.8,21.7,20.9z"/>
	<path fill-rule="evenodd" clip-rule="evenodd" fill="#1669A1" d="M18.4,38.5l0.4-2.1c4.7,0.9,12.1,1,16.8,0.8
		c-0.7,0.6-2.5,1.2-6.6,1.3c-0.6,0-1.4,0-2.1,0L18.4,38.5z"/>
	<path fill-rule="evenodd" clip-rule="evenodd" fill="#1669A1" d="M19.4,33.8l2.2-10.1c1-0.6,3.1-1.3,4.7-1.7l-2.7,12.9
		C21.8,34.6,20.4,34.2,19.4,33.8z"/>
	<path fill-rule="evenodd" clip-rule="evenodd" fill="#1669A1" d="M3.8,38.3l5.4-25.8l4.9,0l-2.9,13.8c-1.6,1.1-2.1,2.4-2.1,3.4
		c-0.1,0.7,0,1.9,0.9,2.6l-1.2,5.9H3.8z"/>
	<path fill-rule="evenodd" clip-rule="evenodd" fill="#1669A1" d="M35.8,12.7c0.3,0,1.8,0.1,2.7,0.2c0.9,0.2,1.4,0.4,2,0.6
		c1.7,0.6,1.9,2.3,2,2.8c-0.3,0-3.6,0.5-3.9,0.6c-0.1-0.7-0.4-2-1.1-2.7C37.5,14,35.9,12.8,35.8,12.7z"/>
	<path fill-rule="evenodd" clip-rule="evenodd" fill="#1669A1" d="M36.2,22.2c1-0.5,2.1-1.7,2.3-3.1c0.6-0.1,3-0.5,3.8-0.6
		c-0.4,1.1-1.3,1.9-2,2.3c-0.8,0.4-1.4,0.7-2.2,0.9C37.8,21.8,36.3,22.1,36.2,22.2z"/>
	<path fill-rule="evenodd" clip-rule="evenodd" fill="#1669A1" d="M34.7,35.4c0.8-1.2,1.2-3,1.2-4c0.1-1.2-0.4-3.2-0.7-4.1
		c0.5-0.1,0.6-0.1,1.2-0.2c2,0.9,3.7,2.4,3.6,4.6c0,1.4-0.7,2.8-1.4,3.6C37,35.4,36.2,35.4,34.7,35.4z"/>
	<path fill-rule="evenodd" clip-rule="evenodd" fill="#1669A1" d="M22.1,20.7l1.8-8.2h4.4l-1.6,6.8C26.1,19.5,22.7,20.6,22.1,20.7z"
		/>
	<path fill-rule="evenodd" clip-rule="evenodd" fill="#1872AD" d="M18.9,38.1l0.3-1.6c4.7,0.8,11.5,0.9,15.4,0.7
		c-0.4,0.3-1.6,0.8-6.5,0.9c-0.7,0-1.4,0-2.2,0L18.9,38.1z"/>
	<path fill-rule="evenodd" clip-rule="evenodd" fill="#1872AD" d="M19.8,34L22,23.4c0.7-0.4,2.8-1.1,3.8-1.4l-2.6,12.7
		C21.8,34.6,20.6,34.3,19.8,34z"/>
	<path fill-rule="evenodd" clip-rule="evenodd" fill="#1872AD" d="M4.3,37.9l5.2-25h4l-2.9,13.9c-1,0.8-1.5,1.8-1.6,2.7
		c-0.2,0.8,0,2,0.5,2.5l-1.2,5.9H4.3z"/>
	<path fill-rule="evenodd" clip-rule="evenodd" fill="#1872AD" d="M37,13.1c0.4,0.1,1.4,0.1,2.1,0.3c0.7,0.2,1.1,0.4,1.5,0.6
		c1.1,0.5,1.3,1.6,1.5,2.3c-0.4,0.1-2.5,0.4-2.9,0.4c-0.1-0.9-0.5-2-1-2.6C38,14,37.1,13.3,37,13.1z"/>
	<path fill-rule="evenodd" clip-rule="evenodd" fill="#1872AD" d="M37.2,21.6c0.8-0.5,1.6-1.7,1.7-2.6c0.3-0.1,2.4-0.4,2.8-0.5
		c-0.2,0.7-1,1.5-1.5,1.8c-0.5,0.3-0.9,0.5-1.4,0.6C38.5,21.2,37.5,21.5,37.2,21.6z"/>
	<path fill-rule="evenodd" clip-rule="evenodd" fill="#1872AD" d="M35.1,35.4c0.7-1,1.2-2.7,1.3-3.6c0.1-1.4-0.2-3.3-0.6-4.3
		c0.3,0,0.4-0.1,0.7-0.1c1.6,0.9,3.2,2.3,3.2,4.2c-0.1,1.5-0.7,2.9-1.5,3.7C36.8,35.4,36.3,35.4,35.1,35.4z"/>
	<path fill-rule="evenodd" clip-rule="evenodd" fill="#1872AD" d="M22.6,20.6l1.6-7.7h3.5l-1.5,6.5C25.5,19.7,23.3,20.4,22.6,20.6z"
		/>
	<path fill-rule="evenodd" clip-rule="evenodd" fill="#1B81C2" d="M33.7,37.3c0,0-0.7,0.4-6.4,0.5c-0.7,0-1.4,0-2.3,0
		c-2.3,0-5.6,0-5.6,0l0.2-1.2C24.2,37.3,30.6,37.4,33.7,37.3z"/>
	<path fill-rule="evenodd" clip-rule="evenodd" fill="#1B81C2" d="M20.2,34.1l2.3-10.9c0.5-0.2,2.4-0.9,2.8-1l-2.6,12.5
		C21.7,34.5,20.9,34.3,20.2,34.1z"/>
	<path fill-rule="evenodd" clip-rule="evenodd" fill="#1B81C2" d="M9.1,29.2c-0.2,0.9-0.1,2,0.2,2.4L8,37.5H4.8l5.1-24.1l3.2,0
		l-2.9,13.9C9.7,27.7,9.3,28.4,9.1,29.2z"/>
	<path fill-rule="evenodd" clip-rule="evenodd" fill="#1B81C2" d="M38.3,13.6c0.5,0.1,1,0.2,1.4,0.3c0.5,0.2,0.8,0.4,1,0.7
		c0.4,0.4,0.7,1,0.9,1.8c-0.6,0.1-1.4,0.2-2,0.3c-0.1-1.1-0.6-2-0.8-2.4C38.6,14,38.4,13.8,38.3,13.6z"/>
	<path fill-rule="evenodd" clip-rule="evenodd" fill="#1B81C2" d="M38.3,21c0.5-0.5,1.1-1.6,1.2-2.1l1.8-0.3
		c-0.1,0.4-0.7,1.1-1.1,1.4c-0.2,0.1-0.4,0.3-0.6,0.4C39.1,20.7,38.6,20.9,38.3,21z"/>
	<path fill-rule="evenodd" clip-rule="evenodd" fill="#1B81C2" d="M36.2,27.7l0.2,0c1.3,0.9,2.8,2.1,2.7,3.9c-0.1,1.6-0.7,3-1.6,3.8
		c-1,0.1-1.1,0-2.1,0.1c0.6-0.8,1.2-2.4,1.3-3.2C36.9,30.7,36.7,28.9,36.2,27.7z"/>
	<path fill-rule="evenodd" clip-rule="evenodd" fill="#1B81C2" d="M25.8,19.6c-0.9,0.3-1.9,0.6-2.7,0.9l1.5-7.1h2.6L25.8,19.6z"/>
	<path fill-rule="evenodd" clip-rule="evenodd" fill="#00494B" d="M81.1,41.1l-3.8-18.4l-9.9,18.4h-7.3l4.7-8.2
		c1.7-0.6,3.1-1.2,4.1-1.9c1.3-0.9,2-1.8,1.9-2.8c-0.1-0.9-0.8-1.7-2-2.3l5.5-9.6c1.5,0,9.2-0.1,11.4-0.1l6.2,25H81.1z"/>
	<path fill-rule="evenodd" clip-rule="evenodd" fill="#00494B" d="M75.5,14.3l2.6-4.5h6.1l1.1,4.4C82.4,14.2,79.1,14.2,75.5,14.3z"
		/>
	<path fill-rule="evenodd" clip-rule="evenodd" fill="#00494B" d="M46.1,15.9l1.2-6.1h26.1l-1,4.6C63.8,14.6,54.5,15,46.1,15.9z"/>
	<path fill-rule="evenodd" clip-rule="evenodd" fill="#00494B" d="M63.9,16.5L62.3,24c-3-0.4-6.6-0.7-10.5-0.6l1.3-6.1
		C56.6,16.9,60.2,16.7,63.9,16.5z"/>
	<path fill-rule="evenodd" clip-rule="evenodd" fill="#00494B" d="M61.7,26.4l-1.2,5.5c-2.7,0.9-6.5,1.8-11,2.4l1.9-9.1
		C55.7,25.2,59.3,25.6,61.7,26.4z"/>
	<path fill-rule="evenodd" clip-rule="evenodd" fill="#00494B" d="M60.1,34.2l-1.5,6.8H48.2l1-4.9C53.1,35.6,56.9,35,60.1,34.2z"/>
	<path fill-rule="evenodd" clip-rule="evenodd" fill="#005C60" d="M60.8,40.7l4.6-8c1.5-0.5,2.7-1.1,3.6-1.7c1.2-0.8,2-1.8,1.9-2.9
		c-0.1-0.8-0.7-1.5-1.7-2l5.6-9.8c1.6,0,8.4-0.1,10.6-0.1l6.1,24.6H81.4l-3.9-19.1l-10.2,19H60.8z"/>
	<path fill-rule="evenodd" clip-rule="evenodd" fill="#005C60" d="M75.9,14.3l2.4-4.2h5.6l1,4.1C82.3,14.2,79.1,14.2,75.9,14.3z"/>
	<path fill-rule="evenodd" clip-rule="evenodd" fill="#005C60" d="M46.4,15.9l1.1-5.7h25.3l-0.9,4.2C63.7,14.6,54.6,15,46.4,15.9z"
		/>
	<path fill-rule="evenodd" clip-rule="evenodd" fill="#005C60" d="M52.2,23.3l1.3-6.2c3.3-0.3,6.7-0.5,10-0.6l-1.6,7.4
		C59,23.5,55.7,23.3,52.2,23.3z"/>
	<path fill-rule="evenodd" clip-rule="evenodd" fill="#005C60" d="M50,34.2l1.8-9c4,0,7.3,0.5,9.6,1.1L60.2,32
		C57.6,32.8,54.1,33.6,50,34.2z"/>
	<path fill-rule="evenodd" clip-rule="evenodd" fill="#005C60" d="M48.6,40.7l0.9-4.6c3.6-0.5,7.1-1.1,10.1-1.8l-1.4,6.4H48.6z"/>
	<path fill-rule="evenodd" clip-rule="evenodd" fill="#0F656A" d="M61.5,40.3l4.5-7.9c1.2-0.5,2.3-0.9,3.1-1.5
		c1.1-0.7,2-1.7,1.9-2.9c-0.1-0.7-0.6-1.3-1.4-1.8l5.8-10.1c1.7,0,7.5-0.1,9.8-0.1l6,24.2h-9.4l-4-19.7L67.1,40.3H61.5z"/>
	<path fill-rule="evenodd" clip-rule="evenodd" fill="#0F656A" d="M76.4,14.3l2.2-3.8h5.1l0.9,3.8C82.3,14.2,79.1,14.2,76.4,14.3z"
		/>
	<path fill-rule="evenodd" clip-rule="evenodd" fill="#0F656A" d="M46.8,15.8l1-5.3h24.6l-0.8,3.9C63.6,14.6,54.8,15,46.8,15.8z"/>
	<path fill-rule="evenodd" clip-rule="evenodd" fill="#0F656A" d="M52.6,23.3l1.3-6.2c3-0.2,6.2-0.4,9.3-0.6l-1.6,7.3
		C58.9,23.5,55.8,23.3,52.6,23.3z"/>
	<path fill-rule="evenodd" clip-rule="evenodd" fill="#0F656A" d="M50.4,34.1l1.8-9c3.6,0,6.7,0.4,8.8,1l-1.3,5.9
		C57.4,32.9,54.1,33.5,50.4,34.1z"/>
	<path fill-rule="evenodd" clip-rule="evenodd" fill="#0F656A" d="M49.1,40.3L50,36c3.3-0.4,6.5-1,9.3-1.6L58,40.3H49.1z"/>
	<path fill-rule="evenodd" clip-rule="evenodd" fill="#1F6F74" d="M76.8,14.3l2-3.5h4.5l0.9,3.4C82.2,14.2,79.1,14.2,76.8,14.3z"/>
	<path fill-rule="evenodd" clip-rule="evenodd" fill="#1F6F74" d="M47.2,15.8l0.9-4.9h23.8l-0.8,3.5C63.4,14.6,55,15,47.2,15.8z"/>
	<path fill-rule="evenodd" clip-rule="evenodd" fill="#1F6F74" d="M50.7,34l1.8-8.9c3.3,0.1,6.1,0.4,8.1,0.9l-1.3,6.1
		C57.1,32.9,54.2,33.5,50.7,34z"/>
	<path fill-rule="evenodd" clip-rule="evenodd" fill="#1F6F74" d="M49.5,39.9l0.8-4c3-0.4,5.9-0.9,8.5-1.5l-1.2,5.5H49.5z"/>
	<path fill-rule="evenodd" clip-rule="evenodd" fill="#1F6F74" d="M52.9,23.3l1.3-6.2c2.8-0.2,5.7-0.4,8.5-0.5l-1.6,7.2
		C58.7,23.5,55.9,23.4,52.9,23.3z"/>
	<path fill-rule="evenodd" clip-rule="evenodd" fill="#1F6F74" d="M62.1,39.9l4.3-7.7c1-0.4,1.8-0.8,2.6-1.3c1-0.7,2-1.7,1.9-2.9
		c-0.1-0.6-0.5-1.1-1.1-1.5l5.9-10.3c1.8,0,6.7-0.1,9.1-0.1l5.9,23.9h-8.7l-4.2-20.3L66.9,39.9H62.1z"/>
	<path fill-rule="evenodd" clip-rule="evenodd" fill="#2B797F" d="M60.8,23.8c-2.3-0.3-4.8-0.4-7.4-0.4l1.3-6.3
		c2.5-0.2,5.2-0.3,7.7-0.5L60.8,23.8z"/>
	<path fill-rule="evenodd" clip-rule="evenodd" fill="#2B797F" d="M79,11.1h4l0.8,3.1c-1.7,0-4.7,0-6.6,0.1L79,11.1z"/>
	<path fill-rule="evenodd" clip-rule="evenodd" fill="#2B797F" d="M48.5,11.3h23l-0.7,3.1c-7.5,0.2-15.7,0.6-23.2,1.3L48.5,11.3z"/>
	<path fill-rule="evenodd" clip-rule="evenodd" fill="#2B797F" d="M57.4,39.6H50l0.7-3.7c2.7-0.4,5.3-0.8,7.7-1.3L57.4,39.6z"/>
	<path fill-rule="evenodd" clip-rule="evenodd" fill="#2B797F" d="M62.7,39.6L67,32c0.8-0.3,1.4-0.7,2.1-1.1
		c0.9-0.6,2.1-1.7,1.8-2.9c-0.1-0.6-0.4-0.9-0.8-1.3l6-10.5c1.9,0,5.8-0.1,8.3-0.1l5.8,23.5h-8l-4.3-20.9L66.7,39.6H62.7z"/>
	<path fill-rule="evenodd" clip-rule="evenodd" fill="#2B797F" d="M58.9,32.3c-2.1,0.6-4.7,1.1-7.8,1.6l1.8-8.8
		c2.9,0.1,5.4,0.4,7.3,0.8L58.9,32.3z"/>
	<path fill-rule="evenodd" clip-rule="evenodd" fill="#36848A" d="M51.6,33.9l1.8-8.7c2.6,0.1,4.8,0.3,6.5,0.7l-1.4,6.6
		C56.6,33,54.3,33.5,51.6,33.9z"/>
	<path fill-rule="evenodd" clip-rule="evenodd" fill="#36848A" d="M53.7,23.3l1.3-6.3c2.2-0.2,4.6-0.3,6.8-0.4l-1.5,7.1
		C58.3,23.5,56.1,23.4,53.7,23.3z"/>
	<path fill-rule="evenodd" clip-rule="evenodd" fill="#36848A" d="M50.5,39.1l0.7-3.3c2.4-0.3,4.7-0.7,6.8-1.2l-1,4.5H50.5z"/>
	<path fill-rule="evenodd" clip-rule="evenodd" fill="#36848A" d="M48,15.7l0.8-4H71l-0.6,2.7C63.1,14.6,55.3,15,48,15.7z"/>
	<path fill-rule="evenodd" clip-rule="evenodd" fill="#36848A" d="M77.5,14.3l1.6-2.7l3.6,0l0.6,2.7C82,14.2,79,14.2,77.5,14.3z"/>
	<path fill-rule="evenodd" clip-rule="evenodd" fill="#36848A" d="M63.4,39.1l4.1-7.3c0.5-0.2,1-0.5,1.6-0.9
		c0.8-0.5,2.1-1.6,1.8-2.9c-0.1-0.5-0.3-0.8-0.5-1l6.1-10.8c2,0,5-0.1,7.5-0.1l5.8,23.1h-7.3l-4.4-21.5L66.5,39.1H63.4z"/>
	<path fill-rule="evenodd" clip-rule="evenodd" fill="#469097" d="M52,33.8l1.8-8.6c2.2,0.1,4.2,0.3,5.7,0.6L58,32.6
		C56.4,33.1,54.4,33.5,52,33.8z"/>
	<path fill-rule="evenodd" clip-rule="evenodd" fill="#469097" d="M54.1,23.4l1.3-6.3c2-0.1,4-0.3,6-0.4l-1.5,7
		C58.1,23.5,56.2,23.4,54.1,23.4z"/>
	<path fill-rule="evenodd" clip-rule="evenodd" fill="#469097" d="M51,38.7l0.6-3c2.1-0.3,4.1-0.7,5.9-1l-0.9,4H51z"/>
	<path fill-rule="evenodd" clip-rule="evenodd" fill="#469097" d="M48.5,15.7l0.7-3.6h21.3l-0.5,2.3C62.9,14.6,55.5,15,48.5,15.7z"
		/>
	<path fill-rule="evenodd" clip-rule="evenodd" fill="#469097" d="M77.8,14.3l1.3-2.3l3.3,0l0.5,2.3C81.9,14.2,78.9,14.3,77.8,14.3z
		"/>
	<path fill-rule="evenodd" clip-rule="evenodd" fill="#469097" d="M82.9,38.7l-4.7-22.6c0,0,4.1-0.1,5.3-0.1l5.6,22.6H82.9z"/>
	<path fill-rule="evenodd" clip-rule="evenodd" fill="#469097" d="M64,38.7l4.1-7.2c0.4-0.2,0.7-0.4,1.2-0.7
		c0.7-0.5,1.9-1.5,1.7-2.8c0-0.3-0.2-0.5-0.4-0.7c0.4-0.7,6.3-11.1,6.3-11.1c1.4,0,1.6,0,1.6,0L66.4,38.7H64z"/>
	<path fill-rule="evenodd" clip-rule="evenodd" fill="#4B99A2" d="M52.5,33.8l1.8-8.5c1.9,0.1,3.5,0.3,4.9,0.5l-1.5,7
		C56.1,33.1,54.4,33.4,52.5,33.8z"/>
	<path fill-rule="evenodd" clip-rule="evenodd" fill="#4B99A2" d="M54.6,23.4l1.4-6.4c1.7-0.1,3.4-0.2,5.1-0.3l-1.5,7
		C58,23.5,56.3,23.4,54.6,23.4z"/>
	<path fill-rule="evenodd" clip-rule="evenodd" fill="#4B99A2" d="M51.5,38.3l0.5-2.6c1.7-0.2,3.5-0.6,5-0.9l-0.7,3.5H51.5z"/>
	<path fill-rule="evenodd" clip-rule="evenodd" fill="#4B99A2" d="M48.9,15.6l0.6-3.1h20.4l-0.4,1.9C62.8,14.6,55.6,15,48.9,15.6z"
		/>
	<path fill-rule="evenodd" clip-rule="evenodd" fill="#4B99A2" d="M78.1,14.3l1.1-1.9l2.9,0l0.4,1.9C81.8,14.2,78.8,14.3,78.1,14.3z
		"/>
	<path fill-rule="evenodd" clip-rule="evenodd" fill="#4B99A2" d="M83.3,38.3l-4.6-22.2c0,0,3.4,0,4.4,0l5.5,22.2H83.3z"/>
	<path fill-rule="evenodd" clip-rule="evenodd" fill="#4B99A2" d="M64.5,38.3l4.1-7.2c0.2-0.1,0.4-0.2,0.7-0.4
		c0.6-0.4,1.7-1.4,1.6-2.6c0-0.2-0.1-0.2-0.2-0.4c0.8-1.4,6.6-11.5,6.6-11.5c0.7,0,0.8,0,0.8,0L66.2,38.3H64.5z"/>
	<path fill-rule="evenodd" clip-rule="evenodd" fill="#55A3AD" d="M52.9,33.7l1.7-8.4c1.5,0.1,2.9,0.2,4,0.4l-1.6,7.2
		C55.8,33.2,54.5,33.4,52.9,33.7z"/>
	<path fill-rule="evenodd" clip-rule="evenodd" fill="#55A3AD" d="M55,23.4l1.4-6.4c1.4-0.1,2.8-0.2,4.2-0.3l-1.5,6.9
		C57.8,23.5,56.4,23.4,55,23.4z"/>
	<path fill-rule="evenodd" clip-rule="evenodd" fill="#55A3AD" d="M52.1,37.9l0.5-2.3c1.4-0.2,2.8-0.5,4.1-0.7l-0.6,3H52.1z"/>
	<path fill-rule="evenodd" clip-rule="evenodd" fill="#55A3AD" d="M49.3,15.6l0.5-2.6h19.6l-0.3,1.5C62.6,14.6,55.8,15,49.3,15.6z"
		/>
	<path fill-rule="evenodd" clip-rule="evenodd" fill="#55A3AD" d="M78.4,14.3l0.8-1.5l2.5,0l0.3,1.4C81.7,14.2,78.8,14.3,78.4,14.3z
		"/>
	<path fill-rule="evenodd" clip-rule="evenodd" fill="#55A3AD" d="M83.7,37.9l-4.6-21.8c0,0,2.6,0,3.5,0L88,37.9H83.7z"/>
	<path fill-rule="evenodd" clip-rule="evenodd" fill="#55A3AD" d="M77.6,16.2l0.3,0L66.1,37.9h-1l4.1-7.1c0,0,0.2-0.1,0.3-0.2
		c0.5-0.4,1.5-1.3,1.4-2.5c0,0,0,0.1,0-0.1C72,25.9,77.6,16.2,77.6,16.2z"/>
	<path fill-rule="evenodd" clip-rule="evenodd" fill="#5FACB8" d="M77.7,16.2L77.7,16.2L65.8,37.9h-0.3c0,0,3.9-7.2,4-7.3
		c0.5-0.4,1.5-1.4,1.4-2.2C70.9,28.3,77.7,16.2,77.7,16.2z"/>
	<path fill-rule="evenodd" clip-rule="evenodd" fill="#5FACB8" d="M55.1,25.3c1.1,0.1,2.2,0.2,3.2,0.3L56.6,33c-1,0.3-2,0.4-3.2,0.7
		L55.1,25.3z"/>
	<path fill-rule="evenodd" clip-rule="evenodd" fill="#5FACB8" d="M56.8,16.9c1.1-0.1,2.2-0.1,3.3-0.2l-1.4,6.8
		c-1.1-0.1-2.2-0.1-3.3-0.2L56.8,16.9z"/>
	<path fill-rule="evenodd" clip-rule="evenodd" fill="#5FACB8" d="M53,35.6c1.1-0.2,2.2-0.4,3.3-0.6l-0.5,2.5h-3.1L53,35.6z"/>
	<path fill-rule="evenodd" clip-rule="evenodd" fill="#5FACB8" d="M68.6,14.5C62.5,14.6,56,15,49.8,15.5l0.4-2.2h18.7L68.6,14.5z"/>
	<polygon fill-rule="evenodd" clip-rule="evenodd" fill="#5FACB8" points="78.7,14.3 79.3,13.2 81.4,13.2 81.6,14.3 	"/>
	<path fill-rule="evenodd" clip-rule="evenodd" fill="#5FACB8" d="M79.5,16.1c0,0,1.9,0,2.6,0l5.3,21.4H84L79.5,16.1z"/>
	<circle fill-rule="evenodd" clip-rule="evenodd" fill="#002F52" cx="94.6" cy="15.3" r="4.2"/>
	<circle fill-rule="evenodd" clip-rule="evenodd" fill="#00395F" cx="94.5" cy="15.1" r="3.9"/>
	<circle fill-rule="evenodd" clip-rule="evenodd" fill="#004069" cx="94.3" cy="15" r="3.6"/>
	<circle fill-rule="evenodd" clip-rule="evenodd" fill="#004774" cx="94.2" cy="14.8" r="3.3"/>
	<circle fill-rule="evenodd" clip-rule="evenodd" fill="#0B4F7F" cx="94" cy="14.6" r="3.1"/>
	<circle fill-rule="evenodd" clip-rule="evenodd" fill="#11588A" cx="93.9" cy="14.5" r="2.8"/>
	<circle fill-rule="evenodd" clip-rule="evenodd" fill="#156095" cx="93.8" cy="14.3" r="2.5"/>
	<circle fill-rule="evenodd" clip-rule="evenodd" fill="#1669A1" cx="93.6" cy="14.2" r="2.3"/>
	<circle fill-rule="evenodd" clip-rule="evenodd" fill="#1872AD" cx="93.5" cy="14" r="2"/>
	<circle fill-rule="evenodd" clip-rule="evenodd" fill="#1A7AB9" cx="93.4" cy="13.8" r="1.7"/>
</g>
<g>
	<g>
		<path fill="#7C7C80" d="M0.4,47.3c0,0.1,0,0.1-0.1,0.1c0,0-0.1,0.1-0.2,0.1s-0.1,0-0.2-0.1c0,0-0.1-0.1-0.1-0.1v-3.6
			c0-0.1,0-0.1,0.1-0.2c0,0,0.1-0.1,0.2-0.1c0.1,0,0.1,0,0.2,0.1c0,0,0.1,0.1,0.1,0.2V47.3z"/>
		<path fill="#7C7C80" d="M2.8,47.1v-2.4c0-0.1,0.1-0.1,0.2-0.1c0,0,0.1,0,0.1,0c0,0,0,0.1,0,0.1v2.6c0,0.1,0,0.1-0.1,0.2
			c-0.1,0-0.1,0.1-0.2,0.1c-0.1,0-0.2-0.1-0.3-0.2l-1-2.3v2.4c0,0.1-0.1,0.1-0.2,0.1c0,0-0.1,0-0.1,0c0,0,0-0.1,0-0.1v-2.6
			c0-0.1,0-0.1,0.1-0.2c0.1,0,0.1-0.1,0.2-0.1c0.1,0,0.2,0.1,0.3,0.2L2.8,47.1z"/>
		<path fill="#7C7C80" d="M4.5,47.5H4c-0.1,0-0.2-0.1-0.2-0.2c0-0.1,0.1-0.2,0.2-0.2h0.5c0.2,0,0.3-0.1,0.5-0.2
			c0.1-0.1,0.2-0.2,0.2-0.4c0-0.2-0.1-0.4-0.4-0.5C4.5,46.1,4.3,46,4,45.9c-0.3-0.1-0.4-0.3-0.4-0.6c0-0.2,0.1-0.4,0.3-0.6
			c0.2-0.1,0.4-0.2,0.6-0.2h0.4c0.1,0,0.2,0.1,0.2,0.2c0,0.1-0.1,0.2-0.2,0.2H4.5c-0.1,0-0.3,0-0.4,0.1C4,45.1,4,45.2,4,45.3
			c0,0.1,0,0.2,0.1,0.3c0.1,0,0.2,0.1,0.3,0.1l0.5,0.2c0.2,0.1,0.3,0.2,0.4,0.3c0.1,0.1,0.2,0.3,0.2,0.5c0,0.2-0.1,0.5-0.3,0.6
			C5,47.4,4.8,47.5,4.5,47.5z"/>
		<path fill="#7C7C80" d="M6.3,44.9H5.7c0,0-0.1,0-0.1,0c0,0,0-0.1,0-0.1s0-0.1,0-0.1c0,0,0.1,0,0.1,0h1.7c0,0,0.1,0,0.1,0
			c0,0,0,0.1,0,0.1c0,0,0,0.1,0,0.1c0,0-0.1,0-0.1,0H6.7v2.5c0,0,0,0.1,0,0.1c0,0-0.1,0-0.1,0s-0.1,0-0.1,0c0,0,0-0.1,0-0.1V44.9z"
			/>
		<path fill="#7C7C80" d="M8.1,47.4c0,0,0,0.1,0,0.1c0,0-0.1,0-0.1,0c0,0-0.1,0-0.1,0c0,0,0-0.1,0-0.1v-2.7c0,0,0-0.1,0-0.1
			c0,0,0.1,0,0.1,0s0.1,0,0.1,0c0,0,0,0.1,0,0.1V47.4z"/>
		<path fill="#7C7C80" d="M9.2,44.9H8.6c0,0-0.1,0-0.1,0c0,0,0-0.1,0-0.1s0-0.1,0-0.1c0,0,0.1,0,0.1,0h1.7c0,0,0.1,0,0.1,0
			c0,0,0,0.1,0,0.1c0,0,0,0.1,0,0.1c0,0-0.1,0-0.1,0H9.6v2.5c0,0,0,0.1,0,0.1c0,0-0.1,0-0.1,0c0,0-0.1,0-0.1,0c0,0,0-0.1,0-0.1V44.9
			z"/>
		<path fill="#7C7C80" d="M11.4,47.5c-0.2,0-0.5-0.1-0.6-0.3c-0.2-0.2-0.3-0.4-0.3-0.6v-2c0,0,0-0.1,0-0.1c0,0,0.1,0,0.1,0
			c0,0,0.1,0,0.1,0c0,0,0,0.1,0,0.1v2c0,0.2,0.1,0.3,0.2,0.4c0.1,0.1,0.2,0.2,0.4,0.2c0.2,0,0.3-0.1,0.4-0.2
			c0.1-0.1,0.2-0.2,0.2-0.4v-2c0,0,0-0.1,0-0.1c0,0,0.1,0,0.1,0c0,0,0.1,0,0.1,0c0,0,0,0.1,0,0.1v2c0,0.2-0.1,0.4-0.3,0.6
			C11.8,47.5,11.6,47.5,11.4,47.5z"/>
		<path fill="#7C7C80" d="M13.1,44.9h-0.7c0,0-0.1,0-0.1,0c0,0,0-0.1,0-0.1s0-0.1,0-0.1c0,0,0.1,0,0.1,0h1.7c0,0,0.1,0,0.1,0
			c0,0,0,0.1,0,0.1c0,0,0,0.1,0,0.1c0,0-0.1,0-0.1,0h-0.7v2.5c0,0,0,0.1,0,0.1c0,0-0.1,0-0.1,0s-0.1,0-0.1,0c0,0,0-0.1,0-0.1V44.9z"
			/>
		<path fill="#7C7C80" d="M15.5,47.5c-0.3,0-0.5-0.1-0.7-0.3c-0.2-0.2-0.3-0.4-0.3-0.7v-1.1c0-0.3,0.1-0.5,0.3-0.7
			c0.2-0.2,0.4-0.3,0.7-0.3c0.3,0,0.5,0.1,0.7,0.3c0.2,0.2,0.3,0.4,0.3,0.7v1.1c0,0.3-0.1,0.5-0.3,0.7C16,47.5,15.8,47.5,15.5,47.5z
			 M16.2,45.5c0-0.2-0.1-0.3-0.2-0.5c-0.1-0.1-0.3-0.2-0.5-0.2c-0.2,0-0.3,0.1-0.5,0.2c-0.1,0.1-0.2,0.3-0.2,0.5v1.1
			c0,0.2,0.1,0.3,0.2,0.5c0.1,0.1,0.3,0.2,0.5,0.2c0.2,0,0.3-0.1,0.5-0.2c0.1-0.1,0.2-0.3,0.2-0.5V45.5z"/>
		<path fill="#7C7C80" d="M20.2,45.3c0.3,0.2,0.5,0.4,0.5,0.9v0.2c0,0.4-0.1,0.6-0.3,0.8c-0.2,0.2-0.5,0.2-0.8,0.2h-1
			c-0.1,0-0.2,0-0.3-0.1c-0.1-0.1-0.1-0.1-0.1-0.2v-2.6c0-0.3,0.1-0.5,0.3-0.7c0.2-0.2,0.4-0.3,0.7-0.3h0.2c0.3,0,0.5,0.1,0.7,0.3
			c0.2,0.2,0.3,0.4,0.3,0.7v0.2C20.4,45,20.3,45.2,20.2,45.3z M18.6,45.4l0.9-0.1c0.1,0,0.2-0.1,0.3-0.1c0.1-0.1,0.1-0.2,0.1-0.4
			v-0.2c0-0.2-0.1-0.3-0.2-0.4C19.6,44,19.5,44,19.4,44h-0.2c-0.2,0-0.3,0.1-0.4,0.2c-0.1,0.1-0.2,0.2-0.2,0.4V45.4z M18.6,47.1h0.9
			c0.2,0,0.4-0.1,0.5-0.2c0.1-0.1,0.2-0.3,0.2-0.5v-0.2c0-0.4-0.2-0.6-0.6-0.6c-0.1,0-0.3,0-0.5,0.1c-0.3,0.1-0.5,0.1-0.5,0.1V47.1z
			"/>
		<path fill="#7C7C80" d="M22.4,46.2l0.6,1.1c0,0,0,0.1,0,0.1c0,0.1-0.1,0.2-0.2,0.2c-0.1,0-0.1,0-0.2-0.1l-0.6-1.2
			c0,0-0.2,0-0.5,0.1v1.1c0,0,0,0.1,0,0.1c0,0-0.1,0-0.1,0c0,0-0.1,0-0.1,0c0,0,0-0.1,0-0.1v-2.1c0-0.2,0.1-0.4,0.2-0.5
			c0.2-0.1,0.3-0.2,0.5-0.2h0.2c0.2,0,0.4,0.1,0.5,0.2c0.1,0.1,0.2,0.3,0.2,0.5v0.2C23,45.8,22.8,46,22.4,46.2z M21.6,46l0.6-0.1
			c0.3,0,0.5-0.2,0.5-0.4v-0.2c0-0.1-0.1-0.2-0.2-0.3c-0.1-0.1-0.2-0.1-0.3-0.1h-0.1c-0.1,0-0.2,0-0.3,0.1c-0.1,0.1-0.1,0.2-0.1,0.3
			V46z"/>
		<path fill="#7C7C80" d="M24,46.8l-0.2,0.7c0,0.1-0.1,0.1-0.2,0.1c0,0-0.1,0-0.1,0c0,0-0.1-0.1-0.1-0.1c0,0,0,0,0-0.1l0.9-2.6
			c0.1-0.1,0.2-0.2,0.3-0.2c0.1,0,0.2,0.1,0.3,0.2l0.9,2.6c0,0,0,0,0,0.1c0,0,0,0.1-0.1,0.1s-0.1,0-0.1,0c-0.1,0-0.1,0-0.2-0.1
			l-0.2-0.7H24z M25.2,46.4l-0.5-1.6c0,0,0,0,0,0c0,0,0,0,0,0l-0.5,1.6H25.2z"/>
		<path fill="#7C7C80" d="M27,47.5h-0.5c-0.1,0-0.2-0.1-0.2-0.2c0-0.1,0.1-0.2,0.2-0.2H27c0.2,0,0.3-0.1,0.5-0.2
			c0.1-0.1,0.2-0.2,0.2-0.4c0-0.2-0.1-0.4-0.4-0.5c-0.2-0.1-0.5-0.2-0.7-0.2c-0.3-0.1-0.4-0.3-0.4-0.6c0-0.2,0.1-0.4,0.3-0.6
			c0.2-0.1,0.4-0.2,0.6-0.2h0.4c0.1,0,0.2,0.1,0.2,0.2c0,0.1-0.1,0.2-0.2,0.2H27c-0.1,0-0.3,0-0.4,0.1c-0.1,0.1-0.1,0.2-0.1,0.3
			c0,0.1,0,0.2,0.1,0.3c0.1,0,0.2,0.1,0.3,0.1l0.5,0.2c0.2,0.1,0.3,0.2,0.4,0.3c0.1,0.1,0.2,0.3,0.2,0.5c0,0.2-0.1,0.5-0.3,0.6
			C27.5,47.4,27.3,47.5,27,47.5z"/>
		<path fill="#7C7C80" d="M28.8,47.4c0,0,0,0.1,0,0.1c0,0-0.1,0-0.1,0c0,0-0.1,0-0.1,0c0,0,0-0.1,0-0.1v-2.7c0,0,0-0.1,0-0.1
			c0,0,0.1,0,0.1,0s0.1,0,0.1,0c0,0,0,0.1,0,0.1V47.4z"/>
		<path fill="#7C7C80" d="M30.8,47.5h-0.5c-0.2,0-0.4-0.1-0.5-0.2c-0.2-0.1-0.2-0.3-0.2-0.5v-2.1c0,0,0-0.1,0-0.1c0,0,0.1,0,0.1,0
			c0,0,0.1,0,0.1,0c0,0,0,0.1,0,0.1v2.1c0,0.1,0,0.2,0.1,0.3c0.1,0.1,0.2,0.1,0.3,0.1h0.5c0,0,0.1,0,0.1,0c0,0,0,0.1,0,0.1
			c0,0,0,0.1,0,0.1C30.9,47.5,30.8,47.5,30.8,47.5z"/>
		<path fill="#7C7C80" d="M31.6,46.1v0.4c0,0.2,0.1,0.4,0.2,0.5c0.1,0.1,0.3,0.2,0.5,0.2h0.3c0,0,0.1,0,0.1,0c0,0,0,0.1,0,0.1
			c0,0,0,0.1,0,0.1c0,0-0.1,0-0.1,0h-0.3c-0.3,0-0.6-0.1-0.8-0.3c-0.2-0.2-0.3-0.5-0.3-0.7v-0.8c0-0.3,0.1-0.5,0.3-0.7
			c0.2-0.2,0.5-0.3,0.8-0.3h0.3c0,0,0.1,0,0.1,0c0,0,0,0.1,0,0.1c0,0,0,0.1,0,0.1c0,0-0.1,0-0.1,0h-0.3c-0.2,0-0.4,0.1-0.5,0.2
			c-0.2,0.1-0.2,0.3-0.2,0.5v0.2h0.7c0,0,0.1,0,0.1,0c0,0,0,0.1,0,0.1c0,0,0,0.1,0,0.1c0,0-0.1,0-0.1,0H31.6z"/>
		<path fill="#7C7C80" d="M33.7,47.4c0,0,0,0.1,0,0.1c0,0-0.1,0-0.1,0c0,0-0.1,0-0.1,0c0,0,0-0.1,0-0.1v-2.7c0,0,0-0.1,0-0.1
			c0,0,0.1,0,0.1,0c0,0,0.1,0,0.1,0c0,0,0,0.1,0,0.1V47.4z"/>
		<path fill="#7C7C80" d="M35.5,46.2l0.6,1.1c0,0,0,0.1,0,0.1c0,0.1-0.1,0.2-0.2,0.2c-0.1,0-0.1,0-0.2-0.1l-0.6-1.2
			c0,0-0.2,0-0.5,0.1v1.1c0,0,0,0.1,0,0.1c0,0-0.1,0-0.1,0c0,0-0.1,0-0.1,0c0,0,0-0.1,0-0.1v-2.1c0-0.2,0.1-0.4,0.2-0.5
			c0.2-0.1,0.3-0.2,0.5-0.2h0.2c0.2,0,0.4,0.1,0.5,0.2c0.1,0.1,0.2,0.3,0.2,0.5v0.2C36.1,45.8,35.9,46,35.5,46.2z M34.7,46l0.6-0.1
			c0.3,0,0.5-0.2,0.5-0.4v-0.2c0-0.1-0.1-0.2-0.2-0.3c-0.1-0.1-0.2-0.1-0.3-0.1h-0.1c-0.1,0-0.2,0-0.3,0.1c-0.1,0.1-0.1,0.2-0.1,0.3
			V46z"/>
		<path fill="#7C7C80" d="M37.6,47.5c-0.3,0-0.5-0.1-0.7-0.3c-0.2-0.2-0.3-0.4-0.3-0.7v-1.1c0-0.3,0.1-0.5,0.3-0.7
			c0.2-0.2,0.4-0.3,0.7-0.3c0.3,0,0.5,0.1,0.7,0.3c0.2,0.2,0.3,0.4,0.3,0.7v1.1c0,0.3-0.1,0.5-0.3,0.7
			C38.2,47.5,37.9,47.5,37.6,47.5z M38.3,45.5c0-0.2-0.1-0.3-0.2-0.5c-0.1-0.1-0.3-0.2-0.5-0.2c-0.2,0-0.3,0.1-0.5,0.2
			C37,45.1,37,45.3,37,45.5v1.1c0,0.2,0.1,0.3,0.2,0.5c0.1,0.1,0.3,0.2,0.5,0.2c0.2,0,0.3-0.1,0.5-0.2c0.1-0.1,0.2-0.3,0.2-0.5V45.5
			z"/>
		<path fill="#7C7C80" d="M41.9,47.5h-0.6c-0.1,0-0.1,0-0.2-0.1c-0.1-0.1-0.1-0.1-0.1-0.2v-2.4c0-0.1,0-0.1,0.1-0.2
			c0.1-0.1,0.1-0.1,0.2-0.1h0.6c0.3,0,0.6,0.1,0.8,0.3c0.2,0.2,0.3,0.5,0.3,0.7v0.8c0,0.3-0.1,0.5-0.3,0.7
			C42.5,47.4,42.2,47.5,41.9,47.5z M41.4,47.2h0.6c0.2,0,0.4-0.1,0.5-0.2c0.1-0.1,0.2-0.3,0.2-0.5v-0.8c0-0.2-0.1-0.4-0.2-0.5
			c-0.2-0.1-0.3-0.2-0.5-0.2h-0.6V47.2z"/>
		<path fill="#7C7C80" d="M43.8,46.1v0.4c0,0.2,0.1,0.4,0.2,0.5c0.1,0.1,0.3,0.2,0.5,0.2h0.3c0,0,0.1,0,0.1,0c0,0,0,0.1,0,0.1
			c0,0,0,0.1,0,0.1c0,0-0.1,0-0.1,0h-0.3c-0.3,0-0.6-0.1-0.8-0.3c-0.2-0.2-0.3-0.5-0.3-0.7v-0.8c0-0.3,0.1-0.5,0.3-0.7
			c0.2-0.2,0.5-0.3,0.8-0.3h0.3c0,0,0.1,0,0.1,0c0,0,0,0.1,0,0.1c0,0,0,0.1,0,0.1c0,0-0.1,0-0.1,0h-0.3c-0.2,0-0.4,0.1-0.5,0.2
			c-0.2,0.1-0.2,0.3-0.2,0.5v0.2h0.7c0,0,0.1,0,0.1,0c0,0,0,0.1,0,0.1c0,0,0,0.1,0,0.1c0,0-0.1,0-0.1,0H43.8z"/>
		<path fill="#7C7C80" d="M47.3,44h-0.9c-0.1,0-0.1,0-0.2-0.1c0,0-0.1-0.1-0.1-0.2c0-0.1,0-0.1,0.1-0.2c0,0,0.1-0.1,0.2-0.1h2.2
			c0.1,0,0.1,0,0.2,0.1c0,0,0.1,0.1,0.1,0.2c0,0.1,0,0.1-0.1,0.2c0,0-0.1,0.1-0.2,0.1h-0.9v3.3c0,0.1,0,0.1-0.1,0.1
			c0,0-0.1,0.1-0.2,0.1c-0.1,0-0.1,0-0.2-0.1c0,0-0.1-0.1-0.1-0.1V44z"/>
		<path fill="#7C7C80" d="M49.3,46.1v0.4c0,0.2,0.1,0.4,0.2,0.5c0.1,0.1,0.3,0.2,0.5,0.2h0.3c0,0,0.1,0,0.1,0c0,0,0,0.1,0,0.1
			c0,0,0,0.1,0,0.1c0,0-0.1,0-0.1,0h-0.3c-0.3,0-0.6-0.1-0.8-0.3C49.1,47,49,46.7,49,46.5v-0.8c0-0.3,0.1-0.5,0.3-0.7
			c0.2-0.2,0.5-0.3,0.8-0.3h0.3c0,0,0.1,0,0.1,0c0,0,0,0.1,0,0.1c0,0,0,0.1,0,0.1c0,0-0.1,0-0.1,0h-0.3c-0.2,0-0.4,0.1-0.5,0.2
			c-0.2,0.1-0.2,0.3-0.2,0.5v0.2H50c0,0,0.1,0,0.1,0c0,0,0,0.1,0,0.1c0,0,0,0.1,0,0.1c0,0-0.1,0-0.1,0H49.3z"/>
		<path fill="#7C7C80" d="M52.6,47.5h-0.4c-0.3,0-0.6-0.1-0.8-0.3C51.1,47,51,46.7,51,46.5v-0.8c0-0.3,0.1-0.5,0.3-0.7
			c0.2-0.2,0.5-0.3,0.8-0.3h0.3c0,0,0.1,0,0.1,0c0,0,0,0.1,0,0.1c0,0,0,0.1,0,0.1c0,0-0.1,0-0.1,0h-0.3c-0.2,0-0.4,0.1-0.5,0.2
			c-0.2,0.1-0.2,0.3-0.2,0.5v0.8c0,0.2,0.1,0.4,0.2,0.5c0.1,0.1,0.3,0.2,0.5,0.2h0.4c0,0,0.1,0,0.1,0c0,0,0,0.1,0,0.1
			c0,0,0,0.1,0,0.1C52.7,47.5,52.6,47.5,52.6,47.5z"/>
		<path fill="#7C7C80" d="M54.8,47.1v-2.4c0-0.1,0.1-0.1,0.2-0.1c0,0,0.1,0,0.1,0c0,0,0,0.1,0,0.1v2.6c0,0.1,0,0.1-0.1,0.2
			c-0.1,0-0.1,0.1-0.2,0.1c-0.1,0-0.2-0.1-0.3-0.2l-1-2.3v2.4c0,0.1-0.1,0.1-0.2,0.1c0,0-0.1,0-0.1,0c0,0,0-0.1,0-0.1v-2.6
			c0-0.1,0-0.1,0.1-0.2c0.1,0,0.1-0.1,0.2-0.1c0.1,0,0.2,0.1,0.3,0.2L54.8,47.1z"/>
		<path fill="#7C7C80" d="M56.8,47.5c-0.3,0-0.5-0.1-0.7-0.3c-0.2-0.2-0.3-0.4-0.3-0.7v-1.1c0-0.3,0.1-0.5,0.3-0.7
			c0.2-0.2,0.4-0.3,0.7-0.3c0.3,0,0.5,0.1,0.7,0.3c0.2,0.2,0.3,0.4,0.3,0.7v1.1c0,0.3-0.1,0.5-0.3,0.7
			C57.3,47.5,57.1,47.5,56.8,47.5z M57.5,45.5c0-0.2-0.1-0.3-0.2-0.5c-0.1-0.1-0.3-0.2-0.5-0.2c-0.2,0-0.3,0.1-0.5,0.2
			c-0.1,0.1-0.2,0.3-0.2,0.5v1.1c0,0.2,0.1,0.3,0.2,0.5c0.1,0.1,0.3,0.2,0.5,0.2c0.2,0,0.3-0.1,0.5-0.2c0.1-0.1,0.2-0.3,0.2-0.5
			V45.5z"/>
		<path fill="#7C7C80" d="M59.7,47.5h-0.5c-0.2,0-0.4-0.1-0.5-0.2c-0.2-0.1-0.2-0.3-0.2-0.5v-2.1c0,0,0-0.1,0-0.1c0,0,0.1,0,0.1,0
			c0,0,0.1,0,0.1,0c0,0,0,0.1,0,0.1v2.1c0,0.1,0,0.2,0.1,0.3c0.1,0.1,0.2,0.1,0.3,0.1h0.5c0,0,0.1,0,0.1,0c0,0,0,0.1,0,0.1
			c0,0,0,0.1,0,0.1C59.8,47.5,59.7,47.5,59.7,47.5z"/>
		<path fill="#7C7C80" d="M61.2,47.5c-0.3,0-0.5-0.1-0.7-0.3c-0.2-0.2-0.3-0.4-0.3-0.7v-1.1c0-0.3,0.1-0.5,0.3-0.7
			c0.2-0.2,0.4-0.3,0.7-0.3c0.3,0,0.5,0.1,0.7,0.3c0.2,0.2,0.3,0.4,0.3,0.7v1.1c0,0.3-0.1,0.5-0.3,0.7
			C61.7,47.5,61.4,47.5,61.2,47.5z M61.8,45.5c0-0.2-0.1-0.3-0.2-0.5c-0.1-0.1-0.3-0.2-0.5-0.2c-0.2,0-0.3,0.1-0.5,0.2
			c-0.1,0.1-0.2,0.3-0.2,0.5v1.1c0,0.2,0.1,0.3,0.2,0.5c0.1,0.1,0.3,0.2,0.5,0.2c0.2,0,0.3-0.1,0.5-0.2c0.1-0.1,0.2-0.3,0.2-0.5
			V45.5z"/>
		<path fill="#7C7C80" d="M64.3,46.3h-0.5c0,0-0.1,0-0.1,0c0,0,0-0.1,0-0.1c0,0,0-0.1,0-0.1c0,0,0.1,0,0.1,0h0.5
			c0.2,0,0.3,0.1,0.3,0.3v0.4c0,0.3-0.1,0.5-0.3,0.7c-0.2,0.2-0.4,0.3-0.7,0.3c-0.3,0-0.5-0.1-0.7-0.3c-0.2-0.2-0.3-0.4-0.3-0.7v-1
			c0-0.3,0.1-0.5,0.3-0.7c0.2-0.2,0.5-0.3,0.8-0.3h0.5c0,0,0.1,0,0.1,0c0,0,0,0.1,0,0.1c0,0,0,0.1,0,0.1c0,0-0.1,0-0.1,0h-0.4
			c-0.2,0-0.4,0.1-0.5,0.2c-0.2,0.1-0.2,0.3-0.2,0.5v0.9c0,0.2,0.1,0.3,0.2,0.5c0.1,0.1,0.3,0.2,0.5,0.2c0.2,0,0.3-0.1,0.5-0.2
			c0.1-0.1,0.2-0.3,0.2-0.5V46.3z"/>
		<path fill="#7C7C80" d="M65.6,47.4c0,0,0,0.1,0,0.1c0,0-0.1,0-0.1,0c0,0-0.1,0-0.1,0c0,0,0-0.1,0-0.1v-2.7c0,0,0-0.1,0-0.1
			c0,0,0.1,0,0.1,0c0,0,0.1,0,0.1,0c0,0,0,0.1,0,0.1V47.4z"/>
		<path fill="#7C7C80" d="M66.7,46.8l-0.2,0.7c0,0.1-0.1,0.1-0.2,0.1c0,0-0.1,0-0.1,0s-0.1-0.1-0.1-0.1c0,0,0,0,0-0.1l0.9-2.6
			c0.1-0.1,0.2-0.2,0.3-0.2c0.1,0,0.2,0.1,0.3,0.2l0.9,2.6c0,0,0,0,0,0.1c0,0,0,0.1-0.1,0.1c0,0-0.1,0-0.1,0c-0.1,0-0.1,0-0.2-0.1
			L68,46.8H66.7z M67.9,46.4l-0.5-1.6c0,0,0,0,0,0c0,0,0,0,0,0l-0.5,1.6H67.9z"/>
		<path fill="#7C7C80" d="M71.2,46.5l-0.3,0.9c0,0.1-0.1,0.1-0.2,0.1c-0.1,0-0.1,0-0.2-0.1c0,0-0.1-0.1-0.1-0.1c0,0,0-0.1,0-0.1
			l1.3-3.5c0.1-0.2,0.2-0.3,0.4-0.3c0.2,0,0.3,0.1,0.4,0.2l1.3,3.5c0,0,0,0.1,0,0.1c0,0.1,0,0.1-0.1,0.1c0,0-0.1,0.1-0.2,0.1
			c-0.1,0-0.2,0-0.2-0.1L73,46.5H71.2z M72.8,46.1L72.1,44c0,0,0,0,0,0c0,0,0,0,0,0l-0.7,2.1H72.8z"/>
		<path fill="#7C7C80" d="M75.2,47.1l0.8-2.5c0-0.1,0.1-0.1,0.2-0.1c0,0,0.1,0,0.1,0c0,0,0.1,0.1,0.1,0.1c0,0,0,0,0,0l-0.8,2.7
			c0,0.1-0.1,0.2-0.3,0.2c-0.1,0-0.2-0.1-0.3-0.2l-0.8-2.7c0,0,0,0,0,0c0,0,0-0.1,0.1-0.1c0,0,0.1,0,0.1,0c0.1,0,0.1,0,0.2,0.1
			L75.2,47.1z"/>
		<path fill="#7C7C80" d="M77,46.8l-0.2,0.7c0,0.1-0.1,0.1-0.2,0.1c0,0-0.1,0-0.1,0c0,0-0.1-0.1-0.1-0.1c0,0,0,0,0-0.1l0.9-2.6
			c0.1-0.1,0.2-0.2,0.3-0.2c0.1,0,0.2,0.1,0.3,0.2l0.9,2.6c0,0,0,0,0,0.1c0,0,0,0.1-0.1,0.1c0,0-0.1,0-0.1,0c-0.1,0-0.1,0-0.2-0.1
			l-0.2-0.7H77z M78.3,46.4l-0.5-1.6c0,0,0,0,0,0c0,0,0,0,0,0l-0.5,1.6H78.3z"/>
		<path fill="#7C7C80" d="M81.1,47.1v-2.4c0-0.1,0.1-0.1,0.2-0.1c0,0,0.1,0,0.1,0c0,0,0,0.1,0,0.1v2.6c0,0.1,0,0.1-0.1,0.2
			c-0.1,0-0.1,0.1-0.2,0.1c-0.1,0-0.2-0.1-0.3-0.2l-1-2.3v2.4c0,0.1-0.1,0.1-0.2,0.1c0,0-0.1,0-0.1,0c0,0,0-0.1,0-0.1v-2.6
			c0-0.1,0-0.1,0.1-0.2c0.1,0,0.1-0.1,0.2-0.1c0.1,0,0.2,0.1,0.3,0.2L81.1,47.1z"/>
		<path fill="#7C7C80" d="M83.6,47.5h-0.4c-0.3,0-0.6-0.1-0.8-0.3C82.1,47,82,46.7,82,46.5v-0.8c0-0.3,0.1-0.5,0.3-0.7
			c0.2-0.2,0.5-0.3,0.8-0.3h0.3c0,0,0.1,0,0.1,0c0,0,0,0.1,0,0.1c0,0,0,0.1,0,0.1c0,0-0.1,0-0.1,0h-0.3c-0.2,0-0.4,0.1-0.5,0.2
			c-0.2,0.1-0.2,0.3-0.2,0.5v0.8c0,0.2,0.1,0.4,0.2,0.5c0.1,0.1,0.3,0.2,0.5,0.2h0.4c0,0,0.1,0,0.1,0c0,0,0,0.1,0,0.1
			c0,0,0,0.1,0,0.1C83.7,47.5,83.6,47.5,83.6,47.5z M83.3,47.8c0,0,0,0.1,0,0.1c0,0-0.1,0-0.1,0c0,0-0.1,0-0.1,0c0,0,0-0.1,0-0.1
			v-0.4c0-0.1,0.1-0.1,0.2-0.1c0,0,0.1,0,0.1,0c0,0,0,0.1,0,0.1V47.8z"/>
		<path fill="#7C7C80" d="M84.5,46.8l-0.2,0.7c0,0.1-0.1,0.1-0.2,0.1c0,0-0.1,0-0.1,0c0,0-0.1-0.1-0.1-0.1c0,0,0,0,0-0.1l0.9-2.6
			c0.1-0.1,0.2-0.2,0.3-0.2c0.1,0,0.2,0.1,0.3,0.2l0.9,2.6c0,0,0,0,0,0.1c0,0,0,0.1-0.1,0.1c0,0-0.1,0-0.1,0c-0.1,0-0.1,0-0.2-0.1
			l-0.2-0.7H84.5z M85.7,46.4l-0.5-1.6c0,0,0,0,0,0c0,0,0,0,0,0l-0.5,1.6H85.7z"/>
		<path fill="#7C7C80" d="M87.8,47.5h-0.6c-0.1,0-0.1,0-0.2-0.1c-0.1-0.1-0.1-0.1-0.1-0.2v-2.4c0-0.1,0-0.1,0.1-0.2
			c0.1-0.1,0.1-0.1,0.2-0.1h0.6c0.3,0,0.6,0.1,0.8,0.3c0.2,0.2,0.3,0.5,0.3,0.7v0.8c0,0.3-0.1,0.5-0.3,0.7
			C88.4,47.4,88.1,47.5,87.8,47.5z M87.3,47.2h0.6c0.2,0,0.4-0.1,0.5-0.2c0.1-0.1,0.2-0.3,0.2-0.5v-0.8c0-0.2-0.1-0.4-0.2-0.5
			c-0.2-0.1-0.3-0.2-0.5-0.2h-0.6V47.2z"/>
		<path fill="#7C7C80" d="M89.9,46.8l-0.2,0.7c0,0.1-0.1,0.1-0.2,0.1c0,0-0.1,0-0.1,0c0,0-0.1-0.1-0.1-0.1c0,0,0,0,0-0.1l0.9-2.6
			c0.1-0.1,0.2-0.2,0.3-0.2c0.1,0,0.2,0.1,0.3,0.2l0.9,2.6c0,0,0,0,0,0.1c0,0,0,0.1-0.1,0.1c0,0-0.1,0-0.1,0c-0.1,0-0.1,0-0.2-0.1
			l-0.2-0.7H89.9z M91.1,46.4l-0.5-1.6c0,0,0,0,0,0c0,0,0,0,0,0L90,46.4H91.1z"/>
	</g>
</g>
</svg>
