<svg id="Layer_1" data-name="Layer 1" xmlns="http://www.w3.org/2000/svg" viewBox="0 0 172.88 247.3"><defs><style>.cls-1{fill:#df4837;}.cls-2{fill:#bf3025;}.cls-3{fill:#f5b400;}.cls-4{fill:#fbcb43;}.cls-5{fill:#fff;}</style></defs><title>icons</title><polygon class="cls-1" points="67.17 247.3 47.76 226.53 20.54 234.73 45.68 141.47 92.31 154.04 67.17 247.3"/><polygon class="cls-1" points="105.71 247.3 125.12 226.53 152.34 234.73 127.2 141.47 80.57 154.04 105.71 247.3"/><polygon class="cls-2" points="38.76 167.14 81.99 192.34 94.07 154.97 43.89 150.95 38.76 167.14"/><polygon class="cls-2" points="91.44 194.38 147.8 217.89 129.75 150.95 85.37 168.35 91.44 194.38"/><path class="cls-3" d="M125.29,159.12h0A11.05,11.05,0,0,1,107,166.31h0a11.05,11.05,0,0,0-16.77,2.53h0a11.05,11.05,0,0,1-19.64-1.47h0a11.05,11.05,0,0,0-16.21-5h0a11.05,11.05,0,0,1-17.05-9.85h0A11.05,11.05,0,0,0,24.85,141h0a11.05,11.05,0,0,1-11.09-16.27h0a11.05,11.05,0,0,0-6.2-15.79h0A11.05,11.05,0,0,1,4.62,89.45h0A11.05,11.05,0,0,0,5.89,72.54h0a11.05,11.05,0,0,1,5.8-18.82h0A11.05,11.05,0,0,0,20.18,39h0A11.05,11.05,0,0,1,33.57,24.59h0a11.05,11.05,0,0,0,14-9.56h0A11.05,11.05,0,0,1,65.92,7.84h0A11.05,11.05,0,0,0,82.69,5.31h0a11.05,11.05,0,0,1,19.64,1.47h0a11.05,11.05,0,0,0,16.21,5h0a11.05,11.05,0,0,1,17.05,9.85h0A11.05,11.05,0,0,0,148,33.17h0a11.05,11.05,0,0,1,11.09,16.27h0a11.05,11.05,0,0,0,6.2,15.79h0a11.05,11.05,0,0,1,2.94,19.47h0A11.05,11.05,0,0,0,167,101.62h0a11.05,11.05,0,0,1-5.8,18.82h0a11.05,11.05,0,0,0-8.48,14.69h0a11.05,11.05,0,0,1-13.39,14.44h0A11.05,11.05,0,0,0,125.29,159.12Z"/><circle class="cls-4" cx="86.44" cy="87.08" r="57.85"/><path class="cls-5" d="M66.42,72.07q1.35-.64,2.63-1.28a26,26,0,0,0,2.6-1.51,25,25,0,0,0,2.79-2.18,30.78,30.78,0,0,0,3.21-3.43H89.09V100h6v8.54H69.37V100h6.42V76.19l-6.42,3Z"/><path class="cls-5" d="M100.61,91a10.57,10.57,0,0,1-3.36-.53,8.68,8.68,0,0,1-2.85-1.58,7.63,7.63,0,0,1-2-2.66,8.75,8.75,0,0,1-.75-3.75,8.13,8.13,0,0,1,.75-3.58,7.71,7.71,0,0,1,2-2.61,8.86,8.86,0,0,1,2.82-1.6,9.76,9.76,0,0,1,3.26-.56,10.27,10.27,0,0,1,3.55.6,8.18,8.18,0,0,1,2.81,1.71,8,8,0,0,1,1.86,2.72,9.18,9.18,0,0,1,.68,3.62,8.61,8.61,0,0,1-.68,3.51,7.39,7.39,0,0,1-1.88,2.59A8.23,8.23,0,0,1,104,90.43,10.74,10.74,0,0,1,100.61,91Zm0-4.11a1.76,1.76,0,0,0,1.63-1.24,7.41,7.41,0,0,0,.55-3,7,7,0,0,0-.6-3,1.87,1.87,0,0,0-1.71-1.24,1.83,1.83,0,0,0-1.6,1.2,6.49,6.49,0,0,0-.62,3,6.38,6.38,0,0,0,.68,3.17A2,2,0,0,0,100.61,86.85Z"/></svg>