<?xml version="1.0" encoding="utf-8"?>
<!-- Generator: Adobe Illustrator 17.1.0, SVG Export Plug-In . SVG Version: 6.00 Build 0)  -->
<!DOCTYPE svg PUBLIC "-//W3C//DTD SVG 1.1//EN" "http://www.w3.org/Graphics/SVG/1.1/DTD/svg11.dtd">
<svg version="1.1" id="Layer_1" xmlns="http://www.w3.org/2000/svg" xmlns:xlink="http://www.w3.org/1999/xlink" x="0px" y="0px"
	 width="319px" height="127.0806px" viewBox="0 0 319 127.0806" enable-background="new 0 0 319 127.0806" xml:space="preserve">
<rect x="-178" y="177.25" fill="#030406" width="701" height="212.9139"/>
<g id="GUIAS" display="none">
	<polygon display="inline" fill="#030406" stroke="#FFFFFF" stroke-miterlimit="10" points="91.5,268.4399 52.5,285.9245 
		52.5,332.5389 91.5364,349.5396 130.5,332.5181 130.5719,286.0288 	"/>
	<polyline display="inline" fill="#030406" stroke="#FFFFFF" stroke-miterlimit="10" points="133.1875,284.8931 91.5364,302.979 
		49.5312,284.6274 	"/>
	<polyline display="inline" fill="#030406" stroke="#FFFFFF" stroke-miterlimit="10" points="91.5,355.0806 91.5,300.9543 
		91.5,267.0806 	"/>
</g>
<g display="none">
	<line display="inline" fill="none" x1="-273.9583" y1="283.6222" x2="-182.1562" y2="326.7056"/>
	<line display="inline" fill="none" x1="-273.9583" y1="268.6222" x2="-182.1562" y2="311.7056"/>
	<line display="inline" fill="none" x1="-273.4375" y1="266.6327" x2="-181.6354" y2="309.716"/>
	<line display="inline" fill="none" x1="-240" y1="321.0806" x2="-240" y2="244.0806"/>
	<line display="inline" fill="none" x1="-140" y1="330.4556" x2="-140" y2="243.2056"/>
	<line display="inline" fill="none" x1="-273.9583" y1="251.4035" x2="-182.1562" y2="294.4868"/>
	<line display="inline" fill="none" x1="-273.4375" y1="249.4139" x2="-181.6354" y2="292.4972"/>
	<rect x="-190.9779" y="269.7837" display="inline" fill="#597AAA" width="2" height="61.5622"/>
	<line display="inline" fill="none" x1="-112" y1="250.5806" x2="-278.375" y2="250.5806"/>
	<line display="inline" fill="none" x1="-103.875" y1="287.8306" x2="-270.25" y2="287.8306"/>
	<line display="inline" fill="none" x1="-102" y1="306.8306" x2="-268.375" y2="306.8306"/>
	<line display="inline" fill="none" x1="-273.8958" y1="234.216" x2="-182.0938" y2="277.2993"/>
	<line display="inline" fill="none" x1="-273.375" y1="232.2264" x2="-181.5729" y2="275.3097"/>
	<g display="inline">
		<line fill="#232321" x1="-105.5938" y1="268.4556" x2="-197.3958" y2="311.5389"/>
	</g>
	<g display="inline">
		<line fill="#232321" x1="-106.1146" y1="266.466" x2="-197.9167" y2="309.5493"/>
	</g>
	<g display="inline">
		<line fill="#232321" x1="-105.5938" y1="251.2368" x2="-197.3958" y2="294.3202"/>
	</g>
	<g display="inline">
		<line fill="#232321" x1="-106.1146" y1="249.2472" x2="-197.9167" y2="292.3306"/>
	</g>
	<g display="inline">
		<line fill="#232321" x1="-105.6562" y1="234.0493" x2="-197.4583" y2="277.1327"/>
	</g>
	<g display="inline">
		<line fill="#232321" x1="-106.1771" y1="232.0597" x2="-197.9792" y2="275.1431"/>
	</g>
	<g display="inline">
		<line fill="#232321" x1="-120.1562" y1="225.1327" x2="-211.9583" y2="268.216"/>
	</g>
	<g display="inline">
		<line fill="#232321" x1="-120.6771" y1="223.1431" x2="-212.4792" y2="266.2264"/>
	</g>
	<g display="inline">
		<line fill="#232321" x1="-134.3229" y1="216.0493" x2="-226.125" y2="259.1327"/>
	</g>
	<g display="inline">
		<line fill="#232321" x1="-134.8438" y1="214.0597" x2="-226.6458" y2="257.1431"/>
	</g>
	<line display="inline" fill="none" x1="-237.9375" y1="235.3202" x2="-146.1354" y2="278.4035"/>
	<line display="inline" fill="none" x1="-237.4167" y1="233.3306" x2="-145.6146" y2="276.4139"/>
	<line display="inline" fill="none" x1="-210.7708" y1="232.2368" x2="-118.9688" y2="275.3202"/>
	<line display="inline" fill="none" x1="-210.25" y1="230.2472" x2="-118.4479" y2="273.3306"/>
</g>
<g>
	<path fill="#030406" d="M102.8918,46.1946c0-1.1675,0.4013-2.1487,1.2038-2.9503c0.8024-0.8033,1.787-1.2045,2.9536-1.2045
		c1.1667,0,2.1478,0.4012,2.9503,1.2045c0.8025,0.8016,1.2037,1.7828,1.2037,2.9503c0,1.1658-0.4012,2.1512-1.2037,2.9528
		c-0.8025,0.8025-1.7836,1.2037-2.9503,1.2037c-1.1666,0-2.1512-0.4012-2.9536-1.2037
		C103.2931,48.3458,102.8918,47.3604,102.8918,46.1946 M103.057,57.0212c0-1.0562,0.2731-1.9859,0.8194-2.7892
		c0.5462-0.7991,1.6049-1.2003,3.1727-1.2003c1.5645,0,2.6233,0.4012,3.1695,1.2003c0.5462,0.8033,0.8193,1.7331,0.8193,2.7892
		v22.0369c0,1.0588-0.2731,1.9876-0.8193,2.7885c-0.5462,0.8025-1.605,1.2037-3.1695,1.2037c-1.5679,0-2.6265-0.4012-3.1727-1.2037
		c-0.5463-0.8008-0.8194-1.7297-0.8194-2.7885V57.0212"/>
	<path fill="#030406" d="M115.9776,46.686c0-0.9104,0.1281-1.6386,0.381-2.1841c0.2933-0.5833,0.6743-1.0385,1.1497-1.3689
		c0.4754-0.3271,0.9845-0.5471,1.5308-0.655c0.5832-0.145,1.1835-0.2192,1.8038-0.2192h2.6266c1.3857,0,2.4411,0.3102,3.1694,0.9272
		c0.7655,0.5833,1.3858,1.6429,1.8612,3.1728l7.8191,25.2628h0.1079l7.7112-25.2628c0.4721-1.53,1.0756-2.5895,1.8038-3.1728
		c0.7654-0.617,1.841-0.9272,3.2268-0.9272h2.5154c0.5833,0,1.1666,0.0741,1.7499,0.2192c0.5833,0.1079,1.1093,0.3279,1.5848,0.655
		c0.4753,0.3304,0.8395,0.7856,1.0924,1.3689c0.2933,0.5454,0.4383,1.2737,0.4383,2.1841v31.9911
		c0,1.1295-0.3102,2.1478-0.9306,3.0616c-0.5833,0.8733-1.6016,1.3116-3.0616,1.3116c-1.4566,0-2.4951-0.4383-3.1155-1.3116
		c-0.5833-0.9137-0.8766-1.932-0.8766-3.0616V54.2893h-0.1079l-8.3653,26.1344c-0.2934,0.9509-0.7654,1.6253-1.4229,2.0265
		c-0.6575,0.3978-1.4566,0.6002-2.404,0.6002c-0.9509,0-1.75-0.2023-2.4075-0.6002c-0.6575-0.4012-1.1295-1.0756-1.4229-2.0265
		l-8.3653-26.1344h-0.1079v24.3878c0,1.1295-0.3102,2.1478-0.9306,3.0616c-0.5833,0.8733-1.605,1.3116-3.0616,1.3116
		c-1.46,0-2.4984-0.4383-3.1189-1.3116c-0.5833-0.9137-0.8733-1.932-0.8733-3.0616V46.686"/>
	<path fill="#030406" d="M179.6597,68.8906c-0.4383,0.3996-1.0014,0.6895-1.696,0.8716c-0.6912,0.182-1.2746,0.3102-1.75,0.386
		l-2.8963,0.4333c-1.6758,0.2563-2.9537,0.6743-3.827,1.2594c-0.8766,0.5816-1.315,1.4752-1.315,2.6788
		c0,0.9104,0.3845,1.6959,1.1498,2.3501c0.8025,0.6204,1.8949,0.9306,3.2807,0.9306c1.0924,0,2.077-0.1618,2.9536-0.4923
		c0.8733-0.3254,1.6016-0.7655,2.1849-1.3117c0.6204-0.5462,1.0958-1.1666,1.4229-1.8612c0.3271-0.6912,0.4923-1.4026,0.4923-2.131
		V68.8906 M187.644,74.6277c0,0.8396,0.0371,1.5341,0.1079,2.0804c0.1113,0.5462,0.2023,1.0182,0.2731,1.4195
		c0.1113,0.3658,0.2023,0.6946,0.2731,0.9845c0.1113,0.2563,0.1652,0.5462,0.1652,0.8766c0,0.9121-0.3641,1.6589-1.0924,2.2439
		c-0.7316,0.5446-1.5679,0.8177-2.5153,0.8177c-1.7129,0-2.9165-0.4551-3.6111-1.3689c-0.6912-0.9475-1.0554-2.0383-1.0925-3.2807
		c-1.5679,1.7499-3.2638,2.9739-5.0846,3.6651c-1.787,0.6575-3.7359,0.9845-5.8499,0.9845c-1.1329,0-2.2422-0.2023-3.338-0.6002
		c-1.0554-0.3675-2.0231-0.8936-2.8963-1.5881c-0.8395-0.6912-1.5139-1.5308-2.023-2.5137
		c-0.5125-1.0233-0.7655-2.1697-0.7655-3.4442c0-1.642,0.29-3.0076,0.8734-4.1034c0.5832-1.1295,1.3857-2.023,2.4074-2.6772
		c1.0183-0.6945,2.2051-1.2239,3.5538-1.5881c1.3487-0.3642,2.7885-0.6373,4.3192-0.8193l4.8654-0.5462
		c0.4754-0.0371,0.9138-0.1113,1.315-0.2192c0.435-0.1079,0.7991-0.2731,1.0916-0.4923c0.3279-0.2192,0.5842-0.4923,0.7662-0.8176
		c0.1821-0.365,0.2731-0.8405,0.2731-1.4246c0-1.1658-0.5091-2.0019-1.5307-2.5154c-0.9845-0.5091-2.1512-0.7654-3.4999-0.7654
		c-1.4937,0-2.6603,0.2369-3.4999,0.7123c-0.8362,0.4375-1.5477,0.9306-2.1309,1.476c-0.5833,0.5462-1.1295,1.0553-1.6421,1.5307
		c-0.5091,0.4392-1.1666,0.655-1.9691,0.655c-1.0183,0-1.841-0.2899-2.458-0.8741c-0.6204-0.6204-0.9306-1.3487-0.9306-2.1874
		c0-0.8033,0.2731-1.6227,0.8193-2.4622c0.5462-0.8354,1.3487-1.6007,2.4075-2.2962c1.0924-0.7283,2.4243-1.3107,3.9921-1.749
		c1.6015-0.4729,3.4256-0.7089,5.4656-0.7089c1.8983,0,3.6449,0.1618,5.2498,0.4931c1.6049,0.2899,2.9705,0.7813,4.1,1.4734
		c1.1329,0.6575,2.0062,1.5139,2.6266,2.5718c0.6541,1.0183,0.9845,2.2422,0.9845,3.6617V74.6277"/>
	<path fill="#030406" d="M190.6651,61.944c0-1.6396,0.3675-3.0244,1.0959-4.1582c0.7283-1.1287,1.6588-2.0399,2.7884-2.7311
		c1.1667-0.7308,2.4614-1.2399,3.8809-1.5299c1.4229-0.3313,2.8256-0.4931,4.2113-0.4931c1.5308,0,3.0244,0.1449,4.4844,0.4349
		c1.4566,0.2933,2.7513,0.7123,3.8809,1.2576c1.1666,0.5126,2.0972,1.1497,2.7876,1.9152c0.6955,0.7283,1.0393,1.5476,1.0393,2.4622
		c0,0.9466-0.2899,1.7668-0.8733,2.4605c-0.5833,0.6912-1.4026,1.0385-2.4614,1.0385c-0.7654,0-1.4026-0.182-1.9117-0.5487
		c-0.4754-0.3979-0.9845-0.8202-1.5307-1.2577c-0.5125-0.472-1.1329-0.891-1.8613-1.2576c-0.7282-0.3978-1.7129-0.601-2.9537-0.601
		c-1.3824,0-2.4951,0.2032-3.3346,0.601c-0.8396,0.4004-1.2577,1.0208-1.2577,1.8612c0,0.9475,0.4013,1.5848,1.2038,1.9118
		c0.8024,0.3313,1.8207,0.6398,3.0615,0.9297l3.3347,0.7671c1.1295,0.2546,2.2793,0.5816,3.4451,0.9829
		c1.2046,0.4012,2.2801,0.9306,3.2276,1.5847c0.9474,0.6575,1.7297,1.4769,2.3501,2.4614c0.6204,0.9474,0.9307,2.1141,0.9307,3.4999
		c0,1.642-0.3642,3.0615-1.0925,4.2653c-0.6945,1.1666-1.6252,2.1512-2.7917,2.9537c-1.1666,0.7654-2.4952,1.3284-3.9888,1.696
		c-1.46,0.3978-2.9368,0.6002-4.4305,0.6002c-1.8241,0-3.537-0.2023-5.1386-0.6002c-1.6049-0.3675-3.0075-0.8598-4.2113-1.4752
		c-1.2037-0.6592-2.1512-1.4246-2.8423-2.2978c-0.6946-0.8766-1.0419-1.8072-1.0419-2.7918c0-0.8733,0.2554-1.637,0.7654-2.2961
		c0.5126-0.6912,1.3319-1.0386,2.4614-1.0386c0.8766,0,1.5881,0.258,2.1344,0.7655c0.5462,0.5125,1.1295,1.0772,1.7499,1.696
		c0.6541,0.6204,1.4026,1.1835,2.2422,1.696c0.8733,0.5091,2.0567,0.7654,3.5538,0.7654c1.4195,0,2.549-0.2731,3.3885-0.8228
		c0.8396-0.5462,1.2577-1.2374,1.2577-2.077c0-1.0183-0.4181-1.696-1.2577-2.0231c-0.8025-0.327-1.9117-0.6743-3.3346-1.0368
		l-4.7036-1.1498c-1.1666-0.2916-2.2591-0.6389-3.2806-1.0401c-0.9846-0.3996-1.8579-0.9273-2.6232-1.5831
		c-0.7283-0.6592-1.3116-1.4398-1.75-2.3518C190.8674,64.4416,190.6651,63.2919,190.6651,61.944"/>
	<path fill="#030406" d="M220.7444,58.9904h-1.3655c-1.1329,0-1.9523-0.22-2.4614-0.655c-0.4754-0.4383-0.7114-1.0958-0.7114-1.9683
		c0-0.8775,0.236-1.5316,0.7114-1.9699c0.5091-0.4375,1.3285-0.6566,2.4614-0.6566h1.3655v-4.8663
		c0-1.3108,0.3642-2.2962,1.0924-2.9537c0.7317-0.6912,1.696-1.0385,2.8997-1.0385c1.2037,0,2.168,0.3473,2.8963,1.0385
		c0.7316,0.6575,1.0958,1.6429,1.0958,2.9537v4.8663h2.404c1.1667,0,2.0602,0.2015,2.6806,0.6027
		c0.6205,0.4021,0.9306,1.0756,0.9306,2.0239c0,0.9466-0.3101,1.6218-0.9306,2.0222c-0.6203,0.4012-1.5139,0.601-2.6806,0.601
		h-2.404v15.9677c0,1.2374,0.6912,1.8579,2.077,1.8579h1.1498c0.8733,0,1.5476,0.2376,2.023,0.7114
		c0.5092,0.4754,0.7654,1.1295,0.7654,1.9708c0,2.3686-1.9319,3.5521-5.796,3.5521c-2.9166,0-5.0138-0.5833-6.2883-1.7499
		c-1.2778-1.2038-1.9151-2.9891-1.9151-5.3578V58.9904"/>
	<path fill="#030406" d="M257.0042,64.9508c-0.2192-1.857-0.9475-3.3709-2.1883-4.5384c-1.2408-1.2028-2.7513-1.8038-4.5384-1.8038
		c-2.0062,0-3.6078,0.5639-4.8115,1.6959c-1.2037,1.1304-2.023,2.6781-2.4614,4.6463H257.0042 M243.0046,69.5431
		c0,2.1157,0.6373,3.864,1.9152,5.2498c1.3116,1.3487,3.1324,2.0231,5.4656,2.0231c1.4971,0,2.6637-0.199,3.4999-0.6003
		c0.8766-0.4012,1.5882-0.8395,2.1344-1.3116c0.5833-0.5108,1.1295-0.9677,1.6386-1.3689c0.5126-0.4367,1.1667-0.6575,1.9691-0.6575
		c0.9474,0,1.7331,0.3473,2.3501,1.0418c0.6205,0.6541,0.9306,1.3487,0.9306,2.077c0,1.2038-0.4383,2.2591-1.3116,3.1695
		c-0.8395,0.8766-1.8949,1.605-3.1728,2.1883c-1.2374,0.5462-2.5861,0.9677-4.0461,1.2576
		c-1.4566,0.2933-2.7884,0.4383-3.9921,0.4383c-2.8053,0-5.1756-0.4181-7.1076-1.2576c-1.932-0.8766-3.5168-2.0045-4.7576-3.392
		c-1.2375-1.3807-2.1309-2.9334-2.6771-4.6463c-0.5496-1.7129-0.8228-3.4459-0.8228-5.1959c0-2.3315,0.3473-4.4473,1.0386-6.3422
		c0.6946-1.894,1.6791-3.5167,2.9536-4.8654c1.3117-1.3858,2.8997-2.4446,4.7576-3.172c1.8612-0.7655,3.9752-1.1472,6.3422-1.1472
		c2.2962,0,4.3395,0.3818,6.1265,1.1472c1.7836,0.7274,3.2975,1.712,4.5384,2.9528c1.2374,1.2037,2.168,2.5895,2.7885,4.154
		c0.6541,1.5679,0.9845,3.1727,0.9845,4.8148c0,1.3824-0.2563,2.313-0.7654,2.7901c-0.4754,0.4333-1.3858,0.6525-2.7345,0.6525
		H243.0046"/>
	<path fill="#030406" d="M267.4633,56.7473c0-1.1995,0.3473-2.1142,1.0385-2.7345c0.6912-0.6541,1.5477-0.9812,2.5693-0.9812
		s1.8781,0.3271,2.5692,0.9812c0.6946,0.6204,1.0419,1.535,1.0419,2.7345v3.0648h0.1079c0.2192-0.8395,0.5091-1.6588,0.8733-2.4613
		c0.3675-0.8016,0.8025-1.5139,1.3149-2.1335c0.5462-0.655,1.1667-1.1835,1.8579-1.5847c0.7282-0.4021,1.5847-0.601,2.5692-0.601
		c1.2779,0,2.3164,0.3641,3.1189,1.0924c0.8362,0.7291,1.2577,1.6589,1.2577,2.7892c0,0.7275-0.1113,1.3479-0.3304,1.857
		c-0.2191,0.5133-0.5259,0.9306-0.9272,1.2576c-0.3641,0.2943-0.7856,0.5134-1.2576,0.6583
		c-0.4754,0.145-0.9475,0.2192-1.4229,0.2192h-1.4229c-1.6016,0-2.8424,0.6567-3.7157,1.9691
		c-0.8395,1.2737-1.2576,3.5715-1.2576,6.8876v9.2959c0,1.0588-0.2731,1.9876-0.8227,2.7885
		c-0.5463,0.8025-1.6016,1.2037-3.1695,1.2037c-1.5679,0-2.6266-0.4012-3.1728-1.2037c-0.5462-0.8008-0.8193-1.7297-0.8193-2.7885
		V56.7473"/>
	<path fill="#030406" d="M285.3538,61.944c0-1.6396,0.3642-3.0244,1.0959-4.1582c0.7283-1.1287,1.6589-2.0399,2.7884-2.7311
		c1.1667-0.7308,2.4614-1.2399,3.8809-1.5299c1.4229-0.3313,2.8256-0.4931,4.2113-0.4931c1.5308,0,3.0245,0.1449,4.4845,0.4349
		c1.4566,0.2933,2.7513,0.7123,3.8809,1.2576c1.1666,0.5126,2.0972,1.1497,2.7884,1.9152c0.6946,0.7283,1.0385,1.5476,1.0385,2.4622
		c0,0.9466-0.2899,1.7668-0.8733,2.4605c-0.5833,0.6912-1.4026,1.0385-2.4613,1.0385c-0.7655,0-1.4026-0.182-1.9152-0.5487
		c-0.4721-0.3979-0.9812-0.8202-1.5308-1.2577c-0.5092-0.472-1.1295-0.891-1.8578-1.2576c-0.7283-0.3978-1.7128-0.601-2.9536-0.601
		c-1.3858,0-2.4951,0.2032-3.3347,0.601c-0.8396,0.4004-1.2577,1.0208-1.2577,1.8612c0,0.9475,0.4013,1.5848,1.2038,1.9118
		c0.8025,0.3313,1.8208,0.6398,3.0616,0.9297l3.3346,0.7671c1.1295,0.2546,2.2794,0.5816,3.446,0.9829
		c1.2038,0.4012,2.2793,0.9306,3.2268,1.5847c0.9475,0.6575,1.7297,1.4769,2.3501,2.4614c0.6204,0.9474,0.9306,2.1141,0.9306,3.4999
		c0,1.642-0.3642,3.0615-1.0958,4.2653c-0.6912,1.1666-1.6219,2.1512-2.7885,2.9537c-1.1667,0.7654-2.4951,1.3284-3.9921,1.696
		c-1.4566,0.3978-2.9335,0.6002-4.4271,0.6002c-1.8242,0-3.537-0.2023-5.142-0.6002c-1.6015-0.3675-3.0042-0.8598-4.2079-1.4752
		c-1.2037-0.6592-2.1511-1.4246-2.8457-2.2978c-0.6913-0.8766-1.0386-1.8072-1.0386-2.7918c0-0.8733,0.2563-1.637,0.7654-2.2961
		c0.5125-0.6912,1.3318-1.0386,2.4613-1.0386c0.8767,0,1.5848,0.258,2.1343,0.7655c0.5462,0.5125,1.1295,1.0772,1.7499,1.696
		c0.6541,0.6204,1.4026,1.1835,2.2389,1.696c0.8766,0.5091,2.0601,0.7654,3.5572,0.7654c1.4186,0,2.549-0.2731,3.3886-0.8228
		c0.8395-0.5462,1.2576-1.2374,1.2576-2.077c0-1.0183-0.4181-1.696-1.2576-2.0231c-0.8025-0.327-1.9152-0.6743-3.3347-1.0368
		l-4.7036-1.1498c-1.1667-0.2916-2.2591-0.6389-3.2807-1.0401c-0.9846-0.3996-1.8579-0.9273-2.6232-1.5831
		c-0.7316-0.6592-1.3149-1.4398-1.7499-2.3518C285.5561,64.4416,285.3538,63.2919,285.3538,61.944"/>
</g>
<g>
	<path fill="#FFFFFF" d="M102.8918,263.8613c0-1.1675,0.4013-2.1487,1.2038-2.9503c0.8024-0.8034,1.787-1.2046,2.9536-1.2046
		c1.1667,0,2.1478,0.4012,2.9503,1.2046c0.8025,0.8016,1.2037,1.7828,1.2037,2.9503c0,1.1658-0.4012,2.1512-1.2037,2.9528
		c-0.8025,0.8025-1.7836,1.2037-2.9503,1.2037c-1.1666,0-2.1512-0.4012-2.9536-1.2037
		C103.2931,266.0125,102.8918,265.0271,102.8918,263.8613 M103.057,274.6879c0-1.0562,0.2731-1.9859,0.8194-2.7892
		c0.5462-0.7991,1.6049-1.2003,3.1727-1.2003c1.5645,0,2.6233,0.4012,3.1695,1.2003c0.5462,0.8033,0.8193,1.7331,0.8193,2.7892
		v22.0369c0,1.0587-0.2731,1.9876-0.8193,2.7885c-0.5462,0.8025-1.605,1.2037-3.1695,1.2037c-1.5679,0-2.6265-0.4012-3.1727-1.2037
		c-0.5463-0.8008-0.8194-1.7297-0.8194-2.7885V274.6879"/>
	<path fill="#FFFFFF" d="M115.9776,264.3527c0-0.9104,0.1281-1.6386,0.381-2.1841c0.2933-0.5833,0.6743-1.0385,1.1497-1.3689
		c0.4754-0.3271,0.9845-0.5471,1.5308-0.655c0.5832-0.145,1.1835-0.2192,1.8038-0.2192h2.6266c1.3857,0,2.4411,0.3102,3.1694,0.9272
		c0.7655,0.5833,1.3858,1.6429,1.8612,3.1728l7.8191,25.2628h0.1079l7.7112-25.2628c0.4721-1.5299,1.0756-2.5895,1.8038-3.1728
		c0.7654-0.617,1.841-0.9272,3.2268-0.9272h2.5154c0.5833,0,1.1666,0.0742,1.7499,0.2192c0.5833,0.1079,1.1093,0.3279,1.5848,0.655
		c0.4753,0.3304,0.8395,0.7856,1.0924,1.3689c0.2933,0.5454,0.4383,1.2737,0.4383,2.1841v31.9911
		c0,1.1295-0.3102,2.1478-0.9306,3.0616c-0.5833,0.8733-1.6016,1.3116-3.0616,1.3116c-1.4566,0-2.4951-0.4383-3.1155-1.3116
		c-0.5833-0.9138-0.8766-1.932-0.8766-3.0616V271.956h-0.1079l-8.3653,26.1343c-0.2934,0.9509-0.7654,1.6253-1.4229,2.0265
		c-0.6575,0.3979-1.4566,0.6002-2.404,0.6002c-0.9509,0-1.75-0.2023-2.4075-0.6002c-0.6575-0.4012-1.1295-1.0756-1.4229-2.0265
		l-8.3653-26.1343h-0.1079v24.3878c0,1.1295-0.3102,2.1478-0.9306,3.0616c-0.5833,0.8733-1.605,1.3116-3.0616,1.3116
		c-1.46,0-2.4984-0.4383-3.1189-1.3116c-0.5833-0.9138-0.8733-1.932-0.8733-3.0616V264.3527"/>
	<path fill="#FFFFFF" d="M179.6597,286.5573c-0.4383,0.3996-1.0014,0.6895-1.696,0.8716c-0.6912,0.182-1.2746,0.3102-1.75,0.386
		l-2.8963,0.4333c-1.6758,0.2563-2.9537,0.6743-3.827,1.2594c-0.8766,0.5816-1.315,1.4752-1.315,2.6788
		c0,0.9104,0.3845,1.696,1.1498,2.3501c0.8025,0.6204,1.8949,0.9306,3.2807,0.9306c1.0924,0,2.077-0.1619,2.9536-0.4923
		c0.8733-0.3254,1.6016-0.7654,2.1849-1.3117c0.6204-0.5462,1.0958-1.1666,1.4229-1.8611c0.3271-0.6912,0.4923-1.4026,0.4923-2.131
		V286.5573 M187.644,292.2943c0,0.8396,0.0371,1.5341,0.1079,2.0804c0.1113,0.5462,0.2023,1.0182,0.2731,1.4195
		c0.1113,0.3658,0.2023,0.6946,0.2731,0.9845c0.1113,0.2563,0.1652,0.5462,0.1652,0.8766c0,0.9121-0.3641,1.6589-1.0924,2.2439
		c-0.7316,0.5446-1.5679,0.8177-2.5153,0.8177c-1.7129,0-2.9165-0.4551-3.6111-1.3689c-0.6912-0.9475-1.0554-2.0383-1.0925-3.2807
		c-1.5679,1.7499-3.2638,2.9738-5.0846,3.6651c-1.787,0.6575-3.7359,0.9845-5.8499,0.9845c-1.1329,0-2.2422-0.2023-3.338-0.6002
		c-1.0554-0.3675-2.0231-0.8935-2.8963-1.588c-0.8395-0.6912-1.5139-1.5308-2.023-2.5137
		c-0.5125-1.0233-0.7655-2.1697-0.7655-3.4442c0-1.642,0.29-3.0076,0.8734-4.1034c0.5832-1.1295,1.3857-2.023,2.4074-2.6772
		c1.0183-0.6945,2.2051-1.2239,3.5538-1.588c1.3487-0.3642,2.7885-0.6373,4.3192-0.8193l4.8654-0.5462
		c0.4754-0.0371,0.9138-0.1113,1.315-0.2191c0.435-0.1079,0.7991-0.2731,1.0916-0.4924c0.3279-0.2191,0.5842-0.4922,0.7662-0.8176
		c0.1821-0.365,0.2731-0.8405,0.2731-1.4246c0-1.1658-0.5091-2.002-1.5307-2.5154c-0.9845-0.5091-2.1512-0.7654-3.4999-0.7654
		c-1.4937,0-2.6603,0.2369-3.4999,0.7123c-0.8362,0.4374-1.5477,0.9306-2.1309,1.476c-0.5833,0.5462-1.1295,1.0553-1.6421,1.5307
		c-0.5091,0.4392-1.1666,0.655-1.9691,0.655c-1.0183,0-1.841-0.2899-2.458-0.8741c-0.6204-0.6205-0.9306-1.3487-0.9306-2.1874
		c0-0.8033,0.2731-1.6227,0.8193-2.4622c0.5462-0.8354,1.3487-1.6007,2.4075-2.2962c1.0924-0.7282,2.4243-1.3107,3.9921-1.749
		c1.6015-0.4729,3.4256-0.7089,5.4656-0.7089c1.8983,0,3.6449,0.1618,5.2498,0.4931c1.6049,0.2899,2.9705,0.7813,4.1,1.4734
		c1.1329,0.6575,2.0062,1.5139,2.6266,2.5718c0.6541,1.0183,0.9845,2.2422,0.9845,3.6617V292.2943"/>
	<path fill="#FFFFFF" d="M190.6651,279.6107c0-1.6396,0.3675-3.0244,1.0959-4.1582c0.7283-1.1287,1.6588-2.0399,2.7884-2.7311
		c1.1667-0.7309,2.4614-1.24,3.8809-1.5299c1.4229-0.3313,2.8256-0.4931,4.2113-0.4931c1.5308,0,3.0244,0.1449,4.4844,0.4349
		c1.4566,0.2933,2.7513,0.7123,3.8809,1.2576c1.1666,0.5126,2.0972,1.1497,2.7876,1.9152c0.6955,0.7283,1.0393,1.5476,1.0393,2.4622
		c0,0.9467-0.2899,1.7668-0.8733,2.4605c-0.5833,0.6912-1.4026,1.0385-2.4614,1.0385c-0.7654,0-1.4026-0.182-1.9117-0.5487
		c-0.4754-0.3979-0.9845-0.8202-1.5307-1.2577c-0.5125-0.472-1.1329-0.891-1.8613-1.2576c-0.7282-0.3979-1.7129-0.601-2.9537-0.601
		c-1.3824,0-2.4951,0.2032-3.3346,0.601c-0.8396,0.4004-1.2577,1.0208-1.2577,1.8611c0,0.9475,0.4013,1.5848,1.2038,1.9118
		c0.8024,0.3313,1.8207,0.6398,3.0615,0.9297l3.3347,0.7671c1.1295,0.2545,2.2793,0.5816,3.4451,0.9829
		c1.2046,0.4012,2.2801,0.9306,3.2276,1.5847c0.9474,0.6575,1.7297,1.4769,2.3501,2.4614c0.6204,0.9474,0.9307,2.1141,0.9307,3.4999
		c0,1.642-0.3642,3.0615-1.0925,4.2653c-0.6945,1.1666-1.6252,2.1512-2.7917,2.9537c-1.1666,0.7654-2.4952,1.3284-3.9888,1.6959
		c-1.46,0.3979-2.9368,0.6002-4.4305,0.6002c-1.8241,0-3.537-0.2023-5.1386-0.6002c-1.6049-0.3675-3.0075-0.8598-4.2113-1.4751
		c-1.2037-0.6592-2.1512-1.4246-2.8423-2.2979c-0.6946-0.8766-1.0419-1.8072-1.0419-2.7918c0-0.8733,0.2554-1.637,0.7654-2.2961
		c0.5126-0.6912,1.3319-1.0386,2.4614-1.0386c0.8766,0,1.5881,0.258,2.1344,0.7655c0.5462,0.5125,1.1295,1.0772,1.7499,1.6959
		c0.6541,0.6205,1.4026,1.1835,2.2422,1.696c0.8733,0.5091,2.0567,0.7654,3.5538,0.7654c1.4195,0,2.549-0.2731,3.3885-0.8228
		c0.8396-0.5462,1.2577-1.2373,1.2577-2.0769c0-1.0183-0.4181-1.696-1.2577-2.0231c-0.8025-0.3271-1.9117-0.6743-3.3346-1.0367
		l-4.7036-1.1498c-1.1666-0.2916-2.2591-0.6389-3.2806-1.0401c-0.9846-0.3996-1.8579-0.9273-2.6232-1.583
		c-0.7283-0.6592-1.3116-1.4398-1.75-2.3518C190.8674,282.1083,190.6651,280.9585,190.6651,279.6107"/>
	<path fill="#FFFFFF" d="M220.7444,276.657h-1.3655c-1.1329,0-1.9523-0.22-2.4614-0.655c-0.4754-0.4383-0.7114-1.0958-0.7114-1.9683
		c0-0.8775,0.236-1.5316,0.7114-1.9699c0.5091-0.4374,1.3285-0.6566,2.4614-0.6566h1.3655v-4.8663
		c0-1.3108,0.3642-2.2962,1.0924-2.9537c0.7317-0.6912,1.696-1.0385,2.8997-1.0385c1.2037,0,2.168,0.3473,2.8963,1.0385
		c0.7316,0.6575,1.0958,1.6429,1.0958,2.9537v4.8663h2.404c1.1667,0,2.0602,0.2014,2.6806,0.6027
		c0.6205,0.4021,0.9306,1.0756,0.9306,2.0239c0,0.9466-0.3101,1.6218-0.9306,2.0222c-0.6203,0.4012-1.5139,0.601-2.6806,0.601
		h-2.404v15.9677c0,1.2374,0.6912,1.8579,2.077,1.8579h1.1498c0.8733,0,1.5476,0.2376,2.023,0.7114
		c0.5092,0.4754,0.7654,1.1295,0.7654,1.9708c0,2.3686-1.9319,3.5521-5.796,3.5521c-2.9166,0-5.0138-0.5833-6.2883-1.7499
		c-1.2778-1.2038-1.9151-2.9891-1.9151-5.3578V276.657"/>
	<path fill="#FFFFFF" d="M257.0042,282.6175c-0.2192-1.857-0.9475-3.3709-2.1883-4.5385c-1.2408-1.2028-2.7513-1.8039-4.5384-1.8039
		c-2.0062,0-3.6078,0.5639-4.8115,1.696c-1.2037,1.1304-2.023,2.6781-2.4614,4.6464H257.0042 M243.0046,287.2097
		c0,2.1157,0.6373,3.864,1.9152,5.2498c1.3116,1.3487,3.1324,2.0231,5.4656,2.0231c1.4971,0,2.6637-0.199,3.4999-0.6003
		c0.8766-0.4012,1.5882-0.8395,2.1344-1.3116c0.5833-0.5108,1.1295-0.9677,1.6386-1.3689c0.5126-0.4367,1.1667-0.6575,1.9691-0.6575
		c0.9474,0,1.7331,0.3473,2.3501,1.0418c0.6205,0.6541,0.9306,1.3487,0.9306,2.0769c0,1.2038-0.4383,2.2591-1.3116,3.1695
		c-0.8395,0.8766-1.8949,1.605-3.1728,2.1883c-1.2374,0.5462-2.5861,0.9677-4.0461,1.2576
		c-1.4566,0.2933-2.7884,0.4383-3.9921,0.4383c-2.8053,0-5.1756-0.4181-7.1076-1.2576c-1.932-0.8766-3.5168-2.0045-4.7576-3.392
		c-1.2375-1.3807-2.1309-2.9334-2.6771-4.6463c-0.5496-1.7129-0.8228-3.4459-0.8228-5.1959c0-2.3315,0.3473-4.4473,1.0386-6.3422
		c0.6946-1.894,1.6791-3.5167,2.9536-4.8654c1.3117-1.3858,2.8997-2.4445,4.7576-3.172c1.8612-0.7654,3.9752-1.1472,6.3422-1.1472
		c2.2962,0,4.3395,0.3818,6.1265,1.1472c1.7836,0.7274,3.2975,1.712,4.5384,2.9528c1.2374,1.2037,2.168,2.5895,2.7885,4.154
		c0.6541,1.5678,0.9845,3.1727,0.9845,4.8148c0,1.3824-0.2563,2.313-0.7654,2.7901c-0.4754,0.4333-1.3858,0.6525-2.7345,0.6525
		H243.0046"/>
	<path fill="#FFFFFF" d="M267.4633,274.414c0-1.1996,0.3473-2.1142,1.0385-2.7345c0.6912-0.6541,1.5477-0.9812,2.5693-0.9812
		s1.8781,0.3271,2.5692,0.9812c0.6946,0.6203,1.0419,1.5349,1.0419,2.7345v3.0648h0.1079c0.2192-0.8395,0.5091-1.6588,0.8733-2.4613
		c0.3675-0.8016,0.8025-1.5139,1.3149-2.1335c0.5462-0.655,1.1667-1.1835,1.8579-1.5847c0.7282-0.4021,1.5847-0.601,2.5692-0.601
		c1.2779,0,2.3164,0.3641,3.1189,1.0924c0.8362,0.7291,1.2577,1.6589,1.2577,2.7892c0,0.7275-0.1113,1.3479-0.3304,1.857
		c-0.2191,0.5133-0.5259,0.9306-0.9272,1.2576c-0.3641,0.2943-0.7856,0.5134-1.2576,0.6583
		c-0.4754,0.145-0.9475,0.2192-1.4229,0.2192h-1.4229c-1.6016,0-2.8424,0.6567-3.7157,1.9691
		c-0.8395,1.2737-1.2576,3.5715-1.2576,6.8876v9.2959c0,1.0587-0.2731,1.9876-0.8227,2.7885
		c-0.5463,0.8025-1.6016,1.2037-3.1695,1.2037c-1.5679,0-2.6266-0.4012-3.1728-1.2037c-0.5462-0.8008-0.8193-1.7297-0.8193-2.7885
		V274.414"/>
	<path fill="#FFFFFF" d="M285.3538,279.6107c0-1.6396,0.3642-3.0244,1.0959-4.1582c0.7283-1.1287,1.6589-2.0399,2.7884-2.7311
		c1.1667-0.7309,2.4614-1.24,3.8809-1.5299c1.4229-0.3313,2.8256-0.4931,4.2113-0.4931c1.5308,0,3.0245,0.1449,4.4845,0.4349
		c1.4566,0.2933,2.7513,0.7123,3.8809,1.2576c1.1666,0.5126,2.0972,1.1497,2.7884,1.9152c0.6946,0.7283,1.0385,1.5476,1.0385,2.4622
		c0,0.9467-0.2899,1.7668-0.8733,2.4605c-0.5833,0.6912-1.4026,1.0385-2.4613,1.0385c-0.7655,0-1.4026-0.182-1.9152-0.5487
		c-0.4721-0.3979-0.9812-0.8202-1.5308-1.2577c-0.5092-0.472-1.1295-0.891-1.8578-1.2576c-0.7283-0.3979-1.7128-0.601-2.9536-0.601
		c-1.3858,0-2.4951,0.2032-3.3347,0.601c-0.8396,0.4004-1.2577,1.0208-1.2577,1.8611c0,0.9475,0.4013,1.5848,1.2038,1.9118
		c0.8025,0.3313,1.8208,0.6398,3.0616,0.9297l3.3346,0.7671c1.1295,0.2545,2.2794,0.5816,3.446,0.9829
		c1.2038,0.4012,2.2793,0.9306,3.2268,1.5847c0.9475,0.6575,1.7297,1.4769,2.3501,2.4614c0.6204,0.9474,0.9306,2.1141,0.9306,3.4999
		c0,1.642-0.3642,3.0615-1.0958,4.2653c-0.6912,1.1666-1.6219,2.1512-2.7885,2.9537c-1.1667,0.7654-2.4951,1.3284-3.9921,1.6959
		c-1.4566,0.3979-2.9335,0.6002-4.4271,0.6002c-1.8242,0-3.537-0.2023-5.142-0.6002c-1.6015-0.3675-3.0042-0.8598-4.2079-1.4751
		c-1.2037-0.6592-2.1511-1.4246-2.8457-2.2979c-0.6913-0.8766-1.0386-1.8072-1.0386-2.7918c0-0.8733,0.2563-1.637,0.7654-2.2961
		c0.5125-0.6912,1.3318-1.0386,2.4613-1.0386c0.8767,0,1.5848,0.258,2.1343,0.7655c0.5462,0.5125,1.1295,1.0772,1.7499,1.6959
		c0.6541,0.6205,1.4026,1.1835,2.2389,1.696c0.8766,0.5091,2.0601,0.7654,3.5572,0.7654c1.4186,0,2.549-0.2731,3.3886-0.8228
		c0.8395-0.5462,1.2576-1.2373,1.2576-2.0769c0-1.0183-0.4181-1.696-1.2576-2.0231c-0.8025-0.3271-1.9152-0.6743-3.3347-1.0367
		l-4.7036-1.1498c-1.1667-0.2916-2.2591-0.6389-3.2807-1.0401c-0.9846-0.3996-1.8579-0.9273-2.6232-1.583
		c-0.7316-0.6592-1.3149-1.4398-1.7499-2.3518C285.5561,282.1083,285.3538,280.9585,285.3538,279.6107"/>
</g>
<g>
	<path fill="none" d="M53.3864,49.228"/>
	<path fill="#007AC0" d="M78.2064,73.982c0,0.464,0.3454,0.6648,0.7715,0.4484l10.0291-5.0934
		c0.4261-0.2164,0.7715-0.768,0.7715-1.232V57.1821c0-0.464-0.3454-0.6648-0.7715-0.4484l-10.0291,5.0934
		c-0.4261,0.2164-0.7715,0.768-0.7715,1.232V73.982z"/>
	<path fill="#CD7A1E" d="M64.988,80.8165c0,0.464,0.3454,0.6648,0.7715,0.4484l10.0291-5.0934
		c0.4261-0.2164,0.7715-0.768,0.7715-1.232V64.0166c0-0.464-0.3454-0.6648-0.7715-0.4484l-10.0291,5.0934
		c-0.4261,0.2164-0.7715,0.768-0.7715,1.232V80.8165z"/>
	<path fill="#1A63AB" d="M51.6662,87.491c0,0.464,0.3454,0.6648,0.7715,0.4484l10.0291-5.0934
		c0.4261-0.2164,0.7715-0.768,0.7715-1.232V70.691c0-0.464-0.3454-0.6648-0.7715-0.4484L52.4376,75.336
		c-0.4261,0.2164-0.7715,0.768-0.7715,1.232V87.491z"/>
	<path fill="#007AC0" d="M78.127,59.4769c0,0.464,0.3333,0.6648,0.7594,0.4484l10.0351-5.0934
		c0.4261-0.2164,0.7775-0.768,0.7775-1.232V42.677c0-0.464-0.3575-0.6648-0.7835-0.4484l-10.023,5.0934
		c-0.4261,0.2164-0.7654,0.768-0.7654,1.232V59.4769z"/>
	<path fill="#CD7A1E" d="M65.0121,66.1987c0,0.464,0.3333,0.6648,0.7594,0.4484l10.0351-5.0934
		c0.4261-0.2164,0.7775-0.768,0.7775-1.232V49.3987c0-0.464-0.3575-0.6648-0.7835-0.4484l-10.023,5.0934
		c-0.4261,0.2164-0.7654,0.768-0.7654,1.232V66.1987z"/>
	<path fill="#1A63AB" d="M51.6903,72.8641c0,0.464,0.3333,0.6648,0.7594,0.4484l10.0351-5.0934
		c0.4261-0.2164,0.7775-0.768,0.7775-1.232V56.0642c0-0.464-0.3575-0.6648-0.7835-0.4484l-10.023,5.0934
		c-0.4261,0.2164-0.7654,0.768-0.7654,1.232V72.8641z"/>
	<path fill="#9A312C" d="M74.4272,46.9731c0.4219,0.207,0.4331,0.5419,0.0247,0.7482l-9.6888,4.8919
		c-0.4148,0.2094-1.0941,0.2089-1.5169-0.0012l-9.8929-4.9166c-0.4178-0.2076-0.4192-0.5432-0.0036-0.7495l9.709-4.8188
		c0.4093-0.2032,1.0789-0.202,1.4958,0.0025L74.4272,46.9731z"/>
	<path fill="#5B9DD7" d="M87.1858,40.4504c0.4208,0.2034,0.4376,0.5322,0.0371,0.7344l-9.5,4.7696
		c-0.4066,0.2053-1.0785,0.2044-1.5002-0.0021l-9.8684-4.831c-0.4168-0.204-0.424-0.5334-0.0164-0.7356l9.5202-4.7247
		c0.4014-0.1992,1.0637-0.1977,1.4796,0.0033L87.1858,40.4504z"/>
	<path fill="#5B9DD7" d="M61.3954,53.5568c0.423,0.2107,0.4284,0.552,0.0117,0.7624l-9.8841,4.9911
		c-0.4232,0.2137-1.1102,0.2135-1.534-0.0004l-9.9164-5.0048c-0.4188-0.2113-0.4142-0.5533,0.0098-0.7638l9.9036-4.9158
		c0.4175-0.2072,1.0944-0.2065,1.5124,0.0017L61.3954,53.5568z"/>
	<path fill="#5B9DD7" d="M61.1934,40.4443c0.4156,0.2039,0.4208,0.5334,0.0113,0.7361l-9.7123,4.8071
		c-0.4158,0.2058-1.0907,0.2049-1.5071-0.0021l-9.7434-4.8424c-0.4115-0.2045-0.4071-0.5347,0.0095-0.7374l9.7311-4.7357
		c0.4103-0.1997,1.0755-0.1982,1.4863,0.0033L61.1934,40.4443z"/>
	<path fill="#5B91CD" d="M73.9939,34.055c0.4145,0.2004,0.4254,0.5239,0.0238,0.7226l-9.5236,4.7133
		c-0.4077,0.2018-1.0752,0.2005-1.4906-0.0029l-9.7208-4.7588c-0.4106-0.201-0.4119-0.5251-0.0035-0.7239l9.5432-4.6438
		c0.4024-0.1958,1.0605-0.194,1.4702,0.0041L73.9939,34.055z"/>
	<path fill="#5B9DD7" d="M48.1381,46.9608c0.4165,0.2075,0.416,0.5432-0.0016,0.75l-9.9067,4.9038
		c-0.4241,0.2099-1.1066,0.2094-1.5239-0.0012l-9.765-4.9285c-0.4124-0.2081-0.4019-0.5445,0.0229-0.7513l9.9245-4.8303
		c0.4184-0.2036,1.091-0.2025,1.5026,0.0026L48.1381,46.9608z"/>
	<path fill="#5B91CD" d="M48.102,34.0601c0.4094,0.2008,0.4088,0.5251-0.0017,0.7243l-9.7346,4.7243
		c-0.4167,0.2022-1.0873,0.201-1.4974-0.0029l-9.597-4.7699c-0.4053-0.2015-0.3952-0.5263,0.0222-0.7255l9.7519-4.6545
		c0.4112-0.1963,1.0722-0.1944,1.4768,0.0041L48.102,34.0601z"/>
	<path fill="#5B91CD" d="M60.9345,27.7799c0.4084,0.1974,0.4135,0.5158,0.0109,0.7111l-9.5469,4.6328
		c-0.4086,0.1983-1.0719,0.1967-1.4811-0.0037l-9.5761-4.6882c-0.4045-0.198-0.4002-0.517,0.0092-0.7123l9.565-4.5649
		c0.4033-0.1925,1.0573-0.1903,1.461,0.0048L60.9345,27.7799z"/>
	<path fill="#5B9DD7" d="M35.016,40.4643c0.4103,0.2044,0.4039,0.5347-0.0147,0.7378l-9.9279,4.8186
		c-0.425,0.2063-1.1031,0.2054-1.514-0.0021l-9.6169-4.8539c-0.4062-0.205-0.39-0.5359,0.0357-0.7391l9.9443-4.7468
		c0.4193-0.2001,1.0875-0.1986,1.493,0.0033L35.016,40.4643z"/>
	<path fill="#CD7A1E" d="M64.9193,95.479c0,0.464,0.3454,0.6648,0.7715,0.4484l10.0291-5.0934
		c0.4261-0.2164,0.7715-0.768,0.7715-1.232V78.6791c0-0.464-0.3454-0.6648-0.7715-0.4484l-10.0291,5.0934
		c-0.4261,0.2164-0.7715,0.768-0.7715,1.232V95.479z"/>
	<path fill="#3B60A8" d="M23.5698,73.982c0,0.464-0.3454,0.6648-0.7715,0.4484L12.7693,69.337
		c-0.4261-0.2164-0.7715-0.768-0.7715-1.232V57.1821c0-0.464,0.3454-0.6648,0.7715-0.4484l10.0291,5.0934
		c0.4261,0.2164,0.7715,0.768,0.7715,1.232V73.982z"/>
	<path fill="#34538E" d="M36.7537,80.7789c0,0.464-0.3454,0.6648-0.7715,0.4484l-10.0291-5.0934
		c-0.4261-0.2164-0.7715-0.768-0.7715-1.232V63.979c0-0.464,0.3454-0.6648,0.7715-0.4484l10.0291,5.0934
		c0.4261,0.2164,0.7715,0.768,0.7715,1.232V80.7789z"/>
	<path fill="#2C4677" d="M50.0325,87.5383c0,0.464-0.3454,0.6648-0.7715,0.4484l-10.0291-5.0934
		c-0.4261-0.2164-0.7715-0.768-0.7715-1.232V70.7384c0-0.464,0.3454-0.6648,0.7715-0.4484l10.0291,5.0934
		c0.4261,0.2164,0.7715,0.768,0.7715,1.232V87.5383z"/>
	<path fill="#3B60A8" d="M23.5457,59.3642c0,0.464-0.3333,0.6648-0.7594,0.4484l-10.0351-5.0934
		c-0.4261-0.2164-0.7775-0.768-0.7775-1.232V42.5643c0-0.464,0.3575-0.6648,0.7835-0.4484l10.023,5.0934
		c0.4261,0.2164,0.7654,0.768,0.7654,1.232V59.3642z"/>
	<path fill="#34538E" d="M36.7296,66.1611c0,0.464-0.3333,0.6648-0.7594,0.4484l-10.0351-5.0934
		c-0.4261-0.2164-0.7775-0.768-0.7775-1.232V49.3612c0-0.464,0.3575-0.6648,0.7835-0.4484l10.023,5.0934
		c0.4261,0.2164,0.7654,0.768,0.7654,1.232V66.1611z"/>
	<path fill="#2C4677" d="M50.0084,72.9205c0,0.464-0.3333,0.6648-0.7594,0.4484l-10.0351-5.0934
		c-0.4261-0.2164-0.7775-0.768-0.7775-1.232V56.1205c0-0.464,0.3575-0.6648,0.7835-0.4484l10.023,5.0934
		c0.4261,0.2164,0.7654,0.768,0.7654,1.232V72.9205z"/>
	<path fill="#34538E" d="M36.7363,95.3694c0,0.464-0.3454,0.6648-0.7715,0.4484l-10.0291-5.0934
		c-0.4261-0.2164-0.7715-0.768-0.7715-1.232V78.5694c0-0.464,0.3454-0.6648,0.7715-0.4484l10.0291,5.0934
		c0.4261,0.2164,0.7715,0.768,0.7715,1.232V95.3694z"/>
	<path fill="#2C4677" d="M50.0325,102.169c0,0.464-0.3454,0.6648-0.7715,0.4484l-10.0291-5.0934
		c-0.4261-0.2164-0.7715-0.768-0.7715-1.232V85.369c0-0.464,0.3454-0.6648,0.7715-0.4484L49.261,90.014
		c0.4261,0.2164,0.7715,0.768,0.7715,1.232V102.169z"/>
	<path fill="#3B60A8" d="M23.5698,88.5857c0,0.464-0.3454,0.6648-0.7715,0.4484l-10.0291-5.0934
		c-0.4261-0.2164-0.7715-0.768-0.7715-1.232V71.7857c0-0.464,0.3454-0.6648,0.7715-0.4484l10.0291,5.0934
		c0.4261,0.2164,0.7715,0.768,0.7715,1.232V88.5857z"/>
	<path fill="#1A63AB" d="M51.6662,102.0946c0,0.464,0.3454,0.6648,0.7715,0.4484l10.0291-5.0934
		c0.4261-0.2164,0.7715-0.768,0.7715-1.232V85.2946c0-0.464-0.3454-0.6648-0.7715-0.4484l-10.0291,5.0934
		c-0.4261,0.2164-0.7715,0.768-0.7715,1.232V102.0946z"/>
	<path fill="#007AC0" d="M78.2064,88.482c0,0.464,0.3454,0.6648,0.7715,0.4484l10.0291-5.0934
		c0.4261-0.2164,0.7715-0.768,0.7715-1.232V71.6821c0-0.464-0.3454-0.6648-0.7715-0.4484l-10.0291,5.0934
		c-0.4261,0.2164-0.7715,0.768-0.7715,1.232V88.482z"/>
</g>
<g>
	<g>
		<path fill="#FFFFFF" d="M47.741,239.7404l-35.9895,17.2328c0,0-0.2172,0.119-0.4591,0.2727
			c-0.2064,0.1312-0.4308,0.2927-0.5535,0.3734c-0.7895,0.5196-0.7701,1.2983-0.7701,1.2983l0.0242,40.2727l0.7139,1.2048
			l36.7436,18.8081c0,0,0.9375,0.352,1.5828,0.352c0.7105,0,1.5166-0.5117,1.5166-0.5117l36.5343-18.6046l0.8876-1.6513
			l-0.0045-7.7263l0.0117-8.3318l-0.019-4.1028l-0.0278-19.5036c0,0,0.013-0.4371-0.2594-0.8459
			c-0.3132-0.4702-2.3969-1.4463-2.3969-1.4463l-35.4296-17.0967L47.741,239.7404z"/>
	</g>
	<g>
		<path fill="none" d="M51.5013,265.9023"/>
		<path fill="#007AC0" d="M76.3932,290.4465c0,0.4645,0.3464,0.6654,0.7737,0.4489l10.0581-5.0983
			c0.4273-0.2166,0.7571-0.7687,0.7571-1.2332l-0.0166-10.9333c0-0.4645-0.3132-0.6654-0.7405-0.4489L77.1669,278.28
			c-0.4273,0.2166-0.7737,0.7687-0.7737,1.2332V290.4465z"/>
		<path fill="#CD7A1E" d="M63.1365,297.2874c0,0.4645,0.3464,0.6654,0.7737,0.4488l10.0581-5.0983
			c0.4273-0.2166,0.7737-0.7687,0.7737-1.2332v-10.9333c0-0.4645-0.3464-0.6654-0.7737-0.4489l-10.0581,5.0983
			c-0.4273,0.2166-0.7737,0.7687-0.7737,1.2332V297.2874z"/>
		<path fill="#1A63AB" d="M49.7761,303.9682c0,0.4645,0.3464,0.6654,0.7737,0.4488l10.0581-5.0982
			c0.4273-0.2166,0.7737-0.7687,0.7737-1.2332v-10.9333c0-0.4645-0.3464-0.6654-0.7737-0.4489l-10.0581,5.0983
			c-0.4273,0.2166-0.7737,0.7687-0.7737,1.2332V303.9682z"/>
		<path fill="#007AC0" d="M76.3136,275.9276c0,0.4645,0.3343,0.6654,0.7616,0.4489l10.0641-5.0983
			c0.4273-0.2166,0.813-0.7687,0.813-1.2332l0.0002-5.3896l-0.015-2.2139l-0.0018-3.3298c0-0.4645-0.3751-0.6654-0.8024-0.4489
			l-10.0521,5.0983c-0.4273,0.2166-0.7677,0.7687-0.7677,1.2332V275.9276z"/>
		<path fill="#CD7A1E" d="M63.1607,282.6557c0,0.4645,0.3343,0.6654,0.7616,0.4489l10.0642-5.0983
			c0.4273-0.2166,0.7797-0.7687,0.7797-1.2332v-10.9333c0-0.4645-0.3585-0.6654-0.7858-0.4489l-10.0521,5.0983
			c-0.4273,0.2166-0.7677,0.7687-0.7677,1.2332V282.6557z"/>
		<path fill="#1A63AB" d="M49.8003,289.3275c0,0.4645,0.3343,0.6655,0.7616,0.4489l10.0642-5.0983
			c0.4273-0.2166,0.7797-0.7687,0.7797-1.2332v-10.9333c0-0.4645-0.3585-0.6654-0.7858-0.4489l-10.0521,5.0983
			c-0.4273,0.2166-0.7677,0.7687-0.7677,1.2332V289.3275z"/>
		<path fill="#9A312C" d="M72.6031,263.4119c0.4231,0.2072,0.4344,0.5424,0.0247,0.7489l-9.7168,4.8966
			c-0.416,0.2096-1.0973,0.2091-1.5213-0.0012l-9.9215-4.9213c-0.419-0.2079-0.4204-0.5437-0.0036-0.7502l9.7372-4.8234
			c0.4105-0.2033,1.082-0.2022,1.5001,0.0026L72.6031,263.4119z"/>
		<path fill="#5B9DD7" d="M85.3986,256.883c0.422,0.2036,0.4388,0.5327,0.0372,0.7351l-9.5276,4.7741
			c-0.4078,0.2055-1.0816,0.2046-1.5045-0.0021l-9.897-4.8356c-0.418-0.2042-0.4252-0.5339-0.0165-0.7363l9.5478-4.7291
			c0.4026-0.1994,1.0667-0.1979,1.4839,0.0033L85.3986,256.883z"/>
		<path fill="#5B9DD7" d="M59.5335,270.0019c0.4242,0.2109,0.4297,0.5525,0.0118,0.7631l-9.9128,4.9958
			c-0.4244,0.2139-1.1134,0.2137-1.5384-0.0003l-9.9451-5.0096c-0.42-0.2115-0.4154-0.5538,0.0098-0.7645l9.9322-4.9205
			c0.4187-0.2074,1.0976-0.2066,1.5168,0.0017L59.5335,270.0019z"/>
		<path fill="#5B9DD7" d="M59.3309,256.8769c0.4168,0.2041,0.422,0.5339,0.0114,0.7368l-9.7405,4.8117
			c-0.417,0.206-1.0939,0.205-1.5114-0.0021l-9.7716-4.847c-0.4127-0.2047-0.4083-0.5352,0.0095-0.7381l9.7592-4.7402
			c0.4115-0.1999,1.0786-0.1983,1.4906,0.0033L59.3309,256.8769z"/>
		<path fill="#5B91CD" d="M72.1685,250.4815c0.4157,0.2006,0.4266,0.5244,0.0239,0.7233l-9.5512,4.7177
			c-0.4088,0.202-1.0783,0.2007-1.4949-0.0029l-9.7489-4.7633c-0.4118-0.2012-0.4131-0.5256-0.0035-0.7245l9.5709-4.6483
			c0.4036-0.196,1.0635-0.1941,1.4745,0.0041L72.1685,250.4815z"/>
		<path fill="#5B9DD7" d="M46.2378,263.3996c0.4178,0.2077,0.4172,0.5437-0.0017,0.7507l-9.9354,4.9084
			c-0.4254,0.2101-1.1098,0.2096-1.5283-0.0012l-9.7933-4.9331c-0.4136-0.2083-0.4031-0.545,0.023-0.752l9.9533-4.8349
			c0.4196-0.2038,1.0941-0.2027,1.507,0.0026L46.2378,263.3996z"/>
		<path fill="#5B91CD" d="M46.2016,250.4866c0.4105,0.201,0.41,0.5256-0.0017,0.725l-9.7628,4.7288
			c-0.4179,0.2024-1.0904,0.2011-1.5017-0.0029l-9.6248-4.7744c-0.4065-0.2017-0.3964-0.5268,0.0223-0.7262l9.7801-4.659
			c0.4124-0.1964,1.0753-0.1946,1.4811,0.0041L46.2016,250.4866z"/>
		<path fill="#5B91CD" d="M59.0713,244.2005c0.4096,0.1976,0.4146,0.5163,0.0109,0.7118l-9.5745,4.6371
			c-0.4098,0.1985-1.075,0.1969-1.4854-0.0037l-9.6038-4.6926c-0.4056-0.1982-0.4013-0.5174,0.0092-0.713l9.5927-4.5692
			c0.4045-0.1927,1.0603-0.1905,1.4652,0.0049L59.0713,244.2005z"/>
		<path fill="#5B9DD7" d="M33.0777,256.897c0.4114,0.2045,0.405,0.5352-0.0147,0.7385l-9.9567,4.8231
			c-0.4262,0.2065-1.1062,0.2056-1.5184-0.002l-9.6447-4.8585c-0.4073-0.2052-0.3911-0.5364,0.0358-0.7398l9.9731-4.7513
			c0.4205-0.2003,1.0907-0.1988,1.4973,0.0034L33.0777,256.897z"/>
		<path fill="#CD7A1E" d="M63.0676,311.8195c0,0.4645,0.3464,0.6654,0.7737,0.4489l10.0581-5.0983
			c0.4273-0.2166,0.7737-0.7687,0.7737-1.2332v-10.9333c0-0.4645-0.3464-0.6654-0.7737-0.4488l-10.0581,5.0983
			c-0.4273,0.2166-0.7737,0.7687-0.7737,1.2332V311.8195z"/>
		<path fill="#3B60A8" d="M21.5984,290.4465c0,0.4645-0.3464,0.6654-0.7737,0.4489l-10.0581-5.0983
			c-0.4273-0.2166-0.7737-0.7687-0.7737-1.2332v-10.9333c0-0.4645,0.3464-0.6654,0.7737-0.4489l10.0581,5.0983
			c0.4273,0.2166,0.7737,0.7687,0.7737,1.2332V290.4465z"/>
		<path fill="#34538E" d="M34.8205,297.2498c0,0.4645-0.3464,0.6654-0.7737,0.4488l-10.0581-5.0982
			c-0.4273-0.2166-0.7737-0.7687-0.7737-1.2332V280.434c0-0.4645,0.3464-0.6654,0.7737-0.4489l10.0581,5.0983
			c0.4273,0.2166,0.7737,0.7687,0.7737,1.2332V297.2498z"/>
		<path fill="#2C4677" d="M48.1377,304.0156c0,0.4645-0.3464,0.6654-0.7737,0.4489l-10.0581-5.0983
			c-0.4273-0.2166-0.7737-0.7687-0.7737-1.2332v-10.9333c0-0.4645,0.3464-0.6654,0.7737-0.4488l10.0581,5.0983
			c0.4273,0.2166,0.7737,0.7687,0.7737,1.2332V304.0156z"/>
		<path fill="#3B60A8" d="M21.5742,275.8148c0,0.4645-0.3343,0.6654-0.7616,0.4489l-10.0642-5.0983
			c-0.4273-0.2166-0.7797-0.7687-0.7797-1.2332v-10.9333c0-0.4645,0.3585-0.6654,0.7858-0.4488l10.0521,5.0982
			c0.4273,0.2166,0.7677,0.7687,0.7677,1.2332V275.8148z"/>
		<path fill="#34538E" d="M34.7963,282.6181c0,0.4645-0.3343,0.6654-0.7616,0.4489l-10.0642-5.0983
			c-0.4273-0.2166-0.7797-0.7687-0.7797-1.2332v-10.9333c0-0.4645,0.3585-0.6654,0.7858-0.4489l10.0521,5.0983
			c0.4273,0.2166,0.7677,0.7687,0.7677,1.2332V282.6181z"/>
		<path fill="#2C4677" d="M48.1135,289.3839c0,0.4645-0.3343,0.6654-0.7616,0.4489l-10.0642-5.0983
			c-0.4273-0.2166-0.7797-0.7687-0.7797-1.2332V272.568c0-0.4645,0.3585-0.6654,0.7858-0.4489l10.0521,5.0983
			c0.4273,0.2166,0.7677,0.7687,0.7677,1.2332V289.3839z"/>
		<path fill="#34538E" d="M34.803,311.8812c0,0.4645-0.3464,0.6654-0.7737,0.4489l-10.0581-5.1614
			c-0.4273-0.2166-0.7737-0.7687-0.7737-1.2332v-10.8972c0-0.4645,0.3464-0.6654,0.7737-0.4489l10.0581,5.0983
			c0.4273,0.2166,0.7737,0.7687,0.7737,1.2332V311.8812z"/>
		<path fill="#2C4677" d="M48.1377,318.7143c0,0.4645-0.3464,0.6655-0.7737,0.4489l-10.0581-5.1524
			c-0.4273-0.2166-0.7737-0.7687-0.7737-1.2332v-10.9333c0-0.4645,0.3464-0.6654,0.7737-0.4489l10.0581,5.0983
			c0.4273,0.2166,0.7737,0.7687,0.7737,1.2332V318.7143z"/>
		<path fill="#3B60A8" d="M21.5984,305.1181c0,0.4645-0.3464,0.6654-0.7737,0.4489l-10.0581-5.1434
			c-0.4273-0.2166-0.7737-0.7777-0.7737-1.2422v-10.9333c0-0.4645,0.3464-0.6654,0.7737-0.4488l10.0581,5.0982
			c0.4273,0.2166,0.7737,0.7687,0.7737,1.2332V305.1181z"/>
		<path fill="#1A63AB" d="M49.7761,318.5857c0,0.4645,0.3464,0.6654,0.7737,0.4489l10.0581-5.0983
			c0.4273-0.2166,0.7737-0.7687,0.7737-1.2332v-10.9333c0-0.4645-0.3464-0.6654-0.7737-0.4489l-10.0581,5.0983
			c-0.4273,0.2166-0.7737,0.7687-0.7737,1.2332V318.5857z"/>
		<path fill="#007AC0" d="M76.3932,305.0189c0,0.4645,0.3464,0.6654,0.7737,0.4488l10.0581-5.0983
			c0.4273-0.2166,0.7571-0.7687,0.7571-1.2332l-0.0166-10.9333c0-0.4645-0.3132-0.6654-0.7405-0.4489l-10.0581,5.0983
			c-0.4273,0.2166-0.7737,0.7687-0.7737,1.2332V305.0189z"/>
	</g>
	<path fill="#FFFFFF" d="M48.9667,239.5709"/>
	<path fill="#FFFFFF" d="M49.84,239.7467"/>
</g>
</svg>
