<?xml version="1.0" encoding="utf-8"?>
<!-- Generator: Adobe Illustrator 17.1.0, SVG Export Plug-In . SVG Version: 6.00 Build 0)  -->
<!DOCTYPE svg PUBLIC "-//W3C//DTD SVG 1.1//EN" "http://www.w3.org/Graphics/SVG/1.1/DTD/svg11.dtd">
<svg version="1.1" id="Layer_1" xmlns="http://www.w3.org/2000/svg" xmlns:xlink="http://www.w3.org/1999/xlink" x="0px" y="0px"
	 width="92.9868px" height="25.6499px" viewBox="0 0 92.9868 25.6499" enable-background="new 0 0 92.9868 25.6499"
	 xml:space="preserve">
<path d="M1.836,12.688c0.081,0.6753,0.081,1.3501,0.081,2.0254h0.0537c0.7832-1.377,2.5655-2.3492,4.2393-2.3492
	c3.2129,0,4.7519,1.8091,4.7519,4.941v8.0195H9.1797V18.331c0-2.8076-0.7827-4.3466-3.4287-4.3466
	c-0.3779,0-3.834,0.2426-3.834,4.8598v6.4805H0.1348v-9.8555c0-0.6748-0.0811-1.8628-0.1348-2.7812H1.836z"/>
<path d="M21.2222,25.6489c-3.915,0-6.6963-2.8359-6.6963-6.6426c0-3.8071,2.7813-6.6421,6.6963-6.6421
	c3.9419,0,6.7227,2.835,6.7227,6.6421C27.9449,22.813,25.1641,25.6489,21.2222,25.6489z M21.2222,13.9844
	c-2.916,0-4.752,2.187-4.752,5.0219c0,2.835,1.836,5.0215,4.752,5.0215c2.9429,0,4.7788-2.1865,4.7788-5.0215
	C26.001,16.1714,24.1651,13.9844,21.2222,13.9844z"/>
<path d="M36.774,25.3247h-1.9981L29.646,12.688h2.1328l4.0235,10.6386h0.0537l4.0229-10.6386h2.0249L36.774,25.3247z"/>
<path d="M52.3531,17.5752v-0.3238c0-2.187-1.0528-3.267-3.2403-3.267c-1.4853,0-2.7812,0.5127-3.8613,1.4848l-1.0801-1.269
	c1.1611-1.188,2.9707-1.836,5.3457-1.836c2.4844,0,4.6172,1.4038,4.6172,4.482v5.6426c0,0.9726,0.1084,2.1601,0.2168,2.8359h-1.7285
	c-0.1074-0.6211-0.1621-1.377-0.1621-2.0527h-0.0537c-1.0264,1.6738-2.4307,2.3769-4.4551,2.3769
	c-2.2412,0-4.3472-1.2422-4.3472-3.6992c0-4.1045,4.8325-4.3745,7.857-4.3745H52.3531z M51.4351,19.0337
	c-1.8096,0-5.8867,0.1347-5.8867,2.6718c0,1.6749,1.539,2.3223,2.9707,2.3223c2.5918,0,3.834-1.8359,3.834-4.0762v-0.9179H51.4351z"
	/>
<path d="M64.8257,14.3081h-3.6445v7.4521c0,1.8907,0.7285,2.2676,1.8359,2.2676c0.6211,0,1.2959-0.1885,1.836-0.4863l0.081,1.6474
	c-0.6474,0.2979-1.5117,0.46-2.4033,0.46c-1.3496,0-3.1318-0.5947-3.1318-3.375v-7.9658h-2.6729V12.688h2.6729V9.124h1.7822v3.564
	h3.6445V14.3081z"/>
<path d="M68.5249,19.4927c0.2149,2.5371,2.1328,4.5351,4.6436,4.5351c1.8896,0,3.3476-1.0527,4.0498-2.1865l1.3769,1.1338
	c-1.4843,1.8906-3.3476,2.6738-5.4267,2.6738c-3.7529,0-6.5342-2.8359-6.5342-6.6426c0-3.8071,2.7813-6.6421,6.3721-6.6421
	c3.834,0.0269,6.0478,2.8619,6.0478,6.3179v0.8106H68.5249z M77.1109,18.0342c0-2.4029-1.5391-4.0498-4.1045-4.0498
	c-2.3213,0-4.4278,1.9707-4.4278,4.0498H77.1109z"/>
<path d="M91.5288,15.6582c-0.5937-0.918-1.7548-1.6738-3.1582-1.6738c-2.9433-0.0542-4.7529,2.1328-4.7529,5.0219
	c0,2.8887,1.8096,5.0762,4.7529,5.0215c1.4034,0,2.5645-0.7558,3.1582-1.6738l1.458,1.1074
	c-1.2412,1.458-2.916,2.1602-4.6162,2.1875c-4.1318,0.0527-6.6972-2.8359-6.6972-6.6426c0-3.8071,2.5654-6.6963,6.6972-6.6421
	c1.7002,0.0269,3.375,0.729,4.6162,2.1871L91.5288,15.6582z"/>
<g>
	<path d="M62.5181,5.3999c0.0791,0.9399,0.79,1.6802,1.7197,1.6802c0.7002,0,1.2403-0.3902,1.5-0.8101l0.5098,0.4199
		c-0.5498,0.7002-1.2402,0.9903-2.0098,0.9903c-1.3906,0-2.4199-1.0503-2.4199-2.46c0-1.4102,1.0293-2.46,2.3594-2.46
		c1.4199,0.0098,2.2402,1.0596,2.2402,2.3399v0.2998H62.5181z M65.6978,4.8598c0-0.8896-0.5694-1.5-1.5205-1.5
		c-0.8594,0-1.6387,0.73-1.6387,1.5H65.6978z"/>
	<path d="M72.2886,7.56h-0.6602V6.7803h-0.0205c-0.4306,0.6298-1.2002,0.8999-1.8193,0.8999c-1.4609,0-2.4902-1.0503-2.4902-2.46
		c0-1.4102,1.0293-2.46,2.4902-2.46c0.6191,0,1.3887,0.2701,1.8193,0.8999h0.0205V0h0.6602V7.56z M69.7886,7.0801
		c1.0801,0,1.8691-0.8101,1.8691-1.8599c0-1.0503-0.789-1.8604-1.8691-1.8604c-1.0908,0-1.7705,0.8101-1.7705,1.8604
		C68.0181,6.27,68.6978,7.0801,69.7886,7.0801z"/>
	<path d="M74.2085,1.56c-0.2402,0-0.4804-0.2002-0.4804-0.4799c0-0.2798,0.2402-0.48,0.4804-0.48
		c0.2393,0,0.4795,0.2002,0.4795,0.48C74.688,1.3598,74.4478,1.56,74.2085,1.56z M74.5376,7.56h-0.6592V2.8799h0.6592V7.56z"/>
	<path d="M78.5484,3.48h-1.3506v2.7602c0,0.6997,0.2705,0.8399,0.6806,0.8399c0.2295,0,0.4795-0.0699,0.6797-0.1802l0.0293,0.6103
		c-0.2402,0.1099-0.5595,0.17-0.8896,0.17c-0.5,0-1.1602-0.2203-1.1602-1.25V3.48h-0.9892V2.8799h0.9892V1.56h0.6602v1.3199h1.3506
		V3.48z"/>
	<path d="M81.687,7.6802c-1.4492,0-2.4795-1.0503-2.4795-2.46c0-1.4102,1.0303-2.46,2.4795-2.46c1.461,0,2.4903,1.0498,2.4903,2.46
		C84.1773,6.6299,83.148,7.6802,81.687,7.6802z M81.687,3.3598c-1.08,0-1.7597,0.8101-1.7597,1.8604
		c0,1.0498,0.6797,1.8599,1.7597,1.8599c1.0899,0,1.7705-0.8101,1.7705-1.8599C83.4575,4.1699,82.7769,3.3598,81.687,3.3598z"/>
	<path d="M85.4468,4.3398c0-0.4199-0.0195-0.7798-0.0391-1.4599h0.6495V3.75h0.0205c0.1894-0.5,0.6797-0.9898,1.5-0.9898
		c0.1894,0,0.3496,0.0201,0.4902,0.0596L87.937,3.4702c-0.08-0.0303-0.1992-0.0503-0.3798-0.0503c-1,0-1.4502,0.8701-1.4502,1.5
		V7.56h-0.6602V4.3398z"/>
	<path d="M91.6968,4.6899V4.5698c0-0.8096-0.3896-1.21-1.1992-1.21c-0.5508,0-1.0303,0.1905-1.4307,0.5503l-0.3994-0.4702
		C89.0972,3,89.7671,2.7602,90.647,2.7602c0.9199,0,1.71,0.5201,1.71,1.6597v2.0903c0,0.3599,0.04,0.7998,0.08,1.0498h-0.6406
		c-0.039-0.2299-0.0596-0.5097-0.0596-0.7597h-0.0195c-0.3799,0.6196-0.9004,0.8799-1.6504,0.8799
		c-0.8301,0-1.6103-0.46-1.6103-1.3702c0-1.52,1.791-1.6201,2.9101-1.6201H91.6968z M91.357,5.23
		c-0.67,0-2.1797,0.0503-2.1797,0.9902c0,0.6196,0.5703,0.8599,1.0996,0.8599c0.9599,0,1.4199-0.6802,1.4199-1.5103V5.23H91.357z"/>
</g>
</svg>
