<?xml version="1.0" encoding="utf-8"?>
<!-- Generator: Adobe Illustrator 17.1.0, SVG Export Plug-In . SVG Version: 6.00 Build 0)  -->
<!DOCTYPE svg PUBLIC "-//W3C//DTD SVG 1.1//EN" "http://www.w3.org/Graphics/SVG/1.1/DTD/svg11.dtd">
<svg version="1.1" id="Layer_1" xmlns="http://www.w3.org/2000/svg" xmlns:xlink="http://www.w3.org/1999/xlink" x="0px" y="0px"
	 width="481.0966px" height="134.0598px" viewBox="0 0 481.0966 134.0598" enable-background="new 0 0 481.0966 134.0598"
	 xml:space="preserve">
<g>
	<g>
		<path fill="#293884" d="M192.8139,43.1762h9.0616v-9.0588h3.6512v9.0588h9.0588v3.2015h-9.0588v9.0588h-3.6512v-9.0588h-9.0616
			V43.1762z"/>
	</g>
	<g>
		<path fill="#293884" d="M300.6425,41.3679c1.0787-0.2348,1.3129-0.3068,1.3866-1.546l0.0772-2.1897
			c0.0765-2.8432-1.0201-5.5208-5.7716-5.5208c-2.1443,0-4.9033,0.9317-4.9033,2.644c0,1.2308-0.5969,2.6901-1.0826,3.2807
			c-1.4779,1.7983-3.4932,1.5852-4.2498,1.0938c-0.5791-0.376-0.8719-0.9897-0.8719-1.6816c0-4.0844,6.0351-8.6253,13.6736-8.6253
			c5.5169,0,8.6378,3.4478,8.6378,8.3346l-0.3424,12.3303c-0.1541,3.5372,0.6843,7.6112,3.6703,7.6112
			c0.7674,0,1.4562-0.2299,1.9171-0.462c0.3823-0.232,0.7646-0.5368,0.9953-0.5368c0.3054,0,0.5371,0.462,0.5371,0.9988
			c0,0.3837-2.6821,3.3813-6.4356,3.3813c-1.8402,0-3.7256-0.6919-5.0276-2.3826c-0.3072-0.462-0.7646-1.077-1.2263-1.077
			c-0.5364,0-1.648,0.9939-3.1794,1.8409c-1.6861,0.9205-3.0854,1.6732-5.7625,1.6732c-2.2216,0-4.2138-0.594-5.5159-1.7459
			c-1.4551-1.3056-2.3752-3.2283-2.3752-5.3803c0-2.9921,1.3388-6.8081,5.5526-8.8552
			C294.4914,42.5399,300.6425,41.3679,300.6425,41.3679z M295.5384,56.2659c1.5313,0,4.4098-1.3224,5.1782-2.0925
			c0.9191-0.9191,1.163-2.637,1.163-4.2508l0.0608-4.6995c0-0.8471-0.3065-1.0008-0.766-1.0008c-0.461,0-2.1464,0.1922-3.5261,0.65
			c-4.5192,1.539-7.1401,3.7413-7.1401,7.4015C290.5082,54.1552,291.63,56.2659,295.5384,56.2659z"/>
		<path fill="#293884" d="M263.8897,37.8341c0-3.0011,0-2.6922-2.081-4.0789l-0.6919-0.4627
			c-0.3097-0.3075-0.3097-1.1546,0.0769-1.3853c1.7707-0.6164,5.8523-2.6195,7.7768-3.7741
			c0.3858,0.0755,0.6175,0.2313,0.6175,0.5396v4.4675c0,0.3844,0.0761,0.6151,0.2303,0.6919
			c2.6974-2.2323,5.4071-4.4255,8.236-4.4255c1.9101,0,3.4373,1.2231,3.4373,3.0571c0,2.5217-1.9836,3.3918-3.2059,3.3918
			c-0.7653,0-1.1483-0.2292-1.6823-0.5339c-1.1455-0.7646-2.241-1.2189-3.3111-1.2189c-1.2224,0-2.2708,0.8065-2.8803,1.6466
			c-0.7653,1.0707-0.824,2.9424-0.824,5.5592l-0.0482,10.0539c0,5.5452,0.1534,6.4706,3.0801,6.6999l2.8044,0.2914
			c0.5396,0.3858,0.4019,1.82-0.1364,2.0492c-3.6221-0.1538-5.8538-0.2292-8.5491-0.2292c-2.7746,0-5.0832,0.0754-7.0869,0.2292
			c-0.5382-0.2292-0.6923-1.539-0.1524-1.9248l1.5156-0.3809c2.8495-0.4627,2.927-1.1546,2.927-6.6998L263.8897,37.8341z"/>
		<path fill="#293884" d="M404.0313,37.8341c0-3.0011,0-2.6922-2.0814-4.0789l-0.6919-0.4627
			c-0.3102-0.3075-0.3102-1.1546,0.0769-1.3853c1.7711-0.6164,5.8527-2.6195,7.7761-3.7741
			c0.3858,0.0755,0.6178,0.2313,0.6178,0.5396v4.4675c0,0.3844,0.0769,0.6151,0.2306,0.6919
			c2.6978-2.2323,5.4068-4.4255,8.2361-4.4255c1.9094,0,3.4372,1.2231,3.4372,3.0571c0,2.5217-1.9835,3.3918-3.2066,3.3918
			c-0.7646,0-1.1476-0.2292-1.6816-0.5339c-1.1462-0.7646-2.2407-1.2189-3.3114-1.2189c-1.2218,0-2.2701,0.8065-2.8796,1.6466
			c-0.766,1.0707-0.8247,2.9424-0.8247,5.5592l-0.0475,10.0539c0,5.5452,0.1524,6.4706,3.0794,6.6999l2.8041,0.2914
			c0.5396,0.3858,0.4026,1.82-0.1356,2.0492c-3.6218-0.1538-5.8541-0.2292-8.5491-0.2292c-2.7747,0-5.0839,0.0754-7.087,0.2292
			c-0.5382-0.2292-0.6919-1.539-0.1524-1.9248l1.5153-0.3809c2.8502-0.4627,2.927-1.1546,2.927-6.6998L404.0313,37.8341z"/>
		<path fill="#293884" d="M327.8733,37.9844v13.7323c0,5.5452,0.1531,6.0988,2.9253,6.4831l1.6184,0.2307
			c0.5381,0.3858,0.3847,1.9123-0.1542,2.1415c-2.3109-0.1538-4.5457-0.2292-7.2393-0.2292c-2.7729,0-5.0843,0.0754-7.2397,0.2292
			c-0.5396-0.2292-0.6951-1.7557-0.1548-2.1415l1.6166-0.2307c2.8509-0.3844,2.927-0.9379,2.927-6.4831V38.3702"/>
		<path fill="#293884" d="M322.1726,50.1581V36.8095c0-5.0944-0.2652-5.2775-1.2175-5.4641l-1.6749-0.3453
			c-0.5396-0.3858-0.3991-2.4134,0.1877-2.4134c2.2397,0,2.7827-0.037,5.5557-0.037c2.6937,0,2.8058-0.0035,5.3488,0.072
			c0.5864,0.0189,0.614,1.7676,0.0762,2.1534l-1.9245,0.5668c-0.5119,0.1503-0.6507,0.5801-0.6507,5.4676v13.733"/>
		<path fill="#293884" d="M341.7276,38.2388c0-3.1283,0-3.3883-2.0792-4.775l-0.6937-0.4627
			c-0.3078-0.3075-0.3078-1.1546,0.0769-1.3852c1.7707-0.6164,6.1612-2.6195,7.7031-3.7741c0.3065,0,0.6912,0.1538,0.846,0.5396
			c-0.1548,1.7704-0.1548,2.8823-0.1548,3.5743c0,0.4627-0.0255,0.7765,0.5134,0.7765c3.2346-2.0031,6.6201-3.7644,10.8542-3.7644
			c7.0381,0,9.2732,4.341,9.2732,9.5031v13.2458c0,5.5452,0.1537,6.0988,2.927,6.4831l1.6928,0.2307
			c0.5396,0.3858,0.3858,1.9123-0.1538,2.1415c-2.3106-0.1538-4.5443-0.2292-7.2393-0.2292c-2.7719,0-5.0825,0.0754-7.1625,0.2292
			c-0.5382-0.2292-0.6919-1.7557-0.1524-2.1415l1.4621-0.2307c2.8502-0.4626,2.9271-0.9379,2.9271-6.4831V40.2405
			c0-5.0483-1.8591-6.927-6.4664-6.927c-3.2653,0-6.437,2.5643-7.5147,4.0258c-1.0008,1.3104-0.9607,1.7026-0.9607,3.9363v10.4411
			c0,5.5452,0.1548,6.0205,2.9278,6.4831l1.3849,0.2307c0.5388,0.3858,0.3858,1.9123-0.1531,2.1415
			c-2.0786-0.1538-4.3134-0.2292-7.0077-0.2292c-2.774,0-5.0833,0.0754-7.2404,0.2292c-0.5382-0.2292-0.6937-1.7557-0.1555-2.1415
			l1.6187-0.2307c2.8502-0.3844,2.927-0.9379,2.927-6.4831V38.2388z"/>
		<path fill="#293884" d="M386.1951,32.9711c-1.3098,0-1.3894,0.007-1.3894,1.6243v14.2852c0,4.466,0.5396,8.5491,5.6235,8.5491
			c0.7716,0,1.4635-0.1545,2.0799-0.3858c0.6934-0.2292,1.6928-1.0778,1.9248-1.0778c0.6179,0,0.9254,0.8485,0.7716,1.3091
			c-1.3894,1.618-4.1599,3.5428-8.0879,3.5428c-6.6229,0-8.0081-3.6973-8.0081-8.3171l0.0363-17.6462
			c0-2.0793-1.1448-1.8836-2.6838-1.8836h-2.5496c-0.4599-0.3089-0.5382-1.6417-0.2307-2.1023
			c2.2351-0.694,5.5004-1.632,6.2693-2.326c1.0023-0.924,2.5454-2.9208,3.317-4.4626c0.383-0.1524,1.3084-0.1524,1.6173,0.3872
			v3.4652c0,1.386,0.0755,1.4635,1.3852,1.4635h8.5492c0.924,0.6919,0.7702,3.1123,0.0741,3.5749H386.1951z"/>
		<path fill="#293884" d="M431.0263,40.7766c-2.0031,0-2.0786,0.1538-2.0786,2.0779c0,7.7797,4.6772,13.6519,12.916,13.6519
			c2.5441,0,4.7009-0.7716,7.0842-3.7748c0.7716-0.2307,1.3098,0.2292,1.3881,0.924c-2.5399,5.2377-8.0865,7.1625-12.0913,7.1625
			c-5.007,0-8.9335-2.1554-11.1658-5.0832c-2.312-3.0032-3.4974-6.3629-3.4974-9.752c0-9.471,5.1412-17.6658,15.741-17.6658
			c6.6229,0,10.9757,4.4849,10.9757,9.1055c0,1.0777,0.0014,2.2156-0.4795,2.8145c-0.3858,0.4809-1.3098,0.5396-4.5457,0.5396
			H431.0263z M435.9984,37.7181c5.6975,0,7.839-0.2964,8.1074-0.6765c0.1607-0.2279,0.3467-0.5857,0.3467-1.588
			c0-2.1548-1.5251-4.5625-5.9939-4.5625c-4.2941,0-8.3912,3.8993-8.4681,6.4405c0,0.1538,0,0.3865,0.5396,0.3865H435.9984z"/>
		<path fill="#293884" d="M461.787,40.7766c-2.0031,0-2.0786,0.1538-2.0786,2.0779c0,7.7797,4.6771,13.6519,12.9159,13.6519
			c2.5441,0,4.701-0.7716,7.0843-3.7748c0.7716-0.2307,1.3098,0.2292,1.388,0.924c-2.5398,5.2377-8.0864,7.1625-12.0912,7.1625
			c-5.007,0-8.9335-2.1554-11.1659-5.0832c-2.312-3.0032-3.4974-6.3629-3.4974-9.752c0-9.471,5.1412-17.6658,15.741-17.6658
			c6.6229,0,10.9757,4.4849,10.9757,9.1055c0,1.0777,0.0014,2.2156-0.4794,2.8145c-0.3858,0.4809-1.3098,0.5396-4.5458,0.5396
			H461.787z M466.759,37.7181c5.6976,0,7.8391-0.2964,8.1075-0.6765c0.1607-0.2279,0.3466-0.5857,0.3466-1.588
			c0-2.1548-1.525-4.5625-5.9939-4.5625c-4.2942,0-8.3912,3.8993-8.468,6.4405c0,0.1538,0,0.3865,0.5396,0.3865H466.759z"/>
		<path fill="#293884" d="M228.585,30.6664c0-5.5522-0.0587-6.2483-2.7779-6.537l-1.504-0.1726
			c-0.4054-0.4047-0.4054-1.3314,0.057-1.6208c2.6041-0.2306,6.8273-0.5214,13.192-0.5214c4.862,0,8.7368,0.4641,11.3416,1.9681
			c2.6594,1.5621,4.0489,3.8762,4.0489,7.5203c0,3.4121-2.4892,6.0169-6.5388,7.3498c-0.2306,0.0566-0.348,0.2307-0.348,0.3452
			c0,0.1167,0.1174,0.2321,0.4623,0.346c4.3983,0.6962,9.3169,3.5309,9.3169,10.0693c0,2.6608-0.8681,5.5543-3.5292,7.6937
			c-2.7191,2.2582-6.5376,3.2423-13.1326,3.2423c-2.5454,0-4.9766-0.1755-7.1758-0.1755c-2.5451,0-5.2638,0.0588-7.811,0.1755
			c-0.4613-0.2327-0.521-1.2741-0.1139-1.6774l1.2734-0.1741c2.717-0.3466,3.2391-0.522,3.2391-6.6551V30.6664z M235.2974,37.0335
			c0,1.502,0.1719,1.5607,2.4857,1.5607c5.4369,0,7.9268-2.1401,7.9268-7.3463c0-5.093-3.7609-7.1185-7.3481-7.1185
			c-2.8925,0-3.0644,0.1146-3.0644,2.4294V37.0335z M235.2974,50.6274c0,5.267,0.5769,7.405,5.6112,7.405
			c3.9894,0,7.5203-2.6035,7.5203-7.751c0-5.9604-4.0502-9.4892-10.4722-9.4892c-2.5454,0-2.6594,0.348-2.6594,1.5062V50.6274z"/>
		<g>
			<g>
				<circle fill="#293884" cx="324.6258" cy="4.1461" r="4.1442"/>
				<circle fill="#293884" cx="324.6256" cy="20.0492" r="4.1438"/>
			</g>
			<g>
				<circle fill="#293884" cx="332.5771" cy="12.0969" r="4.1442"/>
				<circle fill="#293884" cx="316.6736" cy="12.0966" r="4.1437"/>
			</g>
		</g>
	</g>
	<g>
		<g>
			<g>
				<g>
					<path fill="#409CDA" d="M123.4702,20.7177h-14.2331c-0.9732,0-1.8017,0.7081-1.9533,1.6693l-5.7553,36.4952
						c-0.1135,0.7201,0.443,1.3713,1.172,1.3713h7.3027c0.6812,0,1.2611-0.4957,1.3673-1.1686l1.6321-10.3467
						c0.1516-0.9613,0.9801-1.6693,1.9532-1.6693h4.5038c9.3749,0,14.7855-4.5369,16.1996-13.5293
						c0.6366-3.9327,0.0256-7.023-1.8157-9.1861C131.819,21.9752,128.2316,20.7177,123.4702,20.7177z M125.1126,34.0466
						c-0.7778,5.1091-4.6798,5.1091-8.4536,5.1091h-2.1472l1.5061-9.5387c0.0911-0.5766,0.5881-1.0014,1.172-1.0014h0.9843
						c2.5688,0,4.9955,0,6.2464,1.4635C125.169,30.9551,125.3955,32.2528,125.1126,34.0466z"/>
					<path fill="#293884" d="M21.9564,20.7177H7.7233c-0.9731,0-1.8017,0.7081-1.9533,1.6693L0.0148,58.8822
						c-0.1136,0.7201,0.443,1.3713,1.1719,1.3713h6.7957c0.9731,0,1.8016-0.7081,1.9533-1.6693l1.553-9.8459
						c0.1516-0.9613,0.9801-1.6693,1.9533-1.6693h4.5037c9.3749,0,14.7855-4.5369,16.1996-13.5293
						c0.6366-3.9327,0.0256-7.023-1.8157-9.1861C30.3052,21.9752,26.7179,20.7177,21.9564,20.7177z M23.5988,34.0466
						c-0.7778,5.1091-4.6798,5.1091-8.4536,5.1091h-2.1472l1.5062-9.5387c0.091-0.5766,0.5881-1.0014,1.1719-1.0014h0.9843
						c2.5688,0,4.9955,0,6.2464,1.4635C23.6553,30.9551,23.8818,32.2528,23.5988,34.0466z"/>
					<path fill="#293884" d="M64.4967,33.8832h-6.815c-0.5841,0-1.0813,0.4245-1.172,1.0015l-0.2998,1.9057l-0.4763-0.6903
						c-1.4761-2.1425-4.7654-2.8582-8.05-2.8582c-7.5292,0-13.9616,5.7057-15.2133,13.7085
						c-0.6516,3.9924,0.2734,7.8076,2.537,10.4707c2.0799,2.4466,5.0477,3.4651,8.5837,3.4651c6.069,0,9.4352-3.899,9.4352-3.899
						l-0.3043,1.8944c-0.1141,0.7203,0.4425,1.3721,1.1718,1.3721h6.1375c0.973,0,1.8014-0.7079,1.9532-1.669l3.6843-23.3304
						C65.7824,34.534,65.2258,33.8832,64.4967,33.8832z M54.9988,47.1486c-0.6582,3.894-3.7495,6.5082-7.6924,6.5082
						c-1.9767,0-3.5591-0.6359-4.5766-1.8395c-1.0082-1.1935-1.3876-2.8937-1.0678-4.7871
						c0.6137-3.8595,3.7546-6.5578,7.6378-6.5578c1.9351,0,3.5067,0.6417,4.5436,1.8568
						C54.8874,43.5529,55.2977,45.2645,54.9988,47.1486z"/>
					<path fill="#409CDA" d="M166.0105,33.8832h-6.815c-0.5841,0-1.0813,0.4245-1.172,1.0015l-0.2998,1.9057l-0.4764-0.6903
						c-1.476-2.1425-4.7653-2.8582-8.05-2.8582c-7.5292,0-13.9615,5.7057-15.2133,13.7085
						c-0.6515,3.9924,0.2735,7.8076,2.5371,10.4707c2.0799,2.4466,5.0477,3.4651,8.5837,3.4651c6.0689,0,9.4352-3.899,9.4352-3.899
						l-0.3043,1.8944c-0.1141,0.7203,0.4425,1.3721,1.1718,1.3721h6.1374c0.9731,0,1.8015-0.7079,1.9532-1.669l3.6843-23.3304
						C167.2962,34.534,166.7396,33.8832,166.0105,33.8832z M156.5126,47.1486c-0.6582,3.894-3.7496,6.5082-7.6924,6.5082
						c-1.9768,0-3.5591-0.6359-4.5766-1.8395c-1.0082-1.1935-1.3876-2.8937-1.0678-4.7871
						c0.6136-3.8595,3.7545-6.5578,7.6378-6.5578c1.9351,0,3.5066,0.6417,4.5435,1.8568
						C156.4012,43.5529,156.8115,45.2645,156.5126,47.1486z"/>
					<path fill="#293884" d="M100.7953,33.8832H93.945c-0.6552,0-1.2678,0.325-1.6359,0.8671l-9.4496,13.917L78.855,35.2939
						c-0.2506-0.8369-1.0207-1.4107-1.8943-1.4107h-6.7339c-0.813,0-1.3853,0.7999-1.123,1.5696l7.5428,22.1403l-7.0945,10.0105
						c-0.5569,0.7857,0.0049,1.8725,0.968,1.8725h6.8435c0.6486,0,1.256-0.3181,1.6254-0.8512l22.7815-32.879
						C102.3157,34.959,101.7526,33.8832,100.7953,33.8832z"/>
				</g>
			</g>
			<g>
				<path fill="#409CDA" d="M174.0435,21.7199l-5.8416,37.1629c-0.1131,0.7199,0.4433,1.3707,1.172,1.3707h5.8749
					c0.9731,0,1.8015-0.708,1.9533-1.6692l5.7598-36.4953c0.1137-0.7201-0.4429-1.3714-1.172-1.3714h-6.5744
					C174.6313,20.7177,174.1342,21.1428,174.0435,21.7199z"/>
			</g>
		</g>
	</g>
</g>
<g>
	<g>
		<path fill="#9C9FA4" d="M149.833,85.8727h6.7215c5.349,0,9.6091,0.7101,13.254,4.3075c3.5027,3.503,4.5914,8.2835,3.7868,13.5853
			c-0.8521,5.2068-3.4555,9.7982-7.9524,13.3009c-4.8755,3.7868-9.2303,4.4969-14.8157,4.4969h-6.627L149.833,85.8727z
			 M151.6318,117.8711c4.3548,0,8.0944-0.6154,11.8812-3.6921c3.3607-2.7455,5.4434-6.4849,6.1061-10.4611
			c0.6154-4.0709-0.3314-7.9996-2.9348-10.6977c-2.84-2.8873-6.343-3.4555-10.5558-3.4555h-2.8873l-4.4969,28.3064H151.6318z"/>
		<path fill="#9C9FA4" d="M178.4226,111.2443c-0.6155,4.1181,1.7988,7.4314,6.1063,7.4314c3.2186,0,5.5854-1.9407,7.4789-4.5914
			l2.9348,1.8461c-2.7456,3.9762-6.7216,6.2483-11.2657,6.2483c-6.6271,0-10.0826-5.0649-9.0884-11.4551
			c1.0413-6.5796,5.7748-12.0231,12.733-12.0231c7.1476,0,9.9878,5.9167,8.5676,12.5438H178.4226z M192.3864,108.0256
			c0-3.2189-2.2721-5.8223-5.5856-5.8223c-3.2661,0-6.7216,2.6034-7.7156,5.8223H192.3864z"/>
		<path fill="#9C9FA4" d="M205.5924,114.2738l8.9936-14.958h4.2603l-14.6267,23.715l-7.1948-23.715h4.3075L205.5924,114.2738z"/>
		<path fill="#9C9FA4" d="M220.1711,111.2443c-0.6154,4.1181,1.7988,7.4314,6.1064,7.4314c3.2186,0,5.5854-1.9407,7.4789-4.5914
			l2.9347,1.8461c-2.7456,3.9762-6.7215,6.2483-11.2657,6.2483c-6.6271,0-10.0825-5.0649-9.0883-11.4551
			c1.0412-6.5796,5.7748-12.0231,12.7329-12.0231c7.1476,0,9.9879,5.9167,8.5676,12.5438H220.1711z M234.1349,108.0256
			c0-3.2189-2.272-5.8223-5.5856-5.8223c-3.2661,0-6.7215,2.6034-7.7155,5.8223H234.1349z"/>
		<path fill="#9C9FA4" d="M246.9616,110.4869c1.0415-6.5323,7.0529-11.7864,13.5853-11.7864c6.5321,0,10.8397,5.2541,9.7982,11.7864
			c-1.0412,6.5322-7.0529,11.6918-13.5378,11.6918C250.3224,122.1787,245.9202,117.0191,246.9616,110.4869z M250.7484,110.4396
			c-0.7101,4.5441,1.9408,8.2362,6.6269,8.2362c4.6863,0,8.4731-3.6921,9.183-8.2362c0.7101-4.4967-1.8933-8.2363-6.5796-8.2363
			C255.2926,102.2032,251.4586,105.9428,250.7484,110.4396z"/>
		<path fill="#9C9FA4" d="M278.0604,102.4874h0.0944c2.2249-2.4615,5.2069-3.7868,8.2838-3.7868
			c6.5321,0,9.751,5.6329,8.757,11.7864c-0.994,6.3428-5.8695,11.6918-12.5438,11.6918c-3.0295,0-5.6329-1.3256-7.0529-3.7396
			h-0.0947l-2.4615,15.6207h-3.7868l5.4909-34.7441h3.7868L278.0604,102.4874z M276.6401,110.2029
			c-0.7099,4.3548,1.2309,8.4729,5.9644,8.4729c4.8755,0,8.0469-3.9287,8.7568-8.4256c0.7101-4.4495-1.5147-8.0469-6.2008-8.0469
			C280.7582,102.2032,277.3028,106.0372,276.6401,110.2029z"/>
		<path fill="#9C9FA4" d="M301.8219,111.2443c-0.6154,4.1181,1.7988,7.4314,6.1061,7.4314c3.2189,0,5.5857-1.9407,7.4792-4.5914
			l2.9347,1.8461c-2.7456,3.9762-6.7215,6.2483-11.2657,6.2483c-6.6271,0-10.0825-5.0649-9.0883-11.4551
			c1.0412-6.5796,5.7748-12.0231,12.7329-12.0231c7.1476,0,9.9879,5.9167,8.5679,12.5438H301.8219z M315.7857,108.0256
			c0-3.2189-2.272-5.8223-5.5853-5.8223c-3.2664,0-6.7218,2.6034-7.7158,5.8223H315.7857z"/>
		<path fill="#9C9FA4" d="M328.1394,101.7299h0.0947c1.6094-1.7516,2.9822-3.0294,5.4437-3.0294
			c1.2779,0,2.2246,0.4258,3.2186,1.0415l-2.3668,3.4552c-0.6626-0.5207-1.0887-0.994-2.0827-0.994
			c-4.1653,0-5.2068,5.3488-5.68,8.2363l-1.7516,11.1237h-3.7866l3.5027-22.2475h3.7868L328.1394,101.7299z"/>
	</g>
	<polygon fill="#9C9FA4" points="244.4729,85.802 238.814,121.5062 242.6023,121.5062 248.2611,85.802 	"/>
</g>
</svg>
