<?xml version="1.0" encoding="utf-8"?>
<!-- Generator: Adobe Illustrator 17.1.0, SVG Export Plug-In . SVG Version: 6.00 Build 0)  -->
<!DOCTYPE svg PUBLIC "-//W3C//DTD SVG 1.1//EN" "http://www.w3.org/Graphics/SVG/1.1/DTD/svg11.dtd">
<svg version="1.1" id="Layer_1" xmlns="http://www.w3.org/2000/svg" xmlns:xlink="http://www.w3.org/1999/xlink" x="0px" y="0px"
	 width="769.3px" height="93.8032px" viewBox="0 0 769.3 93.8032" enable-background="new 0 0 769.3 93.8032" xml:space="preserve">
<g>
	<g>
		<path fill-rule="evenodd" clip-rule="evenodd" fill="#2D4E9E" d="M733.9327,57.4485
			c23.9267-11.7256,37.1054-25.0552,35.1826-36.0947C764.9961-1.8118,694.7139-5.5432,622.1739,7.322
			c-33.1963,5.8946-64.9473,14.7202-86.4317,23.5171c1.1377-0.063,1.9219-0.0332,1.9219-0.0332
			c9.3008,0.2734,8.7314,6.041,8.7314,6.041l0.0245,3.5225h-7.418v-2.3872c0-1.6953-2.0587-1.8086-2.0587-1.8086
			c-1.5956,0-1.9697,1.0581-1.9697,1.0581c-0.8662,1.6484,0.623,3.0752,0.623,3.0752c0.7774,0.8325,4.6162,2.6265,4.6162,2.6265
			c1.2481,0.4975,3.2823,1.7319,3.2823,1.7319c3.75,2.2588,3.413,6.5693,3.413,6.5693v2.834
			c-0.4472,7.0352-10.1504,6.8262-10.1504,6.8262c-10.125,0-9.9072-6.6338-9.9072-6.6338v-3.4912h7.9082v2.3877
			c0,2.0498,1.9434,2.1455,1.9434,2.1455c2.164,0.0615,2.3564-2.0176,2.3564-2.0176c0.2715-2.0215-1.9541-3.2842-1.9541-3.2842
			c-2.2041-1.1377-5.8896-3.125-5.8896-3.125c-1.8164-1.186-2.5381-2.2759-2.5381-2.2759
			c-1.3135-1.6337-1.2109-4.1806-1.2109-4.1806v-2.2285c0-3.0425,0.8017-3.9263,0.8017-3.9263
			c0.041-0.061,0.0713-0.1265,0.1211-0.189c-26.4893,12.2383-42.7275,26.4341-40.6611,38.1128
			c4.1728,23.6778,70.4424,26.7715,148.4092,14.7705c35.8945-5.5429,67.1416-15.7021,90.7949-26.2402c-0.1924,0-0.3584,0-0.5283,0
			c0,0-9.5567,0.7676-9.7881-6.9209v-14.918c0,0-1.17-8.2036,9.5234-8.2036c0,0,6.9795-0.2226,8.8213,3.9116
			c0,0,0.9111,1.1202,0.6572,5.6861h-7.4199v-2.355c0,0-0.0146-1.8887-1.9463-1.8887c0,0-2.0107,0.0801-2.0107,1.6651v15.4296
			c0,0-0.0938,2.0508,2.1797,2.0508c0,0,1.8584-0.0488,1.8584-2.2119V48.511h-2.0274v-4.1499h9.5322v8.7641
			c0,0,0,1.8262-0.7685,2.8985C735.0147,56.0237,734.2393,57.2092,733.9327,57.4485 M706.7627,59.9163h-8.7334l-7.8086-17.2066
			h-0.3359l0.4326,17.2066h-7.3213V31.8005h8.9942l7.5312,17.063h0.336l-0.5274-17.0796h7.4326V59.9163z M660.7666,52.9475
			c0,2.3877,2.2754,2.2598,2.2754,2.2598c2.1465,0,2.0362-2.3233,2.0362-2.3233V31.6882h7.8662v21.437
			c0,7.7364-9.791,7.6416-9.791,7.6416c-11.2686,0-10.461-8.0117-10.461-8.0117V31.6882h8.0508L660.7666,52.9475z M636.0381,40.3694
			v-2.3872c0-1.6953-2.0576-1.8086-2.0576-1.8086c-1.6016,0-1.9697,1.0581-1.9697,1.0581
			c-0.8584,1.6484,0.6396,3.0752,0.6396,3.0752c0.7686,0.8325,4.6143,2.6265,4.6143,2.6265c1.25,0.4975,3.2431,1.7319,3.2431,1.7319
			c3.7735,2.2588,3.4532,6.5693,3.4532,6.5693v2.834c-0.4541,7.0352-10.1494,6.8262-10.1494,6.8262
			c-10.1475,0-9.9248-6.6338-9.9248-6.6338v-3.4912h7.8925v2.3877c0,2.0498,1.9766,2.1455,1.9766,2.1455
			c2.1465,0.0615,2.3223-2.0176,2.3223-2.0176c0.3037-2.0215-1.9278-3.2842-1.9278-3.2842c-2.2051-1.1377-5.8886-3.125-5.8886-3.125
			c-1.8194-1.186-2.5469-2.2759-2.5469-2.2759c-1.3155-1.6337-1.2188-4.1806-1.2188-4.1806v-2.2285
			c0-3.0425,0.8164-3.9263,0.8164-3.9263c2.0918-3.939,9.4053-3.459,9.4053-3.459c9.291,0.2734,8.7305,6.041,8.7305,6.041
			l0.0156,3.5225H636.0381z M597.1866,31.7839l2.3818,15.3965h0.5684l2.4921-15.3965h12.2227l0.8096,28.1324h-7.3692
			l-0.1679-21.1944h-0.5059l-3.8438,21.1944h-7.7167l-3.876-21.1944h-0.5762l-0.0811,21.1944h-7.3291l0.6172-28.1324H597.1866z
			 M568.4649,59.885l-2.8926-21.8037h-0.6572l-2.8838,21.8037h-7.8819l4.8702-28.1313h12.4394l4.8701,28.1313H568.4649z"/>
	</g>
	<line fill="none" stroke="#808183" stroke-width="2" stroke-miterlimit="10" x1="433.586" y1="0.575" x2="433.586" y2="93.2278"/>
	<g>
		<g>
			<path fill="#2D4E9E" d="M135.3096,76.3772c-10.8799,0-16.2764-7.625-16.2764-17.1338V31.8313
				c0-9.5093,5.3965-17.1328,16.2764-17.1328h4.2827c10.8794,0,16.3623,7.6235,16.3623,17.1328v27.4121
				c0,9.5088-5.4829,17.1338-16.3623,17.1338H135.3096z M147.7305,31.8313c0-5.1401-2.3989-9.2524-8.1382-9.2524h-4.2827
				c-5.6538,0-8.0532,4.1123-8.0532,9.2524v27.4121c0,5.0537,2.3994,9.252,8.0532,9.252h4.2827c5.7393,0,8.1382-4.1983,8.1382-9.252
				V31.8313z"/>
			<path fill="#2D4E9E" d="M193.731,76.3772c-10.8789,0-16.2759-7.625-16.2759-17.1338V31.8313
				c0-9.5093,5.397-17.1328,16.2759-17.1328h6.5967c8.6528,0,14.0488,3.6831,14.0488,12.5923c0,2.3125-1.2002,4.1118-4.1118,4.1118
				c-2.9986,0-4.1123-1.7993-4.1123-4.1118c0-3.2549-2.313-4.7119-5.8247-4.7119h-6.5967c-5.6543,0-8.0518,4.1123-8.0518,9.2524
				v27.4121c0,5.0537,2.3975,9.252,8.0518,9.252h6.5967c3.5117,0,5.8247-1.4561,5.8247-4.7969c0-2.3135,1.1137-4.1123,4.1123-4.1123
				c2.9116,0,4.1118,1.7988,4.1118,4.1123c0,8.9082-5.396,12.6787-14.0488,12.6787H193.731z"/>
			<path fill="#2D4E9E" d="M238.876,75.5208c-2.9985,0-4.1123-1.7999-4.1123-4.1133V19.6667c0-2.3129,1.1138-4.1123,4.1123-4.1123
				h24.8418c2.228,0,3.9419,1.1138,3.9419,3.941c0,2.8266-1.7139,3.9404-3.9419,3.9404h-20.7295v17.2183h16.6187
				c2.227,0,3.9404,1.2001,3.9404,3.9414c0,2.8261-1.7134,3.9389-3.9404,3.9389h-16.6187v19.1045h20.7295
				c2.228,0,3.9419,1.1133,3.9419,3.9404c0,2.8272-1.7139,3.9415-3.9419,3.9415H238.876z"/>
			<path fill="#2D4E9E" d="M313.4903,58.8157h-18.5034l-4.7115,14.5635c-0.686,2.0566-2.3135,3.5107-4.8838,2.7412
				c-2.6557-0.8565-3.2548-2.9991-2.5698-5.1407l17.1333-53.2832c0.6851-2.0561,1.7134-2.998,4.1123-2.998h0.4287
				c2.3116,0,3.4253,0.9419,4.1109,2.998l17.1333,53.2832c0.6855,2.0557-0.0855,4.2842-2.5708,5.1407
				c-2.4839,0.7695-4.1968-0.6846-4.8828-2.7412L313.4903,58.8157z M305.5225,33.9719c-0.5991-1.8838-0.856-2.8266-1.2842-4.8818
				h-0.0859c-0.4282,2.0552-0.6846,2.998-1.2852,4.8818l-5.3965,16.877h13.6206L305.5225,33.9719z"/>
			<path fill="#2D4E9E" d="M351.5249,34.4871h-0.0864c0.1719,1.541,0.3438,3.5971,0.3438,5.9101v31.8667
				c0,2.2295-1.1993,4.1133-4.1119,4.1133c-2.998,0-4.1127-1.8838-4.1127-4.1133V18.8108c0-2.314,1.1147-4.1123,4.1127-4.1123
				c1.7134,0,2.9126,0.5132,4.1968,2.998l19.7881,38.8916h0.0864c-0.1718-1.542-0.3423-3.5976-0.3423-5.9101V18.8108
				c0-2.314,1.1124-4.1123,4.1119-4.1123c2.914,0,4.1123,1.7983,4.1123,4.1123v53.4531c0,2.2295-1.1983,4.1133-4.1123,4.1133
				c-1.7119,0-2.9995-0.5996-4.1983-2.998L351.5249,34.4871z"/>
		</g>
		<polygon fill="#2D4E9E" points="10.2246,20.8528 10.2349,61.7981 45.7237,41.5212 45.7124,0.575 		"/>
		<polygon fill="#2D4E9E" points="97.5581,65.134 62.0254,44.5476 62.0254,3.6077 97.5581,24.1936 		"/>
		<g>
			<defs>
				<polygon id="SVGID_1_" points="84.3721,25.886 48.8384,5.2991 13.3501,25.5803 13.3501,66.5198 48.896,87.1116 84.3824,66.8323 
									"/>
			</defs>
			<clipPath id="SVGID_2_">
				<use xlink:href="#SVGID_1_"  overflow="visible"/>
			</clipPath>
			<g clip-path="url(#SVGID_2_)">
				
					<rect x="-34.4406" y="10.5134" transform="matrix(0.7071 -0.7071 0.7071 0.7071 -4.7771 20.7892)" fill="#D5652B" width="114.2924" height="11.295"/>
				
					<rect x="-26.4545" y="18.5009" transform="matrix(0.7071 -0.7071 0.7071 0.7071 -8.0849 28.7756)" fill="#C33F92" width="114.2948" height="11.2927"/>
				
					<rect x="-18.4716" y="26.4881" transform="matrix(0.7071 -0.7071 0.7071 0.7071 -11.3927 36.7583)" fill="#4CA9E3" width="114.2948" height="11.2871"/>
				
					<rect x="-10.4879" y="34.4682" transform="matrix(0.7071 -0.7071 0.7071 0.7071 -14.699 44.7413)" fill="#2D4E9E" width="114.2937" height="11.2923"/>
				
					<rect x="-2.5021" y="42.4524" transform="matrix(0.7071 -0.7071 0.7071 0.7071 -18.0071 52.7275)" fill="#D5652B" width="114.2903" height="11.295"/>
				
					<rect x="5.4849" y="50.4388" transform="matrix(0.7071 -0.7071 0.7071 0.7071 -21.3146 60.714)" fill="#C33F92" width="114.2909" height="11.2938"/>
				
					<rect x="13.4689" y="58.4248" transform="matrix(0.7071 -0.7071 0.7071 0.7071 -24.6207 68.6982)" fill="#5EA2DA" width="114.2924" height="11.2878"/>
				
					<rect x="21.4527" y="66.4051" transform="matrix(0.7071 -0.7071 0.7071 0.7071 -27.9283 76.6838)" fill="#304790" width="114.2924" height="11.2968"/>
				
					<rect x="29.4383" y="74.3939" transform="matrix(0.7071 -0.7071 0.7071 0.7071 -31.236 84.6696)" fill="#CE632D" width="114.2945" height="11.2909"/>
				
					<rect x="37.4227" y="82.379" transform="matrix(0.7071 -0.7071 0.7071 0.7071 -34.5434 92.652)" fill="#C03288" width="114.2909" height="11.2885"/>
			</g>
		</g>
		<polygon fill="#24B2EE" points="35.5342,90.4446 0,69.8586 0,28.9167 35.5342,49.5032 		"/>
		<g opacity="0.5">
			<defs>
				<polygon id="SVGID_3_" opacity="0.5" points="48.8838,46.1643 48.896,87.1116 84.3824,66.8323 84.3721,25.886 				"/>
			</defs>
			<use xlink:href="#SVGID_3_"  overflow="visible" fill="#252324"/>
			<clipPath id="SVGID_4_">
				<use xlink:href="#SVGID_3_"  overflow="visible"/>
			</clipPath>
		</g>
		<polygon fill="#4CA9E3" points="52.5005,52.2825 52.5113,93.2278 88,72.9524 87.9893,32.0042 		"/>
		<g opacity="0.3">
			<defs>
				<polygon id="SVGID_5_" opacity="0.3" points="48.8838,46.1643 13.3501,25.5774 48.8384,5.2991 84.3721,25.886 				"/>
			</defs>
			<use xlink:href="#SVGID_5_"  overflow="visible" fill="#FFFFFF"/>
			<clipPath id="SVGID_6_">
				<use xlink:href="#SVGID_5_"  overflow="visible"/>
			</clipPath>
		</g>
	</g>
</g>
</svg>
