<?xml version="1.0" encoding="iso-8859-1"?>
<!-- Generator: Adobe Illustrator 16.0.0, SVG Export Plug-In . SVG Version: 6.00 Build 0)  -->
<!DOCTYPE svg PUBLIC "-//W3C//DTD SVG 1.1//EN" "http://www.w3.org/Graphics/SVG/1.1/DTD/svg11.dtd">
<svg version="1.1" id="Layer_1" xmlns="http://www.w3.org/2000/svg" xmlns:xlink="http://www.w3.org/1999/xlink" x="0px" y="0px"
	 width="400px" height="545.092px" viewBox="0 0 400 545.092" style="enable-background:new 0 0 400 545.092;" xml:space="preserve"
	>
<g>
	<rect x="192.5" y="98.092" style="fill:#CCEA7A;" width="2" height="20"/>
	<path style="fill:#CCEA7A;" d="M196.378,97.826c0,1.547-1.255,2.802-2.803,2.802c-1.546,0-2.798-1.254-2.798-2.802
		c0-1.548,1.251-2.799,2.798-2.799C195.123,95.027,196.378,96.278,196.378,97.826z"/>
	<path style="fill:#5F8C25;" d="M214.5,172.193c0,11.542-9.356,20.898-20.898,20.898h-0.203c-11.542,0-20.898-9.356-20.898-20.898
		V132.99c0-11.542,9.356-20.898,20.898-20.898h0.203c11.542,0,20.898,9.356,20.898,20.898V172.193"/>
	<rect x="168.5" y="128.092" style="fill:#6BA02E;" width="50" height="4"/>
	<path style="fill:#54821F;" d="M188.962,139.591c-0.91,1.161-1.461,2.631-1.461,4.201v12.801c3.231-0.331,6.514-0.501,9.833-0.501
		h0.328c0.95,0,1.896,0.014,2.839,0.042v-12.341c0-0.545-0.057-1.078-0.165-1.59L188.962,139.591"/>
	<path style="fill:#54821F;" d="M206.603,143.641c-0.066,0.373-0.103,0.754-0.103,1.138v11.717c2.359,0.216,4.689,0.517,7,0.901
		v-12.173L206.603,143.641"/>
	<path style="fill:#54821F;" d="M176.59,138.092h-0.299c-1.749,0-3.791,3.193-3.791,6.687v14.58c1.976-0.531,3.976-1,6-1.406
		v-13.173C178.5,141.285,178.339,138.092,176.59,138.092"/>
	<path style="fill:#6BA02E;" d="M294.5,304.052c0,52.917-43.891,95.04-96.839,95.04h-0.328c-52.948,0-95.833-42.123-95.833-95.04
		v-51.849c0-52.918,42.885-96.111,95.833-96.111h0.328c52.949,0,96.839,43.193,96.839,96.111V304.052"/>
	<path style="fill:#64992A;" d="M197.091,157.133c-62.709,13.243-65.016,104.945-64.228,133.017l63.384-86.365l70.23,94.362
		l2.488-0.003C277.201,162.039,197.091,157.133,197.091,157.133"/>
	<polyline style="fill:#9CC93A;" points="308.5,549.092 92.5,549.092 92.5,301.157 126.709,301.915 196.258,207.149 265.713,300.47 
		308.5,299.349 308.5,549.092 	"/>
	<polyline style="fill:#B2D643;" points="308.5,549.092 308.5,547.092 94.5,547.092 94.5,303.202 127.706,303.938 196.27,210.514 
		264.728,302.496 306.5,301.401 306.5,549.092 308.5,549.092 308.5,547.092 308.5,549.092 310.5,549.092 310.5,297.296 
		266.699,298.443 196.247,203.785 125.713,299.893 90.5,299.112 90.5,551.092 310.5,551.092 310.5,549.092 308.5,549.092 	"/>
	<polyline style="fill:#BEED6B;" points="289.5,426.092 106.5,426.092 106.5,421.092 289.5,421.092 289.5,426.092 	"/>
	<polyline style="fill:#90C42E;" points="273.5,426.092 120.5,426.092 120.5,436.092 273.5,436.092 273.5,426.092 	"/>
	<polyline style="fill:#5D9323;" points="120.5,299.092 106.5,299.092 106.5,299.467 120.5,299.777 120.5,299.092 	"/>
	<path style="fill:#88B92C;" d="M120.5,436.092h-10v109h-8h18V436.092 M106.5,303.468v13.257v104.367h4h10V303.778L106.5,303.468"/>
	<polyline style="fill:#9BC533;" points="106.5,299.467 106.5,301.092 106.5,303.468 120.5,303.778 120.5,299.777 106.5,299.467 	
		"/>
	<polyline style="fill:#A6DA52;" points="120.5,421.092 110.5,421.092 110.5,426.092 120.5,426.092 120.5,421.092 	"/>
	<polyline style="fill:#7DB523;" points="120.5,426.092 110.5,426.092 110.5,436.092 120.5,436.092 120.5,426.092 	"/>
	<polyline style="fill:#5D9323;" points="280.108,298.092 273.5,298.092 273.5,298.265 280.108,298.092 	"/>
	<path style="fill:#88B92C;" d="M282.5,436.092h-9v109h18h-9V436.092 M289.5,301.847l-16,0.42v118.825h9h7v-117V301.847"/>
	<polyline style="fill:#9BC533;" points="289.5,298.092 280.108,298.092 273.5,298.265 273.5,302.267 289.5,301.847 289.5,298.092 	
		"/>
	<polyline style="fill:#A6DA52;" points="282.5,421.092 273.5,421.092 273.5,426.092 282.5,426.092 282.5,421.092 	"/>
	<polyline style="fill:#7DB523;" points="282.5,426.092 273.5,426.092 273.5,436.092 282.5,436.092 282.5,426.092 	"/>
	<polyline style="fill:#77AA26;" points="46.332,128.373 63.474,26.863 63.846,20.948 69.672,-1.582 75.394,21.054 75.699,26.918 
		93.48,129.534 90.679,157.092 48.666,157.092 46.332,128.373 	"/>
	<rect x="61.5" y="25.092" style="fill:#8BBA2F;" width="16" height="3"/>
	<path style="fill:#D1E3AC;" d="M63.774,22.092H63.5v3h0.085L63.774,22.092 M75.5,22.092h-0.052L75.5,23.1V22.092"/>
	<polyline style="fill:#61981A;" points="75.448,22.092 63.774,22.092 63.585,25.092 75.5,25.092 75.5,23.1 75.448,22.092 	"/>
	<polyline style="fill:#8BBA2F;" points="54.423,138.485 66.404,28.092 72.94,28.092 84.454,137.596 54.423,138.485 	"/>
	<polyline style="fill:#B7E25A;" points="45,112.726 36.5,144.003 36.5,269.092 46.757,269.092 53.5,269.092 53.5,144.003 
		45,112.726 	"/>
	<polyline style="fill:#95BF3A;" points="92,112.726 83.5,144.003 83.5,269.092 93.44,269.092 100.5,269.092 100.5,144.003 
		92,112.726 	"/>
	<polyline style="fill:#9CD13F;" points="68.5,112.726 53.5,144.003 53.5,269.092 69.206,269.092 83.5,269.092 83.5,144.003 
		68.5,112.726 	"/>
	<path style="fill:#80B82B;" d="M69.206,172.944c-3.352,0-6.069-2.716-6.069-6.068c0-3.351,2.717-6.068,6.069-6.068
		s6.068,2.718,6.068,6.068C75.274,170.228,72.558,172.944,69.206,172.944 M69,147.736c0,0-7.5,8.406-7.5,21.303v82.602
		c0,3.557,1.384,6.679,3.481,8.451H66.5h3h3.516c1.599-1.351,2.785-3.486,3.258-6H62.671l-0.468-52.635l6.915-14.293l7.382,14.333
		v-32.457C76.5,156.142,69,147.736,69,147.736"/>
	<path style="fill:#96C73E;" d="M42.598,170.145c-1.549,0-2.802-1.881-2.802-4.2c0-2.322,1.253-4.203,2.802-4.203
		c1.546,0,2.799,1.881,2.799,4.203C45.396,168.264,44.144,170.145,42.598,170.145 M41,146.804c0,0-4.5,8.403-4.5,21.302v52.571
		l2-2.685v28.1v-28.1l4,5.369v6.069l3,3.08v-64.405C45.5,155.207,41,146.804,41,146.804"/>
	<path style="fill:#7AA828;" d="M96.748,170.145c-1.547,0-2.802-1.881-2.802-4.2c0-2.322,1.254-4.203,2.802-4.203
		c1.546,0,2.8,1.881,2.8,4.203C99.548,168.264,98.293,170.145,96.748,170.145 M96,147.736c0,0-4.5,8.406-4.5,21.303v61.418l1-1.027
		v-6.069l4-5.369v28.1v-28.1l4,5.369v-54.322C100.5,156.142,96,147.736,96,147.736"/>
	<polyline style="fill:#8EC134;" points="87.5,297.092 45.5,297.092 45.5,260.092 87.5,260.092 87.5,297.092 	"/>
	<polyline style="fill:#CCEA7A;" points="87.5,254.17 87.5,234.564 92.5,229.431 92.5,223.361 96.5,217.992 96.5,255.104 
		87.5,254.17 	"/>
	<polyline style="fill:#9CD13F;" points="105.5,254.17 105.5,234.564 100.5,229.431 100.5,223.361 96.5,217.992 96.5,255.104 
		105.5,254.17 	"/>
	<polyline style="fill:#9CD13F;" points="106.5,252.092 87.5,252.092 87.5,304.092 106.5,304.092 106.5,252.092 	"/>
	<path style="fill:#80B82B;" d="M97.912,260.092h-2.822c-1.479,1.661-3.589,4.726-3.589,8.686v30.314h10v-30.314
		C101.5,264.817,99.391,261.753,97.912,260.092"/>
	<rect x="86.5" y="249.092" style="fill:#CFEF78;" width="23" height="3"/>
	<path style="fill:#90C936;" d="M106.5,252.092h-1h-9h-9v8h7.589c0.797-0.896,1.411-1.384,1.411-1.384s0.614,0.488,1.411,1.384
		h8.589V252.092"/>
	<path style="fill:#76B125;" d="M96.5,258.708c0,0-0.614,0.488-1.411,1.384h2.822C97.114,259.196,96.5,258.708,96.5,258.708"/>
	<polyline style="fill:#BCE268;" points="96.5,246.092 87.5,246.092 87.5,249.092 96.5,249.092 96.5,246.092 	"/>
	<polyline style="fill:#90C936;" points="105.5,246.092 96.5,246.092 96.5,249.092 105.5,249.092 105.5,246.092 	"/>
	<polyline style="fill:#CCEA7A;" points="30.5,254.17 30.5,234.564 34.5,229.431 34.5,223.361 38.5,217.992 38.5,255.104 
		30.5,254.17 	"/>
	<polyline style="fill:#9CD13F;" points="47.5,254.17 47.5,234.564 42.5,229.431 42.5,223.361 38.5,217.992 38.5,255.104 
		47.5,254.17 	"/>
	<polyline style="fill:#9CD13F;" points="48.5,252.092 29.5,252.092 29.5,304.092 48.5,304.092 48.5,252.092 	"/>
	<path style="fill:#80B82B;" d="M39.912,260.092h-2.822c-1.479,1.661-3.589,4.726-3.589,8.686v30.314h10v-30.314
		C43.5,264.817,41.391,261.753,39.912,260.092"/>
	<rect x="28.5" y="249.092" style="fill:#CFEF78;" width="22" height="3"/>
	<polyline style="fill:#9CD13F;" points="106.5,425.092 29.5,425.092 29.5,301.092 106.5,301.092 106.5,425.092 	"/>
	<polyline style="fill:#B3E051;" points="106.5,425.092 87.5,425.092 87.5,301.092 106.5,301.092 106.5,425.092 	"/>
	<polyline style="fill:#B3E051;" points="47.5,425.092 29.5,425.092 29.5,301.092 47.5,301.092 47.5,425.092 	"/>
	<path style="fill:#B3E051;" d="M57.184,298.092h-1.175c-1.424,0-2.509,1.346-2.509,2.902v0.098h6v-0.098
		C59.5,299.438,58.608,298.092,57.184,298.092"/>
	<path style="fill:#6EB814;" d="M53.5,312.225v0.866c0,1.556,1.085,3.001,2.509,3.001h1.175c1.424,0,2.316-1.445,2.316-3.001v-0.356
		L53.5,312.225"/>
	<path style="fill:#B3E051;" d="M78.273,298.092h-0.29c-1.668,0-3.483,1.346-3.483,2.902v0.098h7v-0.098
		C81.5,299.438,79.942,298.092,78.273,298.092"/>
	<path style="fill:#6EB814;" d="M74.714,314.026c0.527,1.154,1.945,2.065,3.27,2.065h0.29c1.111,0,2.174-0.642,2.76-1.529
		L74.714,314.026"/>
	<path style="fill:#B3E051;" d="M68.721,298.092h-1.45c-1.348,0-2.771,1.346-2.771,2.902v0.098h7v-0.098
		C71.5,299.438,70.069,298.092,68.721,298.092"/>
	<path style="fill:#6EB814;" d="M64.501,313.159c0.041,1.529,1.441,2.933,2.77,2.933h1.45c1.156,0,2.373-1.062,2.697-2.346
		L64.501,313.159"/>
	<rect x="24.5" y="297.092" style="fill:#CFEF78;" width="86" height="4"/>
	<polyline style="fill:#A5D942;" points="106.5,301.092 87.5,301.092 87.5,315.111 106.5,316.725 106.5,301.092 	"/>
	<path style="fill:#8FCB33;" d="M83.5,301.092h-2v11.999c0,0.52-0.174,1.026-0.467,1.472l2.467,0.209V301.092"/>
	<path style="fill:#8FCB33;" d="M74.5,301.092h-3v11.999c0,0.222-0.029,0.441-0.083,0.655l3.297,0.28
		c-0.137-0.3-0.214-0.615-0.214-0.936V301.092"/>
	<path style="fill:#65B210;" d="M81.5,301.092h-7v11.999c0,0.32,0.077,0.636,0.214,0.936l6.319,0.536
		c0.293-0.445,0.467-0.952,0.467-1.472V301.092"/>
	<path style="fill:#8FCB33;" d="M64.5,301.092h-5v11.643l5.001,0.425c-0.001-0.022-0.001-0.046-0.001-0.068V301.092"/>
	<polyline style="fill:#8FCB33;" points="53.5,301.092 52.5,301.092 52.5,312.141 53.5,312.225 53.5,301.092 	"/>
	<polyline style="fill:#A5D942;" points="47.5,301.092 29.5,301.092 29.5,310.188 47.5,311.716 47.5,301.092 	"/>
	<polyline style="fill:#65B210;" points="59.5,301.092 53.5,301.092 53.5,312.225 59.5,312.734 59.5,301.092 	"/>
	<path style="fill:#65B210;" d="M71.5,301.092h-7v11.999c0,0.022,0,0.046,0.001,0.068l6.916,0.587
		c0.054-0.214,0.083-0.434,0.083-0.655V301.092"/>
	<polyline style="fill:#8EC932;" points="47.5,311.716 47.5,421.092 52.5,421.092 52.5,312.141 47.5,311.716 	"/>
	<polyline style="fill:#82C328;" points="52.5,301.092 48.5,301.092 47.5,301.092 47.5,311.716 52.5,312.141 52.5,301.092 	"/>
	<polyline style="fill:#8EC932;" points="83.5,314.771 83.5,421.092 87.5,421.092 87.5,315.111 83.5,314.771 	"/>
	<polyline style="fill:#82C328;" points="87.5,301.092 87.5,301.092 83.5,301.092 83.5,314.771 87.5,315.111 87.5,301.092 	"/>
	<path style="fill:#80B82B;" d="M68,333.529c0,0-9.5,8.403-9.5,21.301v66.262h19V354.83C77.5,341.933,68,333.529,68,333.529"/>
	<path style="fill:#9BCB3E;" d="M97.521,334.092h-0.684c-1.389,0-3.336,0.734-3.336,2.416v84.584h7v-84.584
		C100.5,334.826,98.909,334.092,97.521,334.092"/>
	<path style="fill:#9BCB3E;" d="M38.67,335.092h-2.145c-1.157,0-2.025,0.943-2.025,2.335v83.665h6v-83.665
		C40.5,336.035,39.827,335.092,38.67,335.092"/>
	<polyline style="fill:#9CD13F;" points="110.5,545.092 24.5,545.092 24.5,421.092 110.5,421.092 110.5,545.092 	"/>
	<rect x="20.5" y="417.092" style="fill:#CFEF78;" width="95" height="4"/>
	<polyline style="fill:#8FCB33;" points="87.5,421.092 87.5,421.092 77.5,421.092 58.5,421.092 52.5,421.092 47.5,421.092 
		45.5,421.092 45.5,432.221 87.5,435.413 87.5,421.092 	"/>
	<polyline style="fill:#B3E051;" points="110.5,545.092 91.5,545.092 91.5,421.092 110.5,421.092 110.5,545.092 	"/>
	<polyline style="fill:#8EC932;" points="87.5,435.413 87.5,545.092 91.5,545.092 91.5,435.717 87.5,435.413 	"/>
	<polyline style="fill:#82C328;" points="91.5,421.092 87.5,421.092 87.5,435.413 91.5,435.717 91.5,421.092 	"/>
	<polyline style="fill:#A3D840;" points="91.5,421.092 91.5,421.092 91.5,435.717 91.5,545.092 91.5,421.092 	"/>
	<path style="fill:#A3D244;" d="M100,453.967c-1.546,0-2.5,1.253-2.5,2.801v88.324h5v-88.324
		C102.5,455.22,101.546,453.967,100,453.967"/>
	<polyline style="fill:#B3E051;" points="24.5,545.092 40.5,545.092 40.5,421.092 24.5,421.092 24.5,545.092 	"/>
	<polyline style="fill:#8EC932;" points="40.5,431.84 40.5,545.092 45.5,545.092 45.5,432.221 40.5,431.84 	"/>
	<polyline style="fill:#82C328;" points="45.5,421.092 40.5,421.092 40.5,431.84 45.5,432.221 45.5,421.092 	"/>
	<path style="fill:#A3D244;" d="M33.5,453.967c-1.546,0-3,1.253-3,2.801v88.324h6v-88.324C36.5,455.22,35.046,453.967,33.5,453.967"
		/>
	<path style="fill:#80B82B;" d="M67.5,443.442c0,0-9,6.562-9,16.635v50.015h18v-50.015C76.5,450.004,67.5,443.442,67.5,443.442"/>
	<rect x="66.5" y="345.092" style="fill:#CFEF78;" width="3" height="72"/>
	<rect x="61.5" y="344.092" style="fill:#CFEF78;" width="13" height="1"/>
	<path style="fill:#90C936;" d="M48.5,252.092h-1h-9h-8h-1v8h7.589c0.797-0.896,1.411-1.384,1.411-1.384s0.614,0.488,1.411,1.384
		H48.5V252.092"/>
	<path style="fill:#76B125;" d="M38.5,258.708c0,0-0.614,0.488-1.411,1.384h2.822C39.114,259.196,38.5,258.708,38.5,258.708"/>
	<polyline style="fill:#BCE268;" points="38.5,246.092 30.5,246.092 30.5,249.092 38.5,249.092 38.5,246.092 	"/>
	<polyline style="fill:#90C936;" points="47.5,246.092 38.5,246.092 38.5,249.092 47.5,249.092 47.5,246.092 	"/>
	<polyline style="fill:#81B82C;" points="53.5,260.092 53.5,260.092 48.5,260.092 48.5,297.092 53.5,297.092 53.5,279.092 
		48.5,279.092 48.5,275.092 53.5,275.092 53.5,260.092 	"/>
	<polyline style="fill:#81B82C;" points="87.5,260.092 83.5,260.092 82.5,260.092 82.5,275.092 87.5,275.092 87.5,260.092 	"/>
	<polyline style="fill:#81B82C;" points="87.5,279.092 82.5,279.092 82.5,297.092 87.5,297.092 87.5,279.092 	"/>
	<polyline style="fill:#B3E051;" points="59.5,297.092 55.5,297.092 55.5,260.092 59.5,260.092 59.5,297.092 	"/>
	<polyline style="fill:#B3E051;" points="69.5,297.092 66.5,297.092 66.5,260.092 69.5,260.092 69.5,297.092 	"/>
	<polyline style="fill:#B3E051;" points="80.5,297.092 76.5,297.092 76.5,260.092 80.5,260.092 80.5,297.092 	"/>
	<rect x="48.5" y="255.092" style="fill:#D0F272;" width="39" height="5"/>
	<path style="fill:#97CA30;" d="M55.5,275.092h-2v4h2V275.092 M66.5,275.092h-7v4h7V275.092 M76.5,275.092h-7v4h7V275.092
		 M82.5,275.092h-2v4h2V275.092"/>
	<polyline style="fill:#8BC329;" points="53.5,275.092 48.5,275.092 48.5,279.092 53.5,279.092 53.5,275.092 	"/>
	<polyline style="fill:#8BC329;" points="87.5,275.092 82.5,275.092 82.5,279.092 87.5,279.092 87.5,275.092 	"/>
	<polyline style="fill:#B9E54B;" points="59.5,275.092 55.5,275.092 55.5,279.092 59.5,279.092 59.5,275.092 	"/>
	<polyline style="fill:#B9E54B;" points="69.5,275.092 66.5,275.092 66.5,279.092 69.5,279.092 69.5,275.092 	"/>
	<polyline style="fill:#B9E54B;" points="80.5,275.092 76.5,275.092 76.5,279.092 80.5,279.092 80.5,275.092 	"/>
	<path style="fill:#68A11D;" d="M69.206,160.808c-3.352,0-6.069,2.718-6.069,6.068c0,3.352,2.717,6.068,6.069,6.068
		s6.068-2.716,6.068-6.068C75.274,163.525,72.558,160.808,69.206,160.808"/>
	<path style="fill:#7FB72A;" d="M69.206,131.166c-3.546,0-6.419,2.874-6.419,6.417c0,3.546,2.874,6.421,6.419,6.421
		c3.545,0,6.418-2.875,6.418-6.421C75.624,134.039,72.75,131.166,69.206,131.166"/>
	<path style="fill:#95C63D;" d="M44.465,132.801c-1.547,0-2.802,1.88-2.802,4.201c0,2.319,1.254,4.2,2.802,4.2
		c1.546,0,2.799-1.881,2.799-4.2C47.264,134.681,46.011,132.801,44.465,132.801"/>
	<path style="fill:#79A727;" d="M93.946,132.801c-1.545,0-2.8,1.88-2.8,4.201c0,2.319,1.255,4.2,2.8,4.2
		c1.549,0,2.802-1.881,2.802-4.2C96.748,134.681,95.495,132.801,93.946,132.801"/>
	<path style="fill:#7AAE2A;" d="M42.598,161.742c-1.549,0-2.802,1.881-2.802,4.203c0,2.319,1.253,4.2,2.802,4.2
		c1.546,0,2.799-1.881,2.799-4.2C45.396,163.623,44.144,161.742,42.598,161.742"/>
	<path style="fill:#63931B;" d="M96.748,161.742c-1.547,0-2.802,1.881-2.802,4.203c0,2.319,1.254,4.2,2.802,4.2
		c1.546,0,2.8-1.881,2.8-4.2C99.548,163.623,98.293,161.742,96.748,161.742"/>
	<path style="fill:#7FB72A;" d="M76.5,201.496v50.145c0,0.846-0.078,1.667-0.226,2.451H76.5V201.496"/>
	<path style="fill:#68A11D;" d="M69.119,187.163l-6.915,14.293l0.468,52.635h13.603c0.148-0.784,0.226-1.605,0.226-2.451v-50.145
		L69.119,187.163"/>
	<polygon style="fill:#CCEA7A;" points="91.559,112.357 84.606,139.76 69.22,109.439 54.427,137.972 47.784,112.35 44.879,113.103 
		53.487,146.302 69.191,116.013 85.549,148.247 94.467,113.095 	"/>
	<rect x="67.5" y="97.092" style="fill:#CCEA7A;" width="3" height="20"/>
	<circle style="fill:#CCEA7A;" cx="69.439" cy="96.622" r="2.8"/>
	<rect x="90.5" y="95.092" style="fill:#CCEA7A;" width="3" height="21"/>
	<circle style="fill:#CCEA7A;" cx="91.78" cy="94.755" r="2.8"/>
	<rect x="44.5" y="95.092" style="fill:#CCEA7A;" width="3" height="21"/>
	<circle style="fill:#CCEA7A;" cx="46.031" cy="94.755" r="2.801"/>
	<polygon style="fill:#B7E25A;" points="71.072,254.092 67.338,254.092 69.206,188.738 	"/>
	<rect x="54.5" y="508.092" style="fill:#D0F272;" width="26" height="8"/>
	<polyline style="fill:#77AA26;" points="304.946,129.645 322.086,27.772 322.459,21.676 328.286,-0.949 334.009,21.642 
		334.313,27.484 352.093,130.818 349.293,159.092 307.278,159.092 304.946,129.645 	"/>
	<rect x="319.5" y="26.092" style="fill:#8BBA2F;" width="15" height="4"/>
	<path style="fill:#D1E3AC;" d="M322.373,23.092H321.5v3h0.688L322.373,23.092 M334.5,23.092h-0.416l0.156,3h0.26V23.092"/>
	<polyline style="fill:#61981A;" points="334.084,23.092 322.373,23.092 322.189,26.092 334.241,26.092 334.084,23.092 	"/>
	<polyline style="fill:#8BBA2F;" points="313.038,139.757 325.019,30.092 331.552,30.092 343.069,139.232 313.038,139.757 	"/>
	<polyline style="fill:#B7E25A;" points="305,113.27 296.5,144.546 296.5,270.092 305.373,270.092 313.5,270.092 313.5,144.546 
		305,113.27 	"/>
	<polyline style="fill:#95BF3A;" points="351.5,113.27 343.5,144.546 343.5,270.092 352.054,270.092 359.5,270.092 359.5,144.546 
		351.5,113.27 	"/>
	<polyline style="fill:#9CD13F;" points="327.5,113.27 311.5,144.546 311.5,270.092 327.82,270.092 343.5,270.092 343.5,144.546 
		327.5,113.27 	"/>
	<path style="fill:#80B82B;" d="M327.82,173.488c-3.353,0-6.068-2.717-6.068-6.068c0-3.352,2.716-6.07,6.068-6.07
		c3.351,0,6.069,2.718,6.069,6.07C333.889,170.771,331.17,173.488,327.82,173.488 M327,148.279c0,0-7.5,8.406-7.5,21.304v82.6
		c0,3.217,1.134,6.079,2.902,7.908h2.098h5h2.097c1.41-1.458,2.417-3.573,2.768-6h-13.08l-0.469-52.363l6.61-14.158l7.074,14.469
		v-32.456C334.5,156.685,327,148.279,327,148.279"/>
	<path style="fill:#96C73E;" d="M301.21,170.687c-1.547,0-2.801-1.88-2.801-4.201s1.254-4.202,2.801-4.202s2.801,1.881,2.801,4.202
		S302.757,170.687,301.21,170.687 M301,147.348c0,0-4.5,8.402-4.5,21.301v51.677l1-1.79v27.556v-27.556l4,5.368v6.068l4,4.107
		v-65.432C305.5,155.75,301,147.348,301,147.348"/>
	<path style="fill:#7AA828;" d="M355.362,170.687c-1.548,0-2.802-1.88-2.802-4.201s1.254-4.202,2.802-4.202
		c1.546,0,2.8,1.881,2.8,4.202S356.908,170.687,355.362,170.687 M355.5,148.279c0,0-4,8.406-4,21.304v60.389v-6.068l5-5.368v27.556
		v-27.556l3,5.368v-54.321C359.5,156.685,355.5,148.279,355.5,148.279"/>
	<polyline style="fill:#8EC134;" points="347.5,297.092 305.5,297.092 305.5,260.092 347.5,260.092 347.5,297.092 	"/>
	<polyline style="fill:#CCEA7A;" points="347.5,254.714 347.5,235.107 351.5,229.973 351.5,223.904 356.5,218.536 356.5,255.647 
		347.5,254.714 	"/>
	<polyline style="fill:#9CD13F;" points="363.5,254.714 363.5,235.107 359.5,229.973 359.5,223.904 356.5,218.536 356.5,255.647 
		363.5,254.714 	"/>
	<polyline style="fill:#9CD13F;" points="363.5,254.092 346.5,254.092 346.5,304.092 363.5,304.092 363.5,254.092 	"/>
	<path style="fill:#80B82B;" d="M356.943,261.092h-2.885c-1.146,1.735-2.558,4.607-2.558,8.228v29.772h8v-29.772
		C359.5,265.699,358.089,262.827,356.943,261.092"/>
	<rect x="343.5" y="250.092" style="fill:#CFEF78;" width="24" height="4"/>
	<path style="fill:#90C936;" d="M363.5,254.092L363.5,254.092h-7h-9h-1v6v1h7.558c0.783-1.186,1.442-1.841,1.442-1.841
		s0.659,0.655,1.442,1.841h6.558V254.092"/>
	<path style="fill:#76B125;" d="M355.5,259.251c0,0-0.659,0.655-1.442,1.841h2.885C356.16,259.906,355.5,259.251,355.5,259.251"/>
	<polyline style="fill:#BCE268;" points="356.5,246.092 347.5,246.092 347.5,250.092 356.5,250.092 356.5,246.092 	"/>
	<polyline style="fill:#90C936;" points="363.5,246.092 356.5,246.092 356.5,250.092 363.5,250.092 363.5,246.092 	"/>
	<polyline style="fill:#CCEA7A;" points="289.5,254.714 289.5,235.107 294.5,229.973 294.5,223.904 297.5,218.536 297.5,255.647 
		289.5,254.714 	"/>
	<polyline style="fill:#9CD13F;" points="306.5,254.714 306.5,235.107 301.5,229.973 301.5,223.904 297.5,218.536 297.5,255.647 
		306.5,254.714 	"/>
	<polyline style="fill:#9CD13F;" points="306.5,254.092 289.5,254.092 289.5,304.092 306.5,304.092 306.5,254.092 	"/>
	<path style="fill:#80B82B;" d="M299.262,261.092h-2.523c-1.003,1.735-2.238,4.607-2.238,8.228v29.772h7v-29.772
		C301.5,265.699,300.265,262.827,299.262,261.092"/>
	<rect x="285.5" y="250.092" style="fill:#CFEF78;" width="25" height="4"/>
	<polyline style="fill:#9CD13F;" points="363.5,425.092 289.5,425.092 289.5,301.092 363.5,301.092 363.5,425.092 	"/>
	<polyline style="fill:#B3E051;" points="363.5,425.092 347.5,425.092 347.5,301.092 363.5,301.092 363.5,425.092 	"/>
	<polyline style="fill:#B3E051;" points="306.5,425.092 289.5,425.092 289.5,301.092 306.5,301.092 306.5,425.092 	"/>
	<path style="fill:#B3E051;" d="M315.132,299.092h-1.073c-1.224,0-2.175,0.875-2.466,2h6.751
		C317.862,299.967,316.356,299.092,315.132,299.092"/>
	<path style="fill:#6EB814;" d="M311.5,312.674v1.735c0,1.453,1.08,2.683,2.559,2.683h1.073c1.479,0,3.368-1.229,3.368-2.683v-1.117
		L311.5,312.674"/>
	<path style="fill:#B3E051;" d="M337.48,299.092h-0.784c-1.127,0-1.893,0.875-2.123,2h4.869
		C339.252,299.967,338.606,299.092,337.48,299.092"/>
	<path style="fill:#6EB814;" d="M334.512,314.706c0.105,1.32,0.916,2.386,2.184,2.386h0.784c1.124,0,1.77-0.839,1.961-1.95
		L334.512,314.706"/>
	<path style="fill:#B3E051;" d="M325.3,299.092h-0.7c-1.147,0-2.519,0.875-2.957,2h6.707
		C327.887,299.967,326.445,299.092,325.3,299.092"/>
	<path style="fill:#6EB814;" d="M321.5,313.557v0.853c0,1.453,1.714,2.683,3.1,2.683h0.7c1.383,0,3.2-1.229,3.2-2.683v-0.234
		L321.5,313.557"/>
	<rect x="282.5" y="297.092" style="fill:#CFEF78;" width="85" height="4"/>
	<path style="fill:#8FCB33;" d="M342.5,301.092h-3.059c0.039,0.234,0.059,0.479,0.059,0.729v12.588c0,0.253-0.02,0.498-0.06,0.732
		l3.06,0.271V301.092"/>
	<polyline style="fill:#A5D942;" points="363.5,301.092 347.5,301.092 347.5,315.854 363.5,317.267 363.5,301.092 	"/>
	<path style="fill:#8FCB33;" d="M334.573,301.092h-6.223c0.097,0.234,0.15,0.479,0.15,0.729v12.354l6.012,0.531
		c-0.008-0.098-0.012-0.196-0.012-0.297v-12.588C334.5,301.571,334.525,301.326,334.573,301.092"/>
	<path style="fill:#65B210;" d="M339.442,301.092h-4.869c-0.048,0.234-0.072,0.479-0.072,0.729v12.588
		c0,0.101,0.004,0.199,0.012,0.297l4.929,0.436c0.04-0.234,0.06-0.479,0.06-0.732v-12.588
		C339.5,301.571,339.481,301.326,339.442,301.092"/>
	<path style="fill:#8FCB33;" d="M321.643,301.092h-3.299c0.1,0.234,0.156,0.479,0.156,0.729v11.471l3,0.265v-11.735
		C321.5,301.571,321.551,301.326,321.643,301.092"/>
	<path style="fill:#8FCB33;" d="M311.593,301.092H310.5v11.493l1,0.089v-10.853C311.5,301.571,311.533,301.326,311.593,301.092"/>
	<polyline style="fill:#A5D942;" points="306.5,301.092 306.5,301.092 289.5,301.092 289.5,310.73 306.5,312.232 306.5,301.092 	"/>
	<path style="fill:#65B210;" d="M318.344,301.092h-6.751c-0.061,0.234-0.093,0.479-0.093,0.729v10.853l7,0.618v-11.471
		C318.5,301.571,318.444,301.326,318.344,301.092"/>
	<path style="fill:#65B210;" d="M328.35,301.092h-6.707c-0.092,0.234-0.143,0.479-0.143,0.729v11.735l7,0.618v-12.354
		C328.5,301.571,328.447,301.326,328.35,301.092"/>
	<polyline style="fill:#8EC932;" points="306.5,312.232 306.5,421.092 310.5,421.092 310.5,312.585 306.5,312.232 	"/>
	<polyline style="fill:#82C328;" points="310.5,301.092 310.5,301.092 306.5,301.092 306.5,312.232 310.5,312.585 310.5,301.092 	
		"/>
	<polyline style="fill:#8EC932;" points="342.5,315.412 342.5,421.092 346.5,421.092 347.5,421.092 347.5,315.854 342.5,315.412 	
		"/>
	<polyline style="fill:#82C328;" points="347.5,301.092 342.5,301.092 342.5,315.412 347.5,315.854 347.5,301.092 	"/>
	<path style="fill:#80B82B;" d="M325.5,334.071c0,0-9,8.404-9,21.302v65.719h18v-65.719C334.5,342.476,325.5,334.071,325.5,334.071"
		/>
	<path style="fill:#9BCB3E;" d="M356.864,334.092h-0.175c-1.701,0-3.188,0.896-3.188,2.558v84.442h6v-84.442
		C359.5,334.987,358.565,334.092,356.864,334.092"/>
	<path style="fill:#9BCB3E;" d="M297.764,336.092h-1.034c-1.463,0-2.229,1.309-2.229,2.822v82.178h6v-82.178
		C300.5,337.4,299.227,336.092,297.764,336.092"/>
	<polyline style="fill:#9CD13F;" points="367.5,545.092 282.5,545.092 282.5,421.092 367.5,421.092 367.5,545.092 	"/>
	<rect x="277.5" y="417.092" style="fill:#CFEF78;" width="95" height="4"/>
	<polyline style="fill:#8FCB33;" points="346.5,421.092 334.5,421.092 316.5,421.092 310.5,421.092 306.5,421.092 305.5,421.092 
		305.5,432.937 346.5,436.089 346.5,421.092 	"/>
	<polyline style="fill:#B3E051;" points="367.5,545.092 351.5,545.092 351.5,421.092 367.5,421.092 367.5,545.092 	"/>
	<polyline style="fill:#8EC932;" points="346.5,436.089 346.5,545.092 351.5,545.092 351.5,436.474 346.5,436.089 	"/>
	<polyline style="fill:#82C328;" points="351.5,421.092 347.5,421.092 346.5,421.092 346.5,436.089 351.5,436.474 351.5,421.092 	
		"/>
	<polyline style="fill:#A3D840;" points="351.5,421.092 351.5,421.092 351.5,436.474 351.5,545.092 351.5,421.092 	"/>
	<path style="fill:#A3D244;" d="M359.5,454.509c-1.547,0-3,1.253-3,2.802v87.781h6v-87.781
		C362.5,455.762,361.047,454.509,359.5,454.509"/>
	<polyline style="fill:#B3E051;" points="282.5,545.092 300.5,545.092 300.5,421.092 282.5,421.092 282.5,545.092 	"/>
	<polyline style="fill:#8EC932;" points="300.5,432.552 300.5,545.092 305.5,545.092 305.5,432.937 300.5,432.552 	"/>
	<polyline style="fill:#82C328;" points="305.5,421.092 300.5,421.092 300.5,432.552 305.5,432.937 305.5,421.092 	"/>
	<path style="fill:#A3D244;" d="M292,454.509c-1.546,0-2.5,1.253-2.5,2.802v87.781h5v-87.781
		C294.5,455.762,293.546,454.509,292,454.509"/>
	<path style="fill:#80B82B;" d="M325.5,443.985c0,0-9,6.562-9,16.634v50.473h18v-50.473C334.5,450.548,325.5,443.985,325.5,443.985"
		/>
	<rect x="324.5" y="345.092" style="fill:#CFEF78;" width="1" height="72"/>
	<path style="fill:#90C936;" d="M306.5,254.092L306.5,254.092h-9h-8v7h7.238c0.685-1.186,1.262-1.841,1.262-1.841
		s0.577,0.655,1.262,1.841h7.238v-1V254.092"/>
	<path style="fill:#76B125;" d="M298,259.251c0,0-0.577,0.655-1.262,1.841h2.523C298.578,259.906,298,259.251,298,259.251"/>
	<polyline style="fill:#BCE268;" points="297.5,246.092 289.5,246.092 289.5,250.092 297.5,250.092 297.5,246.092 	"/>
	<polyline style="fill:#90C936;" points="306.5,246.092 297.5,246.092 297.5,250.092 306.5,250.092 306.5,246.092 	"/>
	<polyline style="fill:#81B82C;" points="311.5,260.092 311.5,260.092 306.5,260.092 306.5,297.092 311.5,297.092 311.5,279.092 
		306.5,279.092 306.5,275.092 311.5,275.092 311.5,260.092 	"/>
	<polyline style="fill:#81B82C;" points="346.5,260.092 343.5,260.092 340.5,260.092 340.5,275.092 346.5,275.092 346.5,260.092 	
		"/>
	<polyline style="fill:#8EC735;" points="346.5,260.092 346.5,260.092 346.5,275.092 346.5,261.092 346.5,260.092 	"/>
	<polyline style="fill:#81B82C;" points="346.5,279.092 340.5,279.092 340.5,297.092 346.5,297.092 346.5,279.092 	"/>
	<polyline style="fill:#B3E051;" points="318.5,297.092 314.5,297.092 314.5,260.092 318.5,260.092 318.5,297.092 	"/>
	<polyline style="fill:#B3E051;" points="329.5,297.092 324.5,297.092 324.5,260.092 329.5,260.092 329.5,297.092 	"/>
	<polyline style="fill:#B3E051;" points="339.5,297.092 334.5,297.092 334.5,260.092 339.5,260.092 339.5,297.092 	"/>
	<rect x="306.5" y="255.092" style="fill:#D0F272;" width="40" height="5"/>
	<path style="fill:#97CA30;" d="M314.5,275.092h-3v4h3V275.092 M324.5,275.092h-6v4h6V275.092 M334.5,275.092h-5v4h5V275.092
		 M340.5,275.092h-1v4h1V275.092"/>
	<polyline style="fill:#8BC329;" points="311.5,275.092 306.5,275.092 306.5,279.092 311.5,279.092 311.5,275.092 	"/>
	<polyline style="fill:#8BC329;" points="346.5,275.092 340.5,275.092 340.5,279.092 346.5,279.092 346.5,275.092 	"/>
	<polyline style="fill:#B9E54B;" points="318.5,275.092 314.5,275.092 314.5,279.092 318.5,279.092 318.5,275.092 	"/>
	<polyline style="fill:#B9E54B;" points="329.5,275.092 324.5,275.092 324.5,279.092 329.5,279.092 329.5,275.092 	"/>
	<polyline style="fill:#B9E54B;" points="339.5,275.092 334.5,275.092 334.5,279.092 339.5,279.092 339.5,275.092 	"/>
	<path style="fill:#68A11D;" d="M327.82,161.351c-3.353,0-6.068,2.718-6.068,6.07c0,3.351,2.716,6.068,6.068,6.068
		c3.351,0,6.069-2.717,6.069-6.068C333.889,164.068,331.17,161.351,327.82,161.351"/>
	<path style="fill:#7FB72A;" d="M327.82,131.708c-3.545,0-6.42,2.875-6.42,6.419s2.875,6.419,6.42,6.419
		c3.546,0,6.418-2.875,6.418-6.419S331.366,131.708,327.82,131.708"/>
	<path style="fill:#95C63D;" d="M303.077,133.343c-1.545,0-2.801,1.881-2.801,4.2c0,2.322,1.256,4.202,2.801,4.202
		c1.549,0,2.802-1.88,2.802-4.202C305.878,135.224,304.625,133.343,303.077,133.343"/>
	<path style="fill:#79A727;" d="M352.56,133.343c-1.548,0-2.802,1.881-2.802,4.2c0,2.322,1.254,4.202,2.802,4.202
		c1.546,0,2.802-1.88,2.802-4.202C355.362,135.224,354.106,133.343,352.56,133.343"/>
	<path style="fill:#7AAE2A;" d="M301.21,162.285c-1.547,0-2.801,1.881-2.801,4.202s1.254,4.201,2.801,4.201s2.801-1.88,2.801-4.201
		S302.757,162.285,301.21,162.285"/>
	<path style="fill:#63931B;" d="M355.362,162.285c-1.548,0-2.802,1.881-2.802,4.202s1.254,4.201,2.802,4.201
		c1.546,0,2.8-1.88,2.8-4.201S356.908,162.285,355.362,162.285"/>
	<path style="fill:#7FB72A;" d="M334.5,202.04v50.144c0,0.652-0.047,1.291-0.136,1.908h0.136V202.04"/>
	<path style="fill:#68A11D;" d="M327.426,187.57l-6.61,14.158l0.469,52.363h13.08c0.089-0.618,0.136-1.256,0.136-1.908V202.04
		L327.426,187.57"/>
	<polygon style="fill:#CCEA7A;" points="350.171,112.901 343.219,140.303 327.834,109.983 313.04,138.515 306.398,112.894 
		303.494,113.646 312.1,146.845 327.805,116.557 344.161,148.79 353.08,113.639 	"/>
	<rect x="326.5" y="97.092" style="fill:#CCEA7A;" width="3" height="21"/>
	<circle style="fill:#CCEA7A;" cx="328.053" cy="97.165" r="2.801"/>
	<rect x="349.5" y="97.092" style="fill:#CCEA7A;" width="3" height="19"/>
	<circle style="fill:#CCEA7A;" cx="350.392" cy="95.297" r="2.802"/>
	<rect x="304.5" y="96.092" style="fill:#CCEA7A;" width="3" height="19"/>
	<circle style="fill:#CCEA7A;" cx="305.646" cy="95.297" r="2.801"/>
	<polygon style="fill:#B7E25A;" points="329.687,254.092 325.952,254.092 327.82,188.738 	"/>
	<rect x="313.5" y="510.092" style="fill:#D0F272;" width="26" height="6"/>
	<path style="fill:#7FB027;" d="M164.5,367.458v14.236c8.528,7.627,19.787,12.265,32.126,12.265
		c12.219,0,23.377-4.547,31.874-12.039v-10.844c-0.747,0.903-1.533,1.773-2.356,2.607l1.798,3.981l-4.08-1.842
		c-0.762,0.66-1.551,1.292-2.361,1.894v2.985c0,3.992-3.506,7.23-7.5,7.23c-2.672,0-5.126-1.449-6.457-3.604
		c-2.884,0.723-5.894,1.132-8.988,1.187c-0.127,0.359-0.209,0.578-0.235,0.647l-1.693,4.473l-1.689-4.473
		c-0.029-0.076-0.126-0.337-0.277-0.766c-4.024-0.317-7.875-1.232-11.474-2.658c-0.944,3.001-3.899,5.193-7.187,5.193
		c-3.993,0-7.5-3.238-7.5-7.23v-4.475l-3.187,1.438l1.969-4.36c0.048-0.105,0.26-0.572,0.639-1.339
		C166.678,370.548,165.535,369.043,164.5,367.458 M149.5,335.543c-0.709,3.29-1.083,6.706-1.083,10.208s0.374,6.918,1.083,10.207
		V335.543 M243.5,334.434v22.634c0.874-3.63,1.336-7.418,1.336-11.316S244.375,338.063,243.5,334.434 M168.5,306.593
		c-1.39,1-2.727,2.074-4,3.214v14.236c0.93-1.425,1.948-2.786,3.047-4.076c-0.148-0.311-0.236-0.505-0.265-0.568l-1.969-4.358
		l3.187,1.438V306.593 M221.5,304.445v9.338c1.134,0.841,2.221,1.74,3.258,2.694l3.184-1.437l-1.426,3.157
		c0.688,0.717,1.351,1.46,1.984,2.227v-10.844C226.332,307.669,223.989,305.947,221.5,304.445 M188.5,298.225
		c-1.699,0.288-3.367,0.665-5,1.126v9.288c1.619-0.626,3.287-1.148,5-1.561V298.225 M202.5,297.896v8.352
		c1.354,0.159,2.69,0.386,4,0.677v-8.371C205.186,298.28,203.852,298.061,202.5,297.896"/>
	<path style="fill:#679A1A;" d="M221.5,374.688v3.028c0.811-0.602,1.6-1.233,2.361-1.894l-0.279-0.126
		C223.446,375.636,222.709,375.3,221.5,374.688 M189.479,363.609c-2.08,1.55-4.088,2.948-5.979,4.198v12.895
		c0,0.707-0.11,1.391-0.313,2.037c3.598,1.426,7.45,2.341,11.474,2.658C193.785,382.907,191.102,374.718,189.479,363.609
		 M203.775,363.608c-1.649,11.29-4.393,19.567-5.22,21.907c3.095-0.055,6.104-0.464,8.988-1.187
		c-0.659-1.066-1.043-2.306-1.043-3.627v-15.118C205.609,364.955,204.698,364.296,203.775,363.608 M198.567,359.512
		c-0.916,0.449-1.953,0.701-3.067,0.701c-0.51,0-1.003-0.053-1.476-0.153c-0.412,0.338-0.823,0.67-1.232,0.996
		c1.015,7.774,2.616,14.288,3.835,18.529c1.218-4.243,2.819-10.761,3.834-18.531C199.833,360.553,199.202,360.039,198.567,359.512
		 M206.5,354.358c-0.572,0.049-1.149,0.095-1.732,0.137c-0.121,1.697-0.275,3.356-0.457,4.964c0.737,0.567,1.468,1.115,2.189,1.646
		V354.358 M183.52,354.037c-0.007,0.009-0.013,0.018-0.02,0.025v9.355c1.745-1.2,3.572-2.52,5.441-3.957
		c-0.181-1.609-0.336-3.268-0.458-4.967C186.786,354.373,185.129,354.219,183.52,354.037 M228.5,350.501
		c-2.019,0.539-4.372,1.11-7,1.655v12.779c2.852,4.818,4.335,8.066,4.473,8.369l0.171,0.379c0.823-0.834,1.609-1.704,2.356-2.607
		V350.501 M164.5,350.433v17.025c1.034,1.585,2.177,3.09,3.421,4.508c0.162-0.33,0.355-0.716,0.579-1.151v-19.377
		C167.051,351.099,165.713,350.759,164.5,350.433 M187.548,349.075c-0.457,0.532-0.904,1.064-1.343,1.595
		c0.685,0.064,1.376,0.124,2.076,0.178c-0.014-0.34-0.026-0.683-0.037-1.025C188.01,349.573,187.778,349.324,187.548,349.075
		 M205.708,349.074c-0.23,0.251-0.464,0.501-0.699,0.752c-0.011,0.343-0.022,0.683-0.036,1.022c0.513-0.039,1.023-0.082,1.528-0.127
		v-0.713C206.24,349.698,205.975,349.386,205.708,349.074 M168.5,345.007c-1.468,0.354-2.807,0.704-4,1.033v0.622
		c1.193,0.33,2.532,0.68,4,1.033V345.007 M183.5,344.452v3.802c0.524-0.631,1.063-1.267,1.614-1.901
		C184.564,345.719,184.025,345.082,183.5,344.452 M221.5,344.271v4.168c2.666-0.57,5.025-1.161,7-1.702v-0.764
		C226.526,345.432,224.167,344.84,221.5,344.271 M204.972,341.858c0.014,0.339,0.025,0.681,0.036,1.021
		c0.235,0.251,0.468,0.501,0.699,0.751c0.268-0.312,0.531-0.623,0.793-0.935v-0.711
		C205.995,341.939,205.485,341.897,204.972,341.858 M188.281,341.857c-0.699,0.054-1.391,0.113-2.076,0.178
		c0.439,0.531,0.886,1.062,1.344,1.596c0.23-0.249,0.461-0.498,0.695-0.747C188.255,342.541,188.267,342.197,188.281,341.857
		 M206.5,331.603c-0.722,0.529-1.452,1.078-2.189,1.645c0.182,1.608,0.336,3.266,0.457,4.964c0.583,0.041,1.16,0.087,1.732,0.136
		V331.603 M183.5,329.287v9.355c0.006,0.008,0.013,0.017,0.02,0.025c1.609-0.182,3.266-0.336,4.965-0.457
		c0.005-0.072,0.01-0.146,0.016-0.218v-5.087C186.785,331.6,185.108,330.394,183.5,329.287 M167.548,319.967
		c-1.099,1.29-2.118,2.651-3.047,4.076v18.23c1.213-0.326,2.551-0.666,4-1.006V321.89
		C168.069,321.048,167.751,320.396,167.548,319.967 M226.516,318.198l-0.543,1.202c-0.138,0.303-1.621,3.551-4.473,8.37v12.779
		c2.628,0.545,4.981,1.116,7,1.655v-21.78C227.867,319.658,227.205,318.915,226.516,318.198 M221.5,313.783v4.234
		c1.209-0.611,1.945-0.947,2.082-1.009l1.176-0.531C223.721,315.523,222.634,314.624,221.5,313.783 M188.5,307.078
		c-1.713,0.412-3.381,0.935-5,1.561v16.259c1.592,1.053,3.268,2.211,5,3.477V307.078 M202.5,306.248v15.575
		c0.458,2.241,0.896,4.679,1.274,7.274c0.923-0.688,1.834-1.348,2.726-1.977v-20.196C205.191,306.634,203.855,306.407,202.5,306.248
		"/>
	<path style="fill:#BBE864;" d="M196.627,390.636l-1.689-4.473c-0.276-0.73-6.748-18.098-6.748-39.81
		c0-21.713,6.472-39.081,6.748-39.81l1.689-4.473l1.693,4.473c0.274,0.729,6.743,18.097,6.743,39.81
		c0,21.712-6.468,39.079-6.743,39.81L196.627,390.636 M196.629,313.121c-1.931,6.723-4.823,19.15-4.823,33.232
		c0,14.099,2.89,26.514,4.82,33.231c1.93-6.723,4.821-19.149,4.821-33.231C201.448,332.253,198.56,319.838,196.629,313.121"/>
	<path style="fill:#BBE864;" d="M196.627,354.789c-21.712,0-39.08-6.469-39.808-6.745l-4.473-1.69l4.473-1.692
		c0.729-0.274,18.096-6.745,39.808-6.745c21.715,0,39.083,6.471,39.811,6.745l4.474,1.692l-4.474,1.69
		C235.709,348.32,218.342,354.789,196.627,354.789 M163.396,346.352c6.723,1.93,19.149,4.822,33.23,4.822
		c14.102,0,26.514-2.891,33.234-4.819c-6.724-1.931-19.15-4.822-33.234-4.822C182.526,341.532,170.113,344.423,163.396,346.352"/>
	<path style="fill:#BBE864;" d="M227.942,377.665l-4.359-1.968c-0.711-0.32-17.566-8.025-32.92-23.38
		c-15.354-15.353-23.06-32.209-23.38-32.919l-1.969-4.358l4.361,1.967c0.71,0.321,17.564,8.026,32.918,23.382
		c15.354,15.352,23.059,32.207,23.38,32.916L227.942,377.665 M173.132,322.857c3.389,6.119,10.131,16.949,20.086,26.903
		c9.955,9.957,20.786,16.698,26.906,20.087c-3.391-6.12-10.132-16.949-20.086-26.903
		C190.081,332.988,179.252,326.247,173.132,322.857"/>
	<path style="fill:#BBE864;" d="M165.313,377.665l1.969-4.36c0.32-0.709,8.026-17.564,23.38-32.916
		c15.354-15.355,32.209-23.061,32.92-23.38l4.359-1.968l-1.969,4.359c-0.321,0.71-8.025,17.564-23.38,32.917
		c-15.354,15.354-32.208,23.06-32.918,23.38L165.313,377.665 M220.125,322.858c-6.12,3.391-16.951,10.13-26.906,20.086
		c-9.955,9.954-16.697,20.783-20.086,26.903c6.12-3.389,16.949-10.13,26.906-20.087
		C209.993,339.807,216.734,328.978,220.125,322.858"/>
	<line style="fill:#8BBA2F;" x1="110.5" y1="297.092" x2="126.5" y2="297.092"/>
	<path style="fill:#7FB027;" d="M150.5,545.092v-49.463c0-26.847,31.838-49.537,47.505-49.537h0.498
		c14.177,0,45.997,22.69,45.997,49.537v49.463H150.5 M198.135,437.092h-0.603c-18.984,0-57.032,23.835-57.032,53.419v54.581h113
		v-54.581C253.5,460.927,215.308,437.092,198.135,437.092"/>
	<path style="fill:#679A1A;" d="M161.5,545.092V502.35c0-23.253,25.097-42.258,37.452-42.258h0.394
		c11.179,0,36.155,19.005,36.155,42.258v42.742H161.5 M198.503,446.092h-0.498c-15.667,0-47.505,22.69-47.505,49.537v49.463h94
		v-49.463C244.5,468.782,212.68,446.092,198.503,446.092"/>
	<path style="fill:#548712;" d="M199.346,460.092h-0.394c-12.355,0-37.452,19.005-37.452,42.258v42.742h74V502.35
		C235.5,479.097,210.525,460.092,199.346,460.092"/>
	<path style="fill:#7FB027;" d="M148.5,416.092h-15v5h15V416.092 M141.225,399.092h-0.083c-2.623,0-7.642,4.83-7.642,11.173v0.827
		h15v-0.827C148.5,403.922,143.599,399.092,141.225,399.092"/>
	<path style="fill:#7FB027;" d="M261.5,416.092h-17v5h17V416.092 M253.311,399.092h-0.084c-2.622,0-8.727,4.83-8.727,11.173v0.827
		h17v-0.827C261.5,403.922,255.685,399.092,253.311,399.092"/>
	<rect x="139.5" y="411.092" style="fill:#BEED6B;" width="3" height="10"/>
	<rect x="251.5" y="411.092" style="fill:#BEED6B;" width="3" height="10"/>
	<polyline style="fill:#BEED6B;" points="266.5,416.092 128.5,416.092 128.5,411.092 266.5,411.092 266.5,416.092 	"/>
	<rect x="156.5" y="416.092" style="fill:#BEED6B;" width="3" height="5"/>
	<rect x="171.5" y="416.092" style="fill:#BEED6B;" width="4" height="5"/>
	<rect x="187.5" y="416.092" style="fill:#BEED6B;" width="3" height="5"/>
	<rect x="201.5" y="416.092" style="fill:#BEED6B;" width="4" height="5"/>
	<rect x="215.5" y="416.092" style="fill:#BEED6B;" width="4" height="5"/>
	<rect x="234.5" y="416.092" style="fill:#BEED6B;" width="4" height="5"/>
	<path style="fill:#E1ECD5;" d="M215.5,132.092h-1.02c0.013,0.298,0.02,0.598,0.02,0.898v12.463l1,0.229V132.092"/>
	<path style="fill:#54821F;" d="M214.481,132.092H173.5v3.95l15.461,3.549c1.185-1.512,2.979-2.499,4.955-2.499h0.602
		c2.968,0,5.208,2.226,5.817,5.11l6.267,1.439c0.541-3.02,3.082-5.549,4.638-5.549h0.302c1.749,0,1.958,3.193,1.958,6.687v0.445
		l1,0.23V132.99C214.5,132.689,214.494,132.39,214.481,132.092"/>
	<path style="fill:#4A781A;" d="M194.519,137.092h-0.602c-1.977,0-3.77,0.987-4.955,2.499l11.374,2.611
		C199.728,139.317,197.487,137.092,194.519,137.092"/>
	<path style="fill:#4A781A;" d="M211.542,138.092h-0.302c-1.556,0-4.097,2.529-4.638,5.549l6.897,1.583v-0.445
		C213.5,141.285,213.292,138.092,211.542,138.092"/>
	
		<linearGradient id="SVGID_1_" gradientUnits="userSpaceOnUse" x1="-439.4995" y1="680.0928" x2="-438.4995" y2="680.0928" gradientTransform="matrix(-2.530930e-06 -57.9009 -57.9009 2.530930e-06 39573.4531 -25170.377)">
		<stop  offset="0" style="stop-color:#9CC93A"/>
		<stop  offset="1" style="stop-color:#79B224"/>
	</linearGradient>
	<path style="fill:url(#SVGID_1_);" d="M195.5,222.817c-3.993,0-7,6.854-7,10.848v64.56c2.641-0.449,5.357-0.683,8.126-0.683
		c1.987,0,3.949,0.12,5.874,0.354v-64.232C202.5,229.671,199.496,222.817,195.5,222.817"/>
	
		<linearGradient id="SVGID_2_" gradientUnits="userSpaceOnUse" x1="-439.4995" y1="680.0928" x2="-438.4995" y2="680.0928" gradientTransform="matrix(-2.530930e-06 -57.9009 -57.9009 2.530930e-06 39573.4531 -25170.377)">
		<stop  offset="0" style="stop-color:#7FB027"/>
		<stop  offset="1" style="stop-color:#629C18"/>
	</linearGradient>
	<path style="fill:url(#SVGID_2_);" d="M196.627,297.542c-2.769,0-5.485,0.233-8.126,0.683v8.854
		c2.143-0.515,4.354-0.856,6.617-1.01l1.51-3.997l1.479,3.907c1.486,0.01,2.951,0.102,4.394,0.27v-8.352
		C200.576,297.662,198.614,297.542,196.627,297.542"/>
	
		<linearGradient id="SVGID_3_" gradientUnits="userSpaceOnUse" x1="-439.4995" y1="680.0928" x2="-438.4995" y2="680.0928" gradientTransform="matrix(-2.530930e-06 -57.9009 -57.9009 2.530930e-06 39573.4531 -25170.377)">
		<stop  offset="0" style="stop-color:#679A1A"/>
		<stop  offset="1" style="stop-color:#508910"/>
	</linearGradient>
	<path style="fill:url(#SVGID_3_);" d="M192.311,335.931c-0.065,0.685-0.125,1.377-0.178,2.076c0.341-0.014,0.682-0.025,1.025-0.036
		c0.249-0.234,0.499-0.467,0.748-0.697C193.373,336.816,192.841,336.369,192.311,335.931 M188.5,332.906v5.087
		c0.119-1.623,0.268-3.207,0.441-4.748C188.795,333.132,188.647,333.019,188.5,332.906 M196.629,313.121
		c-1.219,4.243-2.82,10.759-3.836,18.53c1.266,1.01,2.547,2.072,3.834,3.188c1.287-1.116,2.569-2.18,3.835-3.189
		C199.449,323.876,197.848,317.362,196.629,313.121 M195.117,306.068c-2.262,0.153-4.474,0.495-6.617,1.01v21.296
		c0.324,0.237,0.65,0.478,0.979,0.722c1.903-13.021,5.261-22.031,5.458-22.552L195.117,306.068 M198.106,305.979l0.214,0.565
		c0.157,0.417,2.34,6.276,4.18,15.279v-15.575C201.057,306.08,199.592,305.988,198.106,305.979"/>
	
		<linearGradient id="SVGID_4_" gradientUnits="userSpaceOnUse" x1="-439.4995" y1="680.0928" x2="-438.4995" y2="680.0928" gradientTransform="matrix(-2.530930e-06 -57.9009 -57.9009 2.530930e-06 39573.4531 -25170.377)">
		<stop  offset="0" style="stop-color:#BBE864"/>
		<stop  offset="1" style="stop-color:#91CE3E"/>
	</linearGradient>
	<path style="fill:url(#SVGID_4_);" d="M189.291,341.784c-0.264,0.019-0.528,0.037-0.791,0.057v0.771
		C188.762,342.336,189.025,342.061,189.291,341.784 M188.942,333.245c-0.173,1.541-0.323,3.125-0.441,4.748v0.216
		c1.191-0.084,2.403-0.152,3.632-0.202c0.054-0.699,0.113-1.392,0.178-2.076C191.178,334.993,190.053,334.099,188.942,333.245
		 M196.627,302.071l-1.51,3.997l-0.18,0.476c-0.197,0.521-3.556,9.531-5.458,22.552c1.087,0.811,2.196,1.663,3.314,2.556
		c1.016-7.771,2.617-14.287,3.836-18.53c1.219,4.241,2.82,10.755,3.834,18.529c0.685-0.546,1.363-1.076,2.037-1.591v-8.236
		c-1.84-9.003-4.023-14.862-4.18-15.279l-0.214-0.565L196.627,302.071"/>
	
		<linearGradient id="SVGID_5_" gradientUnits="userSpaceOnUse" x1="-439.4995" y1="680.1738" x2="-438.4995" y2="680.1738" gradientTransform="matrix(-2.530930e-06 -57.9009 -57.9009 2.530930e-06 39573.4531 -25170.377)">
		<stop  offset="0" style="stop-color:#BBE864"/>
		<stop  offset="1" style="stop-color:#91CE3E"/>
	</linearGradient>
	<path style="fill:url(#SVGID_5_);" d="M193.158,337.971c-0.343,0.011-0.685,0.022-1.025,0.036c-1.229,0.05-2.441,0.118-3.632,0.202
		v3.632c0.263-0.02,0.526-0.038,0.791-0.057c0.45-0.466,0.908-0.932,1.372-1.396C191.491,339.561,192.323,338.754,193.158,337.971"
		/>
	
		<linearGradient id="SVGID_6_" gradientUnits="userSpaceOnUse" x1="-439.4995" y1="680.1436" x2="-438.4995" y2="680.1436" gradientTransform="matrix(-2.530930e-06 -57.9009 -57.9009 2.530930e-06 39573.4531 -25170.377)">
		<stop  offset="0" style="stop-color:#BBE864"/>
		<stop  offset="1" style="stop-color:#91CE3E"/>
	</linearGradient>
	<path style="fill:url(#SVGID_6_);" d="M188.5,328.374v4.532c0.146,0.112,0.294,0.226,0.441,0.339
		c1.111,0.854,2.236,1.748,3.369,2.686c0.531,0.438,1.062,0.886,1.595,1.343c0.908-0.838,1.816-1.648,2.722-2.434
		c-1.287-1.116-2.568-2.179-3.834-3.188c-1.119-0.893-2.227-1.745-3.314-2.556C189.151,328.852,188.825,328.611,188.5,328.374"/>
	
		<linearGradient id="SVGID_7_" gradientUnits="userSpaceOnUse" x1="-439.4995" y1="680.0732" x2="-438.4995" y2="680.0732" gradientTransform="matrix(-2.530930e-06 -57.9009 -57.9009 2.530930e-06 39573.4531 -25170.377)">
		<stop  offset="0" style="stop-color:#679A1A"/>
		<stop  offset="1" style="stop-color:#508910"/>
	</linearGradient>
	<path style="fill:url(#SVGID_7_);" d="M192.132,354.698c0.053,0.7,0.113,1.393,0.178,2.078c0.53-0.438,1.063-0.888,1.596-1.344
		c-0.25-0.23-0.5-0.464-0.749-0.698C192.813,354.724,192.472,354.712,192.132,354.698 M196.627,341.532
		c-0.667,0-1.33,0.007-1.989,0.019c-0.475,0.457-0.948,0.922-1.42,1.394s-0.936,0.944-1.393,1.42
		c-0.013,0.659-0.019,1.322-0.019,1.989c0,0.666,0.006,1.329,0.019,1.987c0.457,0.476,0.921,0.948,1.393,1.42
		c0.472,0.472,0.945,0.937,1.421,1.394c0.658,0.013,1.322,0.02,1.988,0.02c0.667,0,1.331-0.007,1.99-0.02
		c0.475-0.457,0.949-0.922,1.421-1.394c0.471-0.471,0.934-0.943,1.39-1.418c0.013-0.658,0.02-1.322,0.02-1.989
		c0-0.668-0.007-1.332-0.019-1.991c-0.457-0.475-0.92-0.947-1.391-1.418c-0.472-0.472-0.945-0.936-1.42-1.394
		C197.958,341.539,197.295,341.532,196.627,341.532 M200.945,335.931c-0.53,0.438-1.062,0.886-1.595,1.343
		c0.25,0.23,0.5,0.463,0.749,0.697c0.343,0.011,0.685,0.022,1.024,0.036C201.069,337.308,201.01,336.615,200.945,335.931"/>
	
		<linearGradient id="SVGID_8_" gradientUnits="userSpaceOnUse" x1="-439.4995" y1="680.0928" x2="-438.4995" y2="680.0928" gradientTransform="matrix(-2.530930e-06 -57.9009 -57.9009 2.530930e-06 39573.4531 -25170.377)">
		<stop  offset="0" style="stop-color:#BBE864"/>
		<stop  offset="1" style="stop-color:#91CE3E"/>
	</linearGradient>
	<path style="fill:url(#SVGID_8_);" d="M188.651,354.506c0.286,1.425,0.967,2.694,1.932,3.672c0.573-0.457,1.149-0.924,1.727-1.401
		c-0.065-0.686-0.125-1.378-0.178-2.078C190.954,354.651,189.793,354.586,188.651,354.506 M188.5,350.094v0.771
		c0.262,0.02,0.525,0.038,0.79,0.057C189.025,350.646,188.761,350.369,188.5,350.094 M191.826,344.364
		c-0.636,0.66-1.258,1.324-1.866,1.988c0.608,0.664,1.23,1.328,1.866,1.988c-0.013-0.658-0.019-1.321-0.019-1.987
		C191.807,345.687,191.813,345.023,191.826,344.364 M201.429,344.362c0.012,0.659,0.019,1.323,0.019,1.991
		c0,0.667-0.007,1.331-0.02,1.989c0.362-0.375,0.72-0.752,1.072-1.129v-1.723C202.148,345.114,201.791,344.737,201.429,344.362
		 M202.5,334.666c-0.517,0.413-1.035,0.834-1.556,1.265c0.065,0.685,0.124,1.377,0.178,2.076c0.462,0.019,0.922,0.04,1.378,0.063
		V334.666"/>
	
		<linearGradient id="SVGID_9_" gradientUnits="userSpaceOnUse" x1="-439.4995" y1="680.0928" x2="-438.4995" y2="680.0928" gradientTransform="matrix(-2.530930e-06 -57.9009 -57.9009 2.530930e-06 39573.4531 -25170.377)">
		<stop  offset="0" style="stop-color:#BBE864"/>
		<stop  offset="1" style="stop-color:#91CE3E"/>
	</linearGradient>
	<path style="fill:url(#SVGID_9_);" d="M194.639,351.154c0.66,0.636,1.325,1.26,1.989,1.867c0.664-0.607,1.329-1.231,1.989-1.867
		c-0.659,0.013-1.323,0.02-1.99,0.02C195.961,351.174,195.297,351.167,194.639,351.154 M188.5,350.864v2.117
		c0,0.523,0.052,1.033,0.15,1.524c1.143,0.08,2.303,0.146,3.481,0.192c0.34,0.014,0.682,0.025,1.025,0.036
		c-0.834-0.783-1.666-1.589-2.494-2.417c-0.465-0.465-0.921-0.93-1.372-1.396C189.026,350.902,188.763,350.884,188.5,350.864
		 M196.628,339.685c-0.665,0.607-1.329,1.23-1.99,1.866c0.659-0.012,1.322-0.019,1.989-0.019c0.668,0,1.331,0.007,1.991,0.019
		C197.957,340.915,197.292,340.292,196.628,339.685 M200.098,337.971c0.803,0.755,1.604,1.529,2.402,2.325v-2.226
		c-0.456-0.023-0.916-0.045-1.378-0.063C200.783,337.993,200.441,337.981,200.098,337.971"/>
	
		<linearGradient id="SVGID_10_" gradientUnits="userSpaceOnUse" x1="-439.4995" y1="680.0928" x2="-438.4995" y2="680.0928" gradientTransform="matrix(-2.530930e-06 -57.9009 -57.9009 2.530930e-06 39573.4531 -25170.377)">
		<stop  offset="0" style="stop-color:#BBE864"/>
		<stop  offset="1" style="stop-color:#91CE3E"/>
	</linearGradient>
	<path style="fill:url(#SVGID_10_);" d="M189.959,346.353c-0.496,0.541-0.982,1.084-1.459,1.626v2.115
		c0.26,0.275,0.524,0.552,0.79,0.827c0.451,0.467,0.907,0.932,1.372,1.396c0.828,0.828,1.66,1.634,2.494,2.417
		c0.249,0.234,0.5,0.468,0.749,0.698c0.907-0.778,1.815-1.581,2.722-2.411c-0.664-0.607-1.329-1.231-1.989-1.867
		c-0.476-0.457-0.949-0.922-1.421-1.394c-0.472-0.472-0.936-0.944-1.393-1.42C191.189,347.681,190.567,347.017,189.959,346.353
		 M199.35,337.273c-0.907,0.777-1.814,1.581-2.722,2.411c0.665,0.607,1.329,1.23,1.99,1.866c0.475,0.458,0.949,0.922,1.42,1.394
		c0.471,0.471,0.934,0.943,1.391,1.418c0.361,0.375,0.719,0.752,1.071,1.129v-5.195c-0.798-0.796-1.6-1.57-2.402-2.325
		C199.849,337.736,199.599,337.504,199.35,337.273"/>
	
		<linearGradient id="SVGID_11_" gradientUnits="userSpaceOnUse" x1="-439.4995" y1="680.0566" x2="-438.4995" y2="680.0566" gradientTransform="matrix(-2.530930e-06 -57.9009 -57.9009 2.530930e-06 39573.4531 -25170.377)">
		<stop  offset="0" style="stop-color:#679A1A"/>
		<stop  offset="1" style="stop-color:#508910"/>
	</linearGradient>
	<path style="fill:url(#SVGID_11_);" d="M196.628,357.866c-0.872,0.755-1.741,1.487-2.604,2.193
		c0.473,0.101,0.966,0.153,1.476,0.153c1.114,0,2.151-0.252,3.067-0.701C197.923,358.978,197.275,358.428,196.628,357.866
		 M201.122,354.698c-0.34,0.014-0.68,0.025-1.022,0.036c-0.25,0.234-0.5,0.468-0.749,0.698c0.532,0.456,1.064,0.903,1.594,1.342
		C201.009,356.09,201.069,355.397,201.122,354.698"/>
	
		<linearGradient id="SVGID_12_" gradientUnits="userSpaceOnUse" x1="-439.4995" y1="679.9863" x2="-438.4995" y2="679.9863" gradientTransform="matrix(-2.530930e-06 -57.9009 -57.9009 2.530930e-06 39573.4531 -25170.377)">
		<stop  offset="0" style="stop-color:#BBE864"/>
		<stop  offset="1" style="stop-color:#91CE3E"/>
	</linearGradient>
	<path style="fill:url(#SVGID_12_);" d="M202.322,354.644c-0.397,0.021-0.799,0.039-1.2,0.055c-0.053,0.699-0.112,1.392-0.178,2.076
		c0.121,0.101,0.242,0.2,0.363,0.3C201.78,356.349,202.127,355.527,202.322,354.644"/>
	
		<linearGradient id="SVGID_13_" gradientUnits="userSpaceOnUse" x1="-439.4995" y1="679.9922" x2="-438.4995" y2="679.9922" gradientTransform="matrix(-2.530930e-06 -57.9009 -57.9009 2.530930e-06 39573.4531 -25170.377)">
		<stop  offset="0" style="stop-color:#BBE864"/>
		<stop  offset="1" style="stop-color:#91CE3E"/>
	</linearGradient>
	<path style="fill:url(#SVGID_13_);" d="M202.5,352.41c-0.798,0.796-1.599,1.57-2.401,2.324c0.343-0.011,0.683-0.022,1.022-0.036
		c0.401-0.016,0.803-0.034,1.2-0.055c0.117-0.533,0.179-1.09,0.179-1.662V352.41"/>
	
		<linearGradient id="SVGID_14_" gradientUnits="userSpaceOnUse" x1="-439.4995" y1="680.0332" x2="-438.4995" y2="680.0332" gradientTransform="matrix(-2.530930e-06 -57.9009 -57.9009 2.530930e-06 39573.4531 -25170.377)">
		<stop  offset="0" style="stop-color:#BBE864"/>
		<stop  offset="1" style="stop-color:#91CE3E"/>
	</linearGradient>
	<path style="fill:url(#SVGID_14_);" d="M199.35,355.433c-0.908,0.838-1.816,1.648-2.722,2.434c0.647,0.562,1.295,1.111,1.939,1.646
		c1.121-0.55,2.061-1.395,2.74-2.438c-0.121-0.1-0.242-0.199-0.363-0.3C200.414,356.336,199.882,355.889,199.35,355.433"/>
	
		<linearGradient id="SVGID_15_" gradientUnits="userSpaceOnUse" x1="-439.4995" y1="680.0928" x2="-438.4995" y2="680.0928" gradientTransform="matrix(-2.530930e-06 -57.9009 -57.9009 2.530930e-06 39573.4531 -25170.377)">
		<stop  offset="0" style="stop-color:#BBE864"/>
		<stop  offset="1" style="stop-color:#91CE3E"/>
	</linearGradient>
	<path style="fill:url(#SVGID_15_);" d="M202.5,347.214c-0.353,0.377-0.71,0.754-1.072,1.129c-0.456,0.475-0.919,0.947-1.39,1.418
		c-0.472,0.472-0.946,0.937-1.421,1.394c-0.661,0.636-1.325,1.26-1.989,1.867c-0.907,0.83-1.815,1.633-2.722,2.411
		c-0.533,0.456-1.066,0.905-1.596,1.344c-0.578,0.478-1.154,0.944-1.727,1.401c0.92,0.931,2.099,1.598,3.441,1.882
		c0.863-0.706,1.732-1.438,2.604-2.193c0.906-0.785,1.814-1.596,2.722-2.434c0.249-0.23,0.5-0.464,0.749-0.698
		c0.803-0.754,1.604-1.528,2.401-2.324V347.214 M202.5,330.06c-0.674,0.515-1.353,1.045-2.037,1.591
		c-1.266,1.01-2.549,2.073-3.835,3.189c-0.906,0.785-1.814,1.596-2.722,2.434c-0.249,0.23-0.499,0.463-0.748,0.697
		c-0.834,0.783-1.667,1.59-2.495,2.418c-0.464,0.464-0.921,0.93-1.372,1.396c-0.266,0.276-0.529,0.552-0.791,0.828v5.366
		c0.477-0.542,0.963-1.085,1.459-1.626c0.608-0.664,1.23-1.328,1.866-1.988c0.457-0.476,0.921-0.948,1.393-1.42
		s0.945-0.937,1.42-1.394c0.661-0.636,1.325-1.259,1.99-1.866c0.907-0.83,1.815-1.634,2.722-2.411
		c0.533-0.457,1.065-0.904,1.595-1.343c0.521-0.431,1.039-0.852,1.556-1.265V330.06"/>
	
		<linearGradient id="SVGID_16_" gradientUnits="userSpaceOnUse" x1="-439.4995" y1="680.0918" x2="-438.4995" y2="680.0918" gradientTransform="matrix(-1.528680e-06 -34.9721 -34.9721 1.528680e-06 23960.248 -15082.918)">
		<stop  offset="0" style="stop-color:#9CC93A"/>
		<stop  offset="1" style="stop-color:#79B224"/>
	</linearGradient>
	<path style="fill:url(#SVGID_16_);" d="M176,250.537c-3.993,0-7.5,6.854-7.5,10.848v45.208c4.485-3.228,9.545-5.702,15-7.242
		v-37.966C183.5,257.391,179.996,250.537,176,250.537"/>
	
		<linearGradient id="SVGID_17_" gradientUnits="userSpaceOnUse" x1="-439.4995" y1="680.0918" x2="-438.4995" y2="680.0918" gradientTransform="matrix(-1.528680e-06 -34.9721 -34.9721 1.528680e-06 23960.248 -15082.918)">
		<stop  offset="0" style="stop-color:#7FB027"/>
		<stop  offset="1" style="stop-color:#629C18"/>
	</linearGradient>
	<path style="fill:url(#SVGID_17_);" d="M183.5,299.351c-5.455,1.54-10.515,4.015-15,7.242v9.885l1.174,0.529
		c0.055,0.025,0.208,0.095,0.451,0.209c3.803-3.692,8.342-6.633,13.375-8.577V299.351"/>
	
		<linearGradient id="SVGID_18_" gradientUnits="userSpaceOnUse" x1="-439.4995" y1="680.0918" x2="-438.4995" y2="680.0918" gradientTransform="matrix(-1.528680e-06 -34.9721 -34.9721 1.528680e-06 23960.248 -15082.918)">
		<stop  offset="0" style="stop-color:#679A1A"/>
		<stop  offset="1" style="stop-color:#508910"/>
	</linearGradient>
	<path style="fill:url(#SVGID_18_);" d="M168.5,351.438v19.377c1.746-3.405,5.358-9.916,10.871-17.313
		C175.313,352.908,171.644,352.174,168.5,351.438 M181.925,342.518c-5.118,0.668-9.688,1.59-13.425,2.489v2.688
		c3.738,0.9,8.31,1.823,13.426,2.491c0.511-0.641,1.036-1.285,1.574-1.933v-3.802C182.961,343.804,182.437,343.159,181.925,342.518
		 M173.132,322.857c2.136,3.856,5.604,9.584,10.368,15.785v-9.355C179.448,326.5,175.832,324.353,173.132,322.857 M168.5,321.89
		v19.378c3.144-0.735,6.812-1.47,10.871-2.062C173.859,331.807,170.247,325.295,168.5,321.89 M183.5,308.639
		c-5.033,1.944-9.572,4.885-13.375,8.577c1.545,0.73,6.72,3.28,13.375,7.682V308.639"/>
	
		<linearGradient id="SVGID_19_" gradientUnits="userSpaceOnUse" x1="-439.4995" y1="680.1133" x2="-438.4995" y2="680.1133" gradientTransform="matrix(-1.528680e-06 -34.9721 -34.9721 1.528680e-06 23960.248 -15082.918)">
		<stop  offset="0" style="stop-color:#BBE864"/>
		<stop  offset="1" style="stop-color:#91CE3E"/>
	</linearGradient>
	<path style="fill:url(#SVGID_19_);" d="M168.5,347.695v3.742c3.144,0.736,6.812,1.471,10.871,2.063
		c0.811-1.088,1.662-2.194,2.555-3.314C176.81,349.519,172.238,348.596,168.5,347.695 M179.372,339.205
		c-4.059,0.593-7.728,1.327-10.871,2.062v3.739c3.736-0.899,8.307-1.821,13.425-2.489
		C181.033,341.398,180.182,340.292,179.372,339.205"/>
	
		<linearGradient id="SVGID_20_" gradientUnits="userSpaceOnUse" x1="-439.4995" y1="680.0918" x2="-438.4995" y2="680.0918" gradientTransform="matrix(-1.528680e-06 -34.9721 -34.9721 1.528680e-06 23960.248 -15082.918)">
		<stop  offset="0" style="stop-color:#BBE864"/>
		<stop  offset="1" style="stop-color:#91CE3E"/>
	</linearGradient>
	<path style="fill:url(#SVGID_20_);" d="M168.5,316.478v5.412c1.746,3.405,5.358,9.917,10.871,17.315
		c0.81,1.087,1.661,2.193,2.554,3.312c0.512,0.642,1.036,1.286,1.575,1.935v-5.81c-4.765-6.201-8.232-11.929-10.368-15.785
		c2.7,1.495,6.315,3.643,10.368,6.43v-4.39c-6.655-4.401-11.83-6.951-13.375-7.682c-0.242-0.114-0.396-0.184-0.451-0.209
		L168.5,316.478"/>
	
		<linearGradient id="SVGID_21_" gradientUnits="userSpaceOnUse" x1="-439.4995" y1="680.0254" x2="-438.4995" y2="680.0254" gradientTransform="matrix(-1.528680e-06 -34.9721 -34.9721 1.528680e-06 23960.248 -15082.918)">
		<stop  offset="0" style="stop-color:#679A1A"/>
		<stop  offset="1" style="stop-color:#508910"/>
	</linearGradient>
	<path style="fill:url(#SVGID_21_);" d="M183.5,354.062c-4.765,6.2-8.232,11.928-10.368,15.785c2.7-1.495,6.315-3.642,10.368-6.43
		V354.062"/>
	
		<linearGradient id="SVGID_22_" gradientUnits="userSpaceOnUse" x1="-439.4995" y1="680.0957" x2="-438.4995" y2="680.0957" gradientTransform="matrix(-1.528680e-06 -34.9721 -34.9721 1.528680e-06 23960.248 -15082.918)">
		<stop  offset="0" style="stop-color:#7FB027"/>
		<stop  offset="1" style="stop-color:#629C18"/>
	</linearGradient>
	<path style="fill:url(#SVGID_22_);" d="M170.97,375.081c-0.741,0.364-1.191,0.569-1.295,0.616l-1.174,0.53v4.475
		c0,3.992,3.507,7.23,7.5,7.23c3.287,0,6.243-2.192,7.187-5.193C178.645,380.939,174.512,378.326,170.97,375.081"/>
	
		<linearGradient id="SVGID_23_" gradientUnits="userSpaceOnUse" x1="-439.4995" y1="680.0566" x2="-438.4995" y2="680.0566" gradientTransform="matrix(-1.528680e-06 -34.9721 -34.9721 1.528680e-06 23960.248 -15082.918)">
		<stop  offset="0" style="stop-color:#679A1A"/>
		<stop  offset="1" style="stop-color:#508910"/>
	</linearGradient>
	<path style="fill:url(#SVGID_23_);" d="M183.5,367.808c-5.734,3.792-10.37,6.21-12.531,7.273c3.542,3.245,7.675,5.858,12.217,7.658
		c0.204-0.646,0.313-1.33,0.313-2.037V367.808"/>
	
		<linearGradient id="SVGID_24_" gradientUnits="userSpaceOnUse" x1="-439.4995" y1="680.0918" x2="-438.4995" y2="680.0918" gradientTransform="matrix(-1.528680e-06 -34.9721 -34.9721 1.528680e-06 23960.248 -15082.918)">
		<stop  offset="0" style="stop-color:#BBE864"/>
		<stop  offset="1" style="stop-color:#91CE3E"/>
	</linearGradient>
	<path style="fill:url(#SVGID_24_);" d="M183.5,348.254c-0.538,0.647-1.063,1.292-1.574,1.933c-0.893,1.12-1.744,2.227-2.555,3.314
		c-5.513,7.397-9.125,13.908-10.871,17.313v5.413l1.174-0.53c0.104-0.047,0.554-0.252,1.295-0.616
		c2.161-1.063,6.797-3.481,12.531-7.273v-4.39c-4.053,2.788-7.668,4.935-10.368,6.43c2.136-3.857,5.604-9.585,10.368-15.785V348.254
		"/>
	
		<linearGradient id="SVGID_25_" gradientUnits="userSpaceOnUse" x1="-439.1602" y1="680.0918" x2="-438.7237" y2="680.0918" gradientTransform="matrix(-1.398306e-06 -31.9895 -31.9895 1.398306e-06 21912.8125 -13763.0391)">
		<stop  offset="0" style="stop-color:#9CC93A"/>
		<stop  offset="1" style="stop-color:#79B224"/>
	</linearGradient>
	<path style="fill:url(#SVGID_25_);" d="M157,277.052c-3.994,0-7.5,6.854-7.5,10.848v47.643c2.184-10.13,7.549-19.073,15-25.736
		V287.9C164.5,283.906,160.995,277.052,157,277.052"/>
	
		<linearGradient id="SVGID_26_" gradientUnits="userSpaceOnUse" x1="-439.4995" y1="680.0918" x2="-438.4995" y2="680.0918" gradientTransform="matrix(-1.398306e-06 -31.9895 -31.9895 1.398306e-06 21912.8125 -13763.0391)">
		<stop  offset="0" style="stop-color:#7FB027"/>
		<stop  offset="1" style="stop-color:#629C18"/>
	</linearGradient>
	<path style="fill:url(#SVGID_26_);" d="M164.5,309.807c-7.451,6.663-12.816,15.606-15,25.736v20.415
		c2.184,10.13,7.549,19.073,15,25.736v-14.236c-3.6-5.517-5.868-11.982-6.347-18.939c-0.771-0.264-1.229-0.435-1.335-0.475
		l-4.473-1.69l4.473-1.692c0.103-0.039,0.538-0.201,1.27-0.451c0.283-7.424,2.601-14.328,6.412-20.167V309.807"/>
	
		<linearGradient id="SVGID_27_" gradientUnits="userSpaceOnUse" x1="-439.4995" y1="679.957" x2="-438.4995" y2="679.957" gradientTransform="matrix(-1.398306e-06 -31.9895 -31.9895 1.398306e-06 21912.8125 -13763.0391)">
		<stop  offset="0" style="stop-color:#679A1A"/>
		<stop  offset="1" style="stop-color:#508910"/>
	</linearGradient>
	<path style="fill:url(#SVGID_27_);" d="M158.154,348.519c0.479,6.957,2.747,13.423,6.347,18.939v-17.025
		C161.622,349.658,159.447,348.959,158.154,348.519 M164.5,346.04c-0.383,0.106-0.751,0.21-1.104,0.312
		c0.353,0.102,0.721,0.205,1.104,0.311V346.04 M164.5,324.043c-3.811,5.839-6.129,12.743-6.412,20.167
		c1.284-0.439,3.484-1.149,6.412-1.937V324.043"/>
	
		<linearGradient id="SVGID_28_" gradientUnits="userSpaceOnUse" x1="-439.4995" y1="680.0469" x2="-438.4995" y2="680.0469" gradientTransform="matrix(-1.398306e-06 -31.9895 -31.9895 1.398306e-06 21912.8125 -13763.0391)">
		<stop  offset="0" style="stop-color:#BBE864"/>
		<stop  offset="1" style="stop-color:#91CE3E"/>
	</linearGradient>
	<path style="fill:url(#SVGID_28_);" d="M164.5,342.273c-2.928,0.787-5.128,1.497-6.412,1.937c-0.732,0.25-1.167,0.412-1.27,0.451
		l-4.473,1.692l4.473,1.69c0.106,0.04,0.563,0.211,1.335,0.475c1.293,0.44,3.468,1.14,6.347,1.914v-3.771
		c-0.383-0.105-0.751-0.209-1.104-0.311c0.353-0.102,0.721-0.205,1.104-0.312V342.273"/>
	
		<linearGradient id="SVGID_29_" gradientUnits="userSpaceOnUse" x1="-439.4995" y1="680.0918" x2="-438.4995" y2="680.0918" gradientTransform="matrix(-1.398306e-06 -31.9895 -31.9895 1.398306e-06 21912.8125 -13763.0391)">
		<stop  offset="0" style="stop-color:#BEED6B"/>
		<stop  offset="1" style="stop-color:#93D242"/>
	</linearGradient>
	<path style="fill:url(#SVGID_29_);" d="M163.297,411.092h-12.594c1.362,2.018,3.729,3.356,6.297,3.356
		S161.935,413.109,163.297,411.092"/>
	
		<linearGradient id="SVGID_30_" gradientUnits="userSpaceOnUse" x1="-439.1548" y1="680.0908" x2="-438.7266" y2="680.0908" gradientTransform="matrix(-1.398306e-06 -31.9895 -31.9895 1.398306e-06 21991.8125 -13763.0391)">
		<stop  offset="0" style="stop-color:#9CC93A"/>
		<stop  offset="1" style="stop-color:#79B224"/>
	</linearGradient>
	<path style="fill:url(#SVGID_30_);" d="M236,277.052c-3.995,0-7.5,6.854-7.5,10.848v21.681c7.307,6.443,12.646,15.067,15,24.853
		V287.9C243.5,283.906,239.995,277.052,236,277.052"/>
	
		<linearGradient id="SVGID_31_" gradientUnits="userSpaceOnUse" x1="-439.4995" y1="680.0908" x2="-438.4995" y2="680.0908" gradientTransform="matrix(-1.398306e-06 -31.9895 -31.9895 1.398306e-06 21991.8125 -13763.0391)">
		<stop  offset="0" style="stop-color:#7FB027"/>
		<stop  offset="1" style="stop-color:#629C18"/>
	</linearGradient>
	<path style="fill:url(#SVGID_31_);" d="M228.5,309.581v10.844c5.558,6.724,8.948,15.307,9.099,24.676l3.312,1.253l-3.351,1.266
		c-0.411,8.895-3.744,17.025-9.061,23.457v10.844c7.307-6.443,12.646-15.067,15-24.853v-22.634
		C241.146,324.648,235.807,316.024,228.5,309.581"/>
	
		<linearGradient id="SVGID_32_" gradientUnits="userSpaceOnUse" x1="-439.4995" y1="680.1836" x2="-438.4995" y2="680.1836" gradientTransform="matrix(-1.398306e-06 -31.9895 -31.9895 1.398306e-06 21991.8125 -13763.0391)">
		<stop  offset="0" style="stop-color:#679A1A"/>
		<stop  offset="1" style="stop-color:#508910"/>
	</linearGradient>
	<path style="fill:url(#SVGID_32_);" d="M237.561,347.619l-1.123,0.425c-0.289,0.109-3.188,1.191-7.938,2.457v20.575
		C233.817,364.645,237.15,356.514,237.561,347.619 M228.5,345.973v0.764c0.477-0.131,0.93-0.258,1.36-0.382
		C229.43,346.23,228.977,346.104,228.5,345.973 M228.5,320.425v21.78c4.749,1.266,7.648,2.348,7.938,2.456l1.161,0.439
		C237.449,335.731,234.058,327.148,228.5,320.425"/>
	
		<linearGradient id="SVGID_33_" gradientUnits="userSpaceOnUse" x1="-439.4995" y1="680.1309" x2="-438.4995" y2="680.1309" gradientTransform="matrix(-1.398306e-06 -31.9895 -31.9895 1.398306e-06 21991.8125 -13763.0391)">
		<stop  offset="0" style="stop-color:#BBE864"/>
		<stop  offset="1" style="stop-color:#91CE3E"/>
	</linearGradient>
	<path style="fill:url(#SVGID_33_);" d="M228.5,342.205v3.768c0.477,0.131,0.93,0.258,1.36,0.382
		c-0.431,0.124-0.884,0.251-1.36,0.382v3.765c4.749-1.266,7.648-2.348,7.938-2.457l1.123-0.425l3.351-1.266l-3.312-1.253
		l-1.161-0.439C236.149,344.553,233.25,343.471,228.5,342.205"/>
	
		<linearGradient id="SVGID_34_" gradientUnits="userSpaceOnUse" x1="-439.4995" y1="680.0898" x2="-438.4995" y2="680.0898" gradientTransform="matrix(-1.398306e-06 -31.9895 -31.9895 1.398306e-06 21991.8125 -13763.0391)">
		<stop  offset="0" style="stop-color:#BEED6B"/>
		<stop  offset="1" style="stop-color:#93D242"/>
	</linearGradient>
	<path style="fill:url(#SVGID_34_);" d="M242.297,411.092h-12.594c1.362,2.018,3.728,3.356,6.297,3.356
		C238.569,414.448,240.935,413.109,242.297,411.092"/>
	
		<linearGradient id="SVGID_35_" gradientUnits="userSpaceOnUse" x1="-439.4995" y1="680.0918" x2="-438.4995" y2="680.0918" gradientTransform="matrix(-1.398301e-06 -31.9894 -31.9894 1.398301e-06 21969.7344 -13769.0195)">
		<stop  offset="0" style="stop-color:#9CC93A"/>
		<stop  offset="1" style="stop-color:#79B224"/>
	</linearGradient>
	<path style="fill:url(#SVGID_35_);" d="M214,250.537c-3.994,0-7.5,6.854-7.5,10.848v37.169c5.385,1.121,10.438,3.139,15,5.892
		v-43.061C221.5,257.391,217.995,250.537,214,250.537"/>
	
		<linearGradient id="SVGID_36_" gradientUnits="userSpaceOnUse" x1="-439.4995" y1="680.0918" x2="-438.4995" y2="680.0918" gradientTransform="matrix(-1.398301e-06 -31.9894 -31.9894 1.398301e-06 21969.7344 -13769.0195)">
		<stop  offset="0" style="stop-color:#7FB027"/>
		<stop  offset="1" style="stop-color:#629C18"/>
	</linearGradient>
	<path style="fill:url(#SVGID_36_);" d="M206.5,298.554v8.371c5.521,1.227,10.607,3.601,15,6.858v-9.338
		C216.938,301.692,211.885,299.675,206.5,298.554"/>
	
		<linearGradient id="SVGID_37_" gradientUnits="userSpaceOnUse" x1="-439.4995" y1="680.0918" x2="-438.4995" y2="680.0918" gradientTransform="matrix(-1.398301e-06 -31.9894 -31.9894 1.398301e-06 21969.7344 -13769.0195)">
		<stop  offset="0" style="stop-color:#679A1A"/>
		<stop  offset="1" style="stop-color:#508910"/>
	</linearGradient>
	<path style="fill:url(#SVGID_37_);" d="M206.5,341.985v0.711c0.185-0.221,0.368-0.44,0.55-0.66
		C206.868,342.019,206.684,342.002,206.5,341.985 M220.125,322.858c-3.404,1.886-8.266,4.808-13.624,8.744v6.744
		c1.099,0.095,2.177,0.202,3.235,0.321C214.51,332.458,217.985,326.72,220.125,322.858 M206.5,306.925v20.196
		c6.549-4.62,12.118-7.646,15-9.104v-4.234C217.108,310.525,212.021,308.151,206.5,306.925"/>
	
		<linearGradient id="SVGID_38_" gradientUnits="userSpaceOnUse" x1="-439.4995" y1="680.2754" x2="-438.4995" y2="680.2754" gradientTransform="matrix(-1.398301e-06 -31.9894 -31.9894 1.398301e-06 21969.7344 -13769.0195)">
		<stop  offset="0" style="stop-color:#BBE864"/>
		<stop  offset="1" style="stop-color:#91CE3E"/>
	</linearGradient>
	<path style="fill:url(#SVGID_38_);" d="M206.5,338.347v3.639c0.184,0.017,0.367,0.033,0.55,0.051
		c0.937-1.133,1.832-2.258,2.686-3.368C208.677,338.549,207.599,338.441,206.5,338.347"/>
	
		<linearGradient id="SVGID_39_" gradientUnits="userSpaceOnUse" x1="-439.4995" y1="680.0762" x2="-438.4995" y2="680.0762" gradientTransform="matrix(-1.398301e-06 -31.9894 -31.9894 1.398301e-06 21969.7344 -13769.0195)">
		<stop  offset="0" style="stop-color:#7FB027"/>
		<stop  offset="1" style="stop-color:#629C18"/>
	</linearGradient>
	<path style="fill:url(#SVGID_39_);" d="M221.5,377.717c-4.115,3.052-8.839,5.328-13.957,6.612c1.331,2.154,3.785,3.604,6.457,3.604
		c3.994,0,7.5-3.238,7.5-7.23V377.717"/>
	
		<linearGradient id="SVGID_40_" gradientUnits="userSpaceOnUse" x1="-439.4995" y1="680.0918" x2="-438.4995" y2="680.0918" gradientTransform="matrix(-1.398301e-06 -31.9894 -31.9894 1.398301e-06 21969.7344 -13769.0195)">
		<stop  offset="0" style="stop-color:#679A1A"/>
		<stop  offset="1" style="stop-color:#508910"/>
	</linearGradient>
	<path style="fill:url(#SVGID_40_);" d="M206.5,365.584v15.118c0,1.321,0.384,2.561,1.043,3.627
		c5.118-1.284,9.842-3.561,13.957-6.612v-3.028C218.619,373.23,213.049,370.204,206.5,365.584 M209.736,354.037
		c-1.059,0.119-2.137,0.228-3.235,0.321v6.746c5.358,3.937,10.22,6.858,13.624,8.743
		C217.985,365.985,214.51,360.247,209.736,354.037 M221.5,352.156c-2.335,0.483-4.888,0.946-7.616,1.345
		c3.161,4.242,5.698,8.194,7.616,11.435V352.156 M206.5,350.009v0.713c0.185-0.017,0.367-0.033,0.551-0.051
		C206.87,350.45,206.686,350.229,206.5,350.009 M211.33,342.519c-1.009,1.266-2.073,2.549-3.188,3.834
		c1.115,1.287,2.179,2.57,3.189,3.836c3.714-0.484,7.141-1.104,10.169-1.75v-4.168C218.47,343.623,215.044,343.004,211.33,342.519
		 M221.5,327.771c-1.918,3.24-4.454,7.191-7.615,11.435c2.728,0.398,5.28,0.86,7.615,1.345V327.771"/>
	
		<linearGradient id="SVGID_41_" gradientUnits="userSpaceOnUse" x1="-439.4995" y1="680.0918" x2="-438.4995" y2="680.0918" gradientTransform="matrix(-1.398301e-06 -31.9894 -31.9894 1.398301e-06 21969.7344 -13769.0195)">
		<stop  offset="0" style="stop-color:#BBE864"/>
		<stop  offset="1" style="stop-color:#91CE3E"/>
	</linearGradient>
	<path style="fill:url(#SVGID_41_);" d="M207.051,350.671c-0.184,0.018-0.366,0.034-0.551,0.051v3.637
		c1.099-0.094,2.177-0.202,3.235-0.321C208.882,352.928,207.988,351.803,207.051,350.671 M221.5,348.438
		c-3.028,0.646-6.455,1.266-10.169,1.75c0.892,1.119,1.743,2.225,2.553,3.312c2.729-0.398,5.281-0.861,7.616-1.345V348.438
		 M213.885,339.205c-0.812,1.088-1.662,2.194-2.556,3.313c3.715,0.485,7.141,1.104,10.171,1.752v-3.721
		C219.166,340.065,216.613,339.604,213.885,339.205"/>
	
		<linearGradient id="SVGID_42_" gradientUnits="userSpaceOnUse" x1="-439.4995" y1="680.0918" x2="-438.4995" y2="680.0918" gradientTransform="matrix(-1.398301e-06 -31.9894 -31.9894 1.398301e-06 21969.7344 -13769.0195)">
		<stop  offset="0" style="stop-color:#BBE864"/>
		<stop  offset="1" style="stop-color:#91CE3E"/>
	</linearGradient>
	<path style="fill:url(#SVGID_42_);" d="M208.142,346.353c-0.535,0.618-1.082,1.235-1.642,1.854v1.802
		c0.186,0.221,0.369,0.441,0.551,0.662c0.937,1.132,1.831,2.257,2.685,3.366c4.774,6.21,8.249,11.948,10.389,15.811
		c-3.404-1.885-8.266-4.807-13.624-8.743v4.479c6.549,4.62,12.118,7.646,15,9.104v-9.753c-1.918-3.24-4.455-7.192-7.616-11.435
		c-0.81-1.088-1.661-2.193-2.553-3.312C210.321,348.923,209.257,347.64,208.142,346.353"/>
	
		<linearGradient id="SVGID_43_" gradientUnits="userSpaceOnUse" x1="-439.4995" y1="680.0918" x2="-438.4995" y2="680.0918" gradientTransform="matrix(-1.398301e-06 -31.9894 -31.9894 1.398301e-06 21969.7344 -13769.0195)">
		<stop  offset="0" style="stop-color:#BBE864"/>
		<stop  offset="1" style="stop-color:#91CE3E"/>
	</linearGradient>
	<path style="fill:url(#SVGID_43_);" d="M221.5,318.018c-2.882,1.458-8.451,4.483-15,9.104v4.481
		c5.358-3.937,10.22-6.858,13.624-8.744c-2.14,3.861-5.614,9.6-10.389,15.81c-0.854,1.11-1.749,2.235-2.686,3.368
		c-0.182,0.22-0.365,0.439-0.55,0.66v5.511c0.56-0.619,1.106-1.236,1.642-1.854c1.114-1.285,2.179-2.568,3.188-3.834
		c0.894-1.119,1.744-2.226,2.556-3.313c3.161-4.243,5.697-8.194,7.615-11.435V318.018"/>
	<rect x="319" y="343.842" style="fill:#CFEF78;" width="13" height="1"/>
</g>
</svg>
