<?xml version="1.0" encoding="iso-8859-1"?>
<!-- Generator: Adobe Illustrator 16.0.0, SVG Export Plug-In . SVG Version: 6.00 Build 0)  -->
<!DOCTYPE svg PUBLIC "-//W3C//DTD SVG 1.1//EN" "http://www.w3.org/Graphics/SVG/1.1/DTD/svg11.dtd">
<svg version="1.1" id="Layer_1" xmlns="http://www.w3.org/2000/svg" xmlns:xlink="http://www.w3.org/1999/xlink" x="0px" y="0px"
	 width="598.469px" height="560.402px" viewBox="0 0 598.469 560.402" style="enable-background:new 0 0 598.469 560.402;"
	 xml:space="preserve">
<g>
	<polyline style="fill:#EA9600;" points="554.735,496.701 16.735,496.701 16.735,558.701 554.735,558.701 554.735,496.701 	"/>
	<path style="fill:#EA9600;" d="M489.735,52.124c0,6.494-5.536,11.578-12.04,11.578h-1.796c-6.504,0-12.164-5.084-12.164-11.578
		V31.022c0-6.493,5.66-11.321,12.164-11.321h1.796c6.504,0,12.04,4.828,12.04,11.321V52.124"/>
	<polyline style="fill:#F8B500;" points="497.735,90.701 458.735,90.701 458.735,54.701 497.735,54.701 497.735,90.701 	"/>
	<rect x="452.735" y="51.701" style="fill:#FFC536;" width="49" height="3"/>
	<polyline style="fill:#F7AA00;" points="497.735,54.701 489.435,54.701 464.041,54.701 458.735,54.701 458.735,60.3 497.735,66.61 
		497.735,54.701 	"/>
	<polyline style="fill:#F6A500;" points="492.735,81.701 482.735,81.701 482.735,85.701 473.735,85.701 473.735,81.701 
		458.735,81.701 458.735,89.701 492.735,89.701 492.735,81.701 	"/>
	<path style="fill:#EE8F00;" d="M478.445,67.701h-0.26c-3.129,0-4.45,2.807-4.45,4.725v9.275h9v-9.275
		C482.735,70.508,481.575,67.701,478.445,67.701"/>
	<polyline style="fill:#EC8300;" points="482.735,81.701 473.735,81.701 473.735,85.701 482.735,85.701 482.735,81.701 	"/>
	<polygon style="fill:#EA9600;" points="474.159,21.701 479.887,21.701 477.977,-0.299 476.068,-0.299 	"/>
	<polyline style="fill:#C67100;" points="387.016,351.701 229.094,351.701 267.612,297.701 353.634,297.701 387.016,351.701 	"/>
	<polyline style="fill:#D87A09;" points="360.735,299.701 261.735,299.701 261.735,294.701 360.735,294.701 360.735,299.701 	"/>
	<path style="fill:#FCE199;" d="M368.735,321.749v0.38l6.796,10.994L368.735,321.749 M266.185,299.701h-0.498l0.38,0.165
		L266.185,299.701 M355.559,299.701h-0.688l7.524,12.173c0.174,0.036,0.345,0.078,0.514,0.126L355.559,299.701"/>
	<path style="fill:#C46400;" d="M368.735,322.129v8.572h4v5.838v9.606l12.805,5.556h1.094l-11.103-18.578L368.735,322.129
		 M354.871,299.701h-36.136v4v6h-22v-10h-30.55l-0.118,0.165l22.668,9.835h43.999v3h-3v11.674v3.114l19,8.243v-5.031h4v-11
		c0-4.418,3.582-8,8-8c0.569,0,1.125,0.06,1.66,0.173L354.871,299.701"/>
	<path style="fill:#D66C05;" d="M296.735,299.701h-31.048h0.498H296.735 M355.559,299.701h-36.824h36.136H355.559"/>
	<path style="fill:#B76400;" d="M315.735,292.191c0,4.432-2.937,7.51-7.37,7.51h-0.188c-4.432,0-8.441-3.078-8.441-7.51v-14.109
		c0-4.432,4.01-8.381,8.441-8.381h0.188c4.434,0,7.37,3.949,7.37,8.381V292.191"/>
	<polyline style="fill:#EA9600;" points="506.735,151.701 448.735,151.701 448.735,95.701 506.735,95.701 506.735,151.701 	"/>
	<polyline style="fill:#FFC536;" points="511.735,89.701 442.735,89.701 442.735,96.701 511.735,96.701 511.735,89.701 	"/>
	<polyline style="fill:#EA9600;" points="526.735,364.701 426.735,364.701 426.735,209.701 526.735,209.701 526.735,364.701 	"/>
	<polyline style="fill:#F8B500;" points="551.735,496.701 16.735,496.701 16.735,361.701 551.735,361.701 551.735,496.701 	"/>
	<polyline style="fill:#FFC536;" points="23.735,496.701 15.735,496.701 15.735,372.701 23.735,372.701 23.735,496.701 	"/>
	<polyline style="fill:#EA9600;" points="513.735,142.701 444.735,142.701 444.735,204.701 513.735,204.701 513.735,142.701 	"/>
	<rect x="430.735" y="134.701" style="fill:#FFC536;" width="92" height="8"/>
	<rect x="419.735" y="202.701" style="fill:#FFC536;" width="113" height="8"/>
	<path style="fill:#FFFFFF;" d="M496.254,173.767c0,10.696-8.668,19.367-19.362,19.367c-10.698,0-19.368-8.67-19.368-19.367
		c0-10.694,8.67-19.365,19.368-19.365C487.586,154.402,496.254,163.073,496.254,173.767"/>
	<polyline style="fill:#EE8F00;" points="31.735,396.84 31.735,396.84 31.735,426.701 48.735,426.701 48.735,413.701 
		31.735,413.701 31.735,396.84 	"/>
	<polyline style="fill:#E07700;" points="444.735,231.968 444.735,231.968 444.735,342.701 460.735,342.701 460.735,278.701 
		444.735,278.701 444.735,231.968 	"/>
	<path style="fill:#E07700;" d="M467.735,231.968L467.735,231.968v110.733h17v-64h-17V231.968 M484.285,227.971
		c0.297,1.306,0.45,2.673,0.45,3.997c0-1.316-0.11-2.676-0.34-3.976L484.285,227.971"/>
	<polyline style="fill:#E07700;" points="493.735,233.589 493.735,233.589 493.735,342.701 509.735,342.701 509.735,278.701 
		493.735,278.701 493.735,233.589 	"/>
	<polyline style="fill:#FFC536;" points="144.735,496.701 134.735,496.701 134.735,372.701 144.735,372.701 144.735,496.701 	"/>
	<polyline style="fill:#FFC536;" points="102.735,496.701 94.735,496.701 94.735,372.701 102.735,372.701 102.735,496.701 	"/>
	<polyline style="fill:#FFC536;" points="62.735,496.701 52.735,496.701 52.735,372.701 62.735,372.701 62.735,496.701 	"/>
	<polyline style="fill:#FFC536;" points="185.735,496.701 176.735,496.701 176.735,372.701 185.735,372.701 185.735,496.701 	"/>
	<polyline style="fill:#FFC536;" points="222.735,496.701 214.735,496.701 214.735,372.701 222.735,372.701 222.735,496.701 	"/>
	<polyline style="fill:#F8B500;" points="446.735,202.701 436.735,202.701 436.735,142.701 446.735,142.701 446.735,202.701 	"/>
	<polyline style="fill:#F8B500;" points="455.735,134.701 445.735,134.701 445.735,96.701 455.735,96.701 455.735,134.701 	"/>
	<polyline style="fill:#F8B500;" points="507.735,134.701 498.735,134.701 498.735,96.701 507.735,96.701 507.735,134.701 	"/>
	<polyline style="fill:#F8B500;" points="515.735,202.701 507.735,202.701 507.735,142.701 515.735,142.701 515.735,202.701 	"/>
	<polyline style="fill:#FFC536;" points="410.735,496.701 400.735,496.701 400.735,372.701 410.735,372.701 410.735,496.701 	"/>
	<polyline style="fill:#FFC536;" points="446.735,496.701 436.735,496.701 436.735,372.701 446.735,372.701 446.735,496.701 	"/>
	<polyline style="fill:#FFC536;" points="483.735,496.701 475.735,496.701 475.735,372.701 483.735,372.701 483.735,496.701 	"/>
	<polyline style="fill:#FFC536;" points="522.735,496.701 513.735,496.701 513.735,372.701 522.735,372.701 522.735,496.701 	"/>
	<polyline style="fill:#EA9600;" points="559.735,371.701 8.735,371.701 8.735,361.701 559.735,361.701 559.735,371.701 	"/>
	<path style="fill:#F7AA00;" d="M350.735,371.701h-81v19.918l9.209,0.332c1.532-1.414,3.69-2.25,5.917-2.25h0.344
		c2.45,0,4.612,1.012,5.983,2.69l11.267,0.405c1.8-1.92,4.728-3.096,7.367-3.096h0.347c2.857,0,4.875,1.378,5.867,3.585
		l10.709,0.386c1.644-2.432,5.021-3.971,8.041-3.971h0.344c3.246,0,6.033,1.776,7.119,4.528l8.486,0.306V371.701 M551.735,371.701
		h-183v23.481l9.001,0.324c0.055-4.137,4.066-6.806,8.222-6.806h0.345c4.184,0,7.433,2.706,7.433,6.892v0.49l7,0.252v-23.634h10
		v23.994l6,0.216v-1.318l0,0c0-4.186,3.73-6.892,7.916-6.892h0.343c4.184,0,6.741,2.706,6.741,6.892v1.858l5,0.18v-24.93h10v25.29
		l6,0.216v-3.863l0,0c0-4.186,5.174-6.643,9.358-6.643h0.344c4.184,0,6.298,2.457,6.298,6.643v4.439l7,0.252v-26.334h8v26.621
		l7,0.252v-5.23l0,0c0-4.186,3.37-6.643,7.553-6.643h0.344c4.185,0,8.104,2.457,8.104,6.643v5.807l7,0.252v-27.701h9v28.025l4,0.145
		v-5.278l0,0c0-4.186,4.812-6.892,8.996-6.892h0.344c4.185,0,7.66,2.706,7.66,6.892v5.89l8,0.288V371.701"/>
	<polyline style="fill:#FEBA2B;" points="410.735,372.701 400.735,372.701 400.735,396.335 410.735,396.695 410.735,372.701 	"/>
	<polyline style="fill:#FEBA2B;" points="446.735,372.701 436.735,372.701 436.735,397.631 446.735,397.991 446.735,372.701 	"/>
	<polyline style="fill:#FEBA2B;" points="483.735,372.701 475.735,372.701 475.735,399.035 483.735,399.322 483.735,372.701 	"/>
	<polyline style="fill:#FEBA2B;" points="522.735,372.701 513.735,372.701 513.735,400.402 522.735,400.727 522.735,372.701 	"/>
	<path style="fill:#F7AA00;" d="M250.735,371.701h-234v1h7v10.062l29,1.044v-11.106h10v11.467l32,1.151v-12.618h8v12.906l32,1.152
		v-14.059h10v14.418l32,1.152v-15.57h9v15.895l29,1.044v-16.938h8v17.227l11.277,0.405c1.098-0.409,2.272-0.632,3.42-0.632h0.343
		c1.385,0,2.725,0.323,3.898,0.908l9.061,0.326V371.701"/>
	<polyline style="fill:#FEBA2B;" points="23.735,372.701 16.735,372.701 16.735,382.512 23.735,382.764 23.735,372.701 	"/>
	<polyline style="fill:#FEBA2B;" points="144.735,372.701 134.735,372.701 134.735,386.76 144.735,387.119 144.735,372.701 	"/>
	<polyline style="fill:#FEBA2B;" points="102.735,372.701 94.735,372.701 94.735,385.319 102.735,385.607 102.735,372.701 	"/>
	<polyline style="fill:#FEBA2B;" points="62.735,372.701 52.735,372.701 52.735,383.808 62.735,384.168 62.735,372.701 	"/>
	<polyline style="fill:#FEBA2B;" points="185.735,372.701 176.735,372.701 176.735,388.271 185.735,388.596 185.735,372.701 	"/>
	<polyline style="fill:#FEBA2B;" points="222.735,372.701 214.735,372.701 214.735,389.64 222.735,389.928 222.735,372.701 	"/>
	<polyline style="fill:#FFC536;" points="548.735,351.701 19.735,351.701 19.735,361.701 548.735,361.701 548.735,351.701 	"/>
	<polyline style="fill:#FFC536;" points="267.735,496.701 250.735,496.701 250.735,361.701 267.735,361.701 267.735,496.701 	"/>
	<polyline style="fill:#FFC536;" points="368.735,496.701 353.735,496.701 353.735,361.701 368.735,361.701 368.735,496.701 	"/>
	<polyline style="fill:#FFC536;" points="435.735,355.701 426.735,355.701 426.735,210.701 435.735,210.701 435.735,355.701 	"/>
	<polyline style="fill:#FFC536;" points="526.735,350.701 516.735,350.701 516.735,209.701 526.735,209.701 526.735,350.701 	"/>
	<rect x="352.735" y="351.701" style="fill:#FFDF78;" width="18" height="10"/>
	<rect x="249.735" y="351.701" style="fill:#FFDF78;" width="20" height="10"/>
	<rect x="16.735" y="351.701" style="fill:#FFDF78;" width="29" height="10"/>
	<rect x="271.735" y="426.701" style="fill:#FFC536;" width="77" height="6"/>
	<path style="fill:#E98D00;" d="M498.735,96.701h-43v5.873l16.727,2.962c1.415-1.099,3.013-1.835,4.377-1.835h0.275
		c1.964,0,3.558,1.526,4.54,3.463l17.081,3.025V96.701"/>
	<polyline style="fill:#FEBA2B;" points="506.735,95.701 448.735,95.701 448.735,96.701 455.735,96.701 498.735,96.701 
		506.735,96.701 506.735,95.701 	"/>
	<polyline style="fill:#F7AA00;" points="455.735,96.701 448.735,96.701 448.735,101.334 455.735,102.574 455.735,96.701 	"/>
	<polyline style="fill:#F7AA00;" points="506.735,96.701 498.735,96.701 498.735,110.189 506.735,111.606 506.735,96.701 	"/>
	<polyline style="fill:#F8B500;" points="329.735,351.701 286.735,351.701 286.735,311.701 329.735,311.701 329.735,351.701 	"/>
	<polyline style="fill:#FFC536;" points="332.735,309.701 282.735,309.701 282.735,312.701 332.735,312.701 332.735,309.701 	"/>
	<path style="fill:#F7AA00;" d="M293.735,312.701h-7v4.291l7,1.202V312.701 M320.735,312.701h-24v6.008l24,4.121V312.701
		 M329.735,312.701h-6v10.644l6,1.03V312.701"/>
	<polyline style="fill:#FEBA2B;" points="329.735,311.701 286.735,311.701 286.735,312.701 293.735,312.701 296.735,312.701 
		320.735,312.701 323.735,312.701 329.735,312.701 329.735,311.701 	"/>
	<path style="fill:#EA9600;" d="M267.735,333.084c0,4.204-3.86,7.617-8.221,7.617h-0.431c-4.361,0-8.349-3.413-8.349-7.617v-15.195
		c0-4.203,3.988-7.188,8.349-7.188h0.431c4.361,0,8.221,2.984,8.221,7.188V333.084"/>
	<polygon style="fill:#EA9600;" points="258.702,315.701 262.553,315.701 261.27,299.701 259.985,299.701 	"/>
	<polygon style="fill:#EA9600;" points="30.298,312.701 34.148,312.701 32.864,297.701 31.581,297.701 	"/>
	<polyline style="fill:#F8B500;" points="271.735,351.701 247.735,351.701 247.735,330.701 271.735,330.701 271.735,351.701 	"/>
	<rect x="243.735" y="326.701" style="fill:#FFC536;" width="31" height="4"/>
	<polyline style="fill:#F7AA00;" points="271.735,330.701 267.735,330.701 250.735,330.701 247.735,330.701 247.735,332.296 
		271.735,336.539 271.735,330.701 	"/>
	<path style="fill:#EA9600;" d="M368.735,333.701c0,4.418-3.582,8-8,8s-8-3.582-8-8v-14c0-4.418,3.582-8,8-8s8,3.582,8,8V333.701"/>
	<polygon style="fill:#EA9600;" points="359.799,316.701 363.651,316.701 362.366,300.701 361.082,300.701 	"/>
	<polyline style="fill:#F8B500;" points="372.735,351.701 348.735,351.701 348.735,330.701 372.735,330.701 372.735,351.701 	"/>
	<rect x="345.735" y="326.701" style="fill:#FFC536;" width="29" height="4"/>
	<polyline style="fill:#F7AA00;" points="372.735,330.701 368.735,330.701 352.735,330.701 348.735,330.701 348.735,332.296 
		372.735,336.539 372.735,330.701 	"/>
	<path style="fill:#E98D00;" d="M505.735,142.701h-56v10.632l16.709,4.125c3.014-1.935,6.6-3.057,10.448-3.057
		c7.213,0,13.504,3.945,16.836,9.794l12.007,2.965V142.701"/>
	<path style="fill:#FEF0CC;" d="M476.892,154.402c-3.849,0-7.435,1.122-10.448,3.057l27.284,6.737
		C490.396,158.347,484.105,154.402,476.892,154.402"/>
	<polyline style="fill:#F7AA00;" points="446.735,142.701 436.735,142.701 436.735,150.123 446.735,152.592 446.735,142.701 	"/>
	<polyline style="fill:#F7AA00;" points="514.735,142.701 507.735,142.701 507.735,167.654 514.735,169.383 514.735,142.701 	"/>
	<path style="fill:#E98D00;" d="M514.735,210.701h-76v8.497l11.495,2.214c0.807-0.454,1.659-0.711,2.526-0.711h1.627
		c1.605,0,2.915,0.881,3.918,2.266l11.625,2.239c1.711-2.604,4.187-4.504,6.544-4.504h1.628l0,0h0.68
		c3.143,0,4.925,3.372,5.617,7.291l9.521,1.833c0.77-4.638,3.89-9.125,7.515-9.125h1.629c4.184,0,6.675,5.978,6.675,11.267v0.905
		l5,0.963V210.701"/>
	<path style="fill:#DF7000;" d="M478.778,220.701h-0.68c3.136,0,5.3,3.36,6.187,7.27l0.11,0.021
		C483.703,224.073,481.92,220.701,478.778,220.701"/>
	<polyline style="fill:#FEBA2B;" points="435.735,210.701 426.735,210.701 426.735,216.887 435.735,218.621 435.735,210.701 	"/>
	<polyline style="fill:#FEBA2B;" points="526.735,210.701 516.735,210.701 516.735,234.221 526.735,236.146 526.735,210.701 	"/>
	<rect x="474.735" y="160.701" style="fill:#3487F8;" width="3" height="17"/>
	<rect x="474.735" y="176.701" style="fill:#3487F8;" width="13" height="3"/>
	<polyline style="fill:#F6A500;" points="271.735,347.701 264.735,347.701 264.735,351.701 253.735,351.701 253.735,347.701 
		247.735,347.701 247.735,351.701 271.735,351.701 271.735,347.701 	"/>
	<polyline style="fill:#F6A500;" points="370.735,347.701 364.735,347.701 364.735,351.701 356.735,351.701 356.735,347.701 
		348.735,347.701 348.735,351.701 370.735,351.701 370.735,347.701 	"/>
	<polyline style="fill:#F8B500;" points="318.735,309.701 296.735,309.701 296.735,285.701 318.735,285.701 318.735,309.701 	"/>
	<rect x="292.735" y="283.701" style="fill:#FFC536;" width="29" height="4"/>
	<polyline style="fill:#F7AA00;" points="318.735,287.701 296.735,287.701 296.735,289.928 318.735,294.17 318.735,287.701 	"/>
	<polyline style="fill:#F6A500;" points="318.735,303.701 310.735,303.701 310.735,309.701 304.735,309.701 304.735,303.701 
		296.735,303.701 296.735,309.701 318.735,309.701 318.735,303.701 	"/>
	<path style="fill:#E88900;" d="M526.735,350.701h-10v1h10V350.701 M493.735,342.701h-9v8h-17v-8h-7v8h-16v-8h-6v9h55V342.701
		 M514.735,342.701h-5v9h5V342.701"/>
	<polyline style="fill:#DE6C00;" points="460.735,342.701 444.735,342.701 444.735,350.701 460.735,350.701 460.735,342.701 	"/>
	<polyline style="fill:#DE6C00;" points="484.735,342.701 467.735,342.701 467.735,350.701 484.735,350.701 484.735,342.701 	"/>
	<polyline style="fill:#DE6C00;" points="509.735,342.701 493.735,342.701 493.735,351.701 509.735,351.701 509.735,342.701 	"/>
	<polyline style="fill:#FDB426;" points="435.735,342.701 427.735,342.701 427.735,351.701 435.735,351.701 435.735,342.701 	"/>
	<polyline style="fill:#FDB426;" points="526.735,342.701 516.735,342.701 516.735,350.701 526.735,350.701 526.735,342.701 	"/>
	<path style="fill:#F8B500;" d="M271.464,351.701c0,0,15.271-15.409,15.271-39.805v39.805H271.464z"/>
	<path style="fill:#F8B500;" d="M345.931,351.701c0,0-16.196-15.409-16.196-39.805v39.805H345.931z"/>
	<path style="fill:#EE8F00;" d="M308.919,322.701h-0.274c-3.348,0-7.91,2.416-7.91,5.765v23.235h14v-23.235
		C314.735,325.117,312.267,322.701,308.919,322.701"/>
	<path style="fill:#E07700;" d="M472.461,105.536c-2.057,1.598-3.727,3.962-3.727,5.946v23.219h14v-23.219
		c0-1.384-0.389-2.953-1.081-4.318L472.461,105.536"/>
	<path style="fill:#DF7000;" d="M477.114,103.701h-0.275c-1.364,0-2.962,0.736-4.377,1.835l9.192,1.628
		C480.671,105.227,479.078,103.701,477.114,103.701"/>
	<rect x="286.735" y="312.701" style="fill:#FFC536;" width="7" height="39"/>
	<rect x="323.735" y="312.701" style="fill:#FFC536;" width="7" height="39"/>
	<path style="fill:#EE8F00;" d="M308.803,296.701h-0.133c-1.602,0-3.936,1.34-3.936,2.63v4.37h6v-4.37
		C310.735,298.041,310.407,296.701,308.803,296.701"/>
	<polyline style="fill:#EC8300;" points="310.735,303.701 304.735,303.701 304.735,309.701 310.735,309.701 310.735,303.701 	"/>
	<path style="fill:#EA9600;" d="M40.735,333.084c0,4.204-4.067,7.617-8.523,7.617h-0.087c-4.456,0-8.39-3.413-8.39-7.617v-15.195
		c0-4.203,3.934-7.188,8.39-7.188h0.087c4.456,0,8.523,2.984,8.523,7.188V333.084"/>
	<polyline style="fill:#F8B500;" points="45.735,351.701 19.735,351.701 19.735,330.701 45.735,330.701 45.735,351.701 	"/>
	<rect x="16.735" y="326.701" style="fill:#FFC536;" width="31" height="4"/>
	<polyline style="fill:#F7AA00;" points="45.735,330.701 40.735,330.701 23.735,330.701 19.735,330.701 19.735,332.296 
		45.735,336.539 45.735,330.701 	"/>
	<polyline style="fill:#F6A500;" points="45.735,347.701 37.735,347.701 37.735,351.701 27.735,351.701 27.735,347.701 
		19.735,347.701 19.735,351.701 45.735,351.701 45.735,347.701 	"/>
	<polygon style="fill:#B76400;" points="307.377,275.701 311.23,275.701 309.946,260.701 308.662,260.701 	"/>
	<rect x="449.735" y="83.701" style="fill:#FFCF64;" width="56" height="7"/>
	<rect x="459.735" y="47.701" style="fill:#FFCD5F;" width="38" height="4"/>
	<polyline style="fill:#FFC536;" points="558.735,450.701 8.735,450.701 8.735,439.701 558.735,439.701 558.735,450.701 	"/>
	<path style="fill:#F7AA00;" d="M400.735,450.701h-32v5h32V450.701 M436.735,450.701h-26v5h26V450.701 M475.735,450.701h-29v5h29
		V450.701 M513.735,450.701h-30v5h30V450.701 M551.735,450.701h-29v5h29V450.701"/>
	<polyline style="fill:#FEBA2B;" points="410.735,450.701 400.735,450.701 400.735,455.701 410.735,455.701 410.735,450.701 	"/>
	<polyline style="fill:#FEBA2B;" points="446.735,450.701 436.735,450.701 436.735,455.701 446.735,455.701 446.735,450.701 	"/>
	<polyline style="fill:#FEBA2B;" points="483.735,450.701 475.735,450.701 475.735,455.701 483.735,455.701 483.735,450.701 	"/>
	<polyline style="fill:#FEBA2B;" points="522.735,450.701 513.735,450.701 513.735,455.701 522.735,455.701 522.735,450.701 	"/>
	<polyline style="fill:#FEBA2B;" points="368.735,450.701 353.735,450.701 353.735,455.701 368.735,455.701 368.735,450.701 	"/>
	<path style="fill:#F7AA00;" d="M52.735,450.701h-29v5h29V450.701 M94.735,450.701h-32v5h32V450.701 M134.735,450.701h-32v5h32
		V450.701 M176.735,450.701h-32v5h32V450.701 M214.735,450.701h-29v5h29V450.701 M250.735,450.701h-28v5h28V450.701
		 M350.735,450.701h-81v5h81V450.701"/>
	<polyline style="fill:#FEBA2B;" points="23.735,450.701 16.735,450.701 16.735,455.701 23.735,455.701 23.735,450.701 	"/>
	<polyline style="fill:#FEBA2B;" points="144.735,450.701 134.735,450.701 134.735,455.701 144.735,455.701 144.735,450.701 	"/>
	<polyline style="fill:#FEBA2B;" points="102.735,450.701 94.735,450.701 94.735,455.701 102.735,455.701 102.735,450.701 	"/>
	<polyline style="fill:#FEBA2B;" points="62.735,450.701 52.735,450.701 52.735,455.701 62.735,455.701 62.735,450.701 	"/>
	<polyline style="fill:#FEBA2B;" points="185.735,450.701 176.735,450.701 176.735,455.701 185.735,455.701 185.735,450.701 	"/>
	<polyline style="fill:#FEBA2B;" points="222.735,450.701 214.735,450.701 214.735,455.701 222.735,455.701 222.735,450.701 	"/>
	<polyline style="fill:#FEBA2B;" points="267.735,450.701 250.735,450.701 250.735,455.701 267.735,455.701 267.735,450.701 	"/>
	<path style="fill:#FEBA2B;" d="M267.735,450.701h-251h7h29h10h32h8h32h10h32h9h29h8h28H267.735 M350.735,450.701h-81H350.735
		 M551.735,450.701h-198h15h32h10h26h10h29h8h30h9H551.735"/>
	<polyline style="fill:#FFDF78;" points="268.735,450.701 249.735,450.701 249.735,439.701 268.735,439.701 268.735,450.701 	"/>
	<polyline style="fill:#F8A500;" points="320.735,322.83 320.735,351.701 323.735,351.701 323.735,323.345 320.735,322.83 	"/>
	<polyline style="fill:#F79A00;" points="323.735,312.701 320.735,312.701 320.735,322.83 323.735,323.345 323.735,312.701 	"/>
	<polyline style="fill:#F8A500;" points="293.735,318.194 293.735,351.701 296.735,351.701 296.735,318.709 293.735,318.194 	"/>
	<polyline style="fill:#F79A00;" points="296.735,312.701 293.735,312.701 293.735,318.194 296.735,318.709 296.735,312.701 	"/>
	<polyline style="fill:#F8A500;" points="267.735,391.547 267.735,439.701 269.735,439.701 269.735,391.619 267.735,391.547 	"/>
	<polyline style="fill:#EA8800;" points="269.735,361.701 267.735,361.701 267.735,371.701 269.735,371.701 269.735,361.701 	"/>
	<polyline style="fill:#F79A00;" points="269.735,371.701 267.735,371.701 267.735,391.547 269.735,391.619 269.735,371.701 	"/>
	<polyline style="fill:#F8A500;" points="269.735,455.701 267.735,455.701 267.735,495.701 269.735,495.701 269.735,455.701 	"/>
	<polyline style="fill:#FFB325;" points="269.735,442.701 268.735,442.701 268.735,450.701 267.735,450.701 269.735,450.701 
		269.735,442.701 	"/>
	<polyline style="fill:#F79A00;" points="269.735,450.701 267.735,450.701 267.735,455.701 269.735,455.701 269.735,450.701 	"/>
	<polyline style="fill:#FFCB52;" points="268.735,442.701 267.735,442.701 267.735,450.701 268.735,450.701 268.735,442.701 	"/>
	<polyline style="fill:#FFDF78;" points="370.735,450.701 352.735,450.701 352.735,439.701 370.735,439.701 370.735,450.701 	"/>
	<polyline style="fill:#F8A500;" points="350.735,394.535 350.735,439.701 353.735,439.701 353.735,394.643 350.735,394.535 	"/>
	<polyline style="fill:#EA8800;" points="353.735,361.701 350.735,361.701 350.735,371.701 353.735,371.701 353.735,361.701 	"/>
	<polyline style="fill:#F79A00;" points="353.735,371.701 350.735,371.701 350.735,394.535 353.735,394.643 353.735,371.701 	"/>
	<polyline style="fill:#FFB325;" points="353.735,361.701 353.735,361.701 353.735,371.701 353.735,394.643 353.735,439.701 
		353.735,361.701 	"/>
	<polyline style="fill:#F8A500;" points="353.735,455.701 350.735,455.701 350.735,495.701 353.735,495.701 353.735,455.701 	"/>
	<polyline style="fill:#FFB325;" points="352.735,442.701 350.735,442.701 350.735,450.701 353.735,450.701 352.735,450.701 
		352.735,442.701 	"/>
	<polyline style="fill:#F79A00;" points="353.735,450.701 350.735,450.701 350.735,455.701 353.735,455.701 353.735,450.701 	"/>
	<polyline style="fill:#FFCB52;" points="353.735,442.701 352.735,442.701 352.735,450.701 353.735,450.701 353.735,442.701 	"/>
	<polyline style="fill:#FFCF50;" points="558.735,439.701 522.735,439.701 513.735,439.701 483.735,439.701 475.735,439.701 
		446.735,439.701 436.735,439.701 410.735,439.701 400.735,439.701 370.735,439.701 370.735,442.701 558.735,442.701 
		558.735,439.701 	"/>
	<polyline style="fill:#FFDF78;" points="370.735,439.701 353.735,439.701 353.735,442.701 370.735,442.701 370.735,439.701 	"/>
	<polyline style="fill:#FFCF50;" points="350.735,439.701 269.735,439.701 269.735,442.701 350.735,442.701 350.735,439.701 	"/>
	<polyline style="fill:#FFCF50;" points="249.735,439.701 222.735,439.701 214.735,439.701 185.735,439.701 176.735,439.701 
		144.735,439.701 134.735,439.701 102.735,439.701 94.735,439.701 62.735,439.701 52.735,439.701 23.735,439.701 15.735,439.701 
		8.735,439.701 8.735,442.701 249.735,442.701 249.735,439.701 	"/>
	<polyline style="fill:#FFDF78;" points="267.735,439.701 267.735,439.701 250.735,439.701 249.735,439.701 249.735,442.701 
		267.735,442.701 267.735,439.701 	"/>
	<polyline style="fill:#FFC546;" points="269.735,439.701 268.735,439.701 268.735,442.701 269.735,442.701 269.735,439.701 	"/>
	<polyline style="fill:#FFD361;" points="268.735,439.701 267.735,439.701 267.735,442.701 268.735,442.701 268.735,439.701 	"/>
	<polyline style="fill:#FFC546;" points="352.735,439.701 350.735,439.701 350.735,442.701 352.735,442.701 352.735,439.701 	"/>
	<polyline style="fill:#FFD361;" points="353.735,439.701 353.735,439.701 352.735,439.701 352.735,442.701 353.735,442.701 
		353.735,439.701 	"/>
	<polyline style="fill:#FFC536;" points="556.735,503.701 6.735,503.701 6.735,495.701 556.735,495.701 556.735,503.701 	"/>
	<path style="fill:#E98D00;" d="M551.735,506.701h-535v12h16.889c1.875-2.797,4.927-5,8.145-5h0.432c3.217,0,6.081,2.203,7.811,5
		h24.943c2.167-2.797,5.598-5,8.815-5h0.433c3.217,0,5.325,2.203,6.472,5h24.529c1.505-2.797,4.079-5,7.295-5h0.432
		c3.217,0,6.561,2.203,8.661,5h24.102c1.937-2.797,5.069-5,8.287-5h0.432c3.218,0,5.624,2.203,7.001,5h25.101
		c1.779-2.797,4.708-5,7.925-5h0.433c3.218,0,6.206,2.203,8.031,5h24.102c2.21-2.797,5.698-5,8.916-5h0.432
		c3.218,0,5.269,2.203,6.372,5h24.494c1.52-2.797,4.11-5,7.327-5h0.432c3.218,0,6.544,2.203,8.63,5h24.309
		c2.132-2.797,5.518-5,8.735-5h0.433c3.218,0,6.126,2.203,7.89,5h24.501c1.744-2.797,4.627-5,7.844-5h0.433
		c3.219,0,6.252,2.203,8.112,5h23.095c2.169-2.797,5.603-5,8.821-5h0.431c3.218,0,6.078,2.203,7.806,5h24.771
		c2.019-2.797,5.257-5,8.475-5h0.431c3.218,0,5.896,2.203,7.483,5h23.19c1.648-2.797,4.406-5,7.624-5h0.432
		c3.217,0,6.376,2.203,8.333,5h24.274c2.23-2.797,5.744-5,8.963-5h0.43c3.218,0,5.999,2.203,7.664,5h13.65V506.701"/>
	<polyline style="fill:#FFCF50;" points="556.735,495.701 522.735,495.701 513.735,495.701 483.735,495.701 475.735,495.701 
		446.735,495.701 436.735,495.701 410.735,495.701 400.735,495.701 353.735,495.701 269.735,495.701 267.735,495.701 
		250.735,495.701 222.735,495.701 214.735,495.701 185.735,495.701 176.735,495.701 144.735,495.701 134.735,495.701 
		102.735,495.701 94.735,495.701 62.735,495.701 52.735,495.701 23.735,495.701 15.735,495.701 6.735,495.701 6.735,497.701 
		556.735,497.701 556.735,495.701 	"/>
	<path style="fill:#DB6800;" d="M450.23,221.412c-3.085,1.737-5.495,6.363-5.495,10.556v46.733h16v-46.733
		c0-3.258-0.823-6.779-2.434-9.001L450.23,221.412"/>
	<path style="fill:#DA6200;" d="M454.383,220.701h-1.627c-0.867,0-1.72,0.257-2.526,0.711l8.071,1.555
		C457.298,221.582,455.989,220.701,454.383,220.701"/>
	<path style="fill:#E48300;" d="M469.926,225.206c-1.325,2.016-2.191,4.455-2.191,6.762l0,0c0-2.29,0.98-4.708,2.433-6.716
		L469.926,225.206"/>
	<path style="fill:#DB6800;" d="M470.167,225.252c-1.452,2.007-2.433,4.426-2.433,6.716v46.733h17v-46.733l0,0
		c0-1.324-0.153-2.691-0.45-3.997L470.167,225.252"/>
	<path style="fill:#E37B00;" d="M478.098,220.701h-1.628c-2.357,0-4.833,1.9-6.544,4.504l0.241,0.046
		c1.901-2.628,4.611-4.551,6.983-4.551H478.098L478.098,220.701"/>
	<path style="fill:#DA6200;" d="M478.098,220.701h-0.947c-2.372,0-5.082,1.922-6.983,4.551l14.117,2.719
		C483.398,224.061,481.234,220.701,478.098,220.701"/>
	<path style="fill:#E48300;" d="M509.72,232.87c0.01,0.24,0.015,0.48,0.015,0.719v45.112v-45.829L509.72,232.87 M493.917,229.826
		c-0.119,0.716-0.182,1.435-0.182,2.142v1.621c0-1.238,0.199-2.494,0.558-3.691L493.917,229.826"/>
	<path style="fill:#DB6800;" d="M494.292,229.898c-0.358,1.197-0.558,2.453-0.558,3.691v45.112h16v-45.112
		c0-0.239-0.005-0.479-0.015-0.719L494.292,229.898"/>
	<path style="fill:#E37B00;" d="M503.06,220.701h-1.629c-3.625,0-6.745,4.486-7.515,9.125l0.376,0.072
		c1.171-3.913,4.048-7.197,7.252-7.197h1.627c3.996,0,6.345,5.104,6.549,10.168l0.015,0.003v-0.905
		C509.735,226.679,507.244,220.701,503.06,220.701"/>
	<path style="fill:#DA6200;" d="M503.171,222.701h-1.627c-3.204,0-6.081,3.284-7.252,7.197l15.428,2.972
		C509.516,227.806,507.167,222.701,503.171,222.701"/>
	<polyline style="fill:#EA8500;" points="435.735,218.621 435.735,342.701 438.735,342.701 438.735,219.198 435.735,218.621 	"/>
	<polyline style="fill:#FFAE20;" points="438.735,351.701 435.735,351.701 435.735,355.701 438.735,355.701 438.735,351.701 	"/>
	<polyline style="fill:#E97D00;" points="438.735,210.701 435.735,210.701 435.735,218.621 438.735,219.198 438.735,210.701 	"/>
	<polyline style="fill:#E87900;" points="438.735,342.701 435.735,342.701 435.735,351.701 438.735,351.701 438.735,342.701 	"/>
	<polyline style="fill:#EA8500;" points="514.735,233.835 514.735,342.701 516.735,342.701 516.735,234.221 514.735,233.835 	"/>
	<polyline style="fill:#FFAE20;" points="516.735,351.701 514.735,351.701 514.735,355.701 516.735,355.701 516.735,351.701 	"/>
	<polyline style="fill:#E97D00;" points="516.735,210.701 514.735,210.701 514.735,233.835 516.735,234.221 516.735,210.701 	"/>
	<polyline style="fill:#E87900;" points="516.735,342.701 514.735,342.701 514.735,351.701 516.735,351.701 516.735,350.701 
		516.735,342.701 	"/>
	<polyline style="fill:#E78000;" points="446.735,152.592 446.735,202.701 449.735,202.701 449.735,153.333 446.735,152.592 	"/>
	<polyline style="fill:#E67800;" points="449.735,142.701 446.735,142.701 446.735,152.592 449.735,153.333 449.735,142.701 	"/>
	<polyline style="fill:#E78000;" points="505.735,167.161 505.735,202.701 507.735,202.701 507.735,167.654 505.735,167.161 	"/>
	<polyline style="fill:#E67800;" points="507.735,142.701 506.735,142.701 505.735,142.701 505.735,167.161 507.735,167.654 
		507.735,142.701 	"/>
	<path style="fill:#F18000;" d="M260.513,334.701h-1.06c-2.119,0-5.719,2.505-5.719,4.624v8.376h11v-8.376
		C264.735,337.206,262.633,334.701,260.513,334.701"/>
	<polyline style="fill:#EF7500;" points="264.735,347.701 253.735,347.701 253.735,351.701 264.735,351.701 264.735,347.701 	"/>
	<path style="fill:#F18000;" d="M33.356,334.701h-1.059c-2.121,0-4.562,2.505-4.562,4.624v8.376h10v-8.376
		C37.735,337.206,35.477,334.701,33.356,334.701"/>
	<polyline style="fill:#EF7500;" points="37.735,347.701 27.735,347.701 27.735,351.701 37.735,351.701 37.735,347.701 	"/>
	<path style="fill:#F18000;" d="M361.609,334.701h-1.057c-2.122,0-3.817,2.505-3.817,4.624v8.376h8v-8.376
		C364.735,337.206,363.729,334.701,361.609,334.701"/>
	<polyline style="fill:#EF7500;" points="364.735,347.701 356.735,347.701 356.735,351.701 364.735,351.701 364.735,347.701 	"/>
	<path style="fill:#E47100;" d="M40.575,389.701H40.23c-4.185,0-8.496,2.952-8.496,7.139v16.861h17V396.84
		C48.735,392.653,44.758,389.701,40.575,389.701"/>
	<polyline style="fill:#EE8F00;" points="69.735,396.84 69.735,396.84 69.735,426.701 84.735,426.701 84.735,413.701 
		69.735,413.701 69.735,396.84 	"/>
	<path style="fill:#E47100;" d="M78.018,389.701h-0.343c-4.184,0-7.939,2.952-7.939,7.139v16.861h15V396.84
		C84.735,392.653,82.202,389.701,78.018,389.701"/>
	<polyline style="fill:#EE8F00;" points="112.735,396.84 112.735,396.84 112.735,426.701 128.735,426.701 128.735,413.701 
		112.735,413.701 112.735,396.84 	"/>
	<path style="fill:#E47100;" d="M120.455,389.701h-0.345c-4.184,0-7.375,2.952-7.375,7.139v16.861h16V396.84
		C128.735,392.653,124.639,389.701,120.455,389.701"/>
	<polyline style="fill:#EE8F00;" points="151.735,396.84 151.735,396.84 151.735,426.701 167.735,426.701 167.735,413.701 
		151.735,413.701 151.735,396.84 	"/>
	<path style="fill:#E47100;" d="M160.394,389.701h-0.344c-4.184,0-8.315,2.952-8.315,7.139v16.861h16V396.84
		C167.735,392.653,164.578,389.701,160.394,389.701"/>
	<polyline style="fill:#EE8F00;" points="191.735,396.84 191.735,396.84 191.735,426.701 207.735,426.701 207.735,413.701 
		191.735,413.701 191.735,396.84 	"/>
	<path style="fill:#E47100;" d="M200.333,389.701h-0.343c-4.185,0-8.255,2.952-8.255,7.139v16.861h16V396.84
		C207.735,392.653,204.517,389.701,200.333,389.701"/>
	<polyline style="fill:#EE8F00;" points="276.735,396.84 276.735,396.84 276.735,426.701 292.735,426.701 292.735,413.701 
		276.735,413.701 276.735,396.84 	"/>
	<path style="fill:#E47100;" d="M278.944,391.951c-1.347,1.242-2.209,2.93-2.209,4.889v16.861h16V396.84
		c0-1.735-0.575-3.26-1.547-4.448L278.944,391.951"/>
	<path style="fill:#E36B00;" d="M285.205,389.701h-0.344c-2.227,0-4.385,0.836-5.917,2.25l12.244,0.44
		C289.816,390.713,287.654,389.701,285.205,389.701"/>
	<polyline style="fill:#EE8F00;" points="300.735,396.84 300.735,396.84 300.735,426.701 316.735,426.701 316.735,413.701 
		300.735,413.701 300.735,396.84 	"/>
	<path style="fill:#E47100;" d="M302.455,392.797c-1.053,1.122-1.72,2.499-1.72,4.043v16.861h16V396.84
		c0-1.327-0.239-2.529-0.699-3.554L302.455,392.797"/>
	<path style="fill:#E36B00;" d="M310.168,389.701h-0.347c-2.64,0-5.567,1.176-7.367,3.096l13.581,0.489
		C315.043,391.079,313.026,389.701,310.168,389.701"/>
	<polyline style="fill:#EE8F00;" points="325.735,396.84 325.735,396.84 325.735,426.701 342.735,426.701 342.735,413.701 
		325.735,413.701 325.735,396.84 	"/>
	<path style="fill:#E47100;" d="M326.745,393.672c-0.634,0.936-1.01,2.004-1.01,3.168v16.861h17V396.84
		c0-0.938-0.172-1.815-0.486-2.61L326.745,393.672"/>
	<path style="fill:#E36B00;" d="M335.129,389.701h-0.344c-3.021,0-6.397,1.539-8.041,3.971l15.504,0.558
		C341.163,391.478,338.375,389.701,335.129,389.701"/>
	<polyline style="fill:#EE8F00;" points="278.735,465.485 278.735,465.485 278.735,495.701 293.735,495.701 293.735,482.701 
		278.735,482.701 278.735,465.485 	"/>
	<path style="fill:#E47100;" d="M286.453,457.701h-0.345c-4.185,0-7.374,3.6-7.374,7.784v17.216h15v-17.216
		C293.735,461.301,290.638,457.701,286.453,457.701"/>
	<polyline style="fill:#EE8F00;" points="302.735,465.485 302.735,465.485 302.735,495.701 317.735,495.701 317.735,482.701 
		302.735,482.701 302.735,465.485 	"/>
	<path style="fill:#E47100;" d="M311.416,457.701h-0.345c-4.185,0-8.336,3.6-8.336,7.784v17.216h15v-17.216
		C317.735,461.301,315.599,457.701,311.416,457.701"/>
	<polyline style="fill:#EE8F00;" points="328.735,465.485 328.735,465.485 328.735,495.701 343.735,495.701 343.735,482.701 
		328.735,482.701 328.735,465.485 	"/>
	<path style="fill:#E47100;" d="M336.375,457.701h-0.342c-4.184,0-7.299,3.6-7.299,7.784v17.216h15v-17.216
		C343.735,461.301,340.562,457.701,336.375,457.701"/>
	<polyline style="fill:#EE8F00;" points="228.735,396.84 228.735,396.84 228.735,426.701 245.735,426.701 245.735,413.701 
		228.735,413.701 228.735,396.84 	"/>
	<path style="fill:#E47100;" d="M234.012,390.333c-2.902,1.082-5.277,3.47-5.277,6.507v16.861h17V396.84
		c0-2.801-1.689-5.049-4.061-6.23L234.012,390.333"/>
	<path style="fill:#E36B00;" d="M237.776,389.701h-0.343c-1.148,0-2.322,0.223-3.42,0.632l7.662,0.276
		C240.501,390.024,239.161,389.701,237.776,389.701"/>
	<polyline style="fill:#EE8F00;" points="30.735,465.485 30.735,465.485 30.735,495.701 47.735,495.701 47.735,482.701 
		30.735,482.701 30.735,465.485 	"/>
	<path style="fill:#E47100;" d="M39.325,457.701h-0.342c-4.184,0-8.249,3.6-8.249,7.784v17.216h17v-17.216
		C47.735,461.301,43.511,457.701,39.325,457.701"/>
	<polyline style="fill:#EE8F00;" points="68.735,465.485 68.735,465.485 68.735,495.701 83.735,495.701 83.735,482.701 
		68.735,482.701 68.735,465.485 	"/>
	<path style="fill:#E47100;" d="M76.77,457.701h-0.344c-4.185,0-7.691,3.6-7.691,7.784v17.216h15v-17.216
		C83.735,461.301,80.955,457.701,76.77,457.701"/>
	<polyline style="fill:#EE8F00;" points="111.735,465.485 111.735,465.485 111.735,495.701 127.735,495.701 127.735,482.701 
		111.735,482.701 111.735,465.485 	"/>
	<path style="fill:#E47100;" d="M119.206,457.701h-0.344c-4.184,0-7.127,3.6-7.127,7.784v17.216h16v-17.216
		C127.735,461.301,123.39,457.701,119.206,457.701"/>
	<polyline style="fill:#EE8F00;" points="150.735,465.485 150.735,465.485 150.735,495.701 165.735,495.701 165.735,482.701 
		150.735,482.701 150.735,465.485 	"/>
	<path style="fill:#E47100;" d="M159.144,457.701h-0.342c-4.184,0-8.067,3.6-8.067,7.784v17.216h15v-17.216
		C165.735,461.301,163.33,457.701,159.144,457.701"/>
	<polyline style="fill:#EE8F00;" points="190.735,465.485 190.735,465.485 190.735,495.701 205.735,495.701 205.735,482.701 
		190.735,482.701 190.735,465.485 	"/>
	<path style="fill:#E47100;" d="M199.083,457.701h-0.343c-4.184,0-8.006,3.6-8.006,7.784v17.216h15v-17.216
		C205.735,461.301,203.27,457.701,199.083,457.701"/>
	<polyline style="fill:#EE8F00;" points="227.735,465.485 227.735,465.485 227.735,495.701 243.735,495.701 243.735,482.701 
		227.735,482.701 227.735,465.485 	"/>
	<path style="fill:#E47100;" d="M236.527,457.701h-0.344c-4.183,0-8.449,3.6-8.449,7.784v17.216h16v-17.216
		C243.735,461.301,240.712,457.701,236.527,457.701"/>
	<polyline style="fill:#EE8F00;" points="377.735,465.485 377.735,465.485 377.735,495.701 393.735,495.701 393.735,482.701 
		377.735,482.701 377.735,465.485 	"/>
	<path style="fill:#E47100;" d="M386.302,457.701h-0.345c-4.184,0-8.223,3.6-8.223,7.784v17.216h16v-17.216
		C393.735,461.301,390.486,457.701,386.302,457.701"/>
	<polyline style="fill:#EE8F00;" points="414.735,465.485 414.735,465.485 414.735,495.701 430.735,495.701 430.735,482.701 
		414.735,482.701 414.735,465.485 	"/>
	<path style="fill:#E47100;" d="M423.746,457.701h-0.344c-4.184,0-8.667,3.6-8.667,7.784v17.216h16v-17.216
		C430.735,461.301,427.93,457.701,423.746,457.701"/>
	<polyline style="fill:#EE8F00;" points="451.735,465.485 451.735,465.485 451.735,495.701 467.735,495.701 467.735,482.701 
		451.735,482.701 451.735,465.485 	"/>
	<path style="fill:#E47100;" d="M461.187,457.701h-0.343c-4.184,0-9.109,3.6-9.109,7.784v17.216h16v-17.216
		C467.735,461.301,465.373,457.701,461.187,457.701"/>
	<polyline style="fill:#EE8F00;" points="491.735,465.485 491.735,465.485 491.735,495.701 507.735,495.701 507.735,482.701 
		491.735,482.701 491.735,465.485 	"/>
	<path style="fill:#E47100;" d="M499.879,457.701h-0.344c-4.184,0-7.801,3.6-7.801,7.784v17.216h16v-17.216
		C507.735,461.301,504.064,457.701,499.879,457.701"/>
	<polyline style="fill:#EE8F00;" points="527.735,465.485 527.735,465.485 527.735,495.701 545.735,495.701 545.735,482.701 
		527.735,482.701 527.735,465.485 	"/>
	<path style="fill:#E47100;" d="M537.324,457.701h-0.345c-4.184,0-9.244,3.6-9.244,7.784v17.216h18v-17.216
		C545.735,461.301,541.508,457.701,537.324,457.701"/>
	<rect x="27.735" y="425.701" style="fill:#FFC536;" width="23" height="6"/>
	<rect x="65.735" y="425.701" style="fill:#FFC536;" width="22" height="6"/>
	<rect x="106.735" y="425.701" style="fill:#FFC536;" width="24" height="6"/>
	<rect x="148.735" y="425.701" style="fill:#FFC536;" width="21" height="6"/>
	<rect x="189.735" y="425.701" style="fill:#FFC536;" width="21" height="6"/>
	<rect x="226.735" y="425.701" style="fill:#FFC536;" width="21" height="6"/>
	<polyline style="fill:#EE8F00;" points="377.735,395.593 377.735,395.593 377.735,425.701 393.735,425.701 393.735,412.701 
		377.735,412.701 377.735,395.593 	"/>
	<path style="fill:#E47100;" d="M377.736,395.507c-0.001,0.028-0.001,0.058-0.001,0.086v17.108h16v-16.618L377.736,395.507"/>
	<path style="fill:#E36B00;" d="M386.302,388.701h-0.345c-4.155,0-8.167,2.669-8.222,6.806l15.999,0.576v-0.49
		C393.735,391.407,390.486,388.701,386.302,388.701"/>
	<rect x="374.735" y="425.701" style="fill:#FFC536;" width="21" height="5"/>
	<polyline style="fill:#EE8F00;" points="416.735,396.911 416.735,425.701 431.735,425.701 431.735,412.701 416.735,412.701 
		416.735,396.911 	"/>
	<polyline style="fill:#E47100;" points="416.735,396.911 416.735,412.701 431.735,412.701 431.735,397.451 416.735,396.911 	"/>
	<path style="fill:#E36B00;" d="M424.994,388.701h-0.343c-4.186,0-7.916,2.706-7.916,6.892v1.318l15,0.54v-1.858
		C431.735,391.407,429.177,388.701,424.994,388.701"/>
	<rect x="413.735" y="425.701" style="fill:#FFC536;" width="21" height="5"/>
	<polyline style="fill:#EE8F00;" points="452.735,398.207 452.735,425.701 468.735,425.701 468.735,411.701 452.735,411.701 
		452.735,398.207 	"/>
	<polyline style="fill:#E47100;" points="452.735,398.207 452.735,411.701 468.735,411.701 468.735,398.783 452.735,398.207 	"/>
	<path style="fill:#E36B00;" d="M462.437,387.701h-0.344c-4.185,0-9.358,2.457-9.358,6.643v3.863l16,0.576v-4.439
		C468.735,390.158,466.621,387.701,462.437,387.701"/>
	<rect x="450.735" y="425.701" style="fill:#FFC536;" width="23" height="5"/>
	<polyline style="fill:#EE8F00;" points="490.735,399.574 490.735,425.701 506.735,425.701 506.735,411.701 490.735,411.701 
		490.735,399.574 	"/>
	<polyline style="fill:#E47100;" points="490.735,399.574 490.735,411.701 506.735,411.701 506.735,400.15 490.735,399.574 	"/>
	<path style="fill:#E36B00;" d="M498.631,387.701h-0.344c-4.183,0-7.553,2.457-7.553,6.643v5.23l16,0.576v-5.807
		C506.735,390.158,502.816,387.701,498.631,387.701"/>
	<rect x="487.735" y="425.701" style="fill:#FFC536;" width="21" height="5"/>
	<polyline style="fill:#EE8F00;" points="526.735,400.871 526.735,425.701 543.735,425.701 543.735,412.701 526.735,412.701 
		526.735,400.871 	"/>
	<polyline style="fill:#E47100;" points="526.735,400.871 526.735,412.701 543.735,412.701 543.735,401.482 526.735,400.871 	"/>
	<path style="fill:#E36B00;" d="M536.075,388.701h-0.344c-4.184,0-8.996,2.706-8.996,6.892v5.278l17,0.611v-5.89
		C543.735,391.407,540.259,388.701,536.075,388.701"/>
	<rect x="524.735" y="425.701" style="fill:#FFC536;" width="22" height="5"/>
	<path style="fill:#E07700;" d="M50.012,518.701H33.624c-1.176,1.754-1.889,3.741-1.889,5.565v34.435h20v-34.435
		C51.735,522.442,51.096,520.455,50.012,518.701"/>
	<path style="fill:#DF7000;" d="M42.201,513.701h-0.432c-3.218,0-6.27,2.203-8.145,5h16.388
		C48.282,515.904,45.418,513.701,42.201,513.701"/>
	<path style="fill:#E07700;" d="M90.674,518.701h-15.72c-1.358,1.754-2.22,3.741-2.22,5.565v34.435h19v-34.435
		C91.735,522.442,91.394,520.455,90.674,518.701"/>
	<path style="fill:#DF7000;" d="M84.202,513.701H83.77c-3.217,0-6.648,2.203-8.815,5h15.72
		C89.527,515.904,87.419,513.701,84.202,513.701"/>
	<path style="fill:#E07700;" d="M131.591,518.701h-16.388c-0.944,1.754-1.468,3.741-1.468,5.565v34.435h20v-34.435
		C133.735,522.442,132.908,520.455,131.591,518.701"/>
	<path style="fill:#DF7000;" d="M122.931,513.701h-0.432c-3.217,0-5.79,2.203-7.295,5h16.388
		C129.492,515.904,126.148,513.701,122.931,513.701"/>
	<path style="fill:#E07700;" d="M171.413,518.701h-15.72c-1.214,1.754-1.958,3.741-1.958,5.565v34.435h19v-34.435
		C172.735,522.442,172.276,520.455,171.413,518.701"/>
	<path style="fill:#DF7000;" d="M164.412,513.701h-0.432c-3.218,0-6.351,2.203-8.287,5h15.72
		C170.036,515.904,167.63,513.701,164.412,513.701"/>
	<path style="fill:#E07700;" d="M212.903,518.701h-16.389c-1.115,1.754-1.779,3.741-1.779,5.565v34.435h20v-34.435
		C214.735,522.442,214.047,520.455,212.903,518.701"/>
	<path style="fill:#DF7000;" d="M204.872,513.701h-0.433c-3.217,0-6.146,2.203-7.925,5h16.389
		C211.078,515.904,208.089,513.701,204.872,513.701"/>
	<path style="fill:#E07700;" d="M252.725,518.701h-15.72c-1.386,1.754-2.27,3.741-2.27,5.565v34.435h19v-34.435
		C253.735,522.442,253.416,520.455,252.725,518.701"/>
	<path style="fill:#DF7000;" d="M246.353,513.701h-0.432c-3.218,0-6.706,2.203-8.916,5h15.72
		C251.622,515.904,249.571,513.701,246.353,513.701"/>
	<path style="fill:#E07700;" d="M293.607,518.701h-16.389c-0.952,1.754-1.483,3.741-1.483,5.565v34.435h20v-34.435
		C295.735,522.442,294.915,520.455,293.607,518.701"/>
	<path style="fill:#DF7000;" d="M284.977,513.701h-0.432c-3.217,0-5.808,2.203-7.327,5h16.389
		C291.521,515.904,288.195,513.701,284.977,513.701"/>
	<path style="fill:#E07700;" d="M334.973,518.701h-17.058c-1.337,1.754-2.181,3.741-2.181,5.565v34.435h21v-34.435
		C336.735,522.442,336.079,520.455,334.973,518.701"/>
	<path style="fill:#DF7000;" d="M327.083,513.701h-0.433c-3.218,0-6.604,2.203-8.735,5h17.058
		C333.209,515.904,330.301,513.701,327.083,513.701"/>
	<path style="fill:#E07700;" d="M375.863,518.701h-16.389c-1.094,1.754-1.739,3.741-1.739,5.565v34.435h20v-34.435
		C377.735,522.442,377.03,520.455,375.863,518.701"/>
	<path style="fill:#DF7000;" d="M367.75,513.701h-0.433c-3.217,0-6.1,2.203-7.844,5h16.389
		C374.002,515.904,370.969,513.701,367.75,513.701"/>
	<path style="fill:#E07700;" d="M416.015,518.701h-17.058c-1.359,1.754-2.223,3.741-2.223,5.565v34.435h21v-34.435
		C417.735,522.442,417.098,520.455,416.015,518.701"/>
	<path style="fill:#DF7000;" d="M408.209,513.701h-0.431c-3.219,0-6.652,2.203-8.821,5h17.058
		C414.288,515.904,411.427,513.701,408.209,513.701"/>
	<path style="fill:#E07700;" d="M457.174,518.701h-16.389c-1.265,1.754-2.051,3.741-2.051,5.565v34.435h20v-34.435
		C458.735,522.442,458.169,520.455,457.174,518.701"/>
	<path style="fill:#DF7000;" d="M449.691,513.701h-0.431c-3.218,0-6.456,2.203-8.475,5h16.389
		C455.587,515.904,452.909,513.701,449.691,513.701"/>
	<path style="fill:#E07700;" d="M496.753,518.701h-16.389c-1.033,1.754-1.63,3.741-1.63,5.565v34.435h20v-34.435
		C498.735,522.442,497.98,520.455,496.753,518.701"/>
	<path style="fill:#DF7000;" d="M488.42,513.701h-0.432c-3.218,0-5.976,2.203-7.624,5h16.389
		C494.796,515.904,491.637,513.701,488.42,513.701"/>
	<path style="fill:#E07700;" d="M538.084,518.701h-17.057c-1.398,1.754-2.293,3.741-2.293,5.565v34.435h21v-34.435
		C539.735,522.442,539.129,520.455,538.084,518.701"/>
	<path style="fill:#DF7000;" d="M530.42,513.701h-0.43c-3.219,0-6.732,2.203-8.963,5h17.057
		C536.419,515.904,533.638,513.701,530.42,513.701"/>
	<rect x="0.735" y="503.701" style="fill:#FFA92C;" width="561" height="7"/>
</g>
</svg>
