<?xml version="1.0" encoding="iso-8859-1"?>
<!-- Generator: Adobe Illustrator 16.0.0, SVG Export Plug-In . SVG Version: 6.00 Build 0)  -->
<!DOCTYPE svg PUBLIC "-//W3C//DTD SVG 1.1//EN" "http://www.w3.org/Graphics/SVG/1.1/DTD/svg11.dtd">
<svg version="1.1" id="Layer_1" xmlns="http://www.w3.org/2000/svg" xmlns:xlink="http://www.w3.org/1999/xlink" x="0px" y="0px"
	 width="534px" height="274px" viewBox="0 0 534 274" style="enable-background:new 0 0 534 274;" xml:space="preserve">
<g>
	<path style="fill:#DF4837;" d="M481.725,203.5H478.5v72h55v-7.095l-51.977-63.602L481.725,203.5 M533.5,0.5H0.5v49.055v1.887V275.5
		h55v-50.037L29.249,203.5H26.5v-164v-5h481v4.153l26,20.791v-8.002v-1.887V0.5"/>
	<polyline style="fill:#CE4537;" points="507.5,38.653 507.5,43.5 506.5,43.5 506.5,104.122 506.5,203.5 481.725,203.5 
		481.523,204.804 533.5,268.405 533.5,59.444 507.5,38.653 	"/>
	<polyline style="fill:#A0221F;" points="26.5,39.5 26.5,39.5 26.5,203.5 29.249,203.5 28.183,202.608 55.979,201.543 56.022,203.5 
		478.5,203.5 481.725,203.5 506.5,203.5 506.5,104.122 466.5,99.99 466.5,195.5 464.5,195.5 464.5,99.784 425.5,95.755 425.5,195.5 
		423.5,195.5 423.5,95.548 386.5,91.726 386.5,195.5 384.5,195.5 384.5,91.52 346.5,87.594 346.5,195.5 344.5,195.5 344.5,87.387 
		304.5,83.255 304.5,195.5 302.5,195.5 302.5,83.049 265.5,79.227 265.5,195.5 263.5,195.5 263.5,79.02 226.5,75.198 226.5,195.5 
		224.5,195.5 224.5,74.991 186.5,71.066 186.5,195.5 184.5,195.5 184.5,70.859 143.5,66.624 143.5,195.5 141.5,195.5 141.5,66.417 
		104.5,62.595 104.5,195.5 102.5,195.5 102.5,62.389 62.5,58.256 62.5,195.5 60.5,195.5 60.5,58.05 26.5,54.538 26.5,43.5 
		26.5,39.5 	"/>
	<polyline style="opacity:0.2;fill:#9DC2FF;" points="56.022,203.5 55.5,203.5 55.5,225.463 56.521,226.317 56.022,203.5 	"/>
	<polyline style="fill:#CE4537;" points="55.5,203.5 29.249,203.5 55.5,225.463 55.5,203.5 	"/>
	<polyline style="fill:#94201F;" points="55.979,201.543 28.183,202.608 29.249,203.5 55.5,203.5 56.022,203.5 55.979,201.543 	"/>
	<polyline style="fill:#E97666;" points="60.5,58.05 60.5,195.5 62.5,195.5 62.5,58.256 60.5,58.05 	"/>
	<polyline style="fill:#E97666;" points="102.5,62.389 102.5,195.5 104.5,195.5 104.5,62.595 102.5,62.389 	"/>
	<polyline style="fill:#E97666;" points="141.5,66.417 141.5,195.5 143.5,195.5 143.5,66.624 141.5,66.417 	"/>
	<polyline style="fill:#E97666;" points="184.5,70.859 184.5,195.5 186.5,195.5 186.5,71.066 184.5,70.859 	"/>
	<polyline style="fill:#E97666;" points="224.5,74.991 224.5,195.5 226.5,195.5 226.5,75.198 224.5,74.991 	"/>
	<polyline style="fill:#E97666;" points="263.5,79.02 263.5,195.5 265.5,195.5 265.5,79.227 263.5,79.02 	"/>
	<polyline style="fill:#E97666;" points="302.5,83.049 302.5,195.5 304.5,195.5 304.5,83.255 302.5,83.049 	"/>
	<polyline style="fill:#E97666;" points="344.5,87.387 344.5,195.5 346.5,195.5 346.5,87.594 344.5,87.387 	"/>
	<polyline style="fill:#E97666;" points="384.5,91.52 384.5,195.5 386.5,195.5 386.5,91.726 384.5,91.52 	"/>
	<polyline style="fill:#E97666;" points="464.5,99.784 464.5,195.5 466.5,195.5 466.5,99.99 464.5,99.784 	"/>
	<polyline style="fill:#E97666;" points="423.5,95.548 423.5,195.5 425.5,195.5 425.5,95.755 423.5,95.548 	"/>
	<rect x="26.5" y="120.5" style="fill:#E97666;" width="480" height="2"/>
	<rect x="26.5" y="193.5" style="fill:#EA7567;" width="480" height="10"/>
	<polyline style="fill:#EA7567;" points="507.5,34.5 26.5,34.5 26.5,39.5 26.5,43.5 506.5,43.5 507.5,43.5 507.5,38.653 507.5,34.5 
			"/>
	<path style="fill:#9A211F;" d="M60.5,43.5h-34v11.675l34,3.715V43.5 M102.5,43.5h-40v15.608l40,4.371V43.5 M141.5,43.5h-37v20.198
		l37,4.043V43.5 M184.5,43.5h-41v24.459l41,4.48V43.5 M224.5,43.5h-38v29.157l38,4.152V43.5 M263.5,43.5h-37v33.528l37,4.043V43.5
		 M302.5,43.5h-37v37.789l37,4.043V43.5 M344.5,43.5h-40v42.051l40,4.37V43.5 M384.5,43.5h-38v46.64l38,4.152V43.5 M423.5,43.5h-37
		v51.01l37,4.043V43.5 M464.5,43.5h-39v55.272l39,4.261V43.5 M506.5,43.5h-40v59.751l40,4.371V43.5"/>
	<polyline style="fill:#E07366;" points="62.5,43.5 60.5,43.5 60.5,58.05 62.5,58.256 62.5,43.5 	"/>
	<polyline style="fill:#E07366;" points="104.5,43.5 102.5,43.5 102.5,62.389 104.5,62.595 104.5,43.5 	"/>
	<polyline style="fill:#E07366;" points="143.5,43.5 141.5,43.5 141.5,66.417 143.5,66.624 143.5,43.5 	"/>
	<polyline style="fill:#E07366;" points="186.5,43.5 184.5,43.5 184.5,70.859 186.5,71.066 186.5,43.5 	"/>
	<polyline style="fill:#E07366;" points="226.5,43.5 224.5,43.5 224.5,74.991 226.5,75.198 226.5,43.5 	"/>
	<polyline style="fill:#E07366;" points="265.5,43.5 263.5,43.5 263.5,79.02 265.5,79.227 265.5,43.5 	"/>
	<polyline style="fill:#E07366;" points="304.5,43.5 302.5,43.5 302.5,83.049 304.5,83.255 304.5,43.5 	"/>
	<polyline style="fill:#E07366;" points="346.5,43.5 344.5,43.5 344.5,87.387 346.5,87.594 346.5,43.5 	"/>
	<polyline style="fill:#E07366;" points="386.5,43.5 384.5,43.5 384.5,91.52 386.5,91.726 386.5,43.5 	"/>
	<polyline style="fill:#E07366;" points="466.5,43.5 464.5,43.5 464.5,99.784 466.5,99.99 466.5,43.5 	"/>
	<polyline style="fill:#E07366;" points="425.5,43.5 423.5,43.5 423.5,95.548 425.5,95.755 425.5,43.5 	"/>
	<polyline style="fill:#E17267;" points="506.5,43.5 26.5,43.5 60.5,43.5 62.5,43.5 102.5,43.5 104.5,43.5 141.5,43.5 143.5,43.5 
		184.5,43.5 186.5,43.5 224.5,43.5 226.5,43.5 263.5,43.5 265.5,43.5 302.5,43.5 304.5,43.5 344.5,43.5 346.5,43.5 384.5,43.5 
		386.5,43.5 423.5,43.5 425.5,43.5 464.5,43.5 466.5,43.5 506.5,43.5 	"/>
</g>
</svg>
