<?xml version="1.0" encoding="iso-8859-1"?>
<!-- Generator: Adobe Illustrator 16.0.0, SVG Export Plug-In . SVG Version: 6.00 Build 0)  -->
<!DOCTYPE svg PUBLIC "-//W3C//DTD SVG 1.1//EN" "http://www.w3.org/Graphics/SVG/1.1/DTD/svg11.dtd">
<svg version="1.1" id="Layer_1" xmlns="http://www.w3.org/2000/svg" xmlns:xlink="http://www.w3.org/1999/xlink" x="0px" y="0px"
	 width="679.465px" height="453.986px" viewBox="0 0 679.465 453.986" style="enable-background:new 0 0 679.465 453.986;"
	 xml:space="preserve">
<g>
	<path style="fill:#2973CC;" d="M295.456,139.971L295.456,139.971L295.456,139.971C295.456,139.971,295.456,139.971,295.456,139.971
		 M339.015,103.301c-16.518,0-30.138,2.914-39.523,5.772l18.891,23.976c5.934-1.056,12.852-1.803,20.559-1.802
		c11.679,0,25.173,1.716,39.774,6.664l8.691-26.196C369.686,105.472,353.269,103.301,339.015,103.301"/>
	<path style="opacity:0.302;fill:#77AAE8;" d="M318.382,133.05c-14.176,2.523-22.721,6.815-22.926,6.921l23.755-5.87L318.382,133.05
		 M298.449,107.751l-13.052,6.748l10.057,25.472h0.001l-10.057-25.472c0.613-0.317,5.635-2.849,14.094-5.425L298.449,107.751"/>
	<path style="fill:#4184D4;" d="M299.492,109.074c-8.459,2.576-13.48,5.108-14.094,5.425l10.057,25.472l0.001,0
		c0.206-0.106,8.75-4.398,22.926-6.921L299.492,109.074"/>
	<path style="fill:#2973CC;" d="M316.412,199.401h-0.034v59h6.333L316.412,199.401 M358.315,199.401h-31.798l30.515,58.761
		l-12.97,0.239h15.15l-2.181-9.953l0.061-45.363L358.315,199.401"/>
	<path style="opacity:0.302;fill:#77AAE8;" d="M344.062,258.401h-21.351l0.042,0.392L344.062,258.401 M325.998,198.401h-9.693
		l0.107,1h10.105L325.998,198.401"/>
	<polyline style="fill:#4184D4;" points="326.517,199.401 316.412,199.401 322.711,258.401 344.062,258.401 357.032,258.162 
		326.517,199.401 	"/>
	<polygon style="fill:#3487F8;" points="214.088,2.66 266.792,34.604 322.692,203.085 322.753,248.448 252.419,569.402 
		166.174,569.402 286.779,225.724 	"/>
	<path style="fill:#3487F8;" d="M403.104,453.402l-42.068-187.764l110.498,187.764H403.104 M465.698,2.66l-52.707,31.944
		l-25.584,77.112l-8.691,26.196l-20.4,61.489l-1.223,3.684l-0.061,45.363l2.181,9.953l68.153,311.001h86.246L392.228,229.716
		L465.698,2.66"/>
	
		<rect x="178.213" y="258.449" transform="matrix(0.614 0.7893 -0.7893 0.614 368.1534 -233.8566)" style="fill:#A0C4FC;" width="489.89" height="2"/>
	
		<rect x="179.472" y="275.609" transform="matrix(0.4845 0.8748 -0.8748 0.4845 438.6107 -191.1021)" style="fill:#A0C4FC;" width="403.965" height="2"/>
	
		<rect x="180.097" y="295.952" transform="matrix(0.3056 0.9522 -0.9522 0.3056 522.5768 -122.637)" style="fill:#A0C4FC;" width="330.538" height="2"/>
	
		<rect x="181.118" y="245.036" transform="matrix(0.7119 0.7023 -0.7023 0.7119 308.9688 -261.0398)" style="fill:#A0C4FC;" width="583.019" height="2"/>
	
		<rect x="256.035" y="17.906" transform="matrix(0.7937 0.6082 -0.6082 0.7937 211.7655 -102.5094)" style="fill:#A0C4FC;" width="2" height="486.185"/>
	
		<rect x="298.856" y="74.109" transform="matrix(0.8792 0.4765 -0.4765 0.8792 167.9704 -109.4647)" style="fill:#A0C4FC;" width="2" height="404.813"/>
	
		<rect x="329.309" y="126.916" transform="matrix(0.9405 0.3399 -0.3399 0.9405 119.821 -94.7168)" style="fill:#A0C4FC;" width="2" height="335.585"/>
	
		<rect x="208.046" y="-44.356" transform="matrix(0.7052 0.7091 -0.7091 0.7052 236.5856 -75.4764)" style="fill:#A0C4FC;" width="2" height="582.18"/>
	<polyline style="fill:#4892F3;" points="361.036,265.638 403.104,453.402 471.534,453.402 361.036,265.638 	"/>
</g>
</svg>
