<?xml version="1.0" encoding="utf-8"?>
<!-- Generator: Adobe Illustrator 17.1.0, SVG Export Plug-In . SVG Version: 6.00 Build 0)  -->
<!DOCTYPE svg PUBLIC "-//W3C//DTD SVG 1.1//EN" "http://www.w3.org/Graphics/SVG/1.1/DTD/svg11.dtd">
<svg version="1.1" xmlns="http://www.w3.org/2000/svg" xmlns:xlink="http://www.w3.org/1999/xlink" x="0px" y="0px"
	 width="2145.9px" height="500.2px" viewBox="0 0 2145.9 500.2" enable-background="new 0 0 2145.9 500.2" xml:space="preserve">
<g id="Layer_1">
	<g>
		<path fill="#757575" d="M304.2,316.1L106.7,0H52.2c-10.9,0-15.1,7.6-9.4,16.8l132.6,216.4l0.7,1.1l89.8,143.8L304.2,316.1z"/>
		<path fill="#757575" d="M334.7,266.8c5.7-9.2,5.7-24.3,0-33.6l-134-216.5C195,7.5,181.4-0.1,170.6-0.1h-55l193,308.9L334.7,266.8z
			"/>
		<path fill="#757575" d="M222.5,323L111.9,500h58.8c10.8,0,24.4-7.5,30.1-16.8l53.5-86.5c0.2-0.3,0.6-1,1.5-2.4l5.6-9.1L222.5,323z
			"/>
		<path fill="#757575" d="M175.4,266.8L42.8,483.3c-5.7,9.3-1.4,16.8,9.4,16.8h50.7L218,315.9L179.4,254
			C178.9,258.8,177.6,263.3,175.4,266.8z"/>
	</g>
	<g enable-background="new    ">
		<path fill="#757575" d="M509,241.7h77.1V338c-20.9,7.2-44,10.8-69.1,10.8c-27.5,0-48.8-8-63.9-24c-15-16-22.6-38.7-22.6-68.3
			c0-28.8,8.2-51.3,24.7-67.4s39.5-24.1,69.2-24.1c11.2,0,21.9,1.1,31.8,3.2c10,2.1,18.7,4.8,26.1,8.1L567,214.2
			c-12.9-6.4-27-9.5-42.4-9.5c-14.1,0-25,4.6-32.7,13.8s-11.6,22.3-11.6,39.3c0,16.7,3.5,29.4,10.5,38.2c7,8.8,17,13.1,30.1,13.1
			c7.2,0,13.8-0.7,19.8-2.1v-28H509V241.7z"/>
		<path fill="#757575" d="M759.4,253.2c0,29.8-8.2,52.8-24.6,68.9c-16.4,16.1-39.5,24.2-69.2,24.2h-57.8V167.6h61.8
			c28.7,0,50.8,7.3,66.4,22C751.6,204.3,759.4,225.5,759.4,253.2z M709.3,254.9c0-16.4-3.2-28.5-9.7-36.4s-16.3-11.9-29.5-11.9H656
			v100.1h10.8c14.7,0,25.4-4.3,32.3-12.8C705.9,285.4,709.3,272.4,709.3,254.9z"/>
		<path fill="#757575" d="M848.5,241.7h77.1V338c-20.9,7.2-44,10.8-69.1,10.8c-27.5,0-48.8-8-63.9-24c-15-16-22.6-38.7-22.6-68.3
			c0-28.8,8.2-51.3,24.7-67.4s39.5-24.1,69.2-24.1c11.2,0,21.9,1.1,31.8,3.2c10,2.1,18.7,4.8,26.1,8.1l-15.3,37.9
			c-12.9-6.4-27-9.5-42.4-9.5c-14.1,0-25,4.6-32.7,13.8s-11.6,22.3-11.6,39.3c0,16.7,3.5,29.4,10.5,38.2c7,8.8,17,13.1,30.1,13.1
			c7.2,0,13.8-0.7,19.8-2.1v-28h-31.9v-37.3L848.5,241.7L848.5,241.7z"/>
	</g>
</g>
<g id="Camada_2">
	<g>
		<path fill="#757575" d="M1154.4,299.8c0-7.1-2.7-12.9-8.2-17.5c-5.5-4.5-15.1-8.6-29-12.2c-19.8-5-35-11.7-45.7-20
			c-10.7-8.3-16-19.2-16-32.6c0-13.8,5.9-25.2,17.7-34.2c11.8-9,27-13.4,45.7-13.4c19.5,0,35.1,5.1,46.9,15.3
			c11.8,10.2,17.5,22.4,17.1,36.6l-0.2,0.7h-28.3c0-8.8-3.1-15.9-9.2-21.4c-6.2-5.5-15-8.2-26.4-8.2c-10.8,0-19.1,2.3-24.9,6.8
			c-5.8,4.5-8.7,10.4-8.7,17.6c0,6.5,3.1,11.9,9.4,16.2c6.3,4.3,16.7,8.4,31.2,12.2c19.1,4.9,33.5,11.8,43.4,20.5
			c9.9,8.7,14.8,19.8,14.8,33.4c0,14.3-5.9,25.7-17.7,34.1c-11.8,8.4-27.3,12.7-46.5,12.7c-18.5,0-34.7-4.8-48.6-14.3
			c-13.9-9.5-20.7-22.6-20.3-39.1l0.2-0.7h28.5c0,10.5,3.7,18.3,11.2,23.4c7.5,5.1,17.1,7.7,29.1,7.7c10.9,0,19.5-2.1,25.5-6.4
			S1154.4,307,1154.4,299.8z"/>
		<path fill="#757575" d="M1288,344c-1.1-3.2-1.9-6.4-2.6-9.4c-0.7-3.1-1.2-6.1-1.4-9.2c-4.1,6-9.4,11-16,15c-6.6,4-14,6.1-22.2,6.1
			c-13.7,0-24.2-3.4-31.6-10.3c-7.3-6.8-11-16.2-11-28.2c0-12.3,5-21.9,15.1-28.8c10.1-6.9,24.2-10.3,42.4-10.3h23v-11.2
			c0-6.7-2-11.9-6.1-15.7c-4.1-3.8-9.9-5.7-17.4-5.7c-6.7,0-12.1,1.6-16.1,4.7c-4,3.1-6,7.2-6,12.1h-28.5l-0.1-0.7
			c-0.6-10.1,4.1-19,13.9-26.8c9.9-7.8,22.7-11.7,38.5-11.7c15.3,0,27.7,3.8,37.1,11.3c9.4,7.5,14.1,18.4,14.1,32.5v56.7
			c0,5.3,0.4,10.3,1.1,15.1c0.7,4.8,1.9,9.6,3.5,14.2H1288z M1304.1,163.6c0,7.5-2.4,13.8-7.3,19.1c-4.9,5.3-10.9,7.9-18.2,7.9
			c-5.8,0-12-1.7-18.7-5.2c-6.7-3.5-12.1-5.2-16.2-5.2c-3.2,0-5.8,1.3-8,3.8c-2.2,2.6-3.3,5.6-3.3,9.1l-15.9-4.1
			c0-7.4,2.4-13.8,7.2-19.3c4.8-5.5,10.9-8.2,18.2-8.2c4.5,0,10.4,1.7,17.7,5.2c7.3,3.5,13,5.2,17.2,5.2c3.1,0,5.8-1.3,8-3.8
			c2.3-2.5,3.4-5.6,3.4-9.2L1304.1,163.6z M1251.8,323.5c7.5,0,14.2-1.8,20.1-5.4c6-3.6,9.9-7.7,11.9-12.4v-18.9h-23.5
			c-8.6,0-15.3,2.1-20.2,6.2c-4.9,4.1-7.3,9-7.3,14.6c0,4.9,1.6,8.7,4.9,11.6C1241,322,1245.7,323.5,1251.8,323.5z"/>
		<path fill="#757575" d="M1336.4,279c0-18.9,5.4-34.5,16.1-46.7c10.9-12.2,25.6-18.3,44.1-18.3c18.9,0,33.7,6.1,44.4,18.3
			c10.8,12.1,16.2,27.7,16.2,46.7v2.5c0,19.2-5.4,34.8-16.2,46.9c-10.7,12-25.4,18-44.1,18c-18.8,0-33.6-6.1-44.4-18.2
			c-10.7-12.1-16.1-27.7-16.1-46.8V279z M1365.9,281.4c0,12.4,2.5,22.5,7.5,30.4c4.9,7.8,12.7,11.7,23.3,11.7
			c10.3,0,18-3.9,23.1-11.7c5.2-7.8,7.8-18,7.8-30.4V279c0-12.2-2.6-22.2-7.8-30c-5.1-7.9-12.9-11.9-23.3-11.9
			c-10.3,0-18,4-23.1,11.9c-5,7.9-7.5,17.9-7.5,30V281.4z"/>
		<path fill="#757575" d="M1573.3,278.9V344h-29.6V172.4h69.2c19.5,0,34.8,4.9,45.9,14.7c11.1,9.8,16.6,22.7,16.6,38.6
			c0,16.1-5.5,29-16.6,38.7c-11.1,9.7-26.4,14.6-45.9,14.6H1573.3z M1573.3,255.9h39.6c10.9,0,19.2-2.8,24.7-8.5
			c5.5-5.7,8.3-12.8,8.3-21.6c0-8.7-2.8-16-8.3-21.8c-5.5-5.8-13.7-8.7-24.7-8.7h-39.6V255.9z"/>
		<path fill="#757575" d="M1776.2,344c-1.1-3.2-1.9-6.4-2.6-9.4c-0.7-3.1-1.2-6.1-1.4-9.2c-4.1,6-9.4,11-16,15
			c-6.6,4-14,6.1-22.2,6.1c-13.7,0-24.2-3.4-31.6-10.3c-7.3-6.8-11-16.2-11-28.2c0-12.3,5-21.9,15.1-28.8
			c10.1-6.9,24.2-10.3,42.4-10.3h23v-11.2c0-6.7-2-11.9-6.1-15.7c-4.1-3.8-9.9-5.7-17.4-5.7c-6.7,0-12.1,1.6-16.1,4.7
			c-4,3.1-6,7.2-6,12.1H1698l-0.1-0.7c-0.6-10.1,4.1-19,13.9-26.8c9.8-7.8,22.7-11.7,38.5-11.7c15.3,0,27.7,3.8,37.1,11.3
			c9.4,7.5,14.1,18.4,14.1,32.5v56.7c0,5.3,0.4,10.3,1.1,15.1c0.7,4.8,1.9,9.6,3.5,14.2H1776.2z M1739.9,323.5
			c7.5,0,14.2-1.8,20.1-5.4c6-3.6,9.9-7.7,11.9-12.4v-18.9h-23.5c-8.6,0-15.3,2.1-20.2,6.2c-4.9,4.1-7.3,9-7.3,14.6
			c0,4.9,1.6,8.7,4.9,11.6C1729.2,322,1733.9,323.5,1739.9,323.5z"/>
		<path fill="#757575" d="M1912,325.4c-4.1,6.8-9.4,12-15.7,15.6c-6.3,3.7-13.6,5.5-21.9,5.5c-14.1,0-25.1-4.4-33.1-13.1
			c-7.9-8.7-11.9-22.3-11.9-40.7v-76.3h29.4v76.5c0,11.2,1.9,19,5.6,23.5c3.7,4.5,9.4,6.7,16.9,6.7c7.1,0,13.1-1.2,17.9-3.7
			c4.8-2.5,8.6-6.1,11.4-10.8v-92.2h29.6V344h-25.8L1912,325.4z"/>
		<path fill="#757575" d="M2000.1,344h-29.6V160.1h29.6V344z"/>
		<path fill="#757575" d="M2025.2,279c0-18.9,5.4-34.5,16.1-46.7c10.9-12.2,25.6-18.3,44.1-18.3c18.9,0,33.7,6.1,44.4,18.3
			c10.8,12.1,16.2,27.7,16.2,46.7v2.5c0,19.2-5.4,34.8-16.2,46.9c-10.7,12-25.4,18-44.1,18c-18.8,0-33.6-6.1-44.4-18.2
			c-10.7-12.1-16.1-27.7-16.1-46.8V279z M2054.7,281.4c0,12.4,2.5,22.5,7.5,30.4c4.9,7.8,12.7,11.7,23.3,11.7
			c10.3,0,18-3.9,23.1-11.7c5.2-7.8,7.8-18,7.8-30.4V279c0-12.2-2.6-22.2-7.8-30c-5.1-7.9-12.9-11.9-23.3-11.9
			c-10.3,0-18,4-23.1,11.9c-5,7.9-7.5,17.9-7.5,30V281.4z"/>
	</g>
</g>
</svg>
