<?xml version="1.0" encoding="utf-8"?>
<!-- Generator: Adobe Illustrator 17.1.0, SVG Export Plug-In . SVG Version: 6.00 Build 0)  -->
<!DOCTYPE svg PUBLIC "-//W3C//DTD SVG 1.1//EN" "http://www.w3.org/Graphics/SVG/1.1/DTD/svg11.dtd">
<svg version="1.1" xmlns="http://www.w3.org/2000/svg" xmlns:xlink="http://www.w3.org/1999/xlink" x="0px" y="0px"
	 width="1251.4px" height="390.3px" viewBox="19.3 150.1 1251.4 390.3" enable-background="new 19.3 150.1 1251.4 390.3"
	 xml:space="preserve">
<g id="dark" xmlns:cc="http://creativecommons.org/ns#" xmlns:inkscape="http://www.inkscape.org/namespaces/inkscape" xmlns:dc="http://purl.org/dc/elements/1.1/" xmlns:sodipodi="http://sodipodi.sourceforge.net/DTD/sodipodi-0.dtd" xmlns:svg="http://www.w3.org/2000/svg" xmlns:rdf="http://www.w3.org/1999/02/22-rdf-syntax-ns#" sodipodi:docname="–ù–æ–≤–∏–π –¥–æ–∫—É–º–µ–Ω—Ç 1" inkscape:version="0.48.2 r9819">
	<g>
		<path fill="#F6C25B" d="M71.8,540.4H116c10.4,0,23.4-7.3,28.8-16.3l37.2-61.9c4.4-9.1,4.2-22.3-0.8-30.7l-22-36.4L71.8,540.4z"/>
		<path fill="#0A985C" d="M119.3,361.6L21,525.8c-3.8,8.1,0.2,14.5,9.9,14.5h40.9l87.5-145.3l-40-66.2
			C124.7,337.9,124.7,352.6,119.3,361.6"/>
		<path fill="#5586C5" d="M30.9,150.1c-10.5,0-14.6,7.4-9.3,16.3l159.6,265c5,8.4,5.2,21.6,0.8,30.6l38.8-64.5l-149-247.5
			L30.9,150.1L30.9,150.1z"/>
		<path fill="#D9423E" d="M71.8,150.1l149,247.5l21.6-36c5.4-9,5.4-23.7,0-32.7l-97.6-162.5c-5.4-8.9-18.4-16.3-28.8-16.3
			L71.8,150.1L71.8,150.1z"/>
	</g>
	<g>
		<g>
			<path fill="#4E4E4E" d="M769.1,267.3c0,17.4-4.8,30.8-14.3,40.2c-9.5,9.4-22.9,14.1-40.1,14.1h-33.5V217.3h35.8
				c16.6,0,29.4,4.3,38.5,12.8C764.6,238.7,769.1,251.1,769.1,267.3z M740.1,268.3c0-9.6-1.9-16.6-5.6-21.3
				c-3.7-4.6-9.4-6.9-17.1-6.9h-8.1v58.4h6.2c8.5,0,14.7-2.5,18.7-7.4C738.1,286.1,740.1,278.5,740.1,268.3z"/>
		</g>
		<g>
			<path fill="#4E4E4E" d="M816.1,323.1c-13.4,0-23.7-3.6-31.1-10.7c-7.4-7.2-11.1-17.4-11.1-30.6c0-13.6,3.4-24.1,10.3-31.4
				c6.8-7.3,16.6-10.9,29.3-10.9c12.1,0,21.4,3.2,28,9.5c6.6,6.3,9.9,15.5,9.9,27.4v12.4h-49.5c0.2,4.5,1.8,8,4.9,10.6
				c3.1,2.6,7.3,3.8,12.6,3.8c4.9,0,9.3-0.5,13.4-1.4c4.1-0.9,8.5-2.5,13.3-4.7v20c-4.3,2.2-8.8,3.8-13.4,4.6
				C828,322.6,822.5,323.1,816.1,323.1z M814.4,258.4c-3.3,0-6,1-8.2,3.1c-2.2,2.1-3.5,5.3-3.9,9.7h23.8c-0.1-3.9-1.2-7-3.3-9.3
				C820.8,259.5,818,258.4,814.4,258.4z"/>
		</g>
		<g>
			<path fill="#4E4E4E" d="M879.3,321.6l-30.6-80.8h28.9l13.6,47.8c0,0.2,0.1,0.6,0.3,1.2c0.1,0.6,0.3,1.2,0.4,2
				c0.2,0.8,0.3,1.6,0.4,2.5c0.1,0.9,0.2,1.7,0.2,2.4h0.5c0-2.5,0.4-5.1,1.3-8l14.2-48h28.8l-30.6,80.8H879.3z"/>
		</g>
		<g>
			<path fill="#4E4E4E" d="M967.3,321.6h-27.5V217.3h61.2V240h-33.6v19.9h31v22.6h-31L967.3,321.6L967.3,321.6z"/>
		</g>
		<g>
			<path fill="#4E4E4E" d="M1046.3,323.1c-13.4,0-23.7-3.6-31.1-10.7c-7.4-7.2-11.1-17.4-11.1-30.6c0-13.6,3.4-24.1,10.3-31.4
				c6.8-7.3,16.6-10.9,29.3-10.9c12.1,0,21.4,3.2,28,9.5c6.6,6.3,9.9,15.5,9.9,27.4v12.4h-49.5c0.2,4.5,1.8,8,4.9,10.6
				c3.1,2.6,7.3,3.8,12.6,3.8c4.9,0,9.3-0.5,13.4-1.4c4.1-0.9,8.5-2.5,13.3-4.7v20c-4.3,2.2-8.8,3.8-13.4,4.6
				C1058.3,322.6,1052.8,323.1,1046.3,323.1z M1044.7,258.4c-3.2,0-6,1-8.2,3.1c-2.2,2.1-3.5,5.3-3.8,9.7h23.8
				c-0.1-3.9-1.2-7-3.3-9.3C1051.1,259.5,1048.2,258.4,1044.7,258.4z"/>
		</g>
		<g>
			<path fill="#4E4E4E" d="M1150.5,296.8c0,8.7-2.9,15.2-8.8,19.6c-5.9,4.4-14.3,6.6-25.2,6.6c-5.9,0-11.1-0.3-15.5-1
				c-4.4-0.6-8.9-1.8-13.4-3.5v-22.3c4.3,1.9,9,3.5,14.1,4.7c5.1,1.2,9.7,1.8,13.7,1.8c6,0,9-1.4,9-4.1c0-1.4-0.8-2.7-2.5-3.8
				c-1.7-1.1-6.5-3.3-14.6-6.5c-7.4-3.1-12.5-6.5-15.4-10.4c-2.9-3.9-4.4-8.8-4.4-14.7c0-7.5,2.9-13.4,8.6-17.5
				c5.7-4.2,13.9-6.3,24.4-6.3c5.3,0,10.3,0.6,14.9,1.8c4.6,1.2,9.5,2.9,14.5,5.1l-7.5,18c-3.7-1.7-7.6-3.1-11.7-4.2
				c-4.1-1.2-7.4-1.7-10-1.7c-4.5,0-6.8,1.1-6.8,3.3c0,1.4,0.8,2.6,2.4,3.5c1.6,1,6.2,3,13.7,6c5.6,2.3,9.8,4.6,12.6,6.9
				c2.8,2.2,4.8,4.9,6.1,7.9C1149.9,288.8,1150.5,292.5,1150.5,296.8z"/>
		</g>
		<g>
			<path fill="#4E4E4E" d="M1196.5,301c3.7,0,8.2-0.9,13.4-2.8v20.3c-3.7,1.6-7.3,2.7-10.7,3.4c-3.4,0.7-7.3,1-11.9,1
				c-9.3,0-16-2.3-20.1-6.9c-4.1-4.6-6.2-11.6-6.2-21.2v-33.3h-9.7v-11.4l12.3-8.8l7.2-17h18.1v16.2h19.7v20.9H1189v31.5
				C1189,298.4,1191.5,301,1196.5,301z"/>
		</g>
	</g>
	<g>
		<g>
			<path fill="#4E4E4E" d="M376.6,263h45v56.2c-12.2,4.2-25.7,6.3-40.3,6.3c-16.1,0-28.5-4.7-37.3-14c-8.8-9.3-13.2-22.6-13.2-39.9
				c0-16.9,4.8-29.9,14.4-39.3c9.6-9.4,23.1-14.1,40.4-14.1c6.6,0,12.8,0.6,18.6,1.9c5.8,1.2,10.9,2.8,15.2,4.7l-8.9,22.1
				c-7.5-3.7-15.8-5.5-24.8-5.5c-8.2,0-14.6,2.7-19.1,8c-4.5,5.3-6.8,13-6.8,22.9c0,9.7,2,17.2,6.1,22.3c4.1,5.1,9.9,7.7,17.6,7.7
				c4.2,0,8-0.4,11.6-1.2v-16.3h-18.6L376.6,263L376.6,263L376.6,263z"/>
		</g>
		<g>
			<path fill="#4E4E4E" d="M522.7,269.7c0,17.4-4.8,30.8-14.4,40.2c-9.6,9.4-23,14.1-40.4,14.1h-33.8V219.8h36.1
				c16.7,0,29.7,4.3,38.8,12.8C518.1,241.2,522.7,253.5,522.7,269.7z M493.4,270.7c0-9.6-1.9-16.7-5.7-21.3
				c-3.8-4.6-9.5-6.9-17.2-6.9h-8.2V301h6.3c8.6,0,14.8-2.5,18.8-7.5C491.4,288.6,493.4,280.9,493.4,270.7z"/>
		</g>
		<g>
			<path fill="#4E4E4E" d="M574.5,263h45v56.2c-12.2,4.2-25.7,6.3-40.3,6.3c-16.1,0-28.5-4.7-37.3-14c-8.8-9.3-13.2-22.6-13.2-39.9
				c0-16.9,4.8-29.9,14.4-39.3c9.6-9.4,23.1-14.1,40.4-14.1c6.5,0,12.8,0.6,18.6,1.9c5.8,1.2,10.9,2.8,15.2,4.7l-8.9,22.1
				c-7.5-3.7-15.8-5.5-24.8-5.5c-8.2,0-14.6,2.7-19.1,8c-4.5,5.3-6.7,13-6.7,22.9c0,9.7,2,17.2,6.1,22.3c4.1,5.1,9.9,7.7,17.6,7.7
				c4.2,0,8-0.4,11.6-1.2v-16.3h-18.6L574.5,263L574.5,263z"/>
		</g>
	</g>
	<path fill="#168B58" d="M119.3,361.6l-23.5,39.3l42,29.9l21.4-35.6l-40-66.2C124.7,337.9,124.7,352.6,119.3,361.6z"/>
	<path fill="#D7AB56" d="M159.2,395.1l-21.4,35.6l44.2,31.4c4.4-9.1,4.2-22.3-0.8-30.6L159.2,395.1z"/>
</g>
<g id="Camada_2">
	<g>
		<path fill="#4E4E4E" d="M393.8,436.9c0-4-1.5-7.3-4.5-9.9c-3-2.6-8.3-4.9-15.8-6.9c-10.8-2.8-19.1-6.6-24.9-11.3
			c-5.8-4.7-8.7-10.8-8.7-18.4c0-7.8,3.2-14.2,9.7-19.3s14.8-7.6,24.9-7.6c10.6,0,19.2,2.9,25.6,8.6c6.4,5.7,9.6,12.6,9.3,20.6
			l-0.1,0.4h-15.5c0-5-1.7-9-5-12.1c-3.4-3.1-8.2-4.6-14.4-4.6c-5.9,0-10.4,1.3-13.6,3.8c-3.2,2.6-4.8,5.9-4.8,9.9
			c0,3.7,1.7,6.7,5.1,9.1c3.4,2.4,9.1,4.7,17,6.9c10.4,2.8,18.3,6.6,23.7,11.6c5.4,4.9,8.1,11.2,8.1,18.8c0,8.1-3.2,14.5-9.7,19.2
			c-6.4,4.8-14.9,7.1-25.4,7.1c-10.1,0-19-2.7-26.6-8.1c-7.6-5.4-11.3-12.7-11.1-22l0.1-0.4h15.5c0,5.9,2,10.3,6.1,13.2
			c4.1,2.9,9.4,4.4,15.9,4.4c6,0,10.6-1.2,14-3.6S393.8,441,393.8,436.9z"/>
		<path fill="#4E4E4E" d="M466.8,461.8c-0.6-1.8-1.1-3.6-1.4-5.3c-0.4-1.7-0.6-3.5-0.8-5.2c-2.2,3.4-5.1,6.2-8.7,8.5
			c-3.6,2.3-7.7,3.4-12.1,3.4c-7.5,0-13.2-1.9-17.2-5.8c-4-3.9-6-9.1-6-15.9c0-7,2.7-12.4,8.2-16.2c5.5-3.9,13.2-5.8,23.2-5.8h12.6
			v-6.3c0-3.8-1.1-6.7-3.3-8.8c-2.2-2.1-5.4-3.2-9.5-3.2c-3.7,0-6.6,0.9-8.8,2.7c-2.2,1.8-3.3,4.1-3.3,6.8h-15.5l-0.1-0.4
			c-0.3-5.7,2.2-10.7,7.6-15.1s12.4-6.6,21-6.6c8.4,0,15.1,2.1,20.3,6.4s7.7,10.4,7.7,18.3v32c0,3,0.2,5.8,0.6,8.5
			c0.4,2.7,1,5.4,1.9,8H466.8z M475.6,360.2c0,4.2-1.3,7.8-4,10.8c-2.7,3-6,4.5-10,4.5c-3.1,0-6.5-1-10.2-3c-3.7-2-6.6-3-8.9-3
			c-1.7,0-3.2,0.7-4.4,2.2c-1.2,1.4-1.8,3.2-1.8,5.1l-8.7-2.3c0-4.2,1.3-7.8,4-10.9c2.6-3.1,5.9-4.6,9.9-4.6c2.5,0,5.7,1,9.7,3
			c4,2,7.1,3,9.4,3c1.7,0,3.1-0.7,4.4-2.1c1.2-1.4,1.9-3.1,1.9-5.2L475.6,360.2z M447,450.3c4.1,0,7.7-1,11-3.1c3.3-2,5.4-4.4,6.5-7
			v-10.6h-12.8c-4.7,0-8.4,1.2-11,3.5c-2.7,2.3-4,5.1-4,8.2c0,2.7,0.9,4.9,2.7,6.5C441.1,449.5,443.7,450.3,447,450.3z"/>
		<path fill="#4E4E4E" d="M493.2,425.2c0-10.7,2.9-19.4,8.8-26.3c5.9-6.9,14-10.3,24.1-10.3c10.3,0,18.4,3.4,24.2,10.3
			c5.9,6.8,8.8,15.6,8.8,26.3v1.4c0,10.8-2.9,19.6-8.8,26.4c-5.8,6.8-13.9,10.2-24.1,10.2c-10.3,0-18.4-3.4-24.2-10.2
			c-5.8-6.8-8.8-15.6-8.8-26.4V425.2z M509.4,426.6c0,7,1.4,12.7,4.1,17.1c2.7,4.4,7,6.6,12.8,6.6c5.6,0,9.8-2.2,12.6-6.6
			c2.8-4.4,4.3-10.1,4.3-17.1v-1.4c0-6.9-1.4-12.5-4.3-16.9c-2.8-4.5-7-6.7-12.8-6.7c-5.6,0-9.8,2.2-12.6,6.7
			c-2.7,4.5-4.1,10.1-4.1,16.9V426.6z"/>
		<path fill="#4E4E4E" d="M622.6,425.2v36.7h-16.1v-96.7h37.8c10.7,0,19,2.8,25.1,8.3s9.1,12.8,9.1,21.8c0,9.1-3,16.4-9.1,21.8
			c-6,5.5-14.4,8.2-25.1,8.2H622.6z M622.6,412.2h21.7c6,0,10.5-1.6,13.5-4.8c3-3.2,4.5-7.2,4.5-12.2c0-4.9-1.5-9-4.5-12.3
			c-3-3.3-7.5-4.9-13.5-4.9h-21.7V412.2z"/>
		<path fill="#4E4E4E" d="M733.5,461.8c-0.6-1.8-1.1-3.6-1.4-5.3c-0.4-1.7-0.6-3.5-0.8-5.2c-2.2,3.4-5.1,6.2-8.7,8.5
			c-3.6,2.3-7.7,3.4-12.1,3.4c-7.5,0-13.2-1.9-17.2-5.8s-6-9.1-6-15.9c0-7,2.7-12.4,8.2-16.2c5.5-3.9,13.2-5.8,23.2-5.8h12.6v-6.3
			c0-3.8-1.1-6.7-3.3-8.8c-2.2-2.1-5.4-3.2-9.5-3.2c-3.7,0-6.6,0.9-8.8,2.7c-2.2,1.8-3.3,4.1-3.3,6.8h-15.5l-0.1-0.4
			c-0.3-5.7,2.2-10.7,7.6-15.1c5.4-4.4,12.4-6.6,21-6.6c8.4,0,15.1,2.1,20.3,6.4s7.7,10.4,7.7,18.3v32c0,3,0.2,5.8,0.6,8.5
			c0.4,2.7,1,5.4,1.9,8H733.5z M713.7,450.3c4.1,0,7.7-1,11-3.1c3.3-2,5.4-4.4,6.5-7v-10.6h-12.8c-4.7,0-8.4,1.2-11,3.5
			s-4,5.1-4,8.2c0,2.7,0.9,4.9,2.7,6.5C707.8,449.5,710.4,450.3,713.7,450.3z"/>
		<path fill="#4E4E4E" d="M807.7,451.3c-2.3,3.8-5.1,6.7-8.6,8.8c-3.5,2.1-7.4,3.1-12,3.1c-7.7,0-13.7-2.5-18.1-7.4
			c-4.3-4.9-6.5-12.6-6.5-22.9v-43h16.1v43.1c0,6.3,1,10.7,3.1,13.2c2,2.5,5.1,3.8,9.2,3.8c3.9,0,7.2-0.7,9.8-2.1
			c2.6-1.4,4.7-3.4,6.2-6.1v-52h16.1v71.9H809L807.7,451.3z"/>
		<path fill="#4E4E4E" d="M855.8,461.8h-16.1V358.2h16.1V461.8z"/>
		<path fill="#4E4E4E" d="M869.5,425.2c0-10.7,2.9-19.4,8.8-26.3c5.9-6.9,14-10.3,24.1-10.3c10.3,0,18.4,3.4,24.2,10.3
			c5.9,6.8,8.8,15.6,8.8,26.3v1.4c0,10.8-2.9,19.6-8.8,26.4c-5.8,6.8-13.9,10.2-24.1,10.2c-10.3,0-18.4-3.4-24.2-10.2
			c-5.8-6.8-8.8-15.6-8.8-26.4V425.2z M885.7,426.6c0,7,1.4,12.7,4.1,17.1c2.7,4.4,7,6.6,12.8,6.6c5.6,0,9.8-2.2,12.6-6.6
			c2.8-4.4,4.3-10.1,4.3-17.1v-1.4c0-6.9-1.4-12.5-4.3-16.9c-2.8-4.5-7-6.7-12.8-6.7c-5.6,0-9.8,2.2-12.6,6.7
			c-2.7,4.5-4.1,10.1-4.1,16.9V426.6z"/>
		<path fill="#4E4E4E" d="M1043.7,461.8h-64.2v-11.2l31.5-34.3c5.1-5.6,8.7-10.2,10.6-13.9c1.9-3.6,2.9-7.1,2.9-10.6
			c0-4.3-1.3-8-3.8-10.9c-2.5-2.9-5.9-4.4-10.2-4.4c-5.7,0-9.9,1.6-12.6,4.8c-2.7,3.2-4.1,7.6-4.1,13.2h-15.6l-0.1-0.4
			c-0.2-8.6,2.6-15.8,8.4-21.7c5.8-5.9,13.9-8.8,24-8.8c9.3,0,16.7,2.6,22.1,7.7c5.4,5.1,8.1,11.8,8.1,20.1c0,5.5-1.6,10.8-4.7,15.9
			c-3.1,5-8,11.2-14.5,18.4l-21.5,22.7l0.2,0.4h43.6V461.8z"/>
		<path fill="#4E4E4E" d="M1118.6,424.6c0,12.6-2.8,22.2-8.5,28.8c-5.7,6.6-13.4,9.9-23.1,9.9c-9.8,0-17.5-3.3-23.3-9.9
			c-5.7-6.6-8.6-16.2-8.6-28.8v-22.1c0-12.5,2.8-22.1,8.5-28.8c5.7-6.6,13.4-10,23.2-10c9.7,0,17.5,3.3,23.2,10
			c5.7,6.6,8.6,16.2,8.6,28.8V424.6z M1102.4,400c0-7.9-1.3-13.8-4-17.6s-6.5-5.7-11.6-5.7c-5.1,0-9,1.9-11.6,5.7
			c-2.6,3.8-4,9.7-4,17.6v26.9c0,8,1.3,13.9,4,17.7c2.7,3.8,6.6,5.7,11.7,5.7c5.1,0,8.9-1.9,11.6-5.7c2.6-3.8,3.9-9.7,3.9-17.7V400z
			"/>
		<path fill="#4E4E4E" d="M1171.9,461.8h-16.1v-81.4h-19.7v-11.9l35.8-3.5V461.8z"/>
		<path fill="#4E4E4E" d="M1210.5,418.6l5.6-53.5h51.1v14h-37.7l-2.9,24.2c1.9-1.4,4.1-2.6,6.6-3.5c2.5-0.9,5.3-1.4,8.5-1.5
			c9.1-0.1,16.2,2.8,21.3,8.6c5.1,5.8,7.7,13.8,7.7,24c0,9.5-2.7,17.2-8.1,23.3c-5.4,6-13.2,9-23.5,9c-8.5,0-15.7-2.3-21.6-7
			c-5.9-4.7-8.7-11.3-8.5-19.9l0.1-0.3l15.1-0.5c0,4.7,1.4,8.3,4.1,10.9s6.3,3.9,10.7,3.9c5,0,8.8-1.8,11.5-5.3c2.6-3.5,4-8.2,4-14
			c0-5.8-1.4-10.6-4.1-14.2c-2.7-3.7-6.6-5.5-11.6-5.5c-4.4,0-7.7,0.7-9.9,2.2c-2.1,1.5-3.7,3.5-4.7,6.3L1210.5,418.6z"/>
	</g>
</g>
</svg>
