<?xml version="1.0" encoding="utf-8"?>
<!-- Generator: Adobe Illustrator 17.1.0, SVG Export Plug-In . SVG Version: 6.00 Build 0)  -->
<!DOCTYPE svg PUBLIC "-//W3C//DTD SVG 1.1//EN" "http://www.w3.org/Graphics/SVG/1.1/DTD/svg11.dtd">
<svg version="1.1" xmlns="http://www.w3.org/2000/svg" xmlns:xlink="http://www.w3.org/1999/xlink" x="0px" y="0px"
	 width="1251.9px" height="390.3px" viewBox="0 0 1251.9 390.3" enable-background="new 0 0 1251.9 390.3" xml:space="preserve">
<g id="dark" xmlns:cc="http://creativecommons.org/ns#" xmlns:inkscape="http://www.inkscape.org/namespaces/inkscape" xmlns:dc="http://purl.org/dc/elements/1.1/" xmlns:sodipodi="http://sodipodi.sourceforge.net/DTD/sodipodi-0.dtd" xmlns:svg="http://www.w3.org/2000/svg" xmlns:rdf="http://www.w3.org/1999/02/22-rdf-syntax-ns#" sodipodi:docname="‚Äì√π‚Äì√¶‚Äì‚â§‚Äì‚àè‚ÄìœÄ ‚Äì¬•‚Äì√¶‚Äì‚à´‚Äî√â‚Äì¬∫‚Äì¬µ‚ÄìŒ©‚Äî√á 1" inkscape:version="0.48.2 r9819">
	<g>
		<path fill="#F6C25B" d="M59.2,390.3h44.1c10.5,0,23.4-7.4,28.9-16.4l37.3-61.9c4.5-9.2,4.3-22.2-0.8-30.6l-22.1-36.3L59.2,390.3z"
			/>
		<path fill="#0A985C" d="M106.7,211.5L8.5,375.8c-3.7,8,0.2,14.6,10,14.6h40.8l87.4-145.2l-40-66.2
			C112.1,187.7,112.1,202.6,106.7,211.5"/>
		<path fill="#5586C5" d="M18.3,0C7.7,0,3.6,7.4,9.1,16.4l159.6,265c5.1,8.4,5.1,21.7,0.8,30.6l38.8-64.6L59.4,0H18.3L18.3,0z"/>
		<path fill="#D9423E" d="M59.2,0l148.9,247.4l21.7-35.9c5.5-9,5.5-23.6,0-32.6L132.2,16.4C126.8,7.4,113.9,0,103.3,0H59.2L59.2,0z"
			/>
	</g>
	<g>
		<g>
			<path fill="#E6E6E5" d="M756.5,117.1c0,17.4-4.7,30.8-14.2,40.2c-9.6,9.4-22.8,14.1-40.2,14.1h-33.6V67.1h35.9
				c16.6,0,29.5,4.3,38.4,12.9C752,88.6,756.5,101.1,756.5,117.1z M727.4,118.3c0-9.6-2-16.6-5.7-21.3s-9.4-6.8-17.2-6.8h-8.2v58.3
				h6.2c8.6,0,14.8-2.5,18.7-7.4C725.4,136,727.4,128.4,727.4,118.3z"/>
		</g>
		<g>
			<path fill="#E6E6E5" d="M803.5,172.9c-13.5,0-23.8-3.5-31.2-10.7c-7.4-7.2-11.1-17.4-11.1-30.6c0-13.7,3.5-24.2,10.3-31.4
				c6.8-7.2,16.6-10.9,29.3-10.9c12.1,0,21.5,3.1,28.1,9.6c6.6,6.4,10,15.4,10,27.5v12.5h-49.6c0.2,4.5,1.8,8,4.9,10.5
				s7.2,3.9,12.7,3.9c4.9,0,9.4-0.4,13.5-1.4c4.1-1,8.6-2.5,13.3-4.7v20.1c-4.3,2.3-8.8,3.7-13.5,4.7
				C815.4,172.5,809.9,172.9,803.5,172.9z M801.9,108.3c-3.3,0-6,1-8.2,3.1s-3.5,5.3-3.9,9.8h23.8c-0.2-3.9-1.2-7-3.3-9.4
				C808.2,109.5,805.4,108.3,801.9,108.3z"/>
		</g>
		<g>
			<path fill="#E6E6E5" d="M866.7,171.5l-30.6-80.8H865l13.7,47.8c0,0.2,0.2,0.6,0.4,1.2c0.2,0.6,0.2,1.2,0.4,2
				c0.2,0.8,0.2,1.6,0.4,2.5c0.2,1,0.2,1.8,0.2,2.5h0.4c0-2.5,0.4-5.1,1.4-8l14.2-48h28.9l-30.6,80.8L866.7,171.5L866.7,171.5z"/>
		</g>
		<g>
			<path fill="#E6E6E5" d="M954.7,171.5h-27.5V67.3h61.3V90h-33.8v19.9h31v22.6h-31V171.5L954.7,171.5z"/>
		</g>
		<g>
			<path fill="#E6E6E5" d="M1033.8,172.9c-13.3,0-23.6-3.5-31.2-10.7c-7.4-7.2-11.1-17.4-11.1-30.6c0-13.7,3.5-24.2,10.3-31.4
				c6.8-7.2,16.6-10.9,29.3-10.9c12.1,0,21.5,3.1,28.1,9.6c6.6,6.4,10,15.4,10,27.5v12.5h-49.6c0.2,4.5,1.8,8,4.9,10.5
				c3.1,2.5,7.2,3.9,12.7,3.9c4.9,0,9.4-0.4,13.5-1.4c4.1-1,8.4-2.5,13.3-4.7v20.1c-4.3,2.3-8.8,3.7-13.5,4.7
				C1045.7,172.5,1040.2,172.9,1033.8,172.9z M1032.2,108.3c-3.3,0-6,1-8.2,3.1c-2.1,2.1-3.5,5.3-3.9,9.8h23.8
				c-0.2-3.9-1.2-7-3.3-9.4C1038.4,109.5,1035.7,108.3,1032.2,108.3z"/>
		</g>
		<g>
			<path fill="#E6E6E5" d="M1138,146.7c0,8.6-2.9,15.2-8.8,19.7c-5.9,4.5-14.2,6.6-25.2,6.6c-5.9,0-11.1-0.4-15.4-1
				c-4.5-0.6-8.8-1.8-13.5-3.5v-22.2c4.3,2,9,3.5,14.1,4.7c5.1,1.2,9.8,1.8,13.7,1.8c6,0,9-1.4,9-4.1c0-1.4-0.8-2.7-2.5-3.9
				s-6.6-3.3-14.6-6.4c-7.4-3.1-12.5-6.4-15.4-10.3c-2.9-3.9-4.5-8.8-4.5-14.6c0-7.4,2.9-13.3,8.6-17.6c5.7-4.3,13.9-6.2,24.4-6.2
				c5.3,0,10.3,0.6,14.8,1.8c4.7,1.2,9.4,2.9,14.4,5.1l-7.4,18c-3.7-1.6-7.6-3.1-11.7-4.3c-4.1-1.2-7.4-1.8-10-1.8
				c-4.5,0-6.8,1.2-6.8,3.3c0,1.4,0.8,2.5,2.3,3.5c1.6,1,6.2,2.9,13.7,6c5.7,2.3,9.8,4.7,12.5,6.8c2.7,2.1,4.9,4.9,6,7.8
				C1137.2,138.7,1138,142.5,1138,146.7z"/>
		</g>
		<g>
			<path fill="#E6E6E5" d="M1183.8,150.8c3.7,0,8.2-1,13.5-2.7v20.3c-3.7,1.6-7.2,2.7-10.7,3.5c-3.3,0.8-7.4,1-11.9,1
				c-9.4,0-16-2.3-20.1-6.8c-4.1-4.7-6.2-11.7-6.2-21.1v-33.4h-9.8v-11.3l12.3-8.8l7.2-17h18.1v16.2h19.7v20.9h-19.7V143
				C1176.4,148.3,1178.9,150.8,1183.8,150.8z"/>
		</g>
	</g>
	<g>
		<g>
			<path fill="#E6E6E5" d="M364,113h45.1v56.2c-12.3,4.1-25.8,6.2-40.4,6.2c-16,0-28.5-4.7-37.3-14.1c-8.8-9.4-13.1-22.6-13.1-39.8
				c0-16.8,4.9-29.9,14.4-39.2c9.6-9.4,23-14.1,40.4-14.1c6.6,0,12.7,0.6,18.5,2c5.9,1.2,10.9,2.7,15.2,4.7L398,97
				c-7.4-3.7-15.8-5.5-24.8-5.5c-8.2,0-14.6,2.7-19.1,8c-4.5,5.3-6.8,13.1-6.8,23c0,9.8,2,17.2,6,22.2s10,7.6,17.6,7.6
				c4.1,0,8-0.4,11.5-1.2v-16.4h-18.5L364,113L364,113L364,113z"/>
		</g>
		<g>
			<path fill="#E6E6E5" d="M510,119.6c0,17.4-4.9,30.8-14.4,40.2c-9.6,9.4-23,14.1-40.4,14.1h-33.8V69.5h36.1
				c16.8,0,29.7,4.3,38.8,12.9C505.5,91.1,510,103.4,510,119.6z M480.7,120.6c0-9.6-2-16.6-5.7-21.3c-3.7-4.7-9.6-7-17.2-7h-8.2
				v58.3h6.2c8.6,0,14.8-2.5,18.9-7.4C478.8,138.5,480.7,130.9,480.7,120.6z"/>
		</g>
		<g>
			<path fill="#E6E6E5" d="M561.9,113H607v56.2c-12.3,4.1-25.6,6.2-40.4,6.2c-16,0-28.5-4.7-37.3-14.1c-8.8-9.4-13.1-22.6-13.1-39.8
				c0-16.8,4.9-29.9,14.4-39.2c9.6-9.4,23-14.1,40.4-14.1c6.6,0,12.7,0.6,18.5,2c5.9,1.2,10.9,2.7,15.2,4.7l-9,22.1
				c-7.6-3.7-15.8-5.5-24.8-5.5c-8.2,0-14.6,2.7-19.1,8c-4.5,5.3-6.8,13.1-6.8,23c0,9.8,2,17.2,6,22.2s10,7.6,17.6,7.6
				c4.1,0,8-0.4,11.5-1.2v-16.4h-18.5L561.9,113L561.9,113z"/>
		</g>
	</g>
	<path fill="#168B58" d="M106.7,211.5l-23.4,39.2l42,29.9l21.5-35.5l-40-66.2C112.1,187.7,112.1,202.6,106.7,211.5z"/>
	<path fill="#D7AB56" d="M146.7,245.1l-21.5,35.5l44.1,31.4c4.5-9.2,4.3-22.2-0.8-30.6L146.7,245.1z"/>
</g>
<g id="Camada_2">
	<g>
		<path fill="#E6E6E5" d="M375,291.6c0-4-1.5-7.3-4.5-9.9c-3-2.6-8.3-4.9-15.8-6.9c-10.8-2.8-19.1-6.6-24.9-11.3
			c-5.8-4.7-8.7-10.8-8.7-18.4c0-7.8,3.2-14.2,9.7-19.3s14.8-7.6,24.9-7.6c10.6,0,19.2,2.9,25.6,8.6c6.4,5.7,9.6,12.6,9.3,20.6
			l-0.1,0.4h-15.5c0-5-1.7-9-5-12.1c-3.4-3.1-8.2-4.6-14.4-4.6c-5.9,0-10.4,1.3-13.6,3.8c-3.2,2.6-4.8,5.9-4.8,9.9
			c0,3.7,1.7,6.7,5.1,9.1c3.4,2.4,9.1,4.7,17,6.9c10.4,2.8,18.3,6.6,23.7,11.6c5.4,4.9,8.1,11.2,8.1,18.8c0,8.1-3.2,14.5-9.7,19.2
			c-6.4,4.8-14.9,7.1-25.4,7.1c-10.1,0-19-2.7-26.6-8.1c-7.6-5.4-11.3-12.7-11.1-22l0.1-0.4h15.5c0,5.9,2,10.3,6.1,13.2
			c4.1,2.9,9.4,4.4,15.9,4.4c6,0,10.6-1.2,14-3.6S375,295.7,375,291.6z"/>
		<path fill="#E6E6E5" d="M448,316.5c-0.6-1.8-1.1-3.6-1.4-5.3c-0.4-1.7-0.6-3.5-0.8-5.2c-2.2,3.4-5.1,6.2-8.7,8.5
			c-3.6,2.3-7.7,3.4-12.1,3.4c-7.5,0-13.2-1.9-17.2-5.8c-4-3.9-6-9.1-6-15.9c0-7,2.7-12.4,8.2-16.2c5.5-3.9,13.2-5.8,23.2-5.8h12.6
			v-6.3c0-3.8-1.1-6.7-3.3-8.8c-2.2-2.1-5.4-3.2-9.5-3.2c-3.7,0-6.6,0.9-8.8,2.7c-2.2,1.8-3.3,4.1-3.3,6.8h-15.5l-0.1-0.4
			c-0.3-5.7,2.2-10.7,7.6-15.1s12.4-6.6,21-6.6c8.4,0,15.1,2.1,20.3,6.4s7.7,10.4,7.7,18.3v32c0,3,0.2,5.8,0.6,8.5
			c0.4,2.7,1,5.4,1.9,8H448z M456.7,214.9c0,4.2-1.3,7.8-4,10.8c-2.7,3-6,4.5-10,4.5c-3.1,0-6.5-1-10.2-3c-3.7-2-6.6-3-8.9-3
			c-1.7,0-3.2,0.7-4.4,2.2c-1.2,1.4-1.8,3.2-1.8,5.1l-8.7-2.3c0-4.2,1.3-7.8,4-10.9c2.6-3.1,5.9-4.6,9.9-4.6c2.5,0,5.7,1,9.7,3
			c4,2,7.1,3,9.4,3c1.7,0,3.1-0.7,4.4-2.1c1.2-1.4,1.9-3.1,1.9-5.2L456.7,214.9z M428.2,305c4.1,0,7.7-1,11-3.1c3.3-2,5.4-4.4,6.5-7
			v-10.6h-12.8c-4.7,0-8.4,1.2-11,3.5c-2.7,2.3-4,5.1-4,8.2c0,2.7,0.9,4.9,2.7,6.5C422.3,304.2,424.9,305,428.2,305z"/>
		<path fill="#E6E6E5" d="M474.4,279.9c0-10.7,2.9-19.4,8.8-26.3c5.9-6.9,14-10.3,24.1-10.3c10.3,0,18.4,3.4,24.2,10.3
			c5.9,6.8,8.8,15.6,8.8,26.3v1.4c0,10.8-2.9,19.6-8.8,26.4c-5.8,6.8-13.9,10.2-24.1,10.2c-10.3,0-18.4-3.4-24.2-10.2
			c-5.8-6.8-8.8-15.6-8.8-26.4V279.9z M490.5,281.3c0,7,1.4,12.7,4.1,17.1c2.7,4.4,7,6.6,12.8,6.6c5.6,0,9.8-2.2,12.6-6.6
			c2.8-4.4,4.3-10.1,4.3-17.1v-1.4c0-6.9-1.4-12.5-4.3-16.9c-2.8-4.5-7-6.7-12.8-6.7c-5.6,0-9.8,2.2-12.6,6.7
			c-2.7,4.5-4.1,10.1-4.1,16.9V281.3z"/>
		<path fill="#E6E6E5" d="M603.8,279.8v36.7h-16.1v-96.7h37.8c10.7,0,19,2.8,25.1,8.3s9.1,12.8,9.1,21.8c0,9.1-3,16.4-9.1,21.8
			c-6,5.5-14.4,8.2-25.1,8.2H603.8z M603.8,266.9h21.7c6,0,10.5-1.6,13.5-4.8c3-3.2,4.5-7.2,4.5-12.2c0-4.9-1.5-9-4.5-12.3
			c-3-3.3-7.5-4.9-13.5-4.9h-21.7V266.9z"/>
		<path fill="#E6E6E5" d="M714.7,316.5c-0.6-1.8-1.1-3.6-1.4-5.3c-0.4-1.7-0.6-3.5-0.8-5.2c-2.2,3.4-5.1,6.2-8.7,8.5
			c-3.6,2.3-7.7,3.4-12.1,3.4c-7.5,0-13.2-1.9-17.2-5.8s-6-9.1-6-15.9c0-7,2.7-12.4,8.2-16.2c5.5-3.9,13.2-5.8,23.2-5.8h12.6v-6.3
			c0-3.8-1.1-6.7-3.3-8.8c-2.2-2.1-5.4-3.2-9.5-3.2c-3.7,0-6.6,0.9-8.8,2.7c-2.2,1.8-3.3,4.1-3.3,6.8h-15.5l-0.1-0.4
			c-0.3-5.7,2.2-10.7,7.6-15.1c5.4-4.4,12.4-6.6,21-6.6c8.4,0,15.1,2.1,20.3,6.4s7.7,10.4,7.7,18.3v32c0,3,0.2,5.8,0.6,8.5
			c0.4,2.7,1,5.4,1.9,8H714.7z M694.9,305c4.1,0,7.7-1,11-3.1c3.3-2,5.4-4.4,6.5-7v-10.6h-12.8c-4.7,0-8.4,1.2-11,3.5s-4,5.1-4,8.2
			c0,2.7,0.9,4.9,2.7,6.5C689,304.2,691.5,305,694.9,305z"/>
		<path fill="#E6E6E5" d="M788.8,306c-2.3,3.8-5.1,6.7-8.6,8.8c-3.5,2.1-7.4,3.1-12,3.1c-7.7,0-13.7-2.5-18.1-7.4
			c-4.3-4.9-6.5-12.6-6.5-22.9v-43h16.1v43.1c0,6.3,1,10.7,3.1,13.2c2,2.5,5.1,3.8,9.2,3.8c3.9,0,7.2-0.7,9.8-2.1
			c2.6-1.4,4.7-3.4,6.2-6.1v-52h16.1v71.9h-14.1L788.8,306z"/>
		<path fill="#E6E6E5" d="M837,316.5h-16.1V212.9H837V316.5z"/>
		<path fill="#E6E6E5" d="M850.7,279.9c0-10.7,2.9-19.4,8.8-26.3c5.9-6.9,14-10.3,24.1-10.3c10.3,0,18.4,3.4,24.2,10.3
			c5.9,6.8,8.8,15.6,8.8,26.3v1.4c0,10.8-2.9,19.6-8.8,26.4c-5.8,6.8-13.9,10.2-24.1,10.2c-10.3,0-18.4-3.4-24.2-10.2
			c-5.8-6.8-8.8-15.6-8.8-26.4V279.9z M866.8,281.3c0,7,1.4,12.7,4.1,17.1c2.7,4.4,7,6.6,12.8,6.6c5.6,0,9.8-2.2,12.6-6.6
			c2.8-4.4,4.3-10.1,4.3-17.1v-1.4c0-6.9-1.4-12.5-4.3-16.9c-2.8-4.5-7-6.7-12.8-6.7c-5.6,0-9.8,2.2-12.6,6.7
			c-2.7,4.5-4.1,10.1-4.1,16.9V281.3z"/>
		<path fill="#E6E6E5" d="M1024.9,316.5h-64.2v-11.2l31.5-34.3c5.1-5.6,8.7-10.2,10.6-13.9c1.9-3.6,2.9-7.1,2.9-10.6
			c0-4.3-1.3-8-3.8-10.9c-2.5-2.9-5.9-4.4-10.2-4.4c-5.7,0-9.9,1.6-12.6,4.8c-2.7,3.2-4.1,7.6-4.1,13.2h-15.6l-0.1-0.4
			c-0.2-8.6,2.6-15.8,8.4-21.7c5.8-5.9,13.9-8.8,24-8.8c9.3,0,16.7,2.6,22.1,7.7c5.4,5.1,8.1,11.8,8.1,20.1c0,5.5-1.6,10.8-4.7,15.9
			c-3.1,5-8,11.2-14.5,18.4l-21.5,22.7l0.2,0.4h43.6V316.5z"/>
		<path fill="#E6E6E5" d="M1099.7,279.2c0,12.6-2.8,22.2-8.5,28.8c-5.7,6.6-13.4,9.9-23.1,9.9c-9.8,0-17.5-3.3-23.3-9.9
			c-5.7-6.6-8.6-16.2-8.6-28.8v-22.1c0-12.5,2.8-22.1,8.5-28.8c5.7-6.6,13.4-10,23.2-10c9.7,0,17.5,3.3,23.2,10
			c5.7,6.6,8.6,16.2,8.6,28.8V279.2z M1083.6,254.6c0-7.9-1.3-13.8-4-17.6s-6.5-5.7-11.6-5.7c-5.1,0-9,1.9-11.6,5.7
			c-2.6,3.8-4,9.7-4,17.6v26.9c0,8,1.3,13.9,4,17.7c2.7,3.8,6.6,5.7,11.7,5.7c5.1,0,8.9-1.9,11.6-5.7c2.6-3.8,3.9-9.7,3.9-17.7
			V254.6z"/>
		<path fill="#E6E6E5" d="M1153.1,316.5h-16.1v-81.4h-19.7v-11.9l35.8-3.5V316.5z"/>
		<path fill="#E6E6E5" d="M1191.7,273.3l5.6-53.5h51.1v14h-37.7l-2.9,24.2c1.9-1.4,4.1-2.6,6.6-3.5c2.5-0.9,5.3-1.4,8.5-1.5
			c9.1-0.1,16.2,2.8,21.3,8.6c5.1,5.8,7.7,13.8,7.7,24c0,9.5-2.7,17.2-8.1,23.3c-5.4,6-13.2,9-23.5,9c-8.5,0-15.7-2.3-21.6-7
			c-5.9-4.7-8.7-11.3-8.5-19.9l0.1-0.3l15.1-0.5c0,4.7,1.4,8.3,4.1,10.9s6.3,3.9,10.7,3.9c5,0,8.8-1.8,11.5-5.3c2.6-3.5,4-8.2,4-14
			c0-5.8-1.4-10.6-4.1-14.2c-2.7-3.7-6.6-5.5-11.6-5.5c-4.4,0-7.7,0.7-9.9,2.2c-2.1,1.5-3.7,3.5-4.7,6.3L1191.7,273.3z"/>
	</g>
</g>
</svg>
