<?xml version="1.0" encoding="utf-8"?>
<!-- Generator: Adobe Illustrator 17.1.0, SVG Export Plug-In . SVG Version: 6.00 Build 0)  -->
<!DOCTYPE svg PUBLIC "-//W3C//DTD SVG 1.1//EN" "http://www.w3.org/Graphics/SVG/1.1/DTD/svg11.dtd">
<svg version="1.1" xmlns="http://www.w3.org/2000/svg" xmlns:xlink="http://www.w3.org/1999/xlink" x="0px" y="0px"
	 width="1253.1px" height="388.9px" viewBox="0 0 1253.1 388.9" enable-background="new 0 0 1253.1 388.9" xml:space="preserve">
<g id="Layer_1">
	<g>
		<g>
			<path fill="#FFFFFF" d="M756.4,116.7c0,17.3-4.7,30.7-14.2,40.1c-9.5,9.3-22.8,14-40.1,14h-33.5V66.7h35.8
				c16.5,0,29.4,4.3,38.3,12.8C751.9,88.3,756.4,100.6,756.4,116.7z M727.4,117.7c0-9.5-1.9-16.5-5.6-21.2
				c-3.7-4.7-9.3-6.8-17.1-6.8h-8.2v58.2h6.2c8.6,0,14.8-2.5,18.7-7.4C725.5,135.4,727.4,127.8,727.4,117.7z"/>
		</g>
		<g>
			<path fill="#FFFFFF" d="M803.3,172.2c-13.4,0-23.7-3.5-31.1-10.7s-11.1-17.3-11.1-30.5c0-13.6,3.5-24.1,10.3-31.3
				c6.8-7.2,16.5-10.9,29.2-10.9c12.1,0,21.4,3.1,28,9.5s9.9,15.4,9.9,27.4v12.5h-49.4c0.2,4.5,1.8,8,4.9,10.5
				c3.1,2.5,7.2,3.9,12.6,3.9c4.9,0,9.3-0.4,13.4-1.4c4.1-1,8.6-2.5,13.2-4.7v20c-4.3,2.3-8.8,3.7-13.4,4.7
				C815.2,172,809.7,172.2,803.3,172.2z M801.7,108c-3.3,0-6,1-8.2,3.1c-2.1,2.1-3.5,5.3-3.9,9.7h23.7c-0.2-3.9-1.2-7-3.3-9.3
				C808,109.2,805.2,108,801.7,108z"/>
		</g>
		<g>
			<path fill="#FFFFFF" d="M866.3,171l-30.5-80.6h28.8l13.6,47.7c0,0.2,0.2,0.6,0.4,1.2c0.2,0.6,0.2,1.2,0.4,1.9
				c0.2,0.8,0.2,1.6,0.4,2.5c0.2,1,0.2,1.8,0.2,2.5h0.4c0-2.5,0.4-5.1,1.4-8l14.2-47.9h28.8L893.8,171L866.3,171L866.3,171z"/>
		</g>
		<g>
			<path fill="#FFFFFF" d="M954.1,171h-27.4V67.1h61.1v22.6h-33.7v19.8H985v22.6h-30.9L954.1,171L954.1,171z"/>
		</g>
		<g>
			<path fill="#FFFFFF" d="M1032.9,172.2c-13.2,0-23.5-3.5-31.1-10.7c-7.4-7.2-11.1-17.3-11.1-30.5c0-13.6,3.5-24.1,10.3-31.3
				c6.8-7.2,16.5-10.9,29.2-10.9c12.1,0,21.4,3.1,28,9.5c6.6,6.4,9.9,15.4,9.9,27.4v12.5h-49.4c0.2,4.5,1.8,8,4.9,10.5
				c3.1,2.5,7.2,3.9,12.6,3.9c4.9,0,9.3-0.4,13.4-1.4c4.1-1,8.4-2.5,13.2-4.7v20c-4.3,2.3-8.8,3.7-13.4,4.7
				C1044.8,172,1039.3,172.2,1032.9,172.2z M1031.3,108c-3.3,0-6,1-8.2,3.1c-2.1,2.1-3.5,5.3-3.9,9.7h23.7c-0.2-3.9-1.2-7-3.3-9.3
				C1037.6,109.2,1034.8,108,1031.3,108z"/>
		</g>
		<g>
			<path fill="#FFFFFF" d="M1136.8,146.1c0,8.6-2.9,15.2-8.8,19.7c-5.8,4.5-14.2,6.6-25.1,6.6c-5.8,0-11.1-0.4-15.4-1
				c-4.5-0.6-8.8-1.8-13.4-3.5v-22.2c4.3,1.9,8.9,3.5,14,4.7c5.1,1.2,9.7,1.8,13.6,1.8c6,0,8.9-1.4,8.9-4.1c0-1.4-0.8-2.7-2.5-3.9
				c-1.8-1.2-6.6-3.3-14.6-6.4c-7.4-3.1-12.5-6.4-15.4-10.3c-2.9-3.9-4.5-8.8-4.5-14.6c0-7.4,2.9-13.2,8.6-17.5
				c5.6-4.3,13.8-6.2,24.3-6.2c5.3,0,10.3,0.6,14.8,1.8c4.7,1.2,9.3,2.9,14.4,5.1l-7.4,17.9c-3.7-1.6-7.6-3.1-11.7-4.3
				c-4.1-1.2-7.4-1.8-9.9-1.8c-4.5,0-6.8,1.2-6.8,3.3c0,1.4,0.8,2.5,2.3,3.5c1.6,1,6.2,2.9,13.6,6c5.6,2.3,9.7,4.7,12.5,6.8
				c2.7,2.1,4.9,4.9,6,7.8C1136,138.3,1136.8,142,1136.8,146.1z"/>
		</g>
		<g>
			<path fill="#FFFFFF" d="M1182.5,150.2c3.7,0,8.2-1,13.4-2.7v20.2c-3.7,1.6-7.2,2.7-10.7,3.5c-3.3,0.8-7.4,1-11.9,1
				c-9.3,0-16-2.3-20-6.8c-4.1-4.7-6.2-11.7-6.2-21v-33.3h-9.7V99.8l12.3-8.8l7.2-16.9h18.1v16.1h19.7v20.8h-19.7v31.3
				C1175.1,147.9,1177.6,150.2,1182.5,150.2z"/>
		</g>
	</g>
	<g>
		<g>
			<path fill="#FFFFFF" d="M365.1,112.7h44.9v56c-12.3,4.1-25.7,6.2-40.3,6.2c-16,0-28.4-4.7-37.2-14c-8.8-9.3-13-22.6-13-39.7
				c0-16.7,4.9-29.8,14.4-39.1c9.5-9.3,23-14,40.3-14c6.6,0,12.6,0.6,18.5,1.9c5.8,1.2,10.9,2.7,15.2,4.7l-8.9,22
				c-7.4-3.7-15.8-5.4-24.7-5.4c-8.2,0-14.6,2.7-19.1,8s-6.8,13-6.8,23c0,9.7,1.9,17.1,6,22.2s9.9,7.6,17.5,7.6
				c4.1,0,8-0.4,11.5-1.2v-16.3h-18.5L365.1,112.7L365.1,112.7L365.1,112.7z"/>
		</g>
		<g>
			<path fill="#FFFFFF" d="M510.7,119.1c0,17.3-4.9,30.7-14.4,40.1c-9.5,9.3-23,14-40.3,14h-33.7V69.1h36c16.7,0,29.6,4.3,38.7,12.8
				C506.2,90.7,510.7,103.1,510.7,119.1z M481.5,120c0-9.5-1.9-16.5-5.6-21.2s-9.5-7-17.1-7h-8.2V150h6.2c8.6,0,14.8-2.5,18.9-7.4
				C479.5,138.1,481.5,130.6,481.5,120z"/>
		</g>
		<g>
			<path fill="#FFFFFF" d="M562.4,112.7h44.9v56c-12.3,4.1-25.5,6.2-40.3,6.2c-16,0-28.4-4.7-37.2-14c-8.8-9.3-13-22.6-13-39.7
				c0-16.7,4.9-29.8,14.4-39.1c9.5-9.3,23-14,40.3-14c6.6,0,12.6,0.6,18.5,1.9c5.8,1.2,10.9,2.7,15.2,4.7l-9,22
				c-7.6-3.7-15.8-5.4-24.7-5.4c-8.2,0-14.6,2.7-19.1,8c-4.5,5.3-6.8,13-6.8,23c0,9.7,1.9,17.1,6,22.2c4.1,5.1,9.9,7.6,17.5,7.6
				c4.1,0,8-0.4,11.5-1.2v-16.3h-18.5L562.4,112.7L562.4,112.7z"/>
		</g>
	</g>
	<g>
		<path fill="#FFFFFF" d="M210.8,245.9L57.1,0H14.7C6.2,0,3.1,5.8,7.3,13l103.1,168.3l0.6,0.8L180.9,294L210.8,245.9z"/>
		<path fill="#FFFFFF" d="M234.6,207.6c4.5-7.2,4.5-18.9,0-26.1L130.3,13c-4.5-7.2-15-13-23.3-13H64.1l150.2,240.3L234.6,207.6z"/>
		<path fill="#FFFFFF" d="M147.2,251.4l-86,137.8h45.7c8.4,0,19.1-5.8,23.3-13l41.6-67.3c0.2-0.2,0.4-0.8,1.2-1.9l4.3-7L147.2,251.4
			z"/>
		<path fill="#FFFFFF" d="M110.6,207.6L7.5,375.9c-4.5,7.2-1.2,13,7.4,13h39.5l89.5-143.2l-30-48.3
			C113.4,201.2,112.2,204.7,110.6,207.6z"/>
	</g>
</g>
<g id="Camada_2">
	<g>
		<path fill="#FFFFFF" d="M376.2,285.9c0-4-1.5-7.3-4.5-9.9c-3-2.6-8.3-4.9-15.8-6.9c-10.8-2.8-19.1-6.6-24.9-11.3
			c-5.8-4.7-8.7-10.8-8.7-18.4c0-7.8,3.2-14.2,9.7-19.3s14.8-7.6,24.9-7.6c10.6,0,19.2,2.9,25.6,8.6c6.4,5.7,9.6,12.6,9.3,20.6
			l-0.1,0.4h-15.5c0-5-1.7-9-5-12.1c-3.4-3.1-8.2-4.6-14.4-4.6c-5.9,0-10.4,1.3-13.6,3.8c-3.2,2.6-4.8,5.9-4.8,9.9
			c0,3.7,1.7,6.7,5.1,9.1c3.4,2.4,9.1,4.7,17,6.9c10.4,2.8,18.3,6.6,23.7,11.6c5.4,4.9,8.1,11.2,8.1,18.8c0,8.1-3.2,14.5-9.7,19.2
			c-6.4,4.8-14.9,7.1-25.4,7.1c-10.1,0-19-2.7-26.6-8.1c-7.6-5.4-11.3-12.7-11.1-22l0.1-0.4h15.5c0,5.9,2,10.3,6.1,13.2
			c4.1,2.9,9.4,4.4,15.9,4.4c6,0,10.6-1.2,14-3.6S376.2,290,376.2,285.9z"/>
		<path fill="#FFFFFF" d="M449.2,310.8c-0.6-1.8-1.1-3.6-1.4-5.3c-0.4-1.7-0.6-3.5-0.8-5.2c-2.2,3.4-5.1,6.2-8.7,8.5
			c-3.6,2.3-7.7,3.4-12.1,3.4c-7.5,0-13.2-1.9-17.2-5.8c-4-3.9-6-9.1-6-15.9c0-7,2.7-12.4,8.2-16.2c5.5-3.9,13.2-5.8,23.2-5.8h12.6
			v-6.3c0-3.8-1.1-6.7-3.3-8.8c-2.2-2.1-5.4-3.2-9.5-3.2c-3.7,0-6.6,0.9-8.8,2.7c-2.2,1.8-3.3,4.1-3.3,6.8h-15.5l-0.1-0.4
			c-0.3-5.7,2.2-10.7,7.6-15.1s12.4-6.6,21-6.6c8.4,0,15.1,2.1,20.3,6.4s7.7,10.4,7.7,18.3v32c0,3,0.2,5.8,0.6,8.5
			c0.4,2.7,1,5.4,1.9,8H449.2z M458,209.1c0,4.2-1.3,7.8-4,10.8c-2.7,3-6,4.5-10,4.5c-3.1,0-6.5-1-10.2-3c-3.7-2-6.6-3-8.9-3
			c-1.7,0-3.2,0.7-4.4,2.2c-1.2,1.4-1.8,3.2-1.8,5.1l-8.7-2.3c0-4.2,1.3-7.8,4-10.9c2.6-3.1,5.9-4.6,9.9-4.6c2.5,0,5.7,1,9.7,3
			c4,2,7.1,3,9.4,3c1.7,0,3.1-0.7,4.4-2.1c1.2-1.4,1.9-3.1,1.9-5.2L458,209.1z M429.4,299.2c4.1,0,7.7-1,11-3.1c3.3-2,5.4-4.4,6.5-7
			v-10.6h-12.8c-4.7,0-8.4,1.2-11,3.5c-2.7,2.3-4,5.1-4,8.2c0,2.7,0.9,4.9,2.7,6.5C423.5,298.4,426.1,299.2,429.4,299.2z"/>
		<path fill="#FFFFFF" d="M475.6,274.2c0-10.7,2.9-19.4,8.8-26.3c5.9-6.9,14-10.3,24.1-10.3c10.3,0,18.4,3.4,24.2,10.3
			c5.9,6.8,8.8,15.6,8.8,26.3v1.4c0,10.8-2.9,19.6-8.8,26.4c-5.8,6.8-13.9,10.2-24.1,10.2c-10.3,0-18.4-3.4-24.2-10.2
			c-5.8-6.8-8.8-15.6-8.8-26.4V274.2z M491.8,275.5c0,7,1.4,12.7,4.1,17.1c2.7,4.4,7,6.6,12.8,6.6c5.6,0,9.8-2.2,12.6-6.6
			c2.8-4.4,4.3-10.1,4.3-17.1v-1.4c0-6.9-1.4-12.5-4.3-16.9c-2.8-4.5-7-6.7-12.8-6.7c-5.6,0-9.8,2.2-12.6,6.7
			c-2.7,4.5-4.1,10.1-4.1,16.9V275.5z"/>
		<path fill="#FFFFFF" d="M605,274.1v36.7h-16.1v-96.7h37.8c10.7,0,19,2.8,25.1,8.3s9.1,12.8,9.1,21.8c0,9.1-3,16.4-9.1,21.8
			c-6,5.5-14.4,8.2-25.1,8.2H605z M605,261.2h21.7c6,0,10.5-1.6,13.5-4.8c3-3.2,4.5-7.2,4.5-12.2c0-4.9-1.5-9-4.5-12.3
			c-3-3.3-7.5-4.9-13.5-4.9H605V261.2z"/>
		<path fill="#FFFFFF" d="M715.9,310.8c-0.6-1.8-1.1-3.6-1.4-5.3c-0.4-1.7-0.6-3.5-0.8-5.2c-2.2,3.4-5.1,6.2-8.7,8.5
			c-3.6,2.3-7.7,3.4-12.1,3.4c-7.5,0-13.2-1.9-17.2-5.8s-6-9.1-6-15.9c0-7,2.7-12.4,8.2-16.2c5.5-3.9,13.2-5.8,23.2-5.8h12.6v-6.3
			c0-3.8-1.1-6.7-3.3-8.8c-2.2-2.1-5.4-3.2-9.5-3.2c-3.7,0-6.6,0.9-8.8,2.7c-2.2,1.8-3.3,4.1-3.3,6.8h-15.5l-0.1-0.4
			c-0.3-5.7,2.2-10.7,7.6-15.1c5.4-4.4,12.4-6.6,21-6.6c8.4,0,15.1,2.1,20.3,6.4s7.7,10.4,7.7,18.3v32c0,3,0.2,5.8,0.6,8.5
			c0.4,2.7,1,5.4,1.9,8H715.9z M696.1,299.2c4.1,0,7.7-1,11-3.1c3.3-2,5.4-4.4,6.5-7v-10.6h-12.8c-4.7,0-8.4,1.2-11,3.5
			s-4,5.1-4,8.2c0,2.7,0.9,4.9,2.7,6.5C690.2,298.4,692.8,299.2,696.1,299.2z"/>
		<path fill="#FFFFFF" d="M790.1,300.3c-2.3,3.8-5.1,6.7-8.6,8.8c-3.5,2.1-7.4,3.1-12,3.1c-7.7,0-13.7-2.5-18.1-7.4
			c-4.3-4.9-6.5-12.6-6.5-22.9v-43H761V282c0,6.3,1,10.7,3.1,13.2c2,2.5,5.1,3.8,9.2,3.8c3.9,0,7.2-0.7,9.8-2.1
			c2.6-1.4,4.7-3.4,6.2-6.1v-52h16.1v71.9h-14.1L790.1,300.3z"/>
		<path fill="#FFFFFF" d="M838.2,310.8h-16.1V207.2h16.1V310.8z"/>
		<path fill="#FFFFFF" d="M851.9,274.2c0-10.7,2.9-19.4,8.8-26.3c5.9-6.9,14-10.3,24.1-10.3c10.3,0,18.4,3.4,24.2,10.3
			c5.9,6.8,8.8,15.6,8.8,26.3v1.4c0,10.8-2.9,19.6-8.8,26.4c-5.8,6.8-13.9,10.2-24.1,10.2c-10.3,0-18.4-3.4-24.2-10.2
			c-5.8-6.8-8.8-15.6-8.8-26.4V274.2z M868.1,275.5c0,7,1.4,12.7,4.1,17.1c2.7,4.4,7,6.6,12.8,6.6c5.6,0,9.8-2.2,12.6-6.6
			c2.8-4.4,4.3-10.1,4.3-17.1v-1.4c0-6.9-1.4-12.5-4.3-16.9c-2.8-4.5-7-6.7-12.8-6.7c-5.6,0-9.8,2.2-12.6,6.7
			c-2.7,4.5-4.1,10.1-4.1,16.9V275.5z"/>
		<path fill="#FFFFFF" d="M1026.1,310.8h-64.2v-11.2l31.5-34.3c5.1-5.6,8.7-10.2,10.6-13.9c1.9-3.6,2.9-7.1,2.9-10.6
			c0-4.3-1.3-8-3.8-10.9c-2.5-2.9-5.9-4.4-10.2-4.4c-5.7,0-9.9,1.6-12.6,4.8c-2.7,3.2-4.1,7.6-4.1,13.2h-15.6l-0.1-0.4
			c-0.2-8.6,2.6-15.8,8.4-21.7c5.8-5.9,13.9-8.8,24-8.8c9.3,0,16.7,2.6,22.1,7.7c5.4,5.1,8.1,11.8,8.1,20.1c0,5.5-1.6,10.8-4.7,15.9
			c-3.1,5-8,11.2-14.5,18.4l-21.5,22.7l0.2,0.4h43.6V310.8z"/>
		<path fill="#FFFFFF" d="M1101,273.5c0,12.6-2.8,22.2-8.5,28.8c-5.7,6.6-13.4,9.9-23.1,9.9c-9.8,0-17.5-3.3-23.3-9.9
			c-5.7-6.6-8.6-16.2-8.6-28.8v-22.1c0-12.5,2.8-22.1,8.5-28.8c5.7-6.6,13.4-10,23.2-10c9.7,0,17.5,3.3,23.2,10
			c5.7,6.6,8.6,16.2,8.6,28.8V273.5z M1084.8,248.9c0-7.9-1.3-13.8-4-17.6s-6.5-5.7-11.6-5.7c-5.1,0-9,1.9-11.6,5.7
			c-2.6,3.8-4,9.7-4,17.6v26.9c0,8,1.3,13.9,4,17.7c2.7,3.8,6.6,5.7,11.7,5.7c5.1,0,8.9-1.9,11.6-5.7c2.6-3.8,3.9-9.7,3.9-17.7
			V248.9z"/>
		<path fill="#FFFFFF" d="M1154.3,310.8h-16.1v-81.4h-19.7v-11.9l35.8-3.5V310.8z"/>
		<path fill="#FFFFFF" d="M1192.9,267.5l5.6-53.5h51.1v14h-37.7l-2.9,24.2c1.9-1.4,4.1-2.6,6.6-3.5c2.5-0.9,5.3-1.4,8.5-1.5
			c9.1-0.1,16.2,2.8,21.3,8.6c5.1,5.8,7.7,13.8,7.7,24c0,9.5-2.7,17.2-8.1,23.3c-5.4,6-13.2,9-23.5,9c-8.5,0-15.7-2.3-21.6-7
			c-5.9-4.7-8.7-11.3-8.5-19.9l0.1-0.3l15.1-0.5c0,4.7,1.4,8.3,4.1,10.9s6.3,3.9,10.7,3.9c5,0,8.8-1.8,11.5-5.3c2.6-3.5,4-8.2,4-14
			c0-5.8-1.4-10.6-4.1-14.2c-2.7-3.7-6.6-5.5-11.6-5.5c-4.4,0-7.7,0.7-9.9,2.2c-2.1,1.5-3.7,3.5-4.7,6.3L1192.9,267.5z"/>
	</g>
</g>
</svg>
