<?xml version="1.0" encoding="utf-8"?>
<!-- Generator: Adobe Illustrator 16.0.0, SVG Export Plug-In . SVG Version: 6.00 Build 0)  -->
<svg version="1.2" baseProfile="tiny" id="Layer_1" xmlns="http://www.w3.org/2000/svg" xmlns:xlink="http://www.w3.org/1999/xlink"
	 x="0px" y="0px" width="340.16px" height="103px" viewBox="0 0 340.16 103" xml:space="preserve">
<g>
	<g>
		<polygon fill="#FFCD09" points="21.855,20.564 21.855,38.242 21.855,64.756 21.855,82.434 39.533,82.434 79.65,82.434 
			79.65,65.08 39.115,65.08 39.115,38.082 79.65,38.082 79.65,20.564 39.533,20.564 		"/>
		<polygon fill="#F58220" points="21.855,3.318 4.852,20.564 4.852,82.434 21.855,99.682 79.65,99.682 79.65,83.08 79.65,82.434 
			39.533,82.434 21.855,82.434 21.855,64.756 21.855,38.242 21.855,20.564 39.533,20.564 79.65,20.564 79.65,20.08 79.65,3.318 		
			"/>
	</g>
	<g>
		<g>
			<path fill="none" d="M210.59,35.408c-0.443-0.723-1.027-1.299-1.75-1.73c-0.725-0.432-1.6-0.646-2.629-0.646
				c-3.779-0.027-5.67,2.643-5.67,8.008c0,1.057,0.104,2.07,0.312,3.043c0.209,0.975,0.533,1.822,0.979,2.543
				c0.445,0.725,1.029,1.309,1.752,1.754c0.723,0.443,1.598,0.666,2.627,0.666c3.781,0.029,5.672-2.641,5.672-8.006
				c0-1.086-0.105-2.113-0.312-3.086C211.361,36.979,211.035,36.131,210.59,35.408z"/>
			<path fill="none" d="M187.434,33.156c-1.916,0-3.418,0.633-4.504,1.896c-1.084,1.266-1.625,3.289-1.625,6.068
				c0,1.141,0.09,2.197,0.271,3.172c0.18,0.973,0.479,1.807,0.896,2.5c0.416,0.697,0.965,1.246,1.646,1.648s1.508,0.604,2.482,0.604
				c1.418,0,2.543-0.367,3.377-1.104c0.834-0.738,1.402-1.857,1.709-3.357V34.24c-0.498-0.389-1.07-0.668-1.709-0.834
				S188.492,33.156,187.434,33.156z"/>
			<path fill="none" d="M253.846,32.844c-4.295,0-6.172,4.002-6.172,7.797c0,4.422,2.502,7.756,6.088,7.756
				c3.504,0,6.131-3.295,6.131-7.84C259.893,37.139,258.184,32.844,253.846,32.844z"/>
			<path fill="none" d="M125.366,40.039c-1.252,0-2.516,0.049-3.795,0.146s-2.189,0.508-2.732,1.23
				c-0.541,0.723-0.812,1.432-0.812,2.127c0,0.973,0.348,1.771,1.043,2.398c0.693,0.625,1.584,0.938,2.67,0.938
				c0.777,0,1.568-0.104,2.375-0.312s1.432-0.473,1.877-0.793c0.445-0.318,0.814-0.674,1.105-1.062
				c0.293-0.389,0.508-0.766,0.646-1.127v-3.463c-0.389-0.025-0.785-0.047-1.188-0.061
				C126.151,40.047,125.755,40.039,125.366,40.039z"/>
			<path fill="none" d="M160.374,40.039c-1.25,0-2.516,0.049-3.793,0.146c-1.281,0.098-2.189,0.508-2.732,1.23
				s-0.814,1.432-0.814,2.127c0,0.973,0.348,1.771,1.045,2.398c0.693,0.625,1.584,0.938,2.668,0.938c0.777,0,1.57-0.104,2.377-0.312
				s1.432-0.473,1.877-0.793c0.443-0.318,0.812-0.674,1.104-1.062c0.293-0.389,0.508-0.766,0.648-1.127v-3.463
				c-0.391-0.025-0.787-0.047-1.189-0.061C161.159,40.047,160.765,40.039,160.374,40.039z"/>
			<path fill="none" d="M274.697,32.969c-3.795,0-6.047,3.336-6.047,7.756c0,4.086,2.043,7.465,5.963,7.465
				c2.461,0,4.711-1.67,5.379-4.379c0.125-0.5,0.166-1.002,0.166-1.584v-3.504c0-0.459-0.041-1.084-0.166-1.543
				C279.451,34.887,277.449,32.969,274.697,32.969z"/>
			<path fill="none" d="M325.51,32.844c-4.295,0-6.172,4.002-6.172,7.797c0,4.422,2.502,7.756,6.088,7.756
				c3.504,0,6.131-3.295,6.131-7.84C331.557,37.139,329.846,32.844,325.51,32.844z"/>
			<path fill="none" d="M304.268,32.926c-3.502,0-6.004,2.961-6.004,7.631c0,3.963,2.043,7.256,5.963,7.256
				c2.293,0,4.336-1.418,5.088-3.752c0.207-0.625,0.291-1.334,0.291-1.961v-3.627c0-0.625-0.041-1.168-0.209-1.627
				C308.73,34.678,306.979,32.926,304.268,32.926z"/>
			<path d="M110.247,48.504c-0.932,0.25-2.023,0.375-3.273,0.375c-1.391,0-2.678-0.25-3.859-0.75
				c-1.182-0.502-2.209-1.252-3.086-2.252c-0.875-1.002-1.562-2.254-2.062-3.756c-0.502-1.498-0.752-3.25-0.752-5.252
				c0-2.225,0.264-4.102,0.793-5.631c0.527-1.527,1.23-2.766,2.105-3.711c0.877-0.945,1.869-1.627,2.982-2.045
				c1.111-0.416,2.238-0.625,3.379-0.625c2.473,0,4.379,0.318,5.711,0.959l1.795-2.752c-1.391-0.5-2.613-0.842-3.67-1.021
				c-1.057-0.182-2.418-0.271-4.088-0.271c-1.557,0-3.086,0.277-4.586,0.834c-1.502,0.557-2.857,1.439-4.066,2.648
				c-1.211,1.209-2.184,2.768-2.92,4.67c-0.736,1.906-1.105,4.221-1.105,6.945c0,2.611,0.334,4.871,1.002,6.775
				c0.666,1.904,1.57,3.469,2.711,4.691c1.139,1.225,2.475,2.135,4.002,2.732c1.529,0.596,3.17,0.896,4.922,0.896
				c1.445,0,2.807-0.125,4.088-0.375c1.277-0.25,2.654-0.945,4.129-2.086l-1.795-1.959
				C111.964,47.934,111.179,48.254,110.247,48.504z"/>
			<path d="M240.062,47.729c-0.932,0.25-2.021,0.377-3.273,0.377c-1.393,0-2.678-0.25-3.857-0.75
				c-1.184-0.502-2.211-1.252-3.086-2.254c-0.877-1-1.564-2.252-2.064-3.754c-0.5-1.5-0.75-3.252-0.75-5.254
				c0-2.223,0.262-4.1,0.791-5.629c0.527-1.529,1.23-2.766,2.105-3.713c0.875-0.943,1.869-1.627,2.982-2.043
				c1.111-0.418,2.236-0.625,3.379-0.625c2.473,0,4.377,0.318,5.713,0.959l1.793-2.754c-1.391-0.5-2.615-0.84-3.67-1.02
				c-1.057-0.182-2.418-0.271-4.086-0.271c-1.559,0-3.086,0.277-4.588,0.834s-2.857,1.438-4.068,2.648
				c-1.207,1.209-2.182,2.766-2.918,4.67s-1.105,4.221-1.105,6.943c0,2.613,0.334,4.873,1.002,6.777s1.57,3.469,2.709,4.691
				c1.141,1.225,2.475,2.135,4.004,2.732c1.529,0.596,3.17,0.896,4.922,0.896c1.445,0,2.809-0.125,4.088-0.377
				c1.277-0.25,2.654-0.945,4.129-2.084l-1.795-1.959C241.779,47.16,240.994,47.479,240.062,47.729z"/>
			<path d="M131.435,49.066c-0.375-0.959-0.564-1.953-0.564-2.982c0-1.418,0.043-2.918,0.125-4.504
				c0.086-1.584,0.125-3.211,0.125-4.879c0-0.75-0.076-1.5-0.229-2.252c-0.152-0.75-0.459-1.439-0.918-2.064
				c-0.457-0.625-1.125-1.133-2-1.521c-0.877-0.389-2.037-0.584-3.482-0.584c-1.529,0-2.996,0.152-4.4,0.457
				c-1.404,0.307-2.635,0.779-3.691,1.418l1.043,2.504c0.389-0.223,0.84-0.424,1.355-0.605c0.514-0.18,1.057-0.334,1.627-0.459
				s1.125-0.223,1.668-0.291c0.541-0.07,1.049-0.104,1.521-0.104c1.613,0,2.725,0.305,3.336,0.916
				c0.611,0.613,0.918,1.682,0.918,3.211c0,0.668-0.041,1.418-0.125,2.252c-0.389-0.055-0.771-0.082-1.146-0.082s-0.758,0-1.148,0
				c-1.918,0-3.738,0.104-5.461,0.312c-1.725,0.209-3.061,0.965-4.004,2.271c-0.945,1.309-1.418,2.574-1.418,3.797
				c0,0.916,0.158,1.736,0.479,2.459s0.758,1.342,1.314,1.857c0.555,0.516,1.217,0.91,1.98,1.188
				c0.766,0.277,1.592,0.418,2.482,0.418c0.889,0,1.779-0.1,2.668-0.293c0.891-0.193,1.598-0.438,2.127-0.729
				c0.527-0.293,0.98-0.627,1.355-1.002s0.689-0.756,0.939-1.146h0.207c0.584,1.945,1.307,2.918,2.168,2.918h2.961
				C132.415,50.854,131.81,50.025,131.435,49.066z M127.743,45.584c-0.139,0.361-0.354,0.738-0.646,1.127
				c-0.291,0.389-0.66,0.744-1.105,1.062c-0.445,0.32-1.07,0.584-1.877,0.793s-1.598,0.312-2.375,0.312
				c-1.086,0-1.977-0.312-2.67-0.938c-0.695-0.627-1.043-1.426-1.043-2.398c0-0.695,0.271-1.404,0.812-2.127
				c0.543-0.723,1.453-1.133,2.732-1.23s2.543-0.146,3.795-0.146c0.389,0,0.785,0.008,1.189,0.021
				c0.402,0.014,0.799,0.035,1.188,0.061V45.584z"/>
			<path d="M145.489,40.746c-0.738-0.5-1.543-0.902-2.42-1.209c-0.875-0.305-1.682-0.619-2.418-0.938
				c-0.736-0.32-1.355-0.682-1.855-1.084s-0.752-0.967-0.752-1.689c0-1.029,0.287-1.752,0.855-2.17
				c0.57-0.416,1.467-0.625,2.689-0.625c1.029,0,1.996,0.119,2.898,0.355c0.904,0.236,1.676,0.508,2.316,0.812l0.791-2.752
				c-0.75-0.361-1.633-0.676-2.646-0.939c-1.016-0.264-2.273-0.396-3.775-0.396c-2.029,0-3.615,0.467-4.754,1.398
				c-1.141,0.932-1.711,2.396-1.711,4.398c0,1.225,0.25,2.197,0.752,2.92c0.5,0.723,1.117,1.312,1.855,1.773
				c0.736,0.459,1.543,0.834,2.418,1.125c0.877,0.293,1.684,0.598,2.42,0.916c0.736,0.322,1.355,0.717,1.855,1.189
				s0.75,1.127,0.75,1.961c0,1.225-0.389,2.07-1.168,2.543c-0.777,0.473-1.766,0.709-2.961,0.709c-1.057,0-2.098-0.152-3.127-0.459
				c-1.029-0.305-1.863-0.639-2.502-1l-1.002,2.836c0.752,0.418,1.682,0.779,2.795,1.084c1.111,0.307,2.461,0.459,4.045,0.459
				c1.223,0,2.287-0.16,3.191-0.48c0.902-0.318,1.66-0.756,2.271-1.312s1.064-1.223,1.355-2.002
				c0.293-0.779,0.438-1.613,0.438-2.502c0-1.252-0.25-2.26-0.75-3.025C146.845,41.879,146.226,41.246,145.489,40.746z"/>
			<path d="M166.442,49.066c-0.373-0.959-0.562-1.953-0.562-2.982c0-1.418,0.041-2.918,0.125-4.504
				c0.084-1.584,0.125-3.211,0.125-4.879c0-0.75-0.076-1.5-0.229-2.252c-0.154-0.75-0.459-1.439-0.918-2.064
				s-1.125-1.133-2.002-1.521s-2.037-0.584-3.482-0.584c-1.529,0-2.996,0.152-4.398,0.457c-1.404,0.307-2.635,0.779-3.691,1.418
				l1.041,2.504c0.391-0.223,0.842-0.424,1.357-0.605c0.512-0.18,1.057-0.334,1.625-0.459c0.57-0.125,1.127-0.223,1.668-0.291
				c0.543-0.07,1.051-0.104,1.523-0.104c1.611,0,2.725,0.305,3.336,0.916c0.611,0.613,0.918,1.682,0.918,3.211
				c0,0.668-0.043,1.418-0.125,2.252c-0.391-0.055-0.771-0.082-1.146-0.082c-0.377,0-0.76,0-1.148,0
				c-1.918,0-3.74,0.104-5.463,0.312c-1.725,0.209-3.059,0.965-4.004,2.271c-0.945,1.309-1.418,2.574-1.418,3.797
				c0,0.916,0.16,1.736,0.48,2.459c0.318,0.723,0.758,1.342,1.312,1.857c0.557,0.516,1.217,0.91,1.982,1.188
				c0.764,0.277,1.59,0.418,2.48,0.418c0.889,0,1.779-0.1,2.67-0.293c0.889-0.193,1.598-0.438,2.127-0.729
				c0.527-0.293,0.98-0.627,1.355-1.002c0.373-0.375,0.688-0.756,0.938-1.146h0.209c0.584,1.945,1.307,2.918,2.168,2.918h2.961
				C167.423,50.854,166.819,50.025,166.442,49.066z M162.753,45.584c-0.141,0.361-0.355,0.738-0.648,1.127
				c-0.291,0.389-0.66,0.744-1.104,1.062c-0.445,0.32-1.07,0.584-1.877,0.793s-1.6,0.312-2.377,0.312
				c-1.084,0-1.975-0.312-2.668-0.938c-0.697-0.627-1.045-1.426-1.045-2.398c0-0.695,0.271-1.404,0.814-2.127
				s1.451-1.133,2.732-1.23c1.277-0.098,2.543-0.146,3.793-0.146c0.391,0,0.785,0.008,1.189,0.021
				c0.402,0.014,0.799,0.035,1.189,0.061V45.584z"/>
			<path d="M195.023,44.293V22.271h-3.336v8.674c-0.695-0.248-1.342-0.43-1.938-0.541c-0.6-0.111-1.412-0.168-2.441-0.168
				c-2.945,0-5.26,0.926-6.943,2.773c-1.684,1.85-2.521,4.555-2.521,8.111c0,3.727,0.674,6.465,2.021,8.217
				c1.35,1.752,3.412,2.627,6.193,2.627c1.418,0,2.654-0.32,3.711-0.959s1.863-1.445,2.418-2.42h0.168l0.834,2.961h2.252
				c-0.223-1.109-0.35-2.244-0.375-3.398C195.037,46.996,195.023,45.709,195.023,44.293z M191.688,44.584
				c-0.307,1.5-0.875,2.619-1.709,3.357c-0.834,0.736-1.959,1.104-3.377,1.104c-0.975,0-1.801-0.201-2.482-0.604
				s-1.23-0.951-1.646-1.648c-0.418-0.693-0.717-1.527-0.896-2.5c-0.182-0.975-0.271-2.031-0.271-3.172
				c0-2.779,0.541-4.803,1.625-6.068c1.086-1.264,2.588-1.896,4.504-1.896c1.059,0,1.906,0.084,2.545,0.25s1.211,0.445,1.709,0.834
				V44.584z"/>
			<path d="M213.133,33.094c-0.75-0.959-1.703-1.695-2.855-2.211c-1.154-0.514-2.51-0.771-4.066-0.771
				c-2.945,0-5.205,0.938-6.777,2.816c-1.57,1.877-2.355,4.58-2.355,8.111c0,1.641,0.18,3.133,0.541,4.482s0.918,2.502,1.67,3.461
				c0.752,0.961,1.703,1.695,2.855,2.211c1.154,0.514,2.51,0.771,4.066,0.771c2.947,0,5.205-0.939,6.775-2.814
				c1.572-1.877,2.359-4.58,2.359-8.111c0-1.641-0.182-3.135-0.543-4.484C214.439,35.207,213.885,34.053,213.133,33.094z
				 M206.211,49.045c-1.029,0-1.904-0.223-2.627-0.666c-0.723-0.445-1.307-1.029-1.752-1.754c-0.445-0.721-0.77-1.568-0.979-2.543
				c-0.209-0.973-0.312-1.986-0.312-3.043c0-5.365,1.891-8.035,5.67-8.008c1.029,0,1.904,0.215,2.629,0.646
				c0.723,0.432,1.307,1.008,1.75,1.73c0.445,0.723,0.771,1.57,0.98,2.545c0.207,0.973,0.312,2,0.312,3.086
				C211.883,46.404,209.992,49.074,206.211,49.045z"/>
			<polygon points="259.266,21.793 255.221,21.793 251.594,27.756 254.18,27.756 			"/>
			<path d="M253.93,30.092c-5.547,0-10.008,3.961-10.008,10.674c0,6.381,4.252,10.383,9.674,10.383
				c4.836,0,10.049-3.252,10.049-10.717C263.645,34.303,259.725,30.092,253.93,30.092z M253.762,48.396
				c-3.586,0-6.088-3.334-6.088-7.756c0-3.795,1.877-7.797,6.172-7.797c4.338,0,6.047,4.295,6.047,7.713
				C259.893,45.102,257.266,48.396,253.762,48.396z"/>
			<path d="M283.787,21.084h-3.629v12.051h-0.082c-0.918-1.584-2.961-3.043-6.088-3.043c-4.879,0-9.092,4.086-9.049,10.799
				c0,6.131,3.795,10.258,8.672,10.258c3.295,0,5.713-1.709,6.797-3.961h0.127l0.166,3.504h3.252
				c-0.082-1.377-0.166-3.42-0.166-5.213V21.084z M280.158,42.227c0,0.582-0.041,1.084-0.166,1.584
				c-0.668,2.709-2.918,4.379-5.379,4.379c-3.92,0-5.963-3.379-5.963-7.465c0-4.42,2.252-7.756,6.047-7.756
				c2.752,0,4.754,1.918,5.295,4.211c0.125,0.459,0.166,1.084,0.166,1.543V42.227z"/>
			<path d="M310.064,33.553h-0.084c-0.916-1.67-2.793-3.461-6.297-3.461c-4.67,0-9.131,3.836-9.131,10.674
				c0,5.588,3.586,9.842,8.59,9.842c3.127,0,5.338-1.502,6.422-3.379h0.082v2.211c0,5.129-2.752,7.088-6.504,7.088
				c-2.502,0-4.588-0.75-5.922-1.625l-0.918,2.836c1.627,1.084,4.295,1.668,6.715,1.668c2.543,0,5.379-0.627,7.381-2.418
				c1.918-1.795,2.877-4.588,2.877-9.258V36.012c0-2.418,0.041-4.086,0.166-5.504h-3.252L310.064,33.553z M309.605,42.1
				c0,0.627-0.084,1.336-0.291,1.961c-0.752,2.334-2.795,3.752-5.088,3.752c-3.92,0-5.963-3.293-5.963-7.256
				c0-4.67,2.502-7.631,6.004-7.631c2.711,0,4.463,1.752,5.129,3.92c0.168,0.459,0.209,1.002,0.209,1.627V42.1z"/>
			<path d="M325.594,30.092c-5.547,0-10.008,3.961-10.008,10.674c0,6.381,4.252,10.383,9.674,10.383
				c4.836,0,10.049-3.252,10.049-10.717C335.309,34.303,331.389,30.092,325.594,30.092z M325.426,48.396
				c-3.586,0-6.088-3.334-6.088-7.756c0-3.795,1.877-7.797,6.172-7.797c4.336,0,6.047,4.295,6.047,7.713
				C331.557,45.102,328.93,48.396,325.426,48.396z"/>
			<path d="M289.266,22.543c-1.375,0-2.293,1.043-2.293,2.293c0,1.252,0.875,2.252,2.209,2.252c1.461,0,2.336-1,2.336-2.252
				C291.518,23.545,290.6,22.543,289.266,22.543z"/>
			<rect x="287.43" y="30.508" width="3.67" height="20.184"/>
		</g>
		<g>
			<path d="M95.472,63.461h1.848V76.08h6.047v1.533h-7.895V63.461z"/>
			<path d="M111.6,64.596c0,0.629-0.44,1.133-1.176,1.133c-0.672,0-1.112-0.504-1.112-1.133c0-0.631,0.461-1.154,1.154-1.154
				C111.138,63.441,111.6,63.945,111.6,64.596z M109.542,77.613V67.451h1.848v10.162H109.542z"/>
			<path d="M119.37,67.451l1.994,5.689c0.336,0.945,0.609,1.785,0.818,2.625h0.063c0.231-0.84,0.524-1.68,0.86-2.625l1.975-5.689
				h1.932l-3.99,10.162h-1.764l-3.863-10.162H119.37z"/>
			<path d="M132.956,70.621c0-1.197-0.021-2.225-0.084-3.17h1.617l0.084,2.016h0.062c0.463-1.365,1.596-2.227,2.835-2.227
				c0.188,0,0.336,0.021,0.504,0.043v1.742c-0.188-0.041-0.378-0.041-0.63-0.041c-1.302,0-2.226,0.965-2.478,2.352
				c-0.042,0.252-0.063,0.566-0.063,0.859v5.418h-1.848V70.621z"/>
			<path d="M153.011,72.447c0,3.76-2.625,5.396-5.061,5.396c-2.729,0-4.871-2.016-4.871-5.229c0-3.379,2.246-5.375,5.039-5.375
				C151.036,67.24,153.011,69.361,153.011,72.447z M144.969,72.553c0,2.227,1.26,3.906,3.065,3.906c1.764,0,3.086-1.66,3.086-3.947
				c0-1.723-0.86-3.885-3.044-3.885C145.913,68.627,144.969,70.643,144.969,72.553z"/>
			<path d="M159.29,75.744c0.567,0.336,1.533,0.715,2.457,0.715c1.322,0,1.953-0.652,1.953-1.512c0-0.883-0.525-1.344-1.869-1.848
				c-1.848-0.672-2.709-1.66-2.709-2.877c0-1.639,1.344-2.982,3.507-2.982c1.028,0,1.932,0.273,2.478,0.631l-0.441,1.344
				c-0.398-0.252-1.133-0.609-2.078-0.609c-1.092,0-1.68,0.631-1.68,1.387c0,0.84,0.588,1.217,1.91,1.742
				c1.743,0.65,2.667,1.533,2.667,3.045c0,1.805-1.407,3.064-3.779,3.064c-1.112,0-2.142-0.293-2.855-0.713L159.29,75.744z"/>
			<path d="M181.74,72.867c0.041,2.5,1.617,3.527,3.484,3.527c1.324,0,2.143-0.23,2.814-0.523l0.336,1.322
				c-0.65,0.293-1.785,0.65-3.402,0.65c-3.127,0-4.996-2.078-4.996-5.145c0-3.064,1.805-5.459,4.766-5.459
				c3.338,0,4.199,2.898,4.199,4.768c0,0.377-0.021,0.65-0.062,0.859H181.74z M187.156,71.545c0.021-1.154-0.482-2.98-2.561-2.98
				c-1.891,0-2.688,1.699-2.834,2.98H187.156z"/>
			<path d="M205.973,65.016h-4.303v-1.555h10.477v1.555h-4.326v12.598h-1.848V65.016z"/>
			<path d="M217.396,72.867c0.043,2.5,1.617,3.527,3.486,3.527c1.322,0,2.141-0.23,2.812-0.523l0.336,1.322
				c-0.65,0.293-1.783,0.65-3.4,0.65c-3.129,0-4.998-2.078-4.998-5.145c0-3.064,1.807-5.459,4.768-5.459
				c3.338,0,4.199,2.898,4.199,4.768c0,0.377-0.021,0.65-0.064,0.859H217.396z M222.814,71.545c0.021-1.154-0.482-2.98-2.562-2.98
				c-1.889,0-2.688,1.699-2.834,2.98H222.814z"/>
			<path d="M238.332,77.256c-0.482,0.23-1.553,0.588-2.918,0.588c-3.064,0-5.061-2.078-5.061-5.186c0-3.129,2.143-5.418,5.459-5.418
				c1.092,0,2.059,0.273,2.562,0.547l-0.42,1.406c-0.441-0.23-1.135-0.482-2.143-0.482c-2.33,0-3.59,1.742-3.59,3.842
				c0,2.352,1.512,3.801,3.527,3.801c1.051,0,1.742-0.252,2.268-0.482L238.332,77.256z"/>
			<path d="M244.697,70.201c0-1.07-0.021-1.91-0.084-2.75h1.639l0.104,1.68h0.043c0.504-0.945,1.68-1.891,3.359-1.891
				c1.406,0,3.59,0.84,3.59,4.326v6.047H251.5v-5.857c0-1.639-0.609-3.004-2.352-3.004c-1.197,0-2.141,0.861-2.477,1.891
				c-0.084,0.23-0.127,0.545-0.127,0.861v6.109h-1.848V70.201z"/>
			<path d="M269.748,72.447c0,3.76-2.625,5.396-5.061,5.396c-2.729,0-4.871-2.016-4.871-5.229c0-3.379,2.248-5.375,5.039-5.375
				C267.775,67.24,269.748,69.361,269.748,72.447z M261.707,72.553c0,2.227,1.26,3.906,3.064,3.906c1.764,0,3.088-1.66,3.088-3.947
				c0-1.723-0.861-3.885-3.045-3.885C262.652,68.627,261.707,70.643,261.707,72.553z"/>
			<path d="M276.281,62.705h1.848v14.908h-1.848V62.705z"/>
			<path d="M294.633,72.447c0,3.76-2.625,5.396-5.061,5.396c-2.729,0-4.871-2.016-4.871-5.229c0-3.379,2.248-5.375,5.039-5.375
				C292.66,67.24,294.633,69.361,294.633,72.447z M286.592,72.553c0,2.227,1.26,3.906,3.064,3.906c1.764,0,3.088-1.66,3.088-3.947
				c0-1.723-0.861-3.885-3.045-3.885C287.537,68.627,286.592,70.643,286.592,72.553z"/>
			<path d="M309.859,76.123c0,2.352-0.484,3.758-1.449,4.66c-1.008,0.902-2.436,1.219-3.717,1.219c-1.217,0-2.561-0.295-3.381-0.84
				l0.463-1.428c0.672,0.439,1.721,0.818,2.98,0.818c1.891,0,3.275-0.986,3.275-3.57v-1.111h-0.041
				c-0.547,0.943-1.658,1.699-3.234,1.699c-2.52,0-4.324-2.141-4.324-4.955c0-3.443,2.246-5.375,4.598-5.375
				c1.764,0,2.709,0.904,3.17,1.744h0.043l0.062-1.533h1.639c-0.064,0.713-0.084,1.553-0.084,2.771V76.123z M308.012,71.461
				c0-0.314-0.021-0.588-0.105-0.818c-0.336-1.092-1.219-1.975-2.582-1.975c-1.764,0-3.023,1.492-3.023,3.844
				c0,1.994,1.027,3.652,3.002,3.652c1.154,0,2.184-0.713,2.561-1.889c0.105-0.316,0.148-0.672,0.148-0.988V71.461z"/>
			<path d="M319.037,64.596c0,0.629-0.441,1.133-1.176,1.133c-0.672,0-1.113-0.504-1.113-1.133c0-0.631,0.461-1.154,1.154-1.154
				C318.574,63.441,319.037,63.945,319.037,64.596z M316.979,77.613V67.451h1.848v10.162H316.979z"/>
			<path d="M333.232,75.178c0,0.881,0.041,1.742,0.146,2.436h-1.658l-0.148-1.281h-0.062c-0.566,0.799-1.658,1.512-3.107,1.512
				c-2.057,0-3.107-1.449-3.107-2.918c0-2.457,2.184-3.801,6.109-3.779v-0.211c0-0.818-0.23-2.352-2.309-2.33
				c-0.967,0-1.953,0.273-2.666,0.756l-0.42-1.238c0.84-0.525,2.078-0.883,3.359-0.883c3.107,0,3.863,2.121,3.863,4.137V75.178z
				 M331.447,72.428c-2.016-0.043-4.305,0.314-4.305,2.287c0,1.219,0.799,1.764,1.723,1.764c1.344,0,2.203-0.84,2.498-1.699
				c0.062-0.211,0.084-0.42,0.084-0.588V72.428z"/>
		</g>
	</g>
</g>
</svg>
