<?xml version="1.0" encoding="utf-8"?>
<!-- Generator: Adobe Illustrator 19.1.0, SVG Export Plug-In . SVG Version: 6.00 Build 0)  -->
<svg version="1.1" id="Camada_1" xmlns="http://www.w3.org/2000/svg" xmlns:xlink="http://www.w3.org/1999/xlink" x="0px" y="0px"
	 viewBox="-380 350 262 70" style="enable-background:new -380 350 262 70;" xml:space="preserve">
<style type="text/css">
	.st0{fill:#353535;}
	.st1{fill:#FFFFFF;}
	.st2{fill:#0083CA;}
	.st3{fill:#E67E23;}
	.st4{fill:#006CB7;}
	.st5{fill:#B13432;}
	.st6{fill:#00A0DC;}
	.st7{fill:#2B93D1;}
	.st8{fill:#1268B3;}
	.st9{fill:#0E5595;}
	.st10{fill:#06447C;}
	.st11{fill:none;}
</style>
<path class="st0" d="M-299.1,371.4c0-1,0.4-1.9,1-2.6c0.7-0.7,1.6-1.1,2.6-1.1s1.9,0.4,2.6,1.1c0.7,0.7,1,1.6,1,2.6
	c0,1-0.4,1.9-1,2.6c-0.7,0.7-1.6,1-2.6,1c-1,0-1.9-0.4-2.6-1C-298.7,373.3-299.1,372.4-299.1,371.4 M-299,380.8
	c0-0.9,0.2-1.7,0.7-2.4c0.5-0.7,1.4-1,2.8-1c1.4,0,2.3,0.4,2.8,1c0.5,0.7,0.7,1.5,0.7,2.4V400c0,0.9-0.2,1.7-0.7,2.4
	c-0.5,0.7-1.4,1-2.8,1c-1.4,0-2.3-0.3-2.8-1c-0.5-0.7-0.7-1.5-0.7-2.4L-299,380.8 M-287.7,371.8c0-0.8,0.1-1.4,0.3-1.9
	c0.3-0.5,0.6-0.9,1-1.2c0.4-0.3,0.9-0.5,1.3-0.6c0.5-0.1,1-0.2,1.6-0.2h2.3c1.2,0,2.1,0.3,2.8,0.8c0.7,0.5,1.2,1.4,1.6,2.8l6.8,22
	h0.1l6.7-22c0.4-1.3,0.9-2.3,1.6-2.8c0.7-0.5,1.6-0.8,2.8-0.8h2.2c0.5,0,1,0.1,1.5,0.2c0.5,0.1,1,0.3,1.4,0.6
	c0.4,0.3,0.7,0.7,0.9,1.2c0.3,0.5,0.4,1.1,0.4,1.9v27.9c0,1-0.3,1.9-0.8,2.7c-0.5,0.8-1.4,1.1-2.7,1.1c-1.3,0-2.2-0.4-2.7-1.1
	c-0.5-0.8-0.8-1.7-0.8-2.7v-21.2h-0.1l-7.3,22.8c-0.3,0.8-0.7,1.4-1.2,1.8c-0.6,0.3-1.3,0.5-2.1,0.5c-0.8,0-1.5-0.2-2.1-0.5
	c-0.6-0.4-1-0.9-1.2-1.8l-7.3-22.8h-0.1v21.2c0,1-0.3,1.9-0.8,2.7c-0.5,0.8-1.4,1.1-2.7,1.1c-1.3,0-2.2-0.4-2.7-1.1
	c-0.5-0.8-0.8-1.7-0.8-2.7L-287.7,371.8 M-232.3,391.2c-0.4,0.3-0.9,0.6-1.5,0.8c-0.6,0.2-1.1,0.3-1.5,0.3l-2.5,0.4
	c-1.5,0.2-2.6,0.6-3.3,1.1s-1.1,1.3-1.1,2.3c0,0.8,0.3,1.5,1,2c0.7,0.5,1.7,0.8,2.9,0.8c0.9,0,1.8-0.1,2.6-0.4s1.4-0.7,1.9-1.1
	c0.5-0.5,1-1,1.2-1.6c0.3-0.6,0.4-1.2,0.4-1.9V391.2 M-225.3,396.1c0,0.7,0,1.3,0.1,1.8c0.1,0.5,0.2,0.9,0.2,1.2
	c0.1,0.3,0.2,0.6,0.2,0.9c0.1,0.2,0.1,0.5,0.1,0.8c0,0.8-0.3,1.4-0.9,2c-0.6,0.5-1.4,0.7-2.2,0.7c-1.5,0-2.5-0.4-3.1-1.2
	c-0.6-0.8-0.9-1.8-0.9-2.9c-1.4,1.5-2.8,2.6-4.4,3.2c-1.6,0.6-3.3,0.9-5.1,0.9c-1,0-1.9-0.2-2.9-0.5c-0.9-0.3-1.8-0.8-2.5-1.4
	c-0.7-0.6-1.3-1.3-1.8-2.2c-0.4-0.9-0.7-1.9-0.7-3c0-1.4,0.3-2.6,0.8-3.6c0.5-1,1.2-1.8,2.1-2.3c0.9-0.6,1.9-1.1,3.1-1.4
	c1.2-0.3,2.4-0.6,3.8-0.7l4.2-0.5c0.4,0,0.8-0.1,1.1-0.2c0.4-0.1,0.7-0.2,0.9-0.4c0.3-0.2,0.5-0.4,0.7-0.7c0.2-0.3,0.2-0.7,0.2-1.2
	c0-1-0.4-1.7-1.3-2.2c-0.9-0.4-1.9-0.7-3-0.7c-1.3,0-2.3,0.2-3.1,0.6c-0.7,0.4-1.3,0.8-1.9,1.3c-0.5,0.5-1,0.9-1.4,1.3
	c-0.4,0.4-1,0.6-1.7,0.6c-0.9,0-1.6-0.3-2.1-0.8c-0.5-0.5-0.8-1.2-0.8-1.9c0-0.7,0.2-1.4,0.7-2.1c0.5-0.7,1.2-1.4,2.1-2
	c0.9-0.6,2.1-1.1,3.5-1.5c1.4-0.4,3-0.6,4.8-0.6c1.7,0,3.2,0.1,4.6,0.4c1.4,0.3,2.6,0.7,3.6,1.3c1,0.6,1.7,1.3,2.3,2.2
	c0.6,0.9,0.9,2,0.9,3.2L-225.3,396.1 M-222.7,385.1c0-1.4,0.3-2.6,1-3.6c0.6-1,1.4-1.8,2.4-2.4c1-0.6,2.1-1.1,3.4-1.3
	c1.2-0.3,2.5-0.4,3.7-0.4c1.3,0,2.6,0.1,3.9,0.4c1.3,0.3,2.4,0.6,3.4,1.1c1,0.4,1.8,1,2.4,1.7c0.6,0.6,0.9,1.3,0.9,2.1
	c0,0.8-0.3,1.5-0.8,2.1s-1.2,0.9-2.1,0.9c-0.7,0-1.2-0.2-1.7-0.5c-0.4-0.3-0.9-0.7-1.3-1.1c-0.4-0.4-1-0.8-1.6-1.1
	c-0.6-0.3-1.5-0.5-2.6-0.5c-1.2,0-2.2,0.2-2.9,0.5c-0.7,0.3-1.1,0.9-1.1,1.6c0,0.8,0.4,1.4,1.1,1.7c0.7,0.3,1.6,0.6,2.7,0.8l2.9,0.7
	c1,0.2,2,0.5,3,0.9c1.1,0.3,2,0.8,2.8,1.4c0.8,0.6,1.5,1.3,2,2.1c0.5,0.8,0.8,1.8,0.8,3c0,1.4-0.3,2.7-1,3.7c-0.6,1-1.4,1.9-2.4,2.6
	c-1,0.7-2.2,1.2-3.5,1.5c-1.3,0.3-2.6,0.5-3.9,0.5c-1.6,0-3.1-0.2-4.5-0.5c-1.4-0.3-2.6-0.8-3.7-1.3c-1-0.6-1.9-1.2-2.5-2
	c-0.6-0.8-0.9-1.6-0.9-2.4c0-0.8,0.2-1.4,0.7-2c0.4-0.6,1.2-0.9,2.1-0.9c0.8,0,1.4,0.2,1.9,0.7c0.5,0.4,1,0.9,1.5,1.5
	c0.6,0.5,1.2,1,2,1.5c0.8,0.4,1.8,0.7,3.1,0.7c1.2,0,2.2-0.2,2.9-0.7c0.7-0.5,1.1-1.1,1.1-1.8c0-0.9-0.4-1.5-1.1-1.8
	c-0.7-0.3-1.7-0.6-2.9-0.9l-4.1-1c-1-0.3-2-0.6-2.9-0.9c-0.9-0.3-1.6-0.8-2.3-1.4c-0.6-0.6-1.1-1.3-1.5-2
	C-222.5,387.3-222.7,386.3-222.7,385.1 M-196.5,382.5h-1.2c-1,0-1.7-0.2-2.1-0.6c-0.4-0.4-0.6-1-0.6-1.7c0-0.8,0.2-1.3,0.6-1.7
	c0.4-0.4,1.2-0.6,2.1-0.6h1.2v-4.2c0-1.1,0.3-2,0.9-2.6c0.6-0.6,1.5-0.9,2.5-0.9s1.9,0.3,2.5,0.9c0.6,0.6,1,1.4,1,2.6v4.2h2.1
	c1,0,1.8,0.2,2.3,0.5c0.5,0.4,0.8,0.9,0.8,1.8c0,0.8-0.3,1.4-0.8,1.8c-0.5,0.4-1.3,0.5-2.3,0.5h-2.1v13.9c0,1.1,0.6,1.6,1.8,1.6h1
	c0.8,0,1.3,0.2,1.8,0.6c0.4,0.4,0.7,1,0.7,1.7c0,2.1-1.7,3.1-5,3.1c-2.5,0-4.4-0.5-5.5-1.5c-1.1-1-1.7-2.6-1.7-4.7L-196.5,382.5
	 M-164.9,387.7c-0.2-1.6-0.8-2.9-1.9-3.9c-1.1-1-2.4-1.6-3.9-1.6c-1.7,0-3.1,0.5-4.2,1.5c-1,1-1.8,2.3-2.1,4L-164.9,387.7
	 M-177.1,391.7c0,1.8,0.6,3.4,1.7,4.6c1.1,1.2,2.7,1.8,4.8,1.8c1.3,0,2.3-0.2,3-0.5c0.8-0.3,1.4-0.7,1.9-1.1c0.5-0.4,1-0.8,1.4-1.2
	c0.4-0.4,1-0.6,1.7-0.6c0.8,0,1.5,0.3,2,0.9c0.5,0.6,0.8,1.2,0.8,1.8c0,1.1-0.4,2-1.1,2.8c-0.7,0.8-1.7,1.4-2.8,1.9
	c-1.1,0.5-2.3,0.8-3.5,1.1s-2.4,0.4-3.5,0.4c-2.4,0-4.5-0.4-6.2-1.1c-1.7-0.8-3.1-1.7-4.1-3c-1.1-1.2-1.9-2.6-2.3-4
	c-0.5-1.5-0.7-3-0.7-4.5c0-2,0.3-3.9,0.9-5.5c0.6-1.6,1.5-3.1,2.6-4.2c1.1-1.2,2.5-2.1,4.1-2.8c1.6-0.7,3.5-1,5.5-1
	c2,0,3.8,0.3,5.3,1c1.6,0.6,2.9,1.5,4,2.6c1.1,1,1.9,2.3,2.4,3.6c0.6,1.4,0.9,2.8,0.9,4.2c0,1.2-0.2,2-0.7,2.4
	c-0.4,0.4-1.2,0.6-2.4,0.6L-177.1,391.7 M-155.8,380.6c0-1,0.3-1.8,0.9-2.4c0.6-0.6,1.3-0.9,2.2-0.9c0.9,0,1.6,0.3,2.2,0.9
	c0.6,0.5,0.9,1.3,0.9,2.4v2.7h0.1c0.2-0.7,0.4-1.4,0.8-2.1c0.3-0.7,0.7-1.3,1.1-1.9c0.5-0.6,1-1,1.6-1.4c0.6-0.4,1.4-0.5,2.2-0.5
	c1.1,0,2,0.3,2.7,1c0.7,0.6,1.1,1.4,1.1,2.4c0,0.6-0.1,1.2-0.3,1.6c-0.2,0.4-0.5,0.8-0.8,1.1c-0.3,0.3-0.7,0.4-1.1,0.6
	c-0.4,0.1-0.8,0.2-1.2,0.2h-1.2c-1.4,0-2.5,0.6-3.2,1.7c-0.7,1.1-1.1,3.1-1.1,6v8.1c0,0.9-0.2,1.7-0.7,2.4c-0.5,0.7-1.4,1-2.8,1
	c-1.4,0-2.3-0.4-2.8-1c-0.5-0.7-0.7-1.5-0.7-2.4L-155.8,380.6 M-140.2,385.1c0-1.4,0.3-2.6,1-3.6c0.6-1,1.4-1.8,2.4-2.4
	c1-0.6,2.1-1.1,3.4-1.3c1.2-0.3,2.5-0.4,3.7-0.4c1.3,0,2.6,0.1,3.9,0.4c1.3,0.3,2.4,0.6,3.4,1.1c1,0.4,1.8,1,2.4,1.7
	c0.6,0.6,0.9,1.3,0.9,2.1c0,0.8-0.3,1.5-0.8,2.1s-1.2,0.9-2.1,0.9c-0.7,0-1.2-0.2-1.7-0.5c-0.4-0.3-0.9-0.7-1.3-1.1
	c-0.4-0.4-1-0.8-1.6-1.1c-0.6-0.3-1.5-0.5-2.6-0.5c-1.2,0-2.2,0.2-2.9,0.5c-0.7,0.3-1.1,0.9-1.1,1.6c0,0.8,0.4,1.4,1.1,1.7
	c0.7,0.3,1.6,0.6,2.7,0.8l2.9,0.7c1,0.2,2,0.5,3,0.9c1,0.3,2,0.8,2.8,1.4c0.8,0.6,1.5,1.3,2,2.1c0.5,0.8,0.8,1.8,0.8,3
	c0,1.4-0.3,2.7-1,3.7c-0.6,1-1.4,1.9-2.4,2.6c-1,0.7-2.2,1.2-3.5,1.5c-1.3,0.3-2.6,0.5-3.9,0.5c-1.6,0-3.1-0.2-4.5-0.5
	c-1.4-0.3-2.6-0.8-3.7-1.3c-1-0.6-1.9-1.2-2.5-2c-0.6-0.8-0.9-1.6-0.9-2.4c0-0.8,0.2-1.4,0.7-2c0.4-0.6,1.2-0.9,2.1-0.9
	c0.8,0,1.4,0.2,1.9,0.7c0.5,0.4,1,0.9,1.5,1.5c0.6,0.5,1.2,1,1.9,1.5c0.8,0.4,1.8,0.7,3.1,0.7c1.2,0,2.2-0.2,2.9-0.7
	c0.7-0.5,1.1-1.1,1.1-1.8c0-0.9-0.4-1.5-1.1-1.8c-0.7-0.3-1.7-0.6-2.9-0.9l-4.1-1c-1-0.3-2-0.6-2.9-0.9c-0.9-0.3-1.6-0.8-2.3-1.4
	c-0.6-0.6-1.1-1.3-1.5-2C-140.1,387.3-140.2,386.3-140.2,385.1"/>
<path class="st1" d="M-347.1,350.4l-31.3,15c0,0-0.2,0.1-0.4,0.2c-0.2,0.1-0.4,0.3-0.5,0.3c-0.7,0.5-0.7,1.1-0.7,1.1l0,35.1l0.6,1.1
	l32,16.4c0,0,0.8,0.3,1.4,0.3c0.6,0,1.3-0.4,1.3-0.4l31.8-16.2l0.8-1.4l0-6.7l0-7.3l0-3.6l0-17c0,0,0-0.4-0.2-0.7
	c-0.3-0.4-2.1-1.3-2.1-1.3l-30.8-14.9L-347.1,350.4z"/>
<path class="st2" d="M-322.2,394.5c0,0.4,0.3,0.6,0.7,0.4l8.8-4.4c0.4-0.2,0.7-0.7,0.7-1.1l0-9.5c0-0.4-0.3-0.6-0.6-0.4l-8.8,4.4
	c-0.4,0.2-0.7,0.7-0.7,1.1L-322.2,394.5L-322.2,394.5z"/>
<path class="st3" d="M-333.7,400.5c0,0.4,0.3,0.6,0.7,0.4l8.8-4.4c0.4-0.2,0.7-0.7,0.7-1.1v-9.5c0-0.4-0.3-0.6-0.7-0.4l-8.8,4.4
	c-0.4,0.2-0.7,0.7-0.7,1.1L-333.7,400.5L-333.7,400.5z"/>
<path class="st4" d="M-345.3,406.3c0,0.4,0.3,0.6,0.7,0.4l8.8-4.4c0.4-0.2,0.7-0.7,0.7-1.1v-9.5c0-0.4-0.3-0.6-0.7-0.4l-8.8,4.4
	c-0.4,0.2-0.7,0.7-0.7,1.1L-345.3,406.3L-345.3,406.3z"/>
<path class="st2" d="M-322.2,381.9c0,0.4,0.3,0.6,0.7,0.4l8.8-4.4c0.4-0.2,0.7-0.7,0.7-1.1v-4.7l0-1.9l0-2.9c0-0.4-0.3-0.6-0.7-0.4
	l-8.8,4.4c-0.4,0.2-0.7,0.7-0.7,1.1L-322.2,381.9L-322.2,381.9z"/>
<path class="st3" d="M-333.7,387.8c0,0.4,0.3,0.6,0.7,0.4l8.8-4.4c0.4-0.2,0.7-0.7,0.7-1.1v-9.5c0-0.4-0.3-0.6-0.7-0.4l-8.8,4.4
	c-0.4,0.2-0.7,0.7-0.7,1.1L-333.7,387.8L-333.7,387.8z"/>
<path class="st4" d="M-345.3,393.6c0,0.4,0.3,0.6,0.7,0.4l8.8-4.4c0.4-0.2,0.7-0.7,0.7-1.1v-9.5c0-0.4-0.3-0.6-0.7-0.4l-8.8,4.4
	c-0.4,0.2-0.7,0.7-0.7,1.1C-345.3,384-345.3,393.6-345.3,393.6z"/>
<path class="st5" d="M-325.5,371c0.4,0.2,0.4,0.5,0,0.7l-8.5,4.3c-0.4,0.2-1,0.2-1.3,0l-8.6-4.3c-0.4-0.2-0.4-0.5,0-0.7l8.5-4.2
	c0.4-0.2,0.9-0.2,1.3,0L-325.5,371L-325.5,371z"/>
<path class="st6" d="M-314.3,365.3c0.4,0.2,0.4,0.5,0,0.6l-8.3,4.2c-0.4,0.2-0.9,0.2-1.3,0l-8.6-4.2c-0.4-0.2-0.4-0.5,0-0.6l8.3-4.1
	c0.4-0.2,0.9-0.2,1.3,0L-314.3,365.3L-314.3,365.3z M-336.8,376.7c0.4,0.2,0.4,0.5,0,0.7l-8.6,4.4c-0.4,0.2-1,0.2-1.3,0l-8.7-4.4
	c-0.4-0.2-0.4-0.5,0-0.7l8.6-4.3c0.4-0.2,1-0.2,1.3,0L-336.8,376.7L-336.8,376.7z M-337,365.3c0.4,0.2,0.4,0.5,0,0.6l-8.5,4.2
	c-0.4,0.2-1,0.2-1.3,0l-8.5-4.2c-0.4-0.2-0.4-0.5,0-0.6l8.5-4.1c0.4-0.2,0.9-0.2,1.3,0C-345.5,361.2-337,365.3-337,365.3z"/>
<path class="st7" d="M-325.8,359.7c0.4,0.2,0.4,0.5,0,0.6l-8.3,4.1c-0.4,0.2-0.9,0.2-1.3,0l-8.5-4.1c-0.4-0.2-0.4-0.5,0-0.6l8.3-4.1
	c0.4-0.2,0.9-0.2,1.3,0L-325.8,359.7L-325.8,359.7z"/>
<path class="st6" d="M-348.4,371c0.4,0.2,0.4,0.5,0,0.7l-8.6,4.3c-0.4,0.2-1,0.2-1.3,0l-8.5-4.3c-0.4-0.2-0.4-0.5,0-0.7l8.7-4.2
	c0.4-0.2,1-0.2,1.3,0L-348.4,371L-348.4,371z"/>
<path class="st7" d="M-348.5,359.7c0.4,0.2,0.4,0.5,0,0.6l-8.5,4.1c-0.4,0.2-0.9,0.2-1.3,0l-8.4-4.2c-0.4-0.2-0.3-0.5,0-0.6l8.5-4.1
	c0.4-0.2,0.9-0.2,1.3,0L-348.5,359.7z M-337.3,354.3c0.4,0.2,0.4,0.5,0,0.6l-8.3,4c-0.4,0.2-0.9,0.2-1.3,0l-8.4-4.1
	c-0.4-0.2-0.3-0.4,0-0.6l8.4-4c0.4-0.2,0.9-0.2,1.3,0L-337.3,354.3L-337.3,354.3z"/>
<path class="st6" d="M-359.9,365.3c0.4,0.2,0.4,0.5,0,0.6l-8.7,4.2c-0.4,0.2-1,0.2-1.3,0l-8.4-4.2c-0.4-0.2-0.3-0.5,0-0.6l8.7-4.1
	c0.4-0.2,1-0.2,1.3,0L-359.9,365.3L-359.9,365.3z"/>
<path class="st3" d="M-333.8,413.1c0,0.4,0.3,0.6,0.7,0.4l8.8-4.4c0.4-0.2,0.7-0.7,0.7-1.1v-9.5c0-0.4-0.3-0.6-0.7-0.4l-8.8,4.4
	c-0.4,0.2-0.7,0.7-0.7,1.1L-333.8,413.1L-333.8,413.1z"/>
<path class="st8" d="M-369.9,394.5c0,0.4-0.3,0.6-0.7,0.4l-8.8-4.4c-0.4-0.2-0.7-0.7-0.7-1.1v-9.5c0-0.4,0.3-0.6,0.7-0.4l8.8,4.4
	c0.4,0.2,0.7,0.7,0.7,1.1L-369.9,394.5L-369.9,394.5z"/>
<path class="st9" d="M-358.4,400.5c0,0.4-0.3,0.6-0.7,0.4l-8.8-4.4c-0.4-0.2-0.7-0.7-0.7-1.1v-9.5c0-0.4,0.3-0.6,0.7-0.4l8.8,4.4
	c0.4,0.2,0.7,0.7,0.7,1.1V400.5L-358.4,400.5z"/>
<path class="st10" d="M-346.8,406.4c0,0.4-0.3,0.6-0.7,0.4l-8.8-4.4c-0.4-0.2-0.7-0.7-0.7-1.1v-9.5c0-0.4,0.3-0.6,0.7-0.4l8.8,4.4
	c0.4,0.2,0.7,0.7,0.7,1.1V406.4L-346.8,406.4z"/>
<path class="st8" d="M-369.9,381.8c0,0.4-0.3,0.6-0.7,0.4l-8.8-4.4c-0.4-0.2-0.7-0.7-0.7-1.1v-9.5c0-0.4,0.3-0.6,0.7-0.4l8.8,4.4
	c0.4,0.2,0.7,0.7,0.7,1.1L-369.9,381.8L-369.9,381.8z"/>
<path class="st9" d="M-358.4,387.7c0,0.4-0.3,0.6-0.7,0.4l-8.8-4.4c-0.4-0.2-0.7-0.7-0.7-1.1v-9.5c0-0.4,0.3-0.6,0.7-0.4l8.8,4.4
	c0.4,0.2,0.7,0.7,0.7,1.1L-358.4,387.7L-358.4,387.7z"/>
<path class="st10" d="M-346.8,393.6c0,0.4-0.3,0.6-0.7,0.4l-8.8-4.4c-0.4-0.2-0.7-0.7-0.7-1.1V379c0-0.4,0.3-0.6,0.7-0.4l8.8,4.4
	c0.4,0.2,0.7,0.7,0.7,1.1L-346.8,393.6L-346.8,393.6z"/>
<path class="st9" d="M-358.4,413.2c0,0.4-0.3,0.6-0.7,0.4l-8.8-4.5c-0.4-0.2-0.7-0.7-0.7-1.1v-9.5c0-0.4,0.3-0.6,0.7-0.4l8.8,4.4
	c0.4,0.2,0.7,0.7,0.7,1.1L-358.4,413.2L-358.4,413.2z"/>
<path class="st10" d="M-346.8,419.1c0,0.4-0.3,0.6-0.7,0.4l-8.8-4.5c-0.4-0.2-0.7-0.7-0.7-1.1v-9.5c0-0.4,0.3-0.6,0.7-0.4l8.8,4.4
	c0.4,0.2,0.7,0.7,0.7,1.1V419.1L-346.8,419.1z"/>
<path class="st8" d="M-369.9,407.3c0,0.4-0.3,0.6-0.7,0.4l-8.8-4.5c-0.4-0.2-0.7-0.7-0.7-1.1v-9.5c0-0.4,0.3-0.6,0.7-0.4l8.8,4.4
	c0.4,0.2,0.7,0.7,0.7,1.1L-369.9,407.3L-369.9,407.3z"/>
<path class="st4" d="M-345.3,419c0,0.4,0.3,0.6,0.7,0.4l8.8-4.4c0.4-0.2,0.7-0.7,0.7-1.1v-9.5c0-0.4-0.3-0.6-0.7-0.4l-8.8,4.4
	c-0.4,0.2-0.7,0.7-0.7,1.1L-345.3,419L-345.3,419z"/>
<path class="st2" d="M-322.2,407.2c0,0.4,0.3,0.6,0.7,0.4l8.8-4.4c0.4-0.2,0.7-0.7,0.7-1.1l0-9.5c0-0.4-0.3-0.6-0.6-0.4l-8.8,4.4
	c-0.4,0.2-0.7,0.7-0.7,1.1L-322.2,407.2L-322.2,407.2z"/>
<path class="st11" d="M-599.5,165.5h700v440.3h-700V165.5z"/>
</svg>
