<?xml version="1.0" encoding="utf-8"?>
<!-- Generator: Adobe Illustrator 17.1.0, SVG Export Plug-In . SVG Version: 6.00 Build 0)  -->
<!DOCTYPE svg PUBLIC "-//W3C//DTD SVG 1.1//EN" "http://www.w3.org/Graphics/SVG/1.1/DTD/svg11.dtd">
<svg version="1.1" id="Layer_1" xmlns="http://www.w3.org/2000/svg" xmlns:xlink="http://www.w3.org/1999/xlink" x="0px" y="0px"
	 width="435.7px" height="133.4px" viewBox="0 0 435.7 133.4" enable-background="new 0 0 435.7 133.4" xml:space="preserve">
<g>
	<g>
		<path fill-rule="evenodd" clip-rule="evenodd" d="M269.6,78.9c7.5,0,9.8,4.9,10.4,8.3h20.4C297.8,68.4,281.3,67,269.6,67
			c-11.7,0-32,0.8-32,25.3c0,24.5,20.3,25.3,32,25.3c11.8,0,17.8-1.9,22.5-5.4c4.8-3.4,7-8.5,8.2-14.7H280
			c-1.6,5.7-5.2,8.1-11.3,8.1c-7.1,0-11.9-3.8-11.9-13.4C256.8,82.6,261.8,78.9,269.6,78.9z"/>
		<path fill-rule="evenodd" clip-rule="evenodd" d="M147.7,67h-31v50.6h13.4v-15.7h17.7c14.7,0,20-7.5,20-17.2
			C167.8,73.3,162.4,67,147.7,67z M143.5,89.5h-13.3V78.9h13.3c5.2,0,7.2,1.6,7.2,5.4C150.7,87.9,148.7,89.5,143.5,89.5z"/>
		<path fill-rule="evenodd" clip-rule="evenodd" d="M206.6,67.9c-0.3-0.6-0.9-1-1.5-1l0,0h-15.5c-1,0-1.9,0.8-1.9,1.9
			c0,0.3,0.1,0.7,0.3,0.9l0,0l10.5,18.6c0.4,0.8,0.4,1.7-0.2,2.3c-0.3,0.3-0.6,0.4-1,0.5h-16c-0.7,0-1.4,0.4-1.7,1.1L165,117.5h19.9
			l13.4-23.6c0.1-0.1,0.1-0.2,0.2-0.3c0.7-0.8,2.2-0.8,3,0.3c0.1,0.1,0.2,0.3,0.3,0.4l13.1,23.2h19.8L206.6,67.9L206.6,67.9z"/>
		<path fill-rule="evenodd" clip-rule="evenodd" d="M397.8,67.9L397.8,67.9c-0.3-0.5-0.9-0.9-1.6-1l0,0h-15.5c-1,0-1.9,0.8-1.9,1.9
			c0,0.3,0.1,0.7,0.3,0.9l0,0l10.5,18.6c0.4,0.8,0.4,1.7-0.2,2.3c-0.3,0.3-0.6,0.4-1,0.5h-16c-0.7,0-1.4,0.4-1.7,1.1l-14.5,25.4H376
			l13.4-23.6c0.1-0.1,0.1-0.2,0.2-0.3c0.7-0.8,2.2-0.8,3,0.3c0.1,0.1,0.2,0.3,0.3,0.4l13.1,23.2h19.8L397.8,67.9z"/>
		<path fill-rule="evenodd" clip-rule="evenodd" d="M358,79.6V68.7l0,0c0-1-0.9-1.9-1.9-1.9c0,0,0,0,0,0v0H309v0
			c-1,0-1.9,0.8-1.9,1.9h0v10.9h16.1l0,0c1,0.1,1.7,0.8,1.8,1.8v36.2h15.2V81.5c0,0,0,0,0,0c0-1,0.8-1.8,1.8-1.8H358z"/>
		<path fill-rule="evenodd" clip-rule="evenodd" d="M102.8,66.9C102.8,66.9,102.7,66.9,102.8,66.9L102.8,66.9H84.2c0,0-0.1,0-0.1,0
			c-0.8,0-1.5,0.5-1.8,1.3l0,0l-8.6,25.5c0,0,0,0,0,0c-0.1,0.4-0.5,0.7-1,0.7c-0.4,0-0.8-0.2-0.9-0.6l-8.7-25.6
			c-0.3-0.7-0.9-1.3-1.8-1.3c0,0,0,0,0,0H45.6h-2.9h-1.9v1.8v3v45.8h12.9V86.4c0-0.5,0.4-0.9,0.9-0.9c0.4,0,0.7,0.2,0.8,0.5
			l10.8,31.5h12.9L90,86c0.2-0.3,0.5-0.5,0.8-0.5c0.5,0,0.9,0.4,0.9,0.9h0v31.1h12.9V68.7h0C104.5,67.7,103.7,66.9,102.8,66.9z"/>
		<path fill-rule="evenodd" clip-rule="evenodd" d="M17.6,67.1L17.6,67.1c-1,0-1.8,0.8-1.9,1.8l0,0v48.7h12.7V67.1H17.6z"/>
	</g>
	<g>
		<path d="M20.3,16.4v10.7h14.9V30H20.3v14h-3.4V13.5h18.7v2.9H20.3z"/>
		<path d="M69.9,28.6h-3.1c0-2.5,0.6-4.2,1.7-5c1.1-0.9,3.3-1.3,6.6-1.3c3.6,0,6,0.5,7.2,1.6c1.3,1,1.9,3.1,1.9,6V44H81l0.2-2.3
			l-0.1,0c-1.2,1.8-3.6,2.6-7.3,2.6c-5.4,0-8.1-2.2-8.1-6.5c0-2.6,0.6-4.4,1.8-5.3c1.2-1,3.4-1.5,6.6-1.5c3.8,0,6,0.7,6.8,2.2l0.1,0
			v-2.6c0-2.4-0.3-4-1-4.8c-0.7-0.7-2.1-1.1-4.4-1.1c-3.8,0-5.8,1.1-5.8,3.2C69.9,28.1,69.9,28.3,69.9,28.6z M74.9,33.5
			c-2.4,0-4,0.3-4.7,0.8c-0.7,0.5-1.1,1.6-1.1,3.3c0,1.7,0.4,2.9,1.1,3.4c0.7,0.6,2.2,0.8,4.4,0.8c4.4,0,6.6-1.3,6.6-4
			c0-1.7-0.4-2.8-1.3-3.4C79.1,33.7,77.4,33.5,74.9,33.5z"/>
		<path d="M132.1,36.3h3.1l0,1.2c0,4.6-3,6.9-9,6.9c-3.8,0-6.4-0.7-7.6-2.2c-1.2-1.4-1.9-4.4-1.9-8.9c0-4.2,0.6-7.1,1.9-8.6
			c1.3-1.5,3.7-2.3,7.2-2.3c3.5,0,5.8,0.5,7.1,1.5c1.3,1,1.9,2.9,1.9,5.8h-3.1v-0.6c0-1.7-0.4-2.8-1.2-3.3c-0.8-0.6-2.5-0.8-4.9-0.8
			c-2.4,0-3.9,0.5-4.5,1.6c-0.7,1-1,3.4-1,7c0,3.5,0.4,5.8,1.2,6.8c0.8,1,2.6,1.5,5.4,1.5c2.4,0,3.9-0.3,4.5-1
			C131.8,40.2,132.1,38.7,132.1,36.3z"/>
		<path d="M184.6,22.7V44h-3.1l0.2-2.8l-0.1-0.1c-1.1,2.1-3.4,3.2-7,3.2c-5,0-7.5-2.5-7.5-7.5V22.7h3.1v14.2c0,1.9,0.3,3.2,1,3.9
			c0.6,0.7,1.9,1,3.8,1c2.5,0,4.1-0.5,5.1-1.5c0.9-1,1.4-2.8,1.4-5.4V22.7H184.6z"/>
		<path d="M221,13.5V44h-3.1V13.5H221z"/>
		<path d="M271.8,13.5V44h-3.1l0.2-2.8l-0.1,0c-1,2.1-3.3,3.1-6.9,3.1c-3.3,0-5.5-0.8-6.7-2.4c-1.2-1.6-1.8-4.6-1.8-8.9
			c0-4,0.6-6.8,1.8-8.4c1.2-1.6,3.4-2.3,6.5-2.3c3.9,0,6.2,1,7,3l0.1,0V13.5H271.8z M262.4,24.9c-2.3,0-3.8,0.5-4.6,1.6
			c-0.8,1.1-1.1,3.2-1.1,6.5c0,3.6,0.4,5.9,1.1,7.1c0.8,1.1,2.3,1.7,4.7,1.7c2.6,0,4.3-0.6,5-1.7c0.8-1.1,1.2-3.6,1.2-7.3
			c0-3.1-0.4-5.1-1.3-6.2C266.5,25.5,264.9,24.9,262.4,24.9z"/>
		<path d="M308.1,28.6H305c0-2.5,0.6-4.2,1.7-5c1.1-0.9,3.3-1.3,6.6-1.3c3.6,0,6,0.5,7.2,1.6c1.3,1,1.9,3.1,1.9,6V44h-3.1l0.2-2.3
			l-0.1,0c-1.2,1.8-3.6,2.6-7.3,2.6c-5.4,0-8.1-2.2-8.1-6.5c0-2.6,0.6-4.4,1.8-5.3c1.2-1,3.4-1.5,6.6-1.5c3.8,0,6,0.7,6.8,2.2l0.1,0
			v-2.6c0-2.4-0.3-4-1-4.8c-0.7-0.7-2.1-1.1-4.4-1.1c-3.8,0-5.8,1.1-5.8,3.2C308.1,28.1,308.1,28.3,308.1,28.6z M313.1,33.5
			c-2.4,0-4,0.3-4.7,0.8c-0.7,0.5-1.1,1.6-1.1,3.3c0,1.7,0.4,2.9,1.1,3.4c0.7,0.6,2.2,0.8,4.4,0.8c4.4,0,6.6-1.3,6.6-4
			c0-1.7-0.4-2.8-1.3-3.4C317.3,33.7,315.6,33.5,313.1,33.5z"/>
		<path d="M373.5,13.5V44h-3.1l0.2-2.8l-0.1,0c-1,2.1-3.3,3.1-6.9,3.1c-3.3,0-5.5-0.8-6.7-2.4c-1.2-1.6-1.8-4.6-1.8-8.9
			c0-4,0.6-6.8,1.8-8.4c1.2-1.6,3.4-2.3,6.5-2.3c3.9,0,6.2,1,7,3l0.1,0V13.5H373.5z M364.1,24.9c-2.3,0-3.8,0.5-4.6,1.6
			c-0.8,1.1-1.1,3.2-1.1,6.5c0,3.6,0.4,5.9,1.1,7.1c0.8,1.1,2.3,1.7,4.7,1.7c2.6,0,4.3-0.6,5-1.7c0.8-1.1,1.2-3.6,1.2-7.3
			c0-3.1-0.4-5.1-1.3-6.2C368.2,25.5,366.6,24.9,364.1,24.9z"/>
		<path d="M421.4,37.6h3.2l0,0.8c0,2.2-0.7,3.8-2,4.7c-1.4,0.9-3.7,1.3-7.1,1.3c-3.9,0-6.5-0.7-7.7-2.2c-1.2-1.4-1.8-4.5-1.8-9.1
			c0-4.3,0.6-7.1,1.9-8.6c1.2-1.5,3.7-2.2,7.3-2.2c3.9,0,6.5,0.6,7.7,1.9c1.2,1.3,1.8,3.9,1.8,8v1.7h-15.4c0,3.4,0.4,5.5,1.1,6.4
			c0.7,0.9,2.4,1.4,5.1,1.4c2.5,0,4.2-0.2,4.9-0.7c0.8-0.4,1.1-1.4,1.1-2.9V37.6z M421.4,31.5l0-1c0-2.3-0.4-3.8-1.1-4.5
			c-0.8-0.7-2.4-1-4.9-1c-2.5,0-4.2,0.4-4.9,1.2c-0.8,0.8-1.1,2.6-1.1,5.3H421.4z"/>
	</g>
</g>
</svg>
