<?xml version="1.0" encoding="utf-8"?>
<!-- Generator: Adobe Illustrator 17.1.0, SVG Export Plug-In . SVG Version: 6.00 Build 0)  -->
<!DOCTYPE svg PUBLIC "-//W3C//DTD SVG 1.1//EN" "http://www.w3.org/Graphics/SVG/1.1/DTD/svg11.dtd">
<svg version="1.1" id="Layer_1" xmlns="http://www.w3.org/2000/svg" xmlns:xlink="http://www.w3.org/1999/xlink" x="0px" y="0px"
	 width="1214.9px" height="768px" viewBox="0 0 1214.9 768" enable-background="new 0 0 1214.9 768" xml:space="preserve">
<g>
	<path fill="#5B5B5F" d="M541,355.8c0.4-3,3.4-5.6,6-5.6h5.6c2.1,0,4.3,1.7,4.3,4.7l-0.9,16.3c3.9-6,22.4-25.4,51.6-25.4
		c11.6,0,19.4,3.4,22.8,5.2c3.4,1.7,5.2,4.3,3.4,7.7l-4.3,8.6c-1.7,3-4.3,3.9-7.3,2.1c-2.1-1.3-9-5.6-18.5-5.6
		c-30.1,0-48.2,27.5-49.5,30.1l-17.2,122.6c-0.4,3.4-2.2,5.6-6,5.6h-9c-3,0-4.3-2.6-3.9-5.6L541,355.8z"/>
	<path fill="#5B5B5F" d="M726.8,345.9c37.4,0,65.8,35.3,65.8,77.8c0,56.3-41.7,102.8-91.2,102.8c-37.4,0-66.2-34.8-66.2-77.8
		C635.2,392.8,676.5,345.9,726.8,345.9z M703.5,508.9c36.6,0,69.7-37.4,69.7-83.4c0-34-19.8-61.5-49-61.5c-37,0-70.1,37.4-70.1,83
		C654.1,481.3,673.9,508.9,703.5,508.9z"/>
	<path fill="#5B5B5F" d="M811.1,448.2l12.9-92.5c0.4-3,3.4-5.6,6-5.6h8.2c3,0,5.2,2.6,4.7,5.6l-13.3,92.5
		c-5.6,40,7.7,60.6,35.7,60.6c31.8,0,53.3-28.4,54.6-30.5l17.2-122.6c0.4-3.4,2.6-5.6,6-5.6h8.2c2.6,0,4.7,2.6,4.3,5.6l-22.4,160.9
		c-0.4,3-3.4,5.6-6.5,5.6h-5.2c-3,0-4.3-2.6-4.3-5.2l0.9-15.5c-4.3,6-25.8,24.9-56.8,24.9C820.1,526.5,804.2,496.8,811.1,448.2z"/>
	<path fill="#5B5B5F" d="M961.5,596.1c-0.4,3-3.4,5.6-6.5,5.6h-7.3c-3,0-5.2-2.6-4.7-5.6l34.1-240.3c0.4-3.4,3.4-5.6,6.5-5.6h4.7
		c3,0,4.7,1.3,4.7,4.3l-0.4,11.6c4.3-4.3,24.5-20.2,52.5-20.2c37.4,0,63.2,34.4,63.2,76.6c0,58.1-41.7,104.1-91.6,104.1
		c-25.4,0-40-13.3-43-17.6L961.5,596.1z M1017.1,508.9c40.4,0,71.8-37.8,71.8-85.2c0-33.1-17.2-59.8-47.7-59.8
		c-29.2,0-48.6,21.5-49.9,23.7l-13.8,100.2C978,489.5,991.7,508.9,1017.1,508.9z"/>
	<g>
		<path fill="#009BDB" d="M177.1,569.4c0-0.5,0.5-0.9,0.9-0.9h9.5c7.4,0,12.7,6.9,12.7,14.3c0,10.2-7.7,18.6-17.3,18.6h-9.6
			c-0.4,0-0.7-0.4-0.6-0.9L177.1,569.4z M182.7,598.1c7.5,0,13.6-6.4,13.6-15.2c0-6.5-3.9-11.2-9.9-11.2h-6.1l-3.7,26.4H182.7z"/>
		<path fill="#009BDB" d="M209.2,569.4c0-0.5,0.5-0.9,0.9-0.9h16.7c0.5,0,0.8,0.4,0.7,0.9l-0.2,1.4c0,0.5-0.5,0.9-0.9,0.9h-13.9
			l-1.6,11.4h11.9c0.4,0,0.8,0.4,0.7,0.9l-0.2,1.4c0,0.5-0.5,0.9-0.9,0.9h-11.9l-1.7,12h13.9c0.5,0,0.8,0.4,0.7,0.9l-0.2,1.4
			c0,0.5-0.5,0.9-0.9,0.9h-16.7c-0.5,0-0.8-0.4-0.7-0.9L209.2,569.4z"/>
		<path fill="#009BDB" d="M229,596.4l0.8-0.8c0.6-0.6,1-0.8,1.5-0.2c0.7,0.8,2.9,3.3,6.8,3.3c3.1,0,6.1-2.7,6.1-5.7
			c0-3-2.2-4.7-6.1-6.9c-3.8-2.2-6.3-4.2-6.3-8.5c0-3.9,2.5-9.5,10.2-9.5c4.6,0,6.8,2.1,7.3,2.4c0.2,0.2,0.7,0.7,0,1.6l-0.5,0.8
			c-0.5,0.6-1,0.9-1.5,0.4c-1-0.8-3.3-2-5.6-2c-4.3,0-6.3,3.6-6.3,5.9c0,2.6,1.8,4.4,4.7,6c4.5,2.4,7.9,4.7,7.9,9.6
			c0,5.2-3.8,9.2-10.3,9.2c-5.3,0-8.3-3.5-8.8-4C228.7,597.4,228.4,597,229,596.4z"/>
		<path fill="#009BDB" d="M257.9,569.4c0-0.5,0.5-0.9,0.9-0.9h16.7c0.5,0,0.8,0.4,0.7,0.9l-0.2,1.4c0,0.5-0.5,0.9-0.9,0.9h-13.9
			l-1.6,11.4h11.9c0.4,0,0.8,0.4,0.7,0.9l-0.2,1.4c0,0.5-0.5,0.9-0.9,0.9h-11.9l-1.7,12h13.9c0.5,0,0.8,0.4,0.7,0.9l-0.2,1.4
			c0,0.5-0.5,0.9-0.9,0.9h-16.7c-0.5,0-0.8-0.4-0.7-0.9L257.9,569.4z"/>
		<path fill="#009BDB" d="M283.4,568.9c0-0.5,0.5-0.8,1-0.8h1.2l15.1,26.3h0l3.5-25c0-0.5,0.5-0.9,1.1-0.9h1.5
			c0.5,0,0.8,0.4,0.8,0.9l-4.5,31.6c0,0.5-0.5,0.8-1,0.8H301L285.9,575h-0.1l-3.4,25.4c0,0.5-0.6,0.9-1.1,0.9h-1.5
			c-0.5,0-0.8-0.4-0.8-0.9L283.4,568.9z"/>
		<path fill="#009BDB" d="M312.4,569.7c-0.1-0.6,0.3-1.2,0.9-1.2h1.9c0.4,0,0.6,0.3,0.7,0.5l6.5,26.2h0.2l13.8-26.2
			c0.1-0.2,0.3-0.5,0.8-0.5h2.3c0.6,0,0.8,0.6,0.5,1.2l-17.3,31.6c-0.1,0.3-0.4,0.5-0.8,0.5h-0.4c-0.3,0-0.5-0.2-0.6-0.5
			L312.4,569.7z"/>
		<path fill="#009BDB" d="M340.5,584.9c1.4-9.4,8.7-16.9,17.6-16.9c8.3,0,14.4,7.6,13,16.9c-1.3,9.4-8.6,16.8-17.6,16.8
			C345.3,601.8,339.2,594.3,340.5,584.9z M367.8,584.9c1.1-7.5-3.5-13.7-10.1-13.7c-6.6,0-12.8,6.2-13.9,13.7
			c-1,7.5,3.5,13.6,10.1,13.6C360.5,598.5,366.8,592.4,367.8,584.9z"/>
		<path fill="#009BDB" d="M380.2,569.4c0.1-0.5,0.5-0.9,0.9-0.9h2c0.4,0,0.8,0.4,0.7,0.9l-4.1,28.8h12c0.4,0,0.7,0.4,0.7,0.9
			l-0.2,1.4c-0.1,0.5-0.5,0.9-0.9,0.9h-14.7c-0.5,0-0.8-0.4-0.7-0.9L380.2,569.4z"/>
		<path fill="#009BDB" d="M394.1,569.7c-0.1-0.6,0.3-1.2,0.9-1.2h1.9c0.4,0,0.6,0.3,0.7,0.5l6.5,26.2h0.2L418,569
			c0.1-0.2,0.3-0.5,0.8-0.5h2.3c0.6,0,0.8,0.6,0.5,1.2l-17.3,31.6c-0.1,0.3-0.4,0.5-0.8,0.5h-0.4c-0.3,0-0.5-0.2-0.6-0.5
			L394.1,569.7z"/>
		<path fill="#009BDB" d="M426.6,569.4c0-0.5,0.5-0.9,0.9-0.9h2.1c0.4,0,0.8,0.4,0.7,0.9l-4.4,31.1c0,0.5-0.5,0.9-0.9,0.9h-2.1
			c-0.4,0-0.8-0.4-0.7-0.9L426.6,569.4z"/>
		<path fill="#009BDB" d="M442.6,568.7c0.1-0.5,0.5-0.7,1-0.7h0.7c0.5,0,0.8,0.2,0.8,0.5l4.6,25.8h0.1l11.9-25.8
			c0.1-0.3,0.4-0.5,0.9-0.5h0.7c0.5,0,0.8,0.3,0.8,0.7l1,31.5c0,0.7-0.4,1.1-1.1,1.1h-1.6c-0.6,0-0.8-0.3-0.8-0.7l-0.5-23.5h0
			l-11,24.1c-0.1,0.3-0.5,0.5-0.9,0.5h-0.6c-0.5,0-0.8-0.2-0.8-0.5l-4.3-24.5h0l-7.1,23.9c-0.1,0.3-0.4,0.7-1,0.7h-1.6
			c-0.7,0-0.9-0.5-0.7-1.1L442.6,568.7z"/>
		<path fill="#009BDB" d="M476.3,569.4c0-0.5,0.5-0.9,0.9-0.9h16.7c0.5,0,0.8,0.4,0.7,0.9l-0.2,1.4c0,0.5-0.5,0.9-0.9,0.9h-13.9
			l-1.6,11.4h11.9c0.4,0,0.8,0.4,0.7,0.9l-0.2,1.4c0,0.5-0.5,0.9-0.9,0.9h-11.9l-1.7,12h13.9c0.5,0,0.8,0.4,0.7,0.9l-0.2,1.4
			c0,0.5-0.5,0.9-0.9,0.9h-16.7c-0.5,0-0.8-0.4-0.7-0.9L476.3,569.4z"/>
		<path fill="#009BDB" d="M501.8,568.9c0-0.5,0.5-0.8,1-0.8h1.2l15.1,26.3h0l3.5-25c0-0.5,0.5-0.9,1.1-0.9h1.5
			c0.5,0,0.8,0.4,0.8,0.9l-4.5,31.6c0,0.5-0.5,0.8-1,0.8h-1.2L504.2,575h-0.1l-3.4,25.4c0,0.5-0.6,0.9-1.1,0.9h-1.5
			c-0.5,0-0.8-0.4-0.8-0.9L501.8,568.9z"/>
		<path fill="#009BDB" d="M538.4,571.6h-7.2c-0.5,0-0.8-0.4-0.7-0.9l0.2-1.4c0-0.5,0.5-0.9,0.9-0.9h18c0.5,0,0.8,0.4,0.7,0.9
			l-0.2,1.4c0,0.5-0.5,0.9-0.9,0.9H542l-4,28.8c-0.1,0.5-0.5,0.9-0.9,0.9h-2c-0.4,0-0.8-0.4-0.7-0.9L538.4,571.6z"/>
		<path fill="#009BDB" d="M550.6,584.9c1.4-9.4,8.7-16.9,17.6-16.9c8.3,0,14.4,7.6,13,16.9c-1.3,9.4-8.6,16.8-17.6,16.8
			C555.4,601.8,549.3,594.3,550.6,584.9z M577.9,584.9c1.1-7.5-3.5-13.7-10.1-13.7c-6.6,0-12.8,6.2-13.9,13.7
			c-1,7.5,3.5,13.6,10.1,13.6C570.6,598.5,576.9,592.4,577.9,584.9z"/>
		<path fill="#009BDB" d="M600.5,569.4c0-0.5,0.5-0.9,0.9-0.9h16.7c0.5,0,0.8,0.4,0.7,0.9l-0.2,1.4c0,0.5-0.5,0.9-0.9,0.9h-13.9
			l-1.6,11.4H614c0.4,0,0.8,0.4,0.7,0.9l-0.2,1.4c0,0.5-0.5,0.9-0.9,0.9h-11.9l-1.7,12H614c0.5,0,0.8,0.4,0.7,0.9l-0.2,1.4
			c0,0.5-0.5,0.9-0.9,0.9h-16.7c-0.5,0-0.8-0.4-0.7-0.9L600.5,569.4z"/>
		<path fill="#009BDB" d="M639.5,571.6h-7.2c-0.5,0-0.8-0.4-0.7-0.9l0.2-1.4c0-0.5,0.5-0.9,0.9-0.9h18c0.5,0,0.8,0.4,0.7,0.9
			l-0.2,1.4c0,0.5-0.5,0.9-0.9,0.9h-7.2l-4,28.8c-0.1,0.5-0.5,0.9-0.9,0.9h-2c-0.4,0-0.8-0.4-0.7-0.9L639.5,571.6z"/>
		<path fill="#009BDB" d="M656.3,569.4c0-0.5,0.5-0.9,0.9-0.9h10.6c5.2,0,8.5,4.1,8.5,9.1c0,4.6-3.1,9-7.7,10.5l4.1,11.9
			c0.2,0.6-0.1,1.4-0.8,1.4h-2.3c-0.3,0-0.6-0.2-0.6-0.4l-3.8-12.4h-7.9l-1.7,12c0,0.5-0.5,0.9-0.9,0.9h-2c-0.5,0-0.8-0.4-0.7-0.9
			L656.3,569.4z M665.3,585.4c4,0,7.2-3.4,7.2-7.7c0-3.1-2.2-5.8-5.3-5.8h-7.6l-1.9,13.5H665.3z"/>
		<path fill="#009BDB" d="M684.8,569.4c0-0.5,0.5-0.9,0.9-0.9h16.7c0.5,0,0.8,0.4,0.7,0.9l-0.2,1.4c0,0.5-0.5,0.9-0.9,0.9H688
			l-1.6,11.4h11.9c0.4,0,0.8,0.4,0.7,0.9l-0.2,1.4c0,0.5-0.5,0.9-0.9,0.9H686l-1.7,12h13.9c0.5,0,0.8,0.4,0.7,0.9l-0.2,1.4
			c0,0.5-0.5,0.9-0.9,0.9h-16.7c-0.5,0-0.8-0.4-0.7-0.9L684.8,569.4z"/>
		<path fill="#009BDB" d="M710.2,569.4c0-0.5,0.5-0.9,0.9-0.9h2.1c0.4,0,0.8,0.4,0.7,0.9l-4.4,31.1c0,0.5-0.5,0.9-0.9,0.9h-2.1
			c-0.4,0-0.8-0.4-0.7-0.9L710.2,569.4z"/>
		<path fill="#009BDB" d="M723,568.9c0-0.5,0.5-0.8,1-0.8h1.2l15.1,26.3h0l3.5-25c0-0.5,0.5-0.9,1.1-0.9h1.5c0.5,0,0.8,0.4,0.8,0.9
			l-4.5,31.6c0,0.5-0.5,0.8-1,0.8h-1.2L725.4,575h-0.1l-3.4,25.4c0,0.5-0.6,0.9-1.1,0.9h-1.5c-0.5,0-0.8-0.4-0.8-0.9L723,568.9z"/>
		<path fill="#009BDB" d="M747.8,600.1l17.3-31.6c0.1-0.3,0.4-0.5,0.8-0.5h0.4c0.3,0,0.6,0.2,0.7,0.5l8.4,31.6
			c0.1,0.6-0.3,1.2-0.9,1.2h-2c-0.4,0-0.7-0.3-0.7-0.5l-1.9-7.7h-14.6l-4,7.7c-0.1,0.2-0.4,0.5-0.9,0.5h-2
			C747.7,601.3,747.5,600.7,747.8,600.1z M769,590.2l-3.7-15.4H765l-8,15.4H769z"/>
		<path fill="#009BDB" d="M787.7,568.7c0.1-0.5,0.5-0.7,1-0.7h0.7c0.5,0,0.8,0.2,0.8,0.5l4.6,25.8h0.1l11.9-25.8
			c0.1-0.3,0.4-0.5,0.9-0.5h0.7c0.5,0,0.8,0.3,0.8,0.7l1,31.5c0,0.7-0.4,1.1-1.1,1.1h-1.6c-0.6,0-0.8-0.3-0.8-0.7l-0.5-23.5h0
			l-11,24.1c-0.1,0.3-0.5,0.5-0.9,0.5h-0.6c-0.5,0-0.8-0.2-0.8-0.5l-4.3-24.5h0l-7.1,23.9c-0.1,0.3-0.4,0.7-1,0.7h-1.6
			c-0.7,0-0.9-0.5-0.7-1.1L787.7,568.7z"/>
		<path fill="#009BDB" d="M821.4,569.4c0-0.5,0.5-0.9,0.9-0.9H839c0.5,0,0.8,0.4,0.7,0.9l-0.2,1.4c0,0.5-0.5,0.9-0.9,0.9h-13.9
			l-1.6,11.4h11.9c0.4,0,0.8,0.4,0.7,0.9l-0.2,1.4c0,0.5-0.5,0.9-0.9,0.9h-11.9l-1.7,12h13.9c0.5,0,0.8,0.4,0.7,0.9l-0.2,1.4
			c0,0.5-0.5,0.9-0.9,0.9h-16.7c-0.5,0-0.8-0.4-0.7-0.9L821.4,569.4z"/>
		<path fill="#009BDB" d="M846.9,568.9c0-0.5,0.5-0.8,1-0.8h1.2l15.1,26.3h0l3.5-25c0-0.5,0.5-0.9,1.1-0.9h1.5
			c0.5,0,0.8,0.4,0.8,0.9l-4.5,31.6c0,0.5-0.5,0.8-1,0.8h-1.2L849.3,575h-0.1l-3.4,25.4c0,0.5-0.6,0.9-1.1,0.9h-1.5
			c-0.5,0-0.8-0.4-0.8-0.9L846.9,568.9z"/>
		<path fill="#009BDB" d="M883.5,571.6h-7.2c-0.5,0-0.8-0.4-0.7-0.9l0.2-1.4c0-0.5,0.5-0.9,0.9-0.9h18c0.5,0,0.8,0.4,0.7,0.9
			l-0.2,1.4c0,0.5-0.5,0.9-0.9,0.9h-7.2l-4,28.8c-0.1,0.5-0.5,0.9-0.9,0.9h-2c-0.4,0-0.8-0.4-0.7-0.9L883.5,571.6z"/>
		<path fill="#009BDB" d="M895.7,584.9c1.4-9.4,8.7-16.9,17.6-16.9c8.3,0,14.4,7.6,13,16.9c-1.3,9.4-8.6,16.8-17.6,16.8
			C900.5,601.8,894.4,594.3,895.7,584.9z M923,584.9c1.1-7.5-3.5-13.7-10.1-13.7c-6.6,0-12.8,6.2-13.9,13.7
			c-1,7.5,3.5,13.6,10.1,13.6C915.7,598.5,922,592.4,923,584.9z"/>
	</g>
	
		<path fill="none" stroke="#040600" stroke-width="61.2495" stroke-linecap="round" stroke-linejoin="round" stroke-miterlimit="10" d="
		M443.2,252.7"/>
	<path fill="#5B5B5F" d="M276.3,332.1c21.6-39.4,63.5-65.5,105.7-65.5c16.8,0,32.2,4,44.7,12.1c14.2,9.2,33.2,5,42.4-9.2
		c9.2-14.2,5.1-33.2-9.1-42.4c-22.4-14.5-49.4-22.3-78-22.3c-41.4,0-82.8,16.4-116.5,45.3c-26.2,22.4-45.6,50-56.2,82
		C221.4,332.1,262.6,332.1,276.3,332.1z"/>
	<path fill="#009BDB" d="M511.2,348.6c-5.8-6.9-14.4-10.6-23.4-10.6H275.4h-2.5h-65.7H206h-30.8l57.3-200.2c4.7-16.3-4.7-33.4-21-38
		c-16.3-4.7-33.2,4.7-37.9,20.9l-68.5,238.9c-2.6,9.2-0.8,19.3,5,27c5.8,7.7,14.8,12.3,24.5,12.3h65.3h0.9h61.6h0.8h181.4
		c-21.2,37-62.9,63.7-106.1,63.7c-23.9,0-44.3-9.3-58.4-26.1c-7.8-9.2-12.7-20.1-15.3-32.1c-21.3,0-53.6,0-63.2,0
		c3.4,27.6,14.1,51.5,31.2,71.7c26,30.8,63.6,47.7,105.8,47.7c41.3,0,82.6-15.5,116.2-43.7c33.8-28.2,56.3-66.1,63.3-106.7
		C519.4,364.6,517,355.5,511.2,348.6z"/>
</g>
</svg>
