<?xml version="1.0" encoding="utf-8"?>
<!-- Generator: Adobe Illustrator 17.1.0, SVG Export Plug-In . SVG Version: 6.00 Build 0)  -->
<!DOCTYPE svg PUBLIC "-//W3C//DTD SVG 1.1//EN" "http://www.w3.org/Graphics/SVG/1.1/DTD/svg11.dtd">
<svg version="1.1" id="Camada_1" xmlns="http://www.w3.org/2000/svg" xmlns:xlink="http://www.w3.org/1999/xlink" x="0px" y="0px"
	 width="191.2px" height="54.8px" viewBox="0 0 191.2 54.8" enable-background="new 0 0 191.2 54.8" xml:space="preserve">
<g>
	<polygon fill="#FB0F0C" points="26.5,38.5 26.5,38.5 26.8,39 26.8,39 27,39 27,39 27,39 27.8,39 27.8,39 28,39 28,39 28,39 
		28.5,38.5 28.5,38.5 33.5,26.2 33.5,26.2 33.5,26.2 33.8,25.8 34,26.2 34,26.2 34,34 34,34 34,34 33.8,34.5 33.8,34.8 33.5,35 
		33,35.2 33,35.2 32.8,35.2 32.5,35.5 32.2,36.5 32.2,36.5 32.2,39.8 40.5,39.8 40.5,37.5 40.5,36.5 40.5,36.5 40.5,36.5 40.5,36 
		40.2,35.5 40,35.2 39.8,35.2 39.8,35.2 39,35 38.8,34.2 38.8,34.2 38.8,21.5 38.8,21.5 39,20.8 39.2,20.5 39.8,20.2 39.8,20.2 
		40,20.2 40.2,20 40.5,19 40.5,19 40.5,15.5 33,15.5 27.2,29 21.8,15.5 14,15.5 14,19 14,19 14,19 14.2,20 14.5,20.2 14.8,20.2 
		14.8,20.2 15.2,20.5 15.5,20.8 15.8,21.5 15.8,21.5 15.8,34 15.8,34 15.8,34 15.5,34.8 15.2,35 14.8,35.2 14.8,35.2 14.5,35.2 
		14.2,35.5 14,36.5 14,36.5 14,39.8 22.2,39.8 22.2,36.5 22.2,36.5 22.2,36.5 22,35.5 21.8,35.2 21.5,35.2 21.5,35.2 21.2,35 
		20.8,34.8 20.8,34.5 20.5,34 20.5,34 20.5,26.2 20.5,26.2 20.5,26.2 20.8,25.8 21.2,26.2 21.2,26.2 26.5,38.5 26.5,38.5 	"/>
	<path fill="#FB0F0C" d="M27.5,0L27.5,0l2.8,0.2L33,0.5l2.5,0.8l2.5,1l2.5,1l2.2,1.5l2,1.5l2,1.8l1.8,2l1.5,2l1.5,2.2l1,2.5l1,2.5
		l0.8,2.8l0.5,2.5v3l0,0v2.8L54.2,33l-0.8,2.5l-1,2.5l-1,2.5L50,42.8l-1.5,2l-1.8,2l-2,1.8l-2,1.5l-2.2,1.5L38,52.8l-2.5,0.8
		L33,54.2l-2.8,0.5h-2.8l0,0h-3L22,54.2l-2.8-0.8l-2.5-0.8l-2.5-1.2L12,50l-2-1.5l-2-1.8l-1.8-2l-1.5-2l-1.5-2.2l-1-2.5l-1-2.5
		L0.5,33l-0.2-2.8L0,27.5l0,0l0.2-3L0.5,22l0.8-2.8l1-2.5l1-2.5L4.8,12l1.5-2L8,8l2-1.8l2-1.5l2.2-1.5l2.5-1l2.5-1L22,0.5l2.5-0.2
		L27.5,0L27.5,0L27.5,0z M27.5,5.5L27.5,5.5h-2.2L23,6l-2,0.5l-2.2,0.8L17,8l-1.8,1.2l-1.8,1.2L12,12l-1.5,1.5l-1.2,1.8L8,17
		l-0.8,1.8L6.5,21L6,23l-0.5,2.2v2.2l0,0v2.2l0.5,2L6.5,34l0.8,2L8,37.8l1.2,2l1.2,1.5L12,43l1.5,1.2l1.8,1.2l1.8,1.2l1.8,0.8
		l2.2,0.8l2,0.8l2.2,0.2h2.2l0,0h2.2l2-0.2l2.2-0.8l2-0.8l1.8-0.8l2-1.2l1.5-1.2L43,43l1.2-1.8l1.2-1.5l1.2-2l0.8-1.8l0.8-2l0.8-2.2
		l0.2-2v-2.2l0,0v-2.2L49,23l-0.8-2l-0.8-2.2L46.8,17l-1.2-1.8l-1.2-1.8L43,12l-1.8-1.5l-1.5-1.2l-2-1.2L36,7.2l-2-0.8L31.8,6
		l-2-0.5H27.5L27.5,5.5L27.5,5.5z"/>
	<polygon fill="#FB0F0C" points="68.5,36.2 68.5,18.5 74,18.5 77.2,30.8 80.5,18.5 86,18.5 86,36.2 82.5,36.2 82.5,22.2 79,36.2 
		75.5,36.2 72,22.2 72,36.2 68.5,36.2 	"/>
	<path fill="#FB0F0C" d="M92.2,27.2L89,26.8l0,0l0.8-1.8l0.5-0.5l0.5-0.5l0,0l0.8-0.5l1-0.2l2-0.2l0,0l2.2,0.2l1.2,0.2l0,0l1,0.8
		l0.8,0.8l0,0l0.2,1.2V28v4l0,0l0.2,2.5l0,0l0.5,1.8h-3.2l0,0l-0.5-1l0,0V35l0,0l-1,0.8l-1,0.5l0,0l-1,0.2l-1,0.2l0,0l-1-0.2
		l-0.8-0.2L90.5,36l-0.8-0.5l0,0L89.2,35L89,34.2l-0.2-0.8v-0.8l0,0v-1l0.5-1l0,0l0.5-0.8l1-0.5l0,0l1-0.5l1.8-0.2l0,0l2-0.5
		l1.2-0.5v-0.2l0,0l-0.2-0.8L96.2,26l0,0l-0.8-0.2h-1l0,0h-1L93,26l0,0l-0.5,0.5L92.2,27.2L92.2,27.2L92.2,27.2z M96.8,30L96.8,30
		l-2.2,0.8l0,0l-1,0.2l-0.8,0.2l0,0l-0.5,0.5L92,32.5l0,0l0.2,0.5l0.5,0.8l0,0l0.5,0.2l0.8,0.2l0,0l1-0.2l0.8-0.5l0,0l0.5-0.5
		l0.2-0.5l0,0l0.2-1.8V30L96.8,30z"/>
	<polygon fill="#FB0F0C" points="114.8,27.2 111.5,27.8 111.5,27.8 111.2,27 110.8,26.2 110.8,26.2 110,25.8 109,25.8 109,25.8 
		108,26 107,26.8 107,26.8 106.5,27.8 106.2,29.5 106.2,29.5 106.5,31.5 107,33 107,33 108,33.5 109.2,33.8 109.2,33.8 110,33.8 
		110.8,33.2 110.8,33.2 111.2,32.5 111.8,31.2 115,32 115,32 114.8,33 114.2,34 113.8,34.8 113,35.5 113,35.5 112.2,36 111.2,36.2 
		110.2,36.5 109,36.8 109,36.8 107.8,36.5 106.5,36.2 105.2,35.8 104.5,34.8 104.5,34.8 103.8,33.8 103.2,32.8 102.8,31.2 
		102.8,29.8 102.8,29.8 102.8,28.2 103.2,27 103.8,25.8 104.5,24.8 104.5,24.8 105.2,24 106.5,23.5 107.8,23.2 109,23 109,23 
		111.2,23.2 112,23.5 112.8,24 112.8,24 113.5,24.8 114,25.2 114.8,27.2 114.8,27.2 	"/>
	<polygon fill="#FB0F0C" points="117.2,36.2 117.2,18.5 120.8,18.5 120.8,28 124.8,23.2 129,23.2 124.5,28 129.2,36.2 125.8,36.2 
		122.2,30.5 120.8,32.2 120.8,36.2 117.2,36.2 	"/>
	<path fill="#FB0F0C" d="M139,32.2l3.5,0.5l0,0l-1,1.8l-1.2,1.2l0,0l-0.8,0.2l-0.8,0.5l-2,0.2l0,0l-1.8-0.2l-1.2-0.5l-1.2-0.5
		l-0.8-1l0,0l-0.8-1l-0.2-1l-0.2-1.2V30l0,0v-1.5l0.2-1.5l0.5-1.2l0.8-1l0,0l1-0.8l1-0.5l1-0.2l1.2-0.2l0,0l1.5,0.2l1.2,0.2l1,0.5
		l1,1l0,0l0.8,1l0.5,1.2l0.2,1.8v1.8H134l0,0l0.2,1.5l0.5,1l0,0l1,0.5l1,0.2l0,0h0.8l0.5-0.2l0,0l0.5-0.8L139,32.2L139,32.2
		L139,32.2z M139.2,28.8L139.2,28.8l-0.2-1.2l-0.8-1l0,0l-0.8-0.8h-1l0,0l-1,0.2l-0.8,0.5l0,0l-0.5,1l-0.2,1.2H139.2L139.2,28.8z"/>
	<polygon fill="#FB0F0C" points="157.2,36.2 153.8,36.2 153.8,29.8 153.8,29.8 153.8,28 153.5,27 153.5,27 153.2,26.5 152.8,26 
		152.8,26 152.2,25.8 151.5,25.8 151.5,25.8 150.8,25.8 150,26.2 150,26.2 149.5,26.8 149,27.5 149,27.5 148.8,28.5 148.8,30.5 
		148.8,36.2 145.2,36.2 145.2,23.2 148.5,23.2 148.5,25.2 148.5,25.2 149.5,24.2 150.5,23.5 151.5,23.2 152.8,23 152.8,23 154,23.2 
		155,23.5 155,23.5 155.8,24 156.2,24.5 156.2,24.5 156.8,25.2 157,26 157,26 157.2,27 157.2,28.2 157.2,36.2 	"/>
	<polygon fill="#FB0F0C" points="159.2,36.2 159.2,33.8 164.2,28 164.2,28 166,26 166,26 164.2,26.2 159.8,26.2 159.8,23.2 
		170.5,23.2 170.5,25.8 165.5,31.5 163.8,33.5 163.8,33.5 165.5,33.2 171,33.2 171,36.2 159.2,36.2 	"/>
	<path fill="#FB0F0C" d="M173.2,21.5v-3h3.5v3H173.2L173.2,21.5L173.2,21.5z M173.2,36.2v-13h3.5v13H173.2L173.2,36.2z"/>
	<path fill="#FB0F0C" d="M187.8,32.2l3.5,0.5l0,0l-1,1.8l-0.5,0.5l-0.8,0.8l0,0l-0.8,0.2l-0.8,0.5l-2,0.2l0,0l-1.8-0.2l-1.2-0.5
		l-1.2-0.5l-0.8-1l0,0l-0.8-1l-0.2-1l-0.2-1.2V30l0,0v-1.5l0.2-1.5l0.5-1.2l0.8-1l0,0l1-0.8l1-0.5l1.2-0.2l1-0.2l0,0l1.5,0.2
		l1.2,0.2l1,0.5l1,1l0,0l0.8,1l0.5,1.2l0.2,1.8v1.8h-8.5l0,0l0.2,1.5l0.5,1l0,0l1,0.5l1,0.2l0,0h0.8l0.5-0.2l0,0l0.5-0.8L187.8,32.2
		L187.8,32.2L187.8,32.2z M188,28.8L188,28.8l-0.2-1.2l-0.8-1l0,0l-0.8-0.8h-1l0,0l-1,0.2l-0.8,0.5l0,0l-0.5,1l-0.2,1.2H188
		L188,28.8z"/>
</g>
</svg>
