<svg xmlns="http://www.w3.org/2000/svg" viewBox="0 0 480 100"><path d="M16 0c-8.845 0-16 7.156-16 16v68c0 8.845 7.155 16 16 16h68c8.844 0 16-7.155 16-16v-68c0-8.845-7.156-16-16-16zm291 0c-3.404 0-5 .883-5 2.625v70.969c0 6.103 1.558 10.365 4.688 12.781 3.129 2.418 6.693 3.625 10.656 3.625 5.782 0 8.656-1.185 8.656-3.563 0-.791-.243-1.908-.719-3.375-.476-1.466-1.068-2.219-1.781-2.219-.159 0-.705.115-1.656.313-.951.199-2.091.281-3.438.281-4.278 0-6.406-2.916-6.406-8.781v-70.031c0-1.742-1.597-2.625-5-2.625zm-287.531 10l2.5 6.5 6.969.375-5.406 4.406 1.781 6.719-5.844-3.781-5.844 3.781 1.781-6.719-5.406-4.406 6.969-.375zm61.844 0c5.882 0 8.687 3.214 8.687 9.094v61.813c0 5.88-2.803 9.093-8.687 9.093h-61.813c-5.881 0-9.5-3.213-9.5-9.093.108-36.121 33.776-71.017 71.313-70.906zm64.844 16.406c-7.528 0-13.895 2.112-19.125 6.313-2.774 2.3-4.971 5.597-6.594 9.875-1.624 4.279-2.438 9.37-2.438 15.313 0 11.252 2.417 19.429 7.25 24.5 4.832 5.071 12.175 7.593 22 7.593 4.991 0 9.338-.66 13.063-1.968 3.723-1.307 5.594-2.668 5.594-4.094 0-.951-.486-2.205-1.438-3.75-.951-1.546-1.834-2.313-2.625-2.313-.08 0-.254.069-.531.188-.278.118-.512.203-.75.281-4.12 2.061-8.605 3.094-13.438 3.094-6.656 0-11.407-1.869-14.219-5.594-2.814-3.723-4.906-9.756-4.906-18.156 0-15.133 6.447-22.719 17.938-22.719 4.357 0 8.659.943 12.938 2.844.158.081.319.147.438.188l.469.188c.197.08.326.125.406.125.713 0 1.524-.813 2.438-2.438.91-1.624 1.375-2.97 1.375-4 0-1.426-1.825-2.671-5.469-3.781-3.646-1.108-7.781-1.688-12.375-1.688zm57.719 0c-6.497 0-12.052.858-16.688 2.563-4.636 1.704-6.969 3.4-6.969 5.063 0 .791.507 1.976 1.5 3.563.989 1.586 1.862 2.375 2.656 2.375.158 0 1.086-.441 2.75-1.313 4.832-2.455 10.107-3.688 15.813-3.688 8.715 0 13.062 3.314 13.062 9.969v5.594c-6.893.159-13.048.578-18.437 1.25-5.389.675-10.212 2.59-14.531 5.719-4.319 3.131-6.5 7.804-6.5 14.063 0 6.261 1.869 10.896 5.594 13.906 3.723 3.014 8.649 4.53 14.75 4.53 7.52 0 13.886-2.674 19.124-8.03v5.406c0 1.742 1.596 2.631 5 2.624 3.404-.007 5.001-.881 5-2.624v-42.313c.001-5.864-2.067-10.431-6.187-13.719-4.121-3.287-9.441-4.938-15.938-4.938zm62.094 0c-8.638 0-15.295 2.752-19.969 8.219-4.676 5.467-7.001 13.486-7.001 24.063 0 10.577 2.372 18.444 7.126 23.594 4.754 5.152 12.095 7.717 22 7.718 5.625 0 10.587-.88 14.906-2.624 4.318-1.742 6.469-3.383 6.469-4.969 0-.792-.479-2.008-1.469-3.594-.992-1.584-1.897-2.375-2.688-2.375-.16 0-.996.397-2.5 1.188-4.516 2.537-9.457 3.813-14.844 3.813-5.865 0-10.257-1.535-13.188-4.625-2.933-3.09-4.649-7.235-5.125-13.814h37.563c2.776-.908 3.78-2.626 3.938-5.562 0-20.68-8.422-31.031-25.219-31.031zm73.031.406c-3.404 0-5.001.884-5.001 2.625v41.25c0 6.024 2.711 10.721 6.157 14.125 3.447 3.409 8.463 5.125 15 5.125 6.212 0 11.741-2.697 16.843-8.063v5.5c0 1.741 1.684 2.626 5 2.626s5-.781 5-2.345v-58.219c0-1.741-1.531-2.625-4.937-2.625-3.405 0-5.063.884-5.063 2.625v43.5c-4.278 5.549-9.201 8.313-14.906 8.313-3.883 0-6.871-1.011-8.969-3.031-2.1-2.021-4.125-4.853-4.125-8.5v-40.281c0-1.741-1.596-2.625-5-2.625zm63.999.094c-3.404 0-5 .851-5 2.594v57.875c0 1.744 1.595 2.625 5 2.625 3.405 0 5.001-.88 5-2.625v-43.594l1.782-2.031c1.109-1.426 2.864-2.807 5.281-4.156 2.418-1.346 5.183-2.031 8.313-2.031 3.129 0 5.653 1.033 7.594 3.094 1.94 2.062 3.03 4.87 3.03 8.438v40.281c0 1.744 1.595 2.624 5 2.624 3.405 0 5-.879 5-2.624-.117-14.486.158-29.18 0-43.594 4.832-5.466 9.461-8.219 14.376-8.219 3.723 0 6.556 1.033 8.5 3.094 1.94 2.062 3.124 4.87 3.124 8.438v40.281c0 1.744 1.362 2.624 4.782 2.624s5.218-.879 5.218-2.624v-41.219c0-3.802-.811-7.055-1.999-9.75-1.189-2.692-2.8-4.713-4.781-6.063-3.565-2.298-7.576-3.438-12.094-3.438-7.052 0-13.361 3.268-18.906 9.844-2.695-6.576-8.364-9.844-17-9.844-6.527 0-12.258 2.642-17.22 7.969v-5.375c0-1.743-1.596-2.594-5-2.594zm-136.655 8.063c9.508 0 14.25 6.512 14.25 19.031h-30.906c.871-12.519 6.435-19.031 16.656-19.031zm-50.344 24.125l-.001 14.031c-2.932 2.616-5.812 4.636-8.624 6.063-2.813 1.426-6.151 2.125-10.031 2.125-6.736 0-10.094-3.251-10.094-9.75 0-4.118 1.625-6.991 4.875-8.656 1.665-.869 3.244-1.602 4.75-2.156 2.853-1.109 9.218-1.656 19.124-1.656z"/></svg>